<svg width="15" height="14" viewBox="0 0 15 14" fill="none" xmlns="http://www.w3.org/2000/svg">
<path d="M8.04422 2.98666C9.0288 3.98374 10.0046 4.97208 10.9892 5.96916C10.9411 6.01726 10.9017 6.061 10.8623 6.10473C8.97192 7.99394 7.08153 9.88315 5.19113 11.7724C5.09924 11.8642 4.99422 11.9517 4.88044 12.0085C3.60268 12.647 2.32054 13.2811 1.0384 13.9108C0.710204 14.0726 0.360132 13.9983 0.154464 13.7272C-0.0336999 13.4823 -0.0424517 13.2155 0.0932014 12.9444C0.508913 12.1091 0.920248 11.2738 1.33596 10.4385C1.55038 10.0056 1.7648 9.56828 1.98359 9.13534C2.04048 9.02163 2.11925 8.90793 2.20676 8.81609C4.12341 6.89627 6.04006 4.98082 7.95671 3.06537C7.98296 3.03913 8.00922 3.01727 8.04422 2.98666Z" fill="#A0A0A0"/>
<path d="M12.0133 4.95459C11.02 3.96187 10.0354 2.97791 9.05957 2.00269C9.57155 1.47791 10.0879 0.944385 10.6174 0.423978C10.7268 0.314648 10.8799 0.249051 11.0244 0.183453C11.9433 -0.231998 13.0329 0.078497 13.6105 0.9094C14.1881 1.73593 14.1006 2.85109 13.4005 3.57266C12.941 4.03622 12.4728 4.4954 12.0133 4.95459Z" fill="#A0A0A0"/>
<path d="M10.1356 13.9983C9.13353 13.9983 8.13582 13.9983 7.13374 13.9983C7.02434 13.9983 6.91057 13.9983 6.80992 13.9721C6.49485 13.8933 6.28043 13.5829 6.30231 13.2592C6.32419 12.9181 6.56924 12.647 6.90181 12.6076C6.97183 12.5989 7.04184 12.5945 7.11623 12.5945C9.1379 12.5945 11.1639 12.5945 13.1856 12.5945C13.2906 12.5945 13.3957 12.5989 13.4963 12.6208C13.8114 12.6995 14.0258 13.01 14.0039 13.3336C13.982 13.6747 13.737 13.9458 13.4044 13.9852C13.3213 13.9939 13.2425 13.9983 13.1594 13.9983C12.1442 13.9983 11.1377 13.9983 10.1356 13.9983Z" fill="#A0A0A0"/>
</svg>
