<svg width="19" height="16" viewBox="0 0 19 16" fill="none" xmlns="http://www.w3.org/2000/svg">
<path d="M19 5.82778C19 5.13651 19 4.44044 19 3.74918C19 2.76028 18.6111 1.82418 17.8966 1.11371C17.1821 0.393639 16.2343 0 15.2233 0H15.1941C14.5379 0.00480048 13.8331 0.00960096 12.9776 0.00960096C12.3992 0.00960096 11.8208 0.00960096 11.2424 0.00960096C10.6639 0.00960096 10.0855 0.00960096 9.5071 0.00960096C9.5071 0.00960096 4.97209 0.00960096 3.7472 0.00960096C3.57707 0.00960096 3.42639 0.0192019 3.28057 0.0432043C1.63766 0.283228 0.388471 1.45935 0.101691 3.0291C-0.0246865 3.71077 -0.00524376 4.39724 0.0141989 5.05971C0.0239203 5.38614 0.0336416 5.71737 0.0239203 6.0438C0.0190596 6.16862 0.057945 6.28863 0.130855 6.37984C0.0628057 6.47105 0.0190596 6.59106 0.0190596 6.72547V6.74467C0.0190596 6.84548 0.0141989 6.94629 0.0190596 7.05191C0.0239203 7.18632 0.0676664 7.30153 0.140577 7.38794C0.0676664 7.48875 0.0190596 7.63276 0.0190596 7.81038C0.0190596 7.9832 0.0190596 8.15122 0.0190596 8.32403C0.0190596 8.61686 0.0190596 8.91929 0.0190596 9.21212C0.0190596 9.47615 0.0239203 9.75938 0.0822484 10.0474C0.45166 11.886 1.97305 13.1197 3.86872 13.1197C4.99639 13.1197 6.12893 13.1197 7.25661 13.1197C9.40989 13.1197 11.3201 13.1197 13.104 13.1149C13.2109 13.6766 13.3276 14.243 13.4442 14.7951L13.4929 15.0207C13.6046 15.5584 13.9838 15.9232 14.5087 15.9904C14.5622 16 14.6157 16 14.674 16C15.1163 16 15.5003 15.7552 15.7336 15.3279C15.7725 15.2559 15.8114 15.1791 15.8503 15.1023C15.9183 14.9727 15.9815 14.8527 16.0496 14.7327C16.2294 14.4206 16.487 14.2718 16.8467 14.267C16.905 14.267 16.9634 14.267 17.0168 14.267C17.0849 14.267 17.1481 14.267 17.2161 14.267C17.2842 14.267 17.3522 14.267 17.4203 14.267C17.4494 14.267 17.4835 14.267 17.5126 14.267C18.0619 14.2622 18.5091 13.9598 18.6792 13.4797C18.8445 13.0045 18.6938 12.5149 18.2758 12.1644C18.2466 12.1404 18.2174 12.1164 18.1883 12.0924C18.1202 12.0348 18.0473 11.9772 17.9744 11.9196C18.6549 11.1995 19 10.3306 19 9.32733C19 8.17522 19 6.9991 19 5.82778ZM14.6254 14.9007C14.5962 14.8719 14.5719 14.7375 14.5622 14.6943C14.3775 13.7678 14.1879 12.8269 14.0032 11.9148C13.9109 11.4539 13.8137 10.9931 13.7213 10.5323C13.7116 10.4794 13.7602 10.3546 13.8477 10.3066C13.906 10.273 13.9643 10.2538 14.0129 10.2538C14.0372 10.2538 14.081 10.2586 14.1345 10.3018C14.4164 10.5179 14.6983 10.7435 14.9754 10.9643C15.0677 11.0363 15.1601 11.1131 15.2476 11.1851C15.5295 11.4107 15.8163 11.6412 16.0982 11.8668C16.5697 12.2412 17.0363 12.6205 17.5078 12.9949C17.6196 13.0813 17.6293 13.1053 17.6293 13.1245C17.6293 13.1725 17.5661 13.1821 17.5321 13.1869C17.5126 13.1869 17.4883 13.1869 17.4689 13.1869C17.4446 13.1869 17.4203 13.1869 17.396 13.1869C17.3668 13.1869 17.3425 13.1869 17.3133 13.1869H17.1092C17.0314 13.1821 16.9537 13.1773 16.8807 13.1773C16.2732 13.1773 15.7579 13.3981 15.3448 13.8302C15.126 14.0606 14.9948 14.3198 14.8733 14.5743C14.849 14.6223 14.8247 14.6751 14.8004 14.7231C14.7761 14.7759 14.7129 14.8959 14.6789 14.9151C14.6789 14.9151 14.674 14.9151 14.6691 14.9151C14.6643 14.9151 14.6594 14.9151 14.6497 14.9151C14.6351 14.9055 14.6254 14.9007 14.6254 14.9007ZM12.6131 10.7771C12.686 11.1611 12.7735 11.5932 12.8707 12.03C11.325 12.03 9.63348 12.0252 7.56769 12.0252C6.41571 12.0252 5.26373 12.0252 4.11175 12.0252H3.86385C3.67429 12.0252 3.50903 12.0108 3.35348 11.9772C2.0168 11.7132 1.14674 10.6667 1.14674 9.31293C1.14674 9.06811 1.14674 8.81848 1.14674 8.57366C1.14674 8.32403 1.14674 8.06961 1.14674 7.81998C1.14674 7.62796 1.09813 7.48875 1.02522 7.38794C1.06411 7.33993 1.09327 7.28233 1.11757 7.21992H1.1516V7.0327C1.1516 6.9943 1.1516 6.9559 1.1516 6.92229V6.91749C1.1516 6.91749 1.1516 6.76868 1.1516 6.73987C1.1516 6.59586 1.10785 6.47105 1.03494 6.37504C1.09327 6.29823 1.13215 6.20222 1.14674 6.08701C1.15646 6.0294 1.1516 5.9766 1.1516 5.93339C1.1516 5.92379 1.1516 5.90939 1.1516 5.89979C1.1516 5.67417 1.1516 5.45335 1.1516 5.22772C1.1516 4.73327 1.1516 4.22442 1.15646 3.72517C1.16132 3.15392 1.3363 2.64506 1.68627 2.16502L1.90014 2.34743C3.32918 3.53795 4.80683 4.76688 6.27475 5.9622C7.2323 6.74467 8.31137 7.13831 9.46821 7.13831C9.92026 7.13831 10.3869 7.07591 10.8632 6.9607C11.8062 6.72547 12.5596 6.16862 13.172 5.65497C14.0907 4.88209 15.0337 4.10441 15.9426 3.35554C16.419 2.9619 16.8953 2.56826 17.3717 2.17462C17.7168 2.63066 17.8918 3.12511 17.8918 3.64837C17.9063 5.93819 17.9063 7.79118 17.8918 9.49055C17.8869 10.1386 17.6293 10.7291 17.1286 11.2379C16.9537 11.0891 16.7738 10.9451 16.594 10.8107C16.5016 10.7387 16.4141 10.6667 16.3218 10.5947C16.1662 10.4698 16.0107 10.345 15.86 10.2202C15.5489 9.9706 15.2281 9.71137 14.9073 9.45695C14.6448 9.25053 14.3338 9.14011 14.0129 9.14011C13.7651 9.14011 13.5172 9.20732 13.2984 9.33693C12.7735 9.63456 12.5013 10.2106 12.6131 10.7771ZM4.58323 1.10891H4.59296C6.44001 1.10891 8.28221 1.10891 10.1244 1.10891C11.7965 1.10891 13.4734 1.10891 15.1455 1.10891C15.6316 1.10891 16.0885 1.22412 16.5016 1.44494C15.6607 2.13621 14.815 2.83708 13.9886 3.51395C13.6678 3.77798 13.347 4.042 13.0262 4.30603C12.9193 4.39244 12.8172 4.47885 12.7151 4.56526C12.4575 4.78128 12.1951 5.0021 11.9277 5.20852C11.1986 5.77498 10.3966 6.0294 9.33211 6.0294H9.29323C8.46691 6.0294 7.58713 5.65017 6.74137 4.93489C5.83243 4.16682 4.90404 3.40354 3.99995 2.65947C3.60624 2.33303 3.20766 2.0114 2.81395 1.68497C2.7459 1.62736 2.67785 1.56976 2.6098 1.51695C2.58064 1.49295 2.55147 1.46895 2.52231 1.44494C2.82367 1.28173 3.13961 1.18092 3.48472 1.13771C3.69859 1.10891 3.91732 1.10891 4.10203 1.10891C4.1798 1.10891 4.25757 1.10891 4.3402 1.10891C4.42283 1.10891 4.50546 1.10891 4.58323 1.10891Z" fill="#F06767"/>
</svg>
