<svg width="19" height="17" viewBox="0 0 19 17" fill="none" xmlns="http://www.w3.org/2000/svg">
<path d="M5.22053 9.1956L5.60454 9.12814C5.84844 9.08662 6.03007 9.03473 6.18575 8.96208L6.20651 8.9517L6.22727 8.94651C6.83962 8.73894 7.3845 8.39644 7.85155 7.91901C8.95689 6.79291 9.3928 5.50076 9.18522 3.96988C9.00878 2.68292 8.37568 1.63985 7.30147 0.861439C6.51788 0.290606 5.6253 0 4.64969 0C4.4006 0 4.13594 0.0207576 3.87129 0.0570833C3.39905 0.124545 3.03579 0.238712 2.74 0.409962L2.66216 0.456666L2.57913 0.467045C1.25064 1.17799 0.435909 2.21587 0.103788 3.64295C0.093409 3.68447 0.0882197 3.73636 0.0778409 3.78826C0.0622727 3.89204 0.0467045 4.01659 0 4.15151V5.05966C0.0207576 5.11674 0.0363257 5.1842 0.0415151 5.25685C0.192007 6.24803 0.607159 7.10947 1.27659 7.81003C1.89413 8.45352 2.6414 8.88943 3.50284 9.10219C3.95432 9.21636 4.02178 9.54329 4.01659 9.73011C4.0114 10.4826 4.0114 11.2454 4.0114 11.9875V12.0809C4.0114 12.3456 3.90761 12.5064 3.81939 12.5947C3.73117 12.6829 3.57549 12.7867 3.32121 12.7867C3.31083 12.7867 3.30564 12.7867 3.29526 12.7867C3.23818 12.7867 3.1811 12.7867 3.12401 12.7867C3.06693 12.7867 3.00985 12.7867 2.95276 12.7919C2.65697 12.8022 2.38712 13.0306 2.36636 13.2952C2.33523 13.6533 2.50648 13.9024 2.84379 13.9802C2.89049 13.9906 2.94757 13.9958 3.0306 13.9958C3.07212 13.9958 3.11364 13.9958 3.14996 13.9958C3.19667 13.9958 3.24337 13.9958 3.29526 13.9958C3.51322 13.9958 3.68966 14.0633 3.81939 14.1982C3.90761 14.2916 4.0114 14.4525 4.0114 14.7223C4.00621 14.9299 4.00621 15.1738 4.0114 15.4229C4.02178 15.7394 4.13595 15.9211 4.40579 16.0352C4.48363 16.0664 4.55629 16.0767 4.63413 16.0767C4.78462 16.0767 4.92992 16.0145 5.04409 15.9003C5.15307 15.7913 5.21534 15.646 5.21015 15.5059C5.21015 15.3865 5.21015 15.2672 5.21015 15.153C5.21015 15.0285 5.21015 14.9091 5.21015 14.7898C5.20496 14.5666 5.26204 14.3798 5.38659 14.2241L5.45924 14.1307L5.56822 14.084C5.72909 14.0114 5.87958 14.0062 5.97818 14.0062C6.0145 14.0062 6.05602 14.0062 6.09235 14.0114C6.11829 14.0114 6.14424 14.0114 6.165 14.0114C6.18575 14.0114 6.19613 14.0114 6.20132 14.0114L6.23765 14.0062H6.28954C6.59053 14.0062 6.83443 13.783 6.88632 13.4613C6.92265 13.207 6.70988 12.906 6.44003 12.8334C6.36219 12.8126 6.26878 12.8074 6.17538 12.8074C6.13905 12.8074 6.10791 12.8074 6.07159 12.8074C6.03526 12.8074 5.99375 12.8074 5.95742 12.8074H5.91591C5.50076 12.8022 5.21015 12.5116 5.21015 12.1017C5.21015 11.4893 5.21015 10.8822 5.21534 10.2698L5.22053 9.1956ZM4.62375 8.16291C2.6414 8.16291 1.08458 6.6061 1.08458 4.62375C1.06901 3.7156 1.42708 2.80746 2.08095 2.13803C2.74 1.45822 3.63776 1.08458 4.60818 1.0742H4.63413C5.58897 1.0742 6.47636 1.44265 7.1406 2.10689C7.80485 2.77632 8.1681 3.67409 8.1681 4.63413C8.15772 6.61647 6.60091 8.16291 4.62375 8.16291Z" fill="#F06767"/>
<path d="M5.22053 9.1956L5.60454 9.12814C5.84844 9.08662 6.03007 9.03473 6.18575 8.96208L6.20651 8.9517L6.22727 8.94651C6.83962 8.73894 7.3845 8.39644 7.85155 7.91901C8.95689 6.79291 9.3928 5.50076 9.18522 3.96988C9.00878 2.68292 8.37568 1.63985 7.30147 0.861439C6.51788 0.290606 5.6253 0 4.64969 0C4.4006 0 4.13594 0.0207576 3.87129 0.0570833C3.39905 0.124545 3.03579 0.238712 2.74 0.409962L2.66216 0.456666L2.57913 0.467045C1.25064 1.17799 0.435909 2.21587 0.103788 3.64295C0.093409 3.68447 0.0882197 3.73636 0.0778409 3.78826C0.0622727 3.89204 0.0467045 4.01659 0 4.15151V5.05966C0.0207576 5.11674 0.0363257 5.1842 0.0415151 5.25685C0.192007 6.24803 0.607159 7.10947 1.27659 7.81003C1.89413 8.45352 2.6414 8.88943 3.50284 9.10219C3.95432 9.21636 4.02178 9.54329 4.01659 9.73011C4.0114 10.4826 4.0114 11.2454 4.0114 11.9875V12.0809C4.0114 12.3456 3.90761 12.5064 3.81939 12.5947C3.73117 12.6829 3.57549 12.7867 3.32121 12.7867C3.31083 12.7867 3.30564 12.7867 3.29526 12.7867C3.23818 12.7867 3.1811 12.7867 3.12401 12.7867C3.06693 12.7867 3.00985 12.7867 2.95276 12.7919C2.65697 12.8022 2.38712 13.0306 2.36636 13.2952C2.33523 13.6533 2.50648 13.9024 2.84379 13.9802C2.89049 13.9906 2.94757 13.9958 3.0306 13.9958C3.07212 13.9958 3.11364 13.9958 3.14996 13.9958C3.19667 13.9958 3.24337 13.9958 3.29526 13.9958C3.51322 13.9958 3.68966 14.0633 3.81939 14.1982C3.90761 14.2916 4.0114 14.4525 4.0114 14.7223C4.00621 14.9299 4.00621 15.1738 4.0114 15.4229C4.02178 15.7394 4.13595 15.9211 4.40579 16.0352C4.48363 16.0664 4.55629 16.0767 4.63413 16.0767C4.78462 16.0767 4.92992 16.0145 5.04409 15.9003C5.15307 15.7913 5.21534 15.646 5.21015 15.5059C5.21015 15.3865 5.21015 15.2672 5.21015 15.153C5.21015 15.0285 5.21015 14.9091 5.21015 14.7898C5.20496 14.5666 5.26204 14.3798 5.38659 14.2241L5.45924 14.1307L5.56822 14.084C5.72909 14.0114 5.87958 14.0062 5.97818 14.0062C6.0145 14.0062 6.05602 14.0062 6.09235 14.0114C6.11829 14.0114 6.14424 14.0114 6.165 14.0114C6.18575 14.0114 6.19613 14.0114 6.20132 14.0114L6.23765 14.0062H6.28954C6.59053 14.0062 6.83443 13.783 6.88632 13.4613C6.92265 13.207 6.70988 12.906 6.44003 12.8334C6.36219 12.8126 6.26878 12.8074 6.17538 12.8074C6.13905 12.8074 6.10791 12.8074 6.07159 12.8074C6.03526 12.8074 5.99375 12.8074 5.95742 12.8074H5.91591C5.50076 12.8022 5.21015 12.5116 5.21015 12.1017C5.21015 11.4893 5.21015 10.8822 5.21534 10.2698L5.22053 9.1956ZM4.62375 8.16291C2.6414 8.16291 1.08458 6.6061 1.08458 4.62375C1.06901 3.7156 1.42708 2.80746 2.08095 2.13803C2.74 1.45822 3.63776 1.08458 4.60818 1.0742H4.63413C5.58897 1.0742 6.47636 1.44265 7.1406 2.10689C7.80485 2.77632 8.1681 3.67409 8.1681 4.63413C8.15772 6.61647 6.60091 8.16291 4.62375 8.16291Z" fill="#F06767"/>
<path d="M18.3185 9.01915C17.784 8.16291 17.0626 7.54537 16.1752 7.18211C16.1337 7.16654 16.0974 7.15097 16.0611 7.13541C15.9729 7.09908 15.895 7.06794 15.812 7.03681C15.7705 7.02124 15.7134 7.01086 15.6563 6.99529C15.5266 6.96416 15.3657 6.92264 15.2048 6.82923L14.9713 6.69431V5.82768C14.9713 5.18938 14.9765 4.55109 14.9765 3.91798C14.9765 3.9076 14.9765 3.88166 14.9713 3.86609C14.9609 3.74154 14.9298 3.48726 15.1166 3.2745C15.2152 3.16552 15.3501 3.10325 15.5058 3.10325C15.6044 3.10325 15.6926 3.1292 15.7705 3.14995C15.7809 3.15514 15.7964 3.16033 15.812 3.16033C15.8172 3.16033 15.8379 3.16033 15.8483 3.16033C16.0766 3.16033 16.2998 3.02022 16.3932 2.81783C16.5074 2.57393 16.471 2.33522 16.2946 2.15359C15.8483 1.70211 15.3916 1.24545 14.9505 0.804348C14.8052 0.659045 14.6599 0.513742 14.5095 0.36325C14.4109 0.264651 14.359 0.254272 14.359 0.254272C14.3434 0.254272 14.2863 0.285409 14.1981 0.384007L14.1877 0.399575L14.1773 0.409954C14.0061 0.581204 13.8348 0.747265 13.6636 0.918515C13.2744 1.30772 12.8644 1.7073 12.4804 2.10688C12.2521 2.34041 12.2157 2.58431 12.3714 2.84897C12.4596 2.99946 12.6465 3.14995 12.8644 3.14995C12.9163 3.14995 12.9734 3.13957 13.0253 3.12401C13.1031 3.09806 13.1706 3.08768 13.2381 3.08768C13.3885 3.08768 13.5235 3.14476 13.6221 3.24855C13.7777 3.41461 13.7726 3.617 13.7674 3.68965V3.70522C13.7674 3.94393 13.7674 4.17745 13.7674 4.41616C13.7674 5.01813 13.7674 5.64086 13.7726 6.24802C13.7777 6.50749 13.6791 6.8448 13.2069 6.95897C12.5063 7.13022 11.894 7.44677 11.3906 7.89825C10.0414 9.097 9.51726 10.5812 9.839 12.3196C10.0933 13.7 10.8873 14.7742 12.1898 15.5059L12.4856 15.371L12.6153 15.7083C12.6205 15.7135 12.6309 15.7135 12.6361 15.7187C13.1965 15.9418 13.7726 16.056 14.3486 16.056C14.7015 16.056 15.0647 16.0145 15.4228 15.9314C17.374 15.4748 18.8011 13.8245 18.9775 11.8266C19.0761 10.8147 18.8478 9.87021 18.3185 9.01915ZM16.9121 13.9231C16.2479 14.6029 15.3501 14.9818 14.3745 14.9818H14.3641C12.3818 14.9818 10.8302 13.4249 10.8302 11.4374C10.8302 9.46025 12.3818 7.90344 14.3693 7.89306H14.3901C15.3501 7.89306 16.2427 8.26669 16.9069 8.94131C17.5608 9.61075 17.9241 10.5189 17.9085 11.4322C17.9241 12.3456 17.566 13.2537 16.9121 13.9231Z" fill="#F06767"/>
<path d="M18.3185 9.01915C17.784 8.16291 17.0626 7.54537 16.1752 7.18211C16.1337 7.16654 16.0974 7.15097 16.0611 7.13541C15.9729 7.09908 15.895 7.06794 15.812 7.03681C15.7705 7.02124 15.7134 7.01086 15.6563 6.99529C15.5266 6.96416 15.3657 6.92264 15.2048 6.82923L14.9713 6.69431V5.82768C14.9713 5.18938 14.9765 4.55109 14.9765 3.91798C14.9765 3.9076 14.9765 3.88166 14.9713 3.86609C14.9609 3.74154 14.9298 3.48726 15.1166 3.2745C15.2152 3.16552 15.3501 3.10325 15.5058 3.10325C15.6044 3.10325 15.6926 3.1292 15.7705 3.14995C15.7809 3.15514 15.7964 3.16033 15.812 3.16033C15.8172 3.16033 15.8379 3.16033 15.8483 3.16033C16.0766 3.16033 16.2998 3.02022 16.3932 2.81783C16.5074 2.57393 16.471 2.33522 16.2946 2.15359C15.8483 1.70211 15.3916 1.24545 14.9505 0.804348C14.8052 0.659045 14.6599 0.513742 14.5095 0.36325C14.4109 0.264651 14.359 0.254272 14.359 0.254272C14.3434 0.254272 14.2863 0.285409 14.1981 0.384007L14.1877 0.399575L14.1773 0.409954C14.0061 0.581204 13.8348 0.747265 13.6636 0.918515C13.2744 1.30772 12.8644 1.7073 12.4804 2.10688C12.2521 2.34041 12.2157 2.58431 12.3714 2.84897C12.4596 2.99946 12.6465 3.14995 12.8644 3.14995C12.9163 3.14995 12.9734 3.13957 13.0253 3.12401C13.1031 3.09806 13.1706 3.08768 13.2381 3.08768C13.3885 3.08768 13.5235 3.14476 13.6221 3.24855C13.7777 3.41461 13.7726 3.617 13.7674 3.68965V3.70522C13.7674 3.94393 13.7674 4.17745 13.7674 4.41616C13.7674 5.01813 13.7674 5.64086 13.7726 6.24802C13.7777 6.50749 13.6791 6.8448 13.2069 6.95897C12.5063 7.13022 11.894 7.44677 11.3906 7.89825C10.0414 9.097 9.51726 10.5812 9.839 12.3196C10.0933 13.7 10.8873 14.7742 12.1898 15.5059L12.6153 15.7083C12.6205 15.7135 12.6309 15.7135 12.6361 15.7187C13.1965 15.9418 13.7726 16.056 14.3486 16.056C14.7015 16.056 15.0647 16.0145 15.4228 15.9314C17.374 15.4748 18.8011 13.8245 18.9775 11.8266C19.0761 10.8147 18.8478 9.87021 18.3185 9.01915ZM16.9121 13.9231C16.2479 14.6029 15.3501 14.9818 14.3745 14.9818H14.3641C12.3818 14.9818 10.8302 13.4249 10.8302 11.4374C10.8302 9.46025 12.3818 7.90344 14.3693 7.89306H14.3901C15.3501 7.89306 16.2427 8.26669 16.9069 8.94131C17.5608 9.61075 17.9241 10.5189 17.9085 11.4322C17.9241 12.3456 17.566 13.2537 16.9121 13.9231Z" fill="#F06767"/>
</svg>
