<svg width="150" height="159" viewBox="0 0 150 159" fill="none" xmlns="http://www.w3.org/2000/svg">
<path d="M146.125 2.33002H98.4307V88.2084H146.125V2.33002Z" fill="#A5E0CA"/>
<path d="M143.726 4.84503H100.348V85.6935H143.726V4.84503Z" fill="#FAFAFA"/>
<path d="M148.154 89.022L146.125 88.2453V0.887573H148.154V89.022Z" fill="#CDF0E3"/>
<path d="M144.685 28.1083H100.348V28.959H144.685V28.1083Z" fill="#A5E0CA"/>
<path d="M144.685 47.3403H100.348V48.191H144.685V47.3403Z" fill="#A5E0CA"/>
<path d="M144.685 66.6094H100.348V67.46H144.685V66.6094Z" fill="#A5E0CA"/>
<path d="M120.936 28.5497V87.9839H123.112V28.5497H120.936Z" fill="#A5E0CA"/>
<path d="M109.681 4.84503H108.685V28.5152H109.681V4.84503Z" fill="#A5E0CA"/>
<path d="M118.275 4.84503H117.279V28.5152H118.275V4.84503Z" fill="#A5E0CA"/>
<path d="M126.832 4.84503H125.836V28.5152H126.832V4.84503Z" fill="#A5E0CA"/>
<path d="M135.39 4.84503H134.395V28.5152H135.39V4.84503Z" fill="#A5E0CA"/>
<path d="M98.4672 0.887573H96.4385V88.7631H98.4672V0.887573Z" fill="#CDF0E3"/>
<path d="M148.153 0H96.4385V2.33003H148.153V0Z" fill="#CDF0E3"/>
<path d="M149.518 89.3179H95V91.5H149.518V89.3179Z" fill="#CDF0E3"/>
<path d="M146.124 88.2454L149.518 89.3179H95L98.4304 88.2454H146.124Z" fill="#E0E0E0"/>
<path d="M80.5357 158.684C110.103 158.684 134.071 156.937 134.071 154.781C134.071 152.625 110.103 150.877 80.5357 150.877C50.9687 150.877 27 152.625 27 154.781C27 156.937 50.9687 158.684 80.5357 158.684Z" fill="#DCDBF7"/>
<path d="M64.6296 46.4928L64.1413 48.8485L62.3913 48.5642L62.2285 47.5082L62.5948 47.0208L63.2866 46.7365L63.8971 46.5334L64.6296 46.4928Z" fill="#6A707A"/>
<path d="M64.0601 49.2953L64.9961 44.7057L65.4844 40.1161L65.1996 37.07L69.6355 32.2773H76.3097C76.3097 32.2773 78.1818 34.6736 78.5073 35.4859C78.8329 36.3389 79.4027 37.8823 80.1352 38.5727C80.9084 39.3038 86.1176 47.1427 86.2804 49.6203C86.4432 52.1384 86.2804 53.1944 86.2804 53.1944C86.2804 53.1944 84.0421 56.4031 82.0072 57.256C80.0131 58.109 79.3213 58.3933 79.3213 58.3933C79.3213 58.3933 77.1643 58.5151 77.083 58.3933C77.0016 58.2714 74.9667 57.0123 74.5191 56.4437C74.0714 55.8751 70.0425 54.1286 69.6355 53.6818C69.2692 53.3569 64.0601 49.2953 64.0601 49.2953Z" fill="#F1AC7E"/>
<path d="M86.2804 53.2757C86.2804 53.2757 86.3211 53.032 86.3211 52.5852C83.4723 57.2967 77.9783 54.2911 77.9783 54.2911C75.2109 54.3723 69.6762 50.92 68.9029 49.7828C68.1297 48.6049 67.2344 40.1974 68.2111 39.5069C69.1878 38.8165 68.4553 36.7451 68.5774 35.6078C68.6995 34.4706 70.8971 33.7395 70.8971 33.7395C70.8971 33.7395 70.5308 33.0896 70.0018 32.3179H69.6355L65.1996 37.07L65.4844 40.1162L64.9961 44.7058L64.0601 49.2954C64.0601 49.2954 69.2692 53.3163 69.6762 53.7631C70.0831 54.2099 74.1121 55.9564 74.5598 56.525C75.0074 57.0936 77.083 58.3527 77.1237 58.4745C77.205 58.5964 79.362 58.4745 79.362 58.4745C79.362 58.4745 80.0131 58.1902 82.0479 57.3373C84.0421 56.4844 86.2804 53.2757 86.2804 53.2757Z" fill="#E5A070"/>
<path d="M106.14 59.2868C106.14 59.2868 106.14 59.0837 106.913 59.4086C107.687 59.7336 112.407 62.5767 112.285 63.1047C112.163 63.6327 111.064 64.1201 111.064 64.1201C111.064 64.1201 109.396 63.917 109.111 63.6733C108.826 63.4296 107.483 63.1859 107.198 62.6579C106.913 62.1299 106.384 61.277 106.384 61.2364C106.384 61.1957 106.222 60.7084 106.14 60.5865C106.099 60.424 106.14 59.2868 106.14 59.2868Z" fill="#DFE3E7"/>
<path d="M107.564 57.9467C107.564 57.9467 107.564 57.7843 108.134 58.028C108.703 58.2717 112.285 60.4243 112.203 60.8304C112.122 61.2366 111.267 61.6021 111.267 61.6021C111.267 61.6021 110.006 61.4803 109.802 61.2772C109.599 61.1148 108.581 60.9117 108.378 60.5055C108.174 60.0994 107.767 59.4495 107.767 59.4495C107.767 59.4089 107.645 59.0433 107.564 58.9621C107.523 58.7997 107.564 57.9467 107.564 57.9467Z" fill="#7B7D8E"/>
<path d="M107.767 59.1245C107.767 59.1245 108.744 59.0839 108.581 58.0279C108.418 57.0125 108.174 56.4845 108.866 56.1189C109.517 55.7128 111.267 55.1848 110.982 53.6414C110.982 53.6414 113.383 53.9257 112.651 55.6722C112.651 55.6722 114.401 56.5251 115.662 55.9565C116.924 55.3878 121.808 55.3066 122.052 55.3472C122.296 55.3878 121.156 58.0685 118.552 58.434C118.552 58.434 118.511 59.1651 117.331 59.1245C116.11 59.0839 112.325 59.0839 111.674 59.5713C111.023 60.0587 110.331 61.6427 110.331 61.6427L107.36 59.6525L107.767 59.1245Z" fill="#E8B99C"/>
<path d="M122.052 55.3472C121.93 55.3066 120.953 55.3066 119.773 55.3879L118.552 58.434C121.156 58.0279 122.296 55.3879 122.052 55.3472Z" fill="#E8B99C"/>
<path d="M118.918 57.5812C119.61 57.3375 120.831 56.7282 121.36 55.5098C121.401 55.4285 121.401 55.3879 121.442 55.3473C121.035 55.3473 120.424 55.3473 119.773 55.3879L118.918 57.5812Z" fill="#BF8A73"/>
<path d="M115.662 55.9565C114.401 56.5251 112.651 55.6722 112.651 55.6722C113.383 53.9257 110.982 53.6414 110.982 53.6414C111.267 55.2254 109.517 55.7534 108.866 56.119C108.215 56.5251 108.459 57.0125 108.581 58.0279C108.744 59.0433 107.767 59.1246 107.767 59.1246L107.36 59.6526L108.663 60.5055C109.07 60.3836 109.721 60.0993 110.331 59.4495C111.389 58.3528 111.389 57.9467 113.017 57.7842C114.604 57.6218 117.29 58.6778 117.738 57.0125C118.389 54.4131 117.616 54.2913 117.901 53.5602C116.517 53.7226 116.273 55.6722 115.662 55.9565Z" fill="#BF8A73"/>
<path d="M111.471 65.0544C111.878 63.6329 112.163 62.2113 112.203 60.8304C112.203 60.8304 108.459 60.2618 107.564 57.9467C107.564 57.9467 106.709 59.8556 104.878 62.0895C107.076 63.1455 109.232 64.1609 111.471 65.0544Z" fill="#91929C"/>
<path d="M106.506 62.8612C106.831 60.9522 107.279 59.3276 107.645 58.1091C107.605 58.0685 107.605 57.9873 107.564 57.9467C107.564 57.9467 106.709 59.8556 104.878 62.0895C105.407 62.3332 105.977 62.6175 106.506 62.8612Z" fill="#7B7D8E"/>
<path d="M110.657 54.9817C110.657 54.9817 111.837 56.2814 111.308 56.5657C110.738 56.85 109.761 57.4187 109.843 58.3122C109.843 58.3122 110.738 57.0125 111.796 56.9719C112.854 56.8907 114.686 57.175 115.255 57.5405C115.825 57.9061 116.883 58.0279 117.819 55.8346C118.755 53.6414 119.691 53.9257 119.691 53.9257L115.703 52.4229L112.773 53.7226L110.657 54.9817Z" fill="#926C53"/>
<path d="M87.4604 54.1287C87.4604 54.1287 90.5941 54.3724 92.3033 57.0937C94.0126 59.7743 98.2857 65.095 99.2217 65.6636C100.158 66.2322 101.297 67.6538 101.297 67.6538C101.297 67.6538 96.902 74.3148 96.7393 74.3148C96.5358 74.3148 92.6696 66.9633 92.5475 66.8009C92.4254 66.5978 90.472 59.6525 90.2685 59.6119C90.065 59.5306 87.4604 57.3374 87.4604 57.3374V54.1287Z" fill="#E2EBF2"/>
<path d="M99.1807 65.6636C98.2447 65.095 93.9716 59.7743 92.2623 57.0937C90.5531 54.413 87.4194 54.1287 87.4194 54.1287V55.1441L89.1694 54.941C89.1694 54.941 91.3263 55.5503 92.1402 57.4592C92.9542 59.3682 96.4134 63.7547 97.4308 64.8107C98.4482 65.8667 100.117 66.2729 100.605 67.0852C100.646 67.1664 100.727 67.207 100.768 67.1664C100.402 66.7196 99.7505 66.0292 99.1807 65.6636Z" fill="white"/>
<path d="M100.605 67.0038C100.605 67.0038 99.6689 66.882 99.1806 67.5725C98.7329 68.2629 96.576 68.5472 96.576 68.5472C96.576 68.5472 96.6167 70.8217 96.576 70.8623C96.5353 70.9436 100.971 70.6999 101.053 70.6186C101.134 70.5374 102.192 68.7503 102.192 68.6691C102.192 68.5879 100.605 67.0038 100.605 67.0038Z" fill="#ABB0B9"/>
<path d="M102.965 85.5247C102.965 85.5247 111.837 73.2587 112.326 63.1048C112.326 63.1048 107.361 62.3331 106.18 59.2869C106.18 59.2869 102.68 67.3694 94.3784 71.5122L102.965 85.5247Z" fill="#F0EDF6"/>
<path d="M106.14 59.2869C106.14 59.2869 102.64 67.3694 94.3379 71.5122L102.925 85.5653C102.925 85.5653 103.698 84.5093 104.756 82.7628C102.721 73.4618 104.797 64.2014 106.221 59.5306C106.221 59.4087 106.181 59.3681 106.14 59.2869Z" fill="#DFE3E7"/>
<path d="M136.906 52.3416C123.639 58.1496 107.686 57.4592 94.9478 50.5545C108.866 48.5237 123.232 48.8486 136.906 52.3416Z" fill="#B0B0D2"/>
<path d="M121.237 55.7127C126.243 55.3472 131.086 54.2505 135.603 52.4228C129.865 51.0419 123.923 50.1889 117.819 49.864L130.76 52.3416C125.307 54.7785 114.034 54.8191 106.75 54.5755C111.43 55.6721 116.313 56.0782 121.237 55.7127Z" fill="#CFD4D8"/>
<path d="M130.72 52.3415C130.801 52.3415 126.935 42.025 123.598 36.9074C121.482 33.6988 118.145 29.9621 113.871 30.7744C111.715 31.1806 110.046 32.9271 108.784 34.5923C107.279 36.6231 106.098 38.857 104.959 41.0909C103.331 44.3401 102.029 47.7925 101.093 51.3261C101.133 51.3667 113.302 54.7784 130.72 52.3415Z" fill="#B0B0D2"/>
<path d="M112.895 31.9523C108.662 37.3949 106.017 44.1371 104.999 51.0824C104.389 50.8793 103.778 50.6356 103.168 50.3513C104.226 45.8023 105.325 41.1315 107.807 37.1512C109.069 35.1204 110.86 33.252 112.895 31.9523Z" fill="#CFCFE2"/>
<path d="M128.767 51.9353C122.988 53.3569 116.762 53.6818 110.861 52.6664C110.82 52.504 110.82 52.3821 110.779 52.2196C109.558 45.0712 111.105 37.3949 115.093 31.3025C115.215 31.14 115.296 30.9775 115.419 30.8151C115.378 30.8151 115.337 30.7745 115.296 30.7745C115.378 30.7339 115.459 30.7339 115.541 30.6932C119 30.9369 121.767 34.2268 123.558 37.0699C124.575 38.6946 125.674 40.8472 126.651 43.0405C127.546 45.9648 128.279 48.9298 128.767 51.9353Z" fill="#DCD4D8"/>
<path d="M124.168 52.4228C119.61 53.0727 115.052 52.9914 110.779 52.2197C109.558 45.0713 111.105 37.3949 115.093 31.3025C115.256 31.2213 115.419 31.1807 115.581 31.1401C115.907 31.1807 116.232 31.2213 116.558 31.3025C117.168 31.465 117.738 31.7087 118.349 32.0742C122.174 36.4608 123.68 47.3458 124.168 52.4228Z" fill="#CFCFE2"/>
<path d="M115.581 30.6121C115.622 30.5309 115.662 30.4903 115.744 30.409L115.622 30.3684C115.5 30.409 115.377 30.4496 115.255 30.5309C115.337 30.5715 115.459 30.6121 115.581 30.6121Z" fill="#173140"/>
<path d="M116.273 36.2171C118.918 31.0995 124.819 39.9537 123.842 44.3403C123.395 46.3711 121.848 47.5895 120.343 47.9551C119.407 48.1582 118.43 48.1175 117.616 47.4677C116.721 46.7366 116.151 45.3557 115.907 43.9341C115.622 41.9439 115.378 37.9636 116.273 36.2171Z" fill="white"/>
<path d="M124.897 49.711C125.087 48.9954 124.659 48.2617 123.942 48.0723C123.225 47.8829 122.49 48.3094 122.3 49.025C122.11 49.7406 122.538 50.4742 123.255 50.6637C123.972 50.8531 124.707 50.4266 124.897 49.711Z" fill="white"/>
<path d="M112.57 28.7843C112.488 28.8249 112.366 28.9062 112.366 28.9874C112.366 29.0686 112.529 29.1093 112.61 29.1093C113.18 29.1499 113.75 29.1905 114.32 29.2311C114.36 29.2311 114.401 29.2311 114.401 29.2717C114.442 29.3123 114.401 29.3936 114.36 29.3936C114.279 29.4342 114.198 29.4748 114.116 29.5154C114.075 29.556 114.035 29.5966 114.035 29.6779C114.035 29.7997 114.157 29.8403 114.238 29.881C114.32 29.9216 114.401 29.9622 114.523 30.0028C114.564 30.0434 114.645 30.0434 114.645 30.1246C114.645 30.1653 114.645 30.2059 114.605 30.2465C114.482 30.3277 114.32 30.3683 114.32 30.5714C114.32 30.6933 114.401 30.7745 114.482 30.8151C114.564 30.8557 114.686 30.8963 114.767 30.8963C114.93 30.8963 115.093 30.8557 115.215 30.8151C115.296 30.7745 115.378 30.7339 115.418 30.6933C115.459 30.612 115.459 30.5308 115.418 30.4496C115.337 30.3683 115.215 30.3683 115.174 30.2871C115.093 30.1246 115.296 30.0434 115.418 29.9622C115.541 29.881 115.703 29.7185 115.581 29.5966C115.541 29.556 115.418 29.5154 115.378 29.5154C115.296 29.5154 115.215 29.4748 115.174 29.3936C115.174 29.3529 115.215 29.2717 115.256 29.2311C115.378 29.1499 115.622 29.1499 115.785 29.1093C115.988 29.0686 116.232 29.0686 116.436 29.028C116.599 28.9874 116.761 28.9874 116.965 28.9468C117.087 28.9062 117.331 28.9062 117.413 28.8249C117.535 28.7031 117.291 28.5812 117.209 28.5812C116.843 28.5 116.436 28.4188 116.07 28.3376C115.866 28.2969 115.703 28.2969 115.5 28.2969C115.337 28.2969 115.093 28.3376 114.93 28.2969C114.116 28.3376 113.343 28.5 112.57 28.7843Z" fill="#B0B0D2"/>
<path d="M114.848 28.5813C115.458 28.6219 116.069 28.7031 116.679 28.7438C115.988 28.9468 115.214 28.9468 114.522 28.7844C114.563 28.6219 114.767 28.5407 114.929 28.6219" fill="#DCD4D8"/>
<path d="M65.281 49.4984L79.6469 59.6524L83.2282 57.1748L83.0654 56.1188L86.2804 53.3163C89.8617 54.1286 89.7803 55.1034 90.3907 56.4843C91.0012 57.8653 94.4197 63.9577 96.2917 66.5165C98.1638 69.0753 102.762 78.9855 104.024 86.2558C105.286 93.526 100.239 110.3 100.239 110.3C68.4553 120.454 53.3976 108.96 53.3976 108.96L54.5778 83.0065C54.5778 83.0065 52.2581 84.9561 47.5373 82.0317C42.8165 79.1074 49.2466 65.2167 49.8163 64.3232C50.3861 63.4296 52.3802 59.6524 53.7232 57.0936C55.0255 54.5348 56.2464 54.5754 57.0196 54.088C57.7521 53.5194 65.281 49.4984 65.281 49.4984Z" fill="#E2EBF2"/>
<path d="M103.413 96.8158C103.902 93.9727 104.227 91.1296 104.227 88.7739C102.233 90.3985 98.2448 92.6324 90.838 93.4447C78.4256 94.8257 71.1002 85.1591 71.1002 85.1591C71.1002 85.1591 69.4317 88.977 62.8795 89.5456C56.3681 90.1142 57.7925 84.5499 57.7925 84.5499C57.7925 84.5499 54.7809 90.1955 54.903 90.2767C55.0251 90.3579 54.8623 93.1198 55.2286 94.3383C55.5949 95.5161 56.4088 96.7346 57.6704 98.806C58.932 100.877 63.2051 101.202 63.9784 101.771C64.7516 102.34 79.8093 104.045 96.0472 99.9026C99.3436 98.9685 101.704 97.9125 103.413 96.8158Z" fill="#CBD9E3"/>
<path d="M82.8619 59.9773C82.8619 59.9773 71.4262 61.3989 67.031 64.2826C67.031 64.2826 72.0366 85.4434 70.653 91.9014C70.653 91.9014 69.6355 93.2417 65.4031 92.1045C61.1707 90.9672 56.572 90.1143 56.7348 88.3272C56.8975 86.5807 60.8451 81.9911 65.688 79.8385L54.5778 83.2908L54.293 89.83L64.9554 96.0442L84.4084 94.4196C84.4084 94.4196 71.5483 93.9728 71.4669 92.3075C71.3855 90.6017 71.2634 82.2348 69.4321 73.5836L67.5193 64.4857C67.5193 64.4857 71.9552 61.805 82.8619 59.9773Z" fill="#95999F"/>
<path d="M96.2909 66.4758C94.4189 63.917 91.0004 57.8246 90.3899 56.4437C89.8608 55.2658 89.9015 54.7784 87.7446 54.1692C87.9481 54.2098 89.4132 54.7378 90.1864 56.9717C91.041 59.4086 94.2968 65.3792 95.7618 66.9632C97.0641 68.3847 101.622 77.239 103.25 82.7628C101.419 76.1018 97.8781 68.6284 96.2909 66.4758Z" fill="white"/>
<path d="M103.698 84.5498C103.698 84.631 103.738 84.7123 103.738 84.7935C103.738 84.7123 103.698 84.631 103.698 84.5498Z" fill="white"/>
<path d="M60.6003 71.106C60.6003 71.106 54.74 71.7965 48.7169 66.6789C46.8855 71.0248 43.9961 79.7166 47.5774 81.9505C48.3099 82.3972 48.961 82.7222 49.5715 82.9659C50.7517 82.3972 51.6063 81.9505 51.6063 81.9505C51.6063 81.9505 52.3796 74.3553 60.6003 71.106Z" fill="#CBD9E3"/>
<path d="M67.0308 79.3105C67.0308 79.3105 62.717 80.5696 57.4672 81.7068C52.258 82.8441 48.3512 81.26 47.2523 78.9449C46.1128 76.6298 49.572 67.41 52.4208 65.1355C55.2289 62.861 55.2289 58.0684 55.6358 56.2407C55.9614 54.7379 58.6067 53.1132 59.502 52.6259C58.2811 53.2757 57.3044 53.8443 57.0602 54.0068C56.287 54.4942 55.0661 54.4536 53.7638 57.0124C52.4615 59.5712 50.4267 63.3484 49.8569 64.242C49.2872 65.1355 42.8978 79.0668 47.5779 81.9505C52.2987 84.8748 54.6184 82.9253 54.6184 82.9253L54.5777 83.6158C60.3973 82.2754 67.0308 79.3105 67.0308 79.3105Z" fill="#ABB0B9"/>
<path d="M47.7402 69.1971C48.8797 66.5164 50.6297 63.0641 51.2808 62.333C52.1762 61.3582 53.6006 58.3526 54.211 56.7686C54.8215 55.1846 56.6528 54.3723 56.6528 54.3723C59.9899 53.235 60.8039 60.5459 60.8039 60.5459C60.9259 57.2966 59.4609 54.8597 58.1586 53.3569C57.5888 53.6818 57.1819 53.8849 57.0191 54.0067C56.2458 54.4941 55.0249 54.4535 53.7226 57.0123C52.4203 59.5711 50.3855 63.3484 49.8158 64.2419C49.6123 64.5668 48.6763 66.5976 47.7402 69.1971Z" fill="white"/>
<path d="M52.4614 106.848C52.4614 106.848 53.6416 135.239 64.8332 151.81H71.8737C71.8737 151.81 82.2513 141.29 83.2687 124.557C84.2861 107.823 52.4614 106.848 52.4614 106.848Z" fill="#2A2A2A"/>
<path d="M64.8746 151.769C64.8746 151.769 62.3107 154.044 64.3455 155.912C64.3455 155.912 64.5083 157.009 64.6304 157.009C64.7525 157.009 68.2524 157.009 68.2524 157.009C68.2524 157.009 68.4966 157.171 68.7408 155.953C68.7408 155.953 70.0431 156.196 70.4093 157.009C70.4093 157.009 79.1591 158.999 82.7404 157.009L71.8744 151.769H64.8746Z" fill="black"/>
<path d="M74.0306 140.925C75.2922 141.534 72.6876 146.692 72.6876 146.692C72.6876 146.692 72.8504 146.408 74.6003 144.499C76.391 142.631 77.8154 137.269 77.8154 137.269C77.8154 137.269 76.0654 136.213 75.6178 135.97C75.1701 135.766 71.7923 133.533 71.7923 133.533C71.7923 133.533 61.2112 134.426 61.0484 134.426C60.967 134.426 59.1357 135.279 57.6299 136.091C59.095 140.722 60.9263 145.311 63.3274 149.332C64.182 147.667 65.118 145.108 66.1355 143.28C67.804 140.478 72.769 140.275 74.0306 140.925Z" fill="#232323"/>
<path d="M78.9143 130.527C78.6701 130.405 68.1704 128.537 67.8856 128.537C67.6007 128.537 62.1067 128.862 61.9439 128.902C61.7811 128.943 59.0137 130.283 58.8916 130.283C58.7695 130.283 57.101 131.299 57.101 131.299L56.6533 132.72C57.1824 134.589 57.7521 136.498 58.4033 138.366C59.6649 140.072 61.2927 141.615 62.6764 141.412C65.5252 140.965 70.775 138.447 71.6296 139.056C72.525 139.666 74.8447 141.128 77.1237 140.722C77.9376 140.559 79.0364 139.706 80.0945 138.65C80.8271 136.863 81.4782 134.914 82.0073 132.802C80.6643 131.746 79.0771 130.608 78.9143 130.527Z" fill="black"/>
<path d="M73.8271 153.759C73.8271 153.759 79.2397 155.668 79.1176 155.79C78.9141 155.953 71.3853 153.475 73.8271 153.759Z" fill="#232323"/>
<path d="M64.6696 152.419C64.6696 152.419 63.8964 153.434 63.9371 154.247C63.9778 155.059 64.3034 155.546 64.5476 155.384C64.7917 155.262 64.1813 154.572 64.3848 153.962C64.5883 153.353 65.3208 151.891 64.6696 152.419Z" fill="#232323"/>
<path d="M74.3149 102.989C74.3149 102.989 75.4951 131.38 86.6867 147.951H93.7272C93.7272 147.951 104.105 137.432 105.122 120.698C106.14 104.005 74.3149 102.989 74.3149 102.989Z" fill="#2A2A2A"/>
<path d="M86.6871 147.951C86.6871 147.951 84.1232 150.226 86.158 152.094C86.158 152.094 86.3208 153.191 86.4429 153.191C86.565 153.191 90.0649 153.191 90.0649 153.191C90.0649 153.191 90.3091 153.353 90.5533 152.134C90.5533 152.134 91.8556 152.378 92.2218 153.191C92.2218 153.191 100.972 155.181 104.553 153.191L93.6869 147.951H86.6871Z" fill="black"/>
<path d="M96.3321 138.934C97.5937 139.544 94.9891 144.702 94.9891 144.702C94.9891 144.702 95.1519 144.418 96.9019 142.509C98.6925 140.64 100.117 135.279 100.117 135.279C100.117 135.279 98.3669 134.223 97.9193 133.979C97.4716 133.776 94.0938 131.542 94.0938 131.542C94.0938 131.542 83.5127 132.436 83.35 132.436C83.2686 132.436 81.5593 133.248 80.0942 134.02C81.6 138.488 83.5534 142.874 85.9545 146.733C86.7278 145.108 87.5417 142.915 88.4777 141.331C90.0649 138.488 95.0705 138.325 96.3321 138.934Z" fill="#232323"/>
<path d="M101.215 128.537C100.971 128.415 90.4711 126.547 90.1862 126.547C89.9013 126.547 84.4073 126.871 84.2445 126.912C84.0817 126.953 81.3143 128.293 81.1922 128.293C81.0701 128.293 79.4016 129.308 79.4016 129.308L78.9946 130.568C79.6051 132.72 80.3376 134.832 81.1515 136.944C82.3317 138.406 83.7561 139.625 84.977 139.422C87.8258 138.975 93.0756 136.457 93.9303 137.066C94.8256 137.675 97.1453 139.137 99.4243 138.731C99.7092 138.691 99.994 138.528 100.32 138.366C101.5 136.051 102.639 133.329 103.535 130.243C102.395 129.39 101.337 128.577 101.215 128.537Z" fill="black"/>
<path d="M95.6402 149.941C95.6402 149.941 101.053 151.85 100.931 151.972C100.768 152.094 93.2391 149.616 95.6402 149.941Z" fill="#232323"/>
<path d="M86.4831 148.56C86.4831 148.56 85.7099 149.576 85.7506 150.388C85.7913 151.2 86.1168 151.688 86.361 151.525C86.6052 151.403 85.9948 150.713 86.1982 150.104C86.4017 149.576 87.1749 148.032 86.4831 148.56Z" fill="#232323"/>
<path d="M52.0573 89.4645C52.0573 89.4645 47.6214 104.005 47.7028 114.768H50.5515C50.5515 114.768 51.8538 95.0695 54.5805 89.7488L52.0573 89.4645Z" fill="#EFEFEF"/>
<path d="M47.6997 114.768H48.1881C48.9613 110.504 50.5485 105.183 51.9728 100.715C52.624 96.2067 53.4786 91.8608 54.5774 89.7894L52.0542 89.4645C52.0542 89.4645 47.5776 104.005 47.6997 114.768Z" fill="#CDCDCD"/>
<path d="M53.2341 90.3175C53.2341 90.3175 51.0365 106.97 53.1121 118.708L56.205 118.18C56.205 118.18 54.0074 96.4911 56.0422 90.155L53.2341 90.3175Z" fill="#EFEFEF"/>
<path d="M53.1528 118.75L53.6819 118.668C53.7632 113.876 54.4551 107.783 55.2283 102.625C55.1062 97.6293 55.2283 92.7148 56.0422 90.2372L53.2342 90.3591C53.2342 90.3185 51.0366 107.012 53.1528 118.75Z" fill="#CDCDCD"/>
<path d="M52.3391 88.0023C52.3391 88.0023 39.479 90.1956 39.2756 95.1913C39.0721 100.146 43.3452 101.731 46.1533 100.675C48.9613 99.5779 53.5193 92.3076 53.8449 91.0079L52.3391 88.0023ZM47.0893 96.0037C44.851 97.1815 43.7115 96.3286 43.7115 96.3286C43.7115 96.3286 43.3859 96.1255 43.8743 95.1507C44.3626 94.1759 52.2984 89.8707 52.2984 89.8707C52.2984 89.8707 49.2869 94.8258 47.0893 96.0037Z" fill="#EFEFEF"/>
<path d="M39.2762 95.1912C39.1948 97.3032 39.9273 98.806 40.9854 99.7808L42.7761 99.862L43.4272 97.0595L43.59 95.6786L43.6307 95.638C43.6714 95.5161 43.7528 95.3537 43.8342 95.1912C43.9563 94.9881 44.4039 94.6226 45.0551 94.1758C46.6829 92.5512 49.3689 89.9517 52.0142 88.124C50.1422 88.449 39.4797 90.6828 39.2762 95.1912Z" fill="#E1E1E1"/>
<path d="M52.2987 89.9112C52.2987 89.9112 42.8572 93.9322 43.1013 95.6787C43.3455 97.4251 44.485 98.7655 44.485 98.7655C44.485 98.7655 43.4269 96.2473 44.1187 95.2725C44.7699 94.2571 52.2987 89.9112 52.2987 89.9112Z" fill="#CDCDCD"/>
<path d="M42.6944 97.8719C42.6944 97.8719 41.3514 96.0848 41.3514 95.3537C41.3514 94.8664 44.1188 91.6577 45.8281 89.7488C42.6537 90.9266 39.4794 92.6731 39.2759 95.0694C39.6015 98.0344 42.6944 97.8719 42.6944 97.8719Z" fill="#CDCDCD"/>
<path d="M107.035 130.771C107.035 130.771 107.442 132.152 105.367 132.274C103.291 132.395 105.163 128.902 105.163 128.902L107.035 130.771Z" fill="#CDCDCD"/>
<path d="M50.7108 88.4492C50.7108 88.4492 55.3095 93.12 56.3269 102.583C57.3443 112.006 54.577 132.842 55.4723 133.411C56.4083 133.98 68.6987 137.188 70.8149 136.701C72.9311 136.254 73.5009 136.092 74.7218 136.741C75.9426 137.391 79.646 137.513 83.8378 136.741C88.0295 135.97 87.297 138.244 92.262 137.269C97.1862 136.335 100.523 134.223 102.111 132.517C103.698 130.811 106.221 130.04 107.035 130.811C107.035 130.811 107.889 112.25 106.628 105.995C105.366 99.7404 105.041 94.6228 105.366 92.5514C105.692 90.48 106.709 89.2209 104.186 88.4492C104.186 88.4492 104.227 92.064 97.1862 93.4043C90.1457 94.704 69.7975 95.3945 61.3326 91.6984C52.8677 88.0024 49.6527 86.5808 50.7108 88.4492Z" fill="#EFEFEF"/>
<path d="M72.2812 136.416C73.2987 136.254 73.8277 136.295 74.723 136.782C74.8044 136.823 74.8858 136.863 74.9672 136.904C76.5951 131.664 79.8915 126.262 79.8915 126.262C77.3683 128.212 73.9091 133.695 72.2812 136.416Z" fill="#CDCDCD"/>
<path d="M86.606 136.701C88.1524 137.026 88.8443 137.919 92.2628 137.269C92.3442 137.269 92.3849 137.229 92.4663 137.229C94.0941 130.73 96.7801 123.013 98.2452 119.033C101.826 109.204 101.419 106.848 101.419 106.848C101.419 106.848 98.2859 115.987 94.5825 121.185C92.7104 123.866 88.7629 131.055 86.606 136.701Z" fill="#E2E2E2"/>
<path d="M93.931 122.201C90.6753 126.465 87.1754 132.761 85.5068 136.619C86.3208 136.619 86.8905 136.782 87.4196 136.985C89.8614 129.308 93.931 122.201 93.931 122.201Z" fill="#CDCDCD"/>
<path d="M104.309 114.159L101.745 132.923C101.867 132.802 101.989 132.68 102.111 132.558C102.885 131.746 103.821 131.136 104.716 130.811L104.309 114.159Z" fill="#CDCDCD"/>
<path d="M56.5309 108.838C56.4088 119.074 54.7403 132.924 55.4728 133.37C55.6763 133.492 56.5716 133.817 57.7925 134.142C58.0774 128.862 58.4437 116.718 56.5309 108.838Z" fill="#CDCDCD"/>
<path d="M71.5475 95.3133C71.5475 95.3133 65.0361 97.2222 60.6409 96.4099C60.6409 96.4099 61.3327 103.112 64.2222 104.858C67.1116 106.604 73.7859 106.848 73.7859 106.848C73.7859 106.848 64.385 109.488 60.6816 105.102C60.6816 105.102 60.2339 112.25 63.571 117.49C63.571 117.49 59.1351 111.113 57.67 101.934C56.205 92.7951 53.8853 91.5766 53.8853 91.5766C53.8853 91.5766 61.8211 95.8413 71.5475 95.3133Z" fill="#E1E1E1"/>
<path d="M53.2349 89.3834C53.2349 89.3834 59.0952 94.9071 71.5483 95.3132C71.5483 95.3132 53.2349 97.3034 53.2349 89.3834Z" fill="#CDCDCD"/>
<path d="M53.7229 88.7334C53.7229 88.7334 51.4032 87.5556 51.6474 88.4897C51.8916 89.4239 54.4555 93.2418 55.1066 95.5163C55.1066 95.5163 54.2113 92.2264 52.9497 90.0738C52.3392 89.0584 52.0951 88.571 53.7229 88.7334Z" fill="#CDCDCD"/>
<path d="M55.1069 92.2263L62.3916 104.574C62.3916 104.574 68.8217 107.742 73.7866 106.848C73.7866 106.848 65.7287 106.442 63.1241 103.477C60.5196 100.512 55.1069 92.2263 55.1069 92.2263Z" fill="#CDCDCD"/>
<path d="M63.815 117.53C63.815 117.53 57.0187 110.382 57.1408 99.253C57.1408 99.253 58.9721 110.707 63.815 117.53Z" fill="#CDCDCD"/>
<path d="M53.5601 88.6928C53.5601 88.6928 59.7866 94.4196 72.3618 94.9476C72.3618 94.9476 62.8796 93.6479 58.6064 91.3328C54.3333 89.0177 53.5601 88.6928 53.5601 88.6928Z" fill="white"/>
<path d="M84.6113 94.4196C84.6113 94.4196 96.4133 95.1507 100.768 92.9981C103.535 91.6171 104.512 89.627 104.39 88.4897C104.349 88.4897 104.268 88.4491 104.227 88.4491C104.227 88.4491 104.268 92.0639 97.2273 93.4042C94.5006 93.8916 89.8205 94.3384 84.6113 94.4196Z" fill="white"/>
<path d="M103.861 93.0793C103.861 93.0793 99.7098 100.106 96.21 103.274L103.861 93.0793Z" fill="white"/>
<path d="M96.9017 105.792C96.9017 105.792 91.8147 113.753 88.9252 115.946C86.0358 118.139 85.5474 120.779 85.5474 120.779C85.5474 120.779 84.7335 118.383 89.1694 114.118C93.6053 109.894 96.9017 105.792 96.9017 105.792Z" fill="white"/>
<path d="M104.146 94.0948L99.3032 104.939C99.3032 104.939 103.169 100.593 104.146 94.0948Z" fill="white"/>
<path d="M103.25 114.849L103.861 99.6184C103.861 99.6184 101.948 106.848 103.25 114.849Z" fill="white"/>
<path d="M65.9728 41.4159C65.9728 41.4159 66.5019 38.3291 68.0483 37.8417L68.5774 34.0238L64.752 36.6232V40.5223L65.9728 41.4159Z" fill="#3D2516"/>
<path d="M80.095 50.8793C80.095 50.8793 82.6589 51.9353 84.8971 50.0264C84.8971 50.0264 85.1413 49.7421 85.3041 50.0264C85.4669 50.3107 85.7111 52.8695 84.1646 53.6818C82.6182 54.4941 80.7868 53.7224 79.9729 52.707C79.0776 51.6916 79.2811 50.5544 80.095 50.8793Z" fill="#3D2516"/>
<path d="M71.0594 21.5953C70.5304 20.4987 69.8385 19.3209 68.7397 18.7522C67.6816 18.1836 66.42 18.2242 65.2398 18.3867C63.7747 18.5898 62.269 18.9147 60.8853 19.4427C59.9086 19.8082 58.9319 20.2144 58.0772 20.8643C57.2633 21.5141 56.5715 22.367 56.2866 23.3824C55.8389 24.9665 56.4901 26.6723 57.304 28.0533C57.711 28.7437 58.1586 29.3936 58.8098 29.881C59.176 30.1653 59.583 30.3684 59.99 30.6121C61.3736 31.4244 62.6352 32.4804 63.6526 33.6989C63.6933 33.7395 66.9898 32.1555 67.3153 32.0336C68.5769 31.5056 69.7978 31.0588 71.1001 30.6527C71.8733 30.409 73.5012 30.2465 73.7454 29.3124C73.8675 28.825 73.6233 28.297 73.4605 27.8502C73.257 27.2003 73.0535 26.5505 72.8094 25.9006C72.2803 24.4385 71.7513 22.9763 71.0594 21.5953Z" fill="#B0B0D2"/>
<path d="M76.3902 33.2115C76.7972 33.2521 77.1634 32.8459 77.1634 32.4398C77.2041 32.0336 76.96 31.3431 76.6344 31.0994C76.3088 30.8557 75.9425 30.6933 75.5356 30.5714C75.9832 29.9622 75.7798 29.3123 75.1693 28.8656C74.5589 28.4188 73.7449 28.3782 73.0124 28.3782C69.6346 28.5 66.4196 29.9216 63.7743 32.0336C63.3266 32.3991 62.879 32.8053 62.6348 33.3333C62.3906 33.8613 62.472 34.5924 62.9604 34.9173C62.5534 35.4453 62.6755 36.217 63.1232 36.6638C63.5708 37.1106 64.3034 37.2324 64.9138 37.1512C65.5649 37.0293 66.1347 36.7044 66.6231 36.3389C67.1521 35.9733 67.5998 35.5266 68.1288 35.161C69.2683 34.3893 70.5706 33.9425 71.9136 33.6988C73.2566 33.3739 75.0065 33.1302 76.3902 33.2115Z" fill="#CFD4D8"/>
<path d="M81.4576 17.0774C81.6096 12.9529 78.3827 9.48631 74.25 9.33452C70.1173 9.18273 66.6438 12.4033 66.4917 16.5278C66.3396 20.6523 69.5665 24.1189 73.6992 24.2707C77.832 24.4225 81.3055 21.2019 81.4576 17.0774Z" fill="#B0B0D2"/>
<path d="M81.0307 16.5946C81.1737 12.7167 78.1396 9.45733 74.254 9.31464C70.3683 9.17196 67.1025 12.2 66.9595 16.0779C66.8166 19.9559 69.8506 23.2152 73.7363 23.3579C77.6219 23.5006 80.8877 20.4726 81.0307 16.5946Z" fill="#CFD4D8"/>
<path d="M62.3656 25.7437C62.5177 21.6192 59.2907 18.1526 55.158 18.0009C51.0253 17.8491 47.5519 21.0697 47.3998 25.1942C47.2478 29.3187 50.4747 32.7853 54.6074 32.937C58.7401 33.0888 62.2136 29.8682 62.3656 25.7437Z" fill="#B0B0D2"/>
<path d="M61.1165 25.7267C61.2522 22.0505 58.3761 18.9606 54.6926 18.8252C51.0091 18.6897 47.9131 21.5601 47.7774 25.2363C47.6417 28.9125 50.5178 32.0024 54.2013 32.1378C57.8848 32.2732 60.9808 29.4029 61.1165 25.7267Z" fill="#CFD4D8"/>
<path d="M69.3567 15.6274C69.5203 11.1891 66.0478 7.45877 61.6006 7.29553C57.1535 7.13229 53.4158 10.5979 53.2522 15.0363C53.0887 19.4746 56.5612 23.2049 61.0083 23.3681C65.4554 23.5314 69.1932 20.0657 69.3567 15.6274Z" fill="#B0B0D2"/>
<path d="M68.9567 15.2001C69.1121 10.9859 65.815 7.44396 61.5925 7.28891C57.3699 7.13386 53.8209 10.4244 53.6656 14.6386C53.5102 18.8528 56.8073 22.3947 61.0299 22.5498C65.2524 22.7048 68.8014 19.4143 68.9567 15.2001Z" fill="#CFD4D8"/>
<path d="M73.7857 30.6526C70.8149 30.5714 67.844 31.3431 65.2802 32.8865C64.6697 33.252 64.1 33.6582 63.6523 34.1862C63.2453 34.7548 62.9605 35.4453 63.1232 36.1357C63.5302 34.6736 64.7104 33.5363 66.0534 32.8052C67.3964 32.1148 68.9021 31.7898 70.3672 31.4649C71.466 31.2212 72.5648 31.0181 73.7043 30.9775C74.8438 30.9775 75.6985 31.3025 76.7159 31.7086C76.1461 30.8557 74.7624 30.6526 73.7857 30.6526Z" fill="#F8E8D8"/>
<path d="M64.3852 31.8306C63.612 32.4804 62.8388 33.2927 62.8795 34.3081C64.019 32.7241 65.7282 31.6275 67.5596 31.0183C69.3909 30.3684 71.3443 30.1247 73.2571 30.0435C73.5826 30.0435 74.478 29.9622 74.5187 29.5561C74.5594 29.0687 73.7454 29.0687 73.4606 29.0281C72.3618 28.9468 71.2629 29.0281 70.2048 29.2312C68.0479 29.5967 66.0131 30.4902 64.3852 31.8306Z" fill="#F8E8D8"/>
<path d="M56.3277 14.9343C53.0313 13.919 54.9033 10.1011 56.9789 8.88258C59.909 7.17672 64.2635 7.25795 66.5832 9.97921C67.153 10.6291 67.6006 11.482 67.5193 12.3349C67.4786 13.066 67.0716 13.6753 66.5832 14.2033C65.8507 15.0156 64.874 15.6654 63.8159 15.5842C62.7171 15.503 61.8217 14.6094 60.9264 13.919C60.0311 13.2285 58.8509 12.6599 57.8335 13.1879C57.5893 13.3097 57.3858 13.5128 57.3858 13.7971C57.3858 14.0814 57.63 14.2845 57.8742 14.3657C58.1184 14.447 58.3625 14.4063 58.6067 14.4063C59.502 14.4063 60.3567 14.8125 61.0078 15.4624C60.316 15.0562 59.4614 15.0562 58.6881 15.0562C57.9149 15.0968 57.101 15.178 56.3277 14.9343Z" fill="#F8E8D8"/>
<path d="M79.5238 12.9035C78.3843 11.36 76.6751 10.4665 74.9251 10.101C74.3554 9.97911 73.7449 9.89788 73.1752 10.0603C72.6054 10.2228 72.0764 10.5883 71.7915 11.1976C71.3845 12.1317 71.7508 13.3908 72.4426 14.0407C73.1345 14.7312 74.0705 14.9749 75.0065 15.0561C75.9018 15.1779 76.8379 15.1779 77.6925 15.5029C78.5471 15.8278 79.4017 16.5183 79.6866 17.5337C78.9541 16.6401 77.896 16.1527 76.8786 16.1527C77.1634 16.1527 77.7739 16.8026 77.9774 17.0057C78.3436 17.29 78.7099 17.5743 79.0762 17.8586C79.6052 18.2241 80.2157 18.3054 80.5819 17.6149C81.3959 16.2746 80.2564 13.9188 79.5238 12.9035Z" fill="#F8E8D8"/>
<path d="M55.5947 21.8797C54.8622 22.164 54.3738 22.9357 54.2517 23.7074C54.1297 24.4791 54.2517 25.2914 54.3738 26.0631C54.4959 26.8348 54.5773 27.6471 54.3738 28.4188C54.0076 29.8404 52.339 30.8558 50.9554 30.409C50.0193 30.1247 49.3682 29.3124 48.9205 28.4594C48.0659 26.7942 47.9845 24.7634 48.6357 23.0169C49.1647 21.636 50.3856 20.0113 51.8507 19.524C52.5832 19.2803 53.0716 19.5646 53.5599 20.1332C54.2111 20.8643 54.7808 21.4735 55.5947 21.8797Z" fill="#F8E8D8"/>
<path d="M63.652 26.8755C64.3031 27.6472 64.9136 28.3783 65.5647 29.15L65.6054 29.1906C65.0764 29.5561 64.5473 29.9623 64.0996 30.4091C63.6927 29.8404 63.3264 29.3124 62.9194 28.7438C63.245 28.1752 63.4892 27.5253 63.652 26.8755Z" fill="#CFD4D8"/>
<path d="M68.6993 27.8502C67.9667 26.4693 67.2342 25.0477 66.5423 23.6668C66.5017 23.5449 66.4203 23.4231 66.3389 23.3012C66.7458 23.1794 67.1528 23.0169 67.5191 22.8138C68.5772 24.276 69.4725 25.9413 70.1236 27.6471C69.6353 27.6877 69.1469 27.7284 68.6993 27.8502Z" fill="#CFD4D8"/>
<path d="M64.8732 23.6262C65.8093 25.129 66.6639 26.6724 67.4371 28.2564C66.9894 28.4189 66.5418 28.6626 66.0941 28.9063C65.3209 27.7284 64.5477 26.5506 63.7744 25.3727C63.7744 24.8041 63.6931 24.1948 63.5303 23.6262C64.0186 23.6668 64.4663 23.6668 64.8732 23.6262Z" fill="#CFD4D8"/>
<path d="M69.7158 24.2761C70.0821 24.4385 70.4484 24.5198 70.8553 24.5604C71.303 25.6164 71.7506 26.713 72.1983 27.769C71.8727 27.6878 71.5472 27.6472 71.2216 27.6472C71.0181 26.4287 70.4891 25.2508 69.7158 24.2761Z" fill="#CFD4D8"/>
<path d="M63.4488 31.1806C63.4081 31.2212 63.3674 31.2618 63.3267 31.3025C62.9198 30.8151 62.3907 30.4495 61.7803 30.2058C61.9431 30.0434 62.1058 29.8403 62.2686 29.6372C62.6756 30.1652 63.0826 30.6526 63.4488 31.1806Z" fill="#CFD4D8"/>
<path d="M66.5419 41.2128C66.5419 41.2128 65.5245 38.5727 64.0594 39.5069C62.5943 40.4005 62.1873 43.6091 65.5245 45.2337L66.5419 41.2128Z" fill="#E5A070"/>
<path d="M76.9201 54.941L81.1118 59.2056L72.8911 56.8499L76.9201 54.941Z" fill="#F0EDF6"/>
<path d="M79.3613 47.3864C79.3613 47.3864 82.088 48.1987 84.0821 47.1833C84.0821 47.1833 81.8845 50.4732 79.3613 47.3864Z" fill="white"/>
<path d="M87.7051 46.0459C88.2341 45.6398 88.1934 44.3401 88.1934 44.3401L87.8272 44.5838C88.0714 43.8933 87.1353 42.9998 87.1353 42.9998C87.2981 43.609 86.9725 44.3807 86.9725 44.3807L86.5656 44.0152C86.4435 45.0305 85.7516 44.5432 85.7516 44.5432C84.6935 43.8933 82.9436 43.4871 82.9436 43.4871C82.0076 43.1216 81.3971 43.8121 81.1122 44.3401C80.8681 44.1776 80.5425 44.0152 80.0541 43.9745C80.0541 43.9745 79.2809 43.7308 77.8158 44.5838C77.8158 44.5838 74.3566 46.2896 73.0543 46.0053C73.0543 46.0053 71.1416 46.1678 71.9148 44.9899C71.9148 44.9899 70.8567 44.8275 70.3276 45.8022C70.3276 45.8022 70.0428 46.4927 70.4497 46.9395C70.4497 46.9395 69.9614 46.8989 69.7986 46.5739C69.7986 46.5739 69.7579 47.9955 70.7346 48.2798C70.7346 48.2798 70.3276 48.4423 70.0021 48.2798C70.0021 48.2798 70.5311 49.742 72.0776 49.9857C72.0776 49.9857 72.4846 50.7574 73.9903 50.6761C73.9903 50.6761 76.0252 51.0823 77.8972 48.889C77.8972 48.889 79.2809 47.4269 80.2576 46.8583C80.2576 46.8583 80.9901 46.4927 81.3564 45.8022C81.682 46.1272 82.0483 46.249 82.0483 46.249C82.7808 46.4115 84.1238 46.9395 84.1238 46.9395C85.5482 48.2392 86.7284 47.8737 86.7284 47.8737C88.1934 47.63 88.4376 45.8429 88.4376 45.8429C88.2341 46.2084 87.7051 46.0459 87.7051 46.0459Z" fill="#3D2516"/>
<path opacity="0.9" d="M87.7041 46.0469C88.2332 45.6407 88.1925 44.341 88.1925 44.341L87.8262 44.5847C88.0297 44.0161 87.4193 43.285 87.1751 43.0819C87.7855 44.4222 87.0937 45.0315 87.0937 45.0315C87.053 45.5595 86.8495 45.925 86.8495 45.925C87.2158 45.8032 87.3786 45.6407 87.3786 45.6407C87.3379 46.0063 87.0937 46.6967 87.0937 46.6967C86.5646 48.0777 84.7333 46.8186 84.7333 46.8186C83.7159 45.8032 81.5182 45.1127 81.5182 45.1127C81.2334 45.397 80.9078 45.5189 80.9078 45.5189C79.8904 46.0469 78.5474 47.5497 78.5474 47.5497C76.6347 49.7429 74.6405 49.3368 74.6405 49.3368C73.1754 49.3774 72.7278 48.6463 72.7278 48.6463C71.1813 48.4026 70.6523 46.9404 70.6523 46.9404C70.9371 47.1029 71.3441 46.9404 71.3441 46.9404C70.6523 46.7373 70.4488 46.0063 70.4081 45.6001C70.3267 45.6813 70.286 45.7626 70.2046 45.8844C70.2046 45.8844 69.9197 46.5749 70.3267 47.0217C70.3267 47.0217 69.8383 46.981 69.6755 46.6561C69.6755 46.6561 69.6348 48.0777 70.6116 48.362C70.6116 48.362 70.2046 48.5244 69.879 48.362C69.879 48.362 70.4081 49.8241 71.9545 50.0678C71.9545 50.0678 72.3615 50.8395 73.8673 50.7583C73.8673 50.7583 75.9021 51.1645 77.7742 48.9712C77.7742 48.9712 79.1578 47.509 80.1346 46.9404C80.1346 46.9404 80.5008 46.778 80.8264 46.4124C80.8264 46.4124 80.8264 46.3718 80.8671 46.3718L80.9078 46.3312C80.9485 46.2906 80.9485 46.2906 80.9892 46.2499C80.9892 46.2499 80.9892 46.2093 81.0299 46.2093C81.0706 46.1687 81.1113 46.1281 81.1113 46.0875C81.152 46.0469 81.1927 45.9656 81.2334 45.925C81.5589 46.2499 81.9252 46.3718 81.9252 46.3718C82.6577 46.5343 84.0007 47.0623 84.0007 47.0623C85.4251 48.362 86.6053 47.9964 86.6053 47.9964C88.0704 47.7527 88.3146 45.9656 88.3146 45.9656C88.2332 46.2093 87.7041 46.0469 87.7041 46.0469Z" fill="#C9C9C9"/>
<path d="M76.5545 35.2423C76.5545 35.2423 76.0254 38.8165 78.7114 38.3697C81.3974 37.923 82.3741 36.5014 84.8566 37.2731C87.3391 38.0448 85.6706 43.3655 83.4322 44.6246C81.1532 45.843 78.1824 46.1274 78.0196 43.731C77.8568 41.3347 80.6649 42.8375 80.909 43.0405L81.316 42.8375C81.316 42.8375 80.6242 41.619 80.5428 41.5784C80.4614 41.4971 78.4672 40.7254 78.3451 40.6036C78.2231 40.4818 76.1882 39.9131 75.9847 39.5476C75.7812 39.2227 75.7812 36.6232 75.7812 36.6232L76.5545 35.2423Z" fill="#F1AC7E"/>
<path d="M84.8562 37.273C82.3737 36.5013 81.397 37.9229 78.711 38.3697C76.2286 38.7758 76.4727 35.8109 76.5541 35.3235C76.5541 35.3235 76.1065 38.2072 77.8971 38.5321C79.6878 38.8571 81.397 37.3949 82.74 37.2324C84.083 37.07 85.5887 37.4355 85.9143 38.6946C86.2399 39.9131 85.4666 43.0811 83.5539 44.4214C83.5539 44.4214 81.0714 45.9242 79.0773 45.1931C79.0773 45.1931 78.1413 44.7464 78.1413 43.406C78.1413 43.406 78.0192 41.4565 80.9087 42.9999C80.6645 42.7968 77.8564 41.294 78.0192 43.6904C78.182 46.0867 81.1528 45.8024 83.4318 44.5839C85.6701 43.3654 87.3387 38.0447 84.8562 37.273Z" fill="#3D2516"/>
<path d="M79.769 58.3121L82.984 55.5502L84.0828 57.581L79.769 58.3121Z" fill="#F0EDF6"/>
<path d="M81.1118 83.8189C82.1456 83.8189 82.9838 82.9824 82.9838 81.9505C82.9838 80.9187 82.1456 80.0822 81.1118 80.0822C80.0779 80.0822 79.2397 80.9187 79.2397 81.9505C79.2397 82.9824 80.0779 83.8189 81.1118 83.8189Z" fill="#ABB0B9"/>
<path d="M81.1116 83.6564C82.0556 83.6564 82.8208 82.8927 82.8208 81.9506C82.8208 81.0084 82.0556 80.2447 81.1116 80.2447C80.1676 80.2447 79.4023 81.0084 79.4023 81.9506C79.4023 82.8927 80.1676 83.6564 81.1116 83.6564Z" fill="#CBD9E3"/>
<path d="M80.6225 81.7069C80.7346 81.7069 80.8255 81.616 80.8255 81.5038C80.8255 81.3916 80.7346 81.3007 80.6225 81.3007C80.5103 81.3007 80.4194 81.3916 80.4194 81.5038C80.4194 81.616 80.5103 81.7069 80.6225 81.7069Z" fill="#91929C"/>
<path d="M81.6405 81.7068C81.7529 81.7068 81.844 81.6159 81.844 81.5037C81.844 81.3916 81.7529 81.3007 81.6405 81.3007C81.5281 81.3007 81.437 81.3916 81.437 81.5037C81.437 81.6159 81.5281 81.7068 81.6405 81.7068Z" fill="#91929C"/>
<path d="M80.6225 82.6004C80.7346 82.6004 80.8255 82.5095 80.8255 82.3974C80.8255 82.2852 80.7346 82.1943 80.6225 82.1943C80.5103 82.1943 80.4194 82.2852 80.4194 82.3974C80.4194 82.5095 80.5103 82.6004 80.6225 82.6004Z" fill="#91929C"/>
<path d="M81.6405 82.6004C81.7529 82.6004 81.844 82.5095 81.844 82.3973C81.844 82.2851 81.7529 82.1942 81.6405 82.1942C81.5281 82.1942 81.437 82.2851 81.437 82.3973C81.437 82.5095 81.5281 82.6004 81.6405 82.6004Z" fill="#91929C"/>
<path d="M94.8259 80.4071C95.7025 80.4071 96.4131 79.6979 96.4131 78.8231C96.4131 77.9483 95.7025 77.2391 94.8259 77.2391C93.9494 77.2391 93.2388 77.9483 93.2388 78.8231C93.2388 79.6979 93.9494 80.4071 94.8259 80.4071Z" fill="#ABB0B9"/>
<path d="M94.8264 80.2854C95.6355 80.2854 96.2914 79.6308 96.2914 78.8233C96.2914 78.0157 95.6355 77.3611 94.8264 77.3611C94.0173 77.3611 93.3613 78.0157 93.3613 78.8233C93.3613 79.6308 94.0173 80.2854 94.8264 80.2854Z" fill="#CBD9E3"/>
<path d="M94.4201 78.6201C94.51 78.6201 94.5829 78.5474 94.5829 78.4577C94.5829 78.368 94.51 78.2952 94.4201 78.2952C94.3302 78.2952 94.2573 78.368 94.2573 78.4577C94.2573 78.5474 94.3302 78.6201 94.4201 78.6201Z" fill="#91929C"/>
<path d="M95.2736 78.6201C95.3635 78.6201 95.4364 78.5474 95.4364 78.4577C95.4364 78.368 95.3635 78.2952 95.2736 78.2952C95.1837 78.2952 95.1108 78.368 95.1108 78.4577C95.1108 78.5474 95.1837 78.6201 95.2736 78.6201Z" fill="#91929C"/>
<path d="M94.4191 79.3513C94.509 79.3513 94.5819 79.2786 94.5819 79.1888C94.5819 79.0991 94.509 79.0264 94.4191 79.0264C94.3292 79.0264 94.2563 79.0991 94.2563 79.1888C94.2563 79.2786 94.3292 79.3513 94.4191 79.3513Z" fill="#91929C"/>
<path d="M95.2736 79.3513C95.3635 79.3513 95.4364 79.2786 95.4364 79.1888C95.4364 79.0991 95.3635 79.0264 95.2736 79.0264C95.1837 79.0264 95.1108 79.0991 95.1108 79.1888C95.1108 79.2786 95.1837 79.3513 95.2736 79.3513Z" fill="#91929C"/>
<path d="M91.2449 70.0907C92.1215 70.0907 92.8321 69.3815 92.8321 68.5067C92.8321 67.6319 92.1215 66.9227 91.2449 66.9227C90.3683 66.9227 89.6577 67.6319 89.6577 68.5067C89.6577 69.3815 90.3683 70.0907 91.2449 70.0907Z" fill="#ABB0B9"/>
<path d="M91.2449 69.9688C92.054 69.9688 92.71 69.3142 92.71 68.5067C92.71 67.6991 92.054 67.0445 91.2449 67.0445C90.4357 67.0445 89.7798 67.6991 89.7798 68.5067C89.7798 69.3142 90.4357 69.9688 91.2449 69.9688Z" fill="#CBD9E3"/>
<path d="M90.8391 68.3045C90.929 68.3045 91.0019 68.2317 91.0019 68.142C91.0019 68.0523 90.929 67.9796 90.8391 67.9796C90.7492 67.9796 90.6763 68.0523 90.6763 68.142C90.6763 68.2317 90.7492 68.3045 90.8391 68.3045Z" fill="#91929C"/>
<path d="M91.6931 68.3036C91.783 68.3036 91.8558 68.2308 91.8558 68.1411C91.8558 68.0514 91.783 67.9786 91.6931 67.9786C91.6032 67.9786 91.5303 68.0514 91.5303 68.1411C91.5303 68.2308 91.6032 68.3036 91.6931 68.3036Z" fill="#91929C"/>
<path d="M90.8386 69.0347C90.9285 69.0347 91.0014 68.962 91.0014 68.8722C91.0014 68.7825 90.9285 68.7098 90.8386 68.7098C90.7487 68.7098 90.6758 68.7825 90.6758 68.8722C90.6758 68.962 90.7487 69.0347 90.8386 69.0347Z" fill="#91929C"/>
<path d="M91.6931 69.0347C91.783 69.0347 91.8558 68.9619 91.8558 68.8722C91.8558 68.7825 91.783 68.7097 91.6931 68.7097C91.6032 68.7097 91.5303 68.7825 91.5303 68.8722C91.5303 68.9619 91.6032 69.0347 91.6931 69.0347Z" fill="#91929C"/>
<path d="M78.6699 73.6243C79.7038 73.6243 80.5419 72.7878 80.5419 71.756C80.5419 70.7241 79.7038 69.8876 78.6699 69.8876C77.636 69.8876 76.7979 70.7241 76.7979 71.756C76.7979 72.7878 77.636 73.6243 78.6699 73.6243Z" fill="#ABB0B9"/>
<path d="M78.6704 73.5025C79.6369 73.5025 80.4203 72.7206 80.4203 71.756C80.4203 70.7915 79.6369 70.0095 78.6704 70.0095C77.7039 70.0095 76.9204 70.7915 76.9204 71.756C76.9204 72.7206 77.7039 73.5025 78.6704 73.5025Z" fill="#CBD9E3"/>
<path d="M78.1415 71.5122C78.2538 71.5122 78.3449 71.4213 78.3449 71.3091C78.3449 71.1969 78.2538 71.106 78.1415 71.106C78.0291 71.106 77.938 71.1969 77.938 71.3091C77.938 71.4213 78.0291 71.5122 78.1415 71.5122Z" fill="#91929C"/>
<path d="M79.159 71.5122C79.2714 71.5122 79.3625 71.4213 79.3625 71.3091C79.3625 71.1969 79.2714 71.106 79.159 71.106C79.0467 71.106 78.9556 71.1969 78.9556 71.3091C78.9556 71.4213 79.0467 71.5122 79.159 71.5122Z" fill="#91929C"/>
<path d="M78.141 72.4058C78.2534 72.4058 78.3445 72.3149 78.3445 72.2027C78.3445 72.0906 78.2534 71.9996 78.141 71.9996C78.0286 71.9996 77.9375 72.0906 77.9375 72.2027C77.9375 72.3149 78.0286 72.4058 78.141 72.4058Z" fill="#91929C"/>
<path d="M79.159 72.4058C79.2714 72.4058 79.3625 72.3149 79.3625 72.2027C79.3625 72.0906 79.2714 71.9996 79.159 71.9996C79.0467 71.9996 78.9556 72.0906 78.9556 72.2027C78.9556 72.3149 79.0467 72.4058 79.159 72.4058Z" fill="#91929C"/>
<path d="M72.2815 36.0149L71.9966 37.4771L74.6419 35.6494L74.764 34.8777L72.2815 36.0149Z" fill="#3D2516"/>
<path d="M76.7578 34.7955V35.5266C76.7578 35.5266 79.0368 35.4048 79.5658 35.8109C79.5658 35.8109 79.5251 35.1611 78.9961 34.9986C78.467 34.7955 76.7578 34.7955 76.7578 34.7955Z" fill="#3D2516"/>
<path d="M75.4137 37.1512C75.4137 37.1512 75.4544 38.2073 74.9661 38.451C74.4777 38.6946 72.5649 38.8571 72.5649 38.8571C72.5649 38.8571 74.5998 39.1008 75.2916 38.654C75.9428 38.1666 75.4137 37.1512 75.4137 37.1512Z" fill="#190B08"/>
<path d="M77.1634 36.3795C77.1634 36.3795 77.1227 37.1512 77.4889 37.3543C77.8552 37.5574 79.2389 37.6386 79.2389 37.6386C79.2389 37.6386 77.7331 37.8417 77.2448 37.4761C76.7564 37.1512 77.1634 36.3795 77.1634 36.3795Z" fill="#190B08"/>
<path d="M72.4438 38.7353C72.4438 38.7353 72.5659 36.9076 73.5834 36.5827C74.6008 36.2577 75.3741 37.0294 75.3741 37.0294C75.3741 37.0294 72.9322 35.1611 72.4438 38.7353Z" fill="#E5A070"/>
<path d="M63.6934 40.6442C63.6934 40.6442 65.7689 41.1316 65.484 41.6189C65.2398 42.147 64.3038 43.0405 65.2805 43.203C66.2573 43.3654 65.5654 43.7716 64.8736 43.203C64.1817 42.6343 65.2398 41.6189 65.2398 41.6189C65.2398 41.6189 64.5073 40.766 63.6934 40.6442Z" fill="#E5A070"/>
<path d="M84.6111 56.3218C84.7739 56.1594 84.9367 56.8092 84.9367 57.0935C84.9367 57.3778 83.0239 58.84 82.9019 59.0431C81.6403 60.6677 79.8903 61.1145 78.2624 61.1957C76.3497 61.277 74.3556 60.9114 72.7277 59.368C72.4835 59.1243 72.1987 58.7994 72.158 58.312C72.1173 57.8246 73.094 57.5809 73.2975 57.9058C72.9719 57.4185 72.9312 56.2 73.0126 55.5095C73.1754 54.3723 73.5417 54.291 73.9079 54.6566C75.6172 56.2812 78.1404 58.6775 79.8496 58.7182C80.6635 58.7182 81.2333 57.6215 82.0065 57.2966C82.21 57.2154 83.4309 55.5095 83.6344 55.5907C83.96 55.6314 84.896 56.0375 84.6111 56.3218Z" fill="#B02200"/>
<path d="M81.1929 59.7742C81.4371 59.1244 81.9255 58.6776 82.4138 58.5964C82.9022 58.5151 83.4313 58.8401 83.7568 59.3681C84.1231 59.9773 84.2859 60.8709 84.6928 61.3989C85.0591 61.8863 85.6289 62.0081 86.0765 61.6426C86.28 61.4801 86.4835 61.1958 86.5242 60.8303C86.5649 60.5866 86.4835 60.3022 86.3207 60.1398C86.6056 60.3429 86.8498 60.7896 86.9312 61.277C87.0126 61.8863 86.8498 62.5361 86.6056 63.0235C86.3614 63.5109 86.0358 63.8764 85.6696 64.2014C84.8149 64.9325 83.7975 65.2574 82.8615 64.9325C81.9255 64.6075 81.0708 63.5109 80.786 62.0893C80.7453 61.277 80.9081 60.5053 81.1929 59.7742Z" fill="#B02200"/>
<path d="M84.1233 60.1804C84.2861 60.546 84.3675 60.9927 84.5303 61.3583C84.8151 61.8863 85.3035 62.0488 85.7105 61.9269C86.1174 61.7644 86.4837 61.3177 86.7686 60.7491C87.0128 61.5614 86.7279 62.5768 86.3209 63.2266C85.7919 64.1202 84.9779 64.6482 84.164 64.6482C83.35 64.6482 82.5768 64.1202 82.0477 63.186C82.2512 63.3078 82.4547 63.3485 82.6582 63.2266C82.414 63.0641 82.2512 62.658 82.2512 62.2112C82.2512 62.0488 82.2919 61.9269 82.2512 61.8051C82.1698 61.4395 81.7629 61.4801 81.7222 61.1146C82.007 61.2364 82.3326 60.9115 82.414 60.4647C82.4954 60.018 82.2105 59.49 82.4954 59.165C82.9838 58.5558 83.8791 59.5712 84.1233 60.1804Z" fill="#D33100"/>
<path d="M80.3792 61.074C81.2338 61.9269 81.478 64.0795 81.2338 65.623C80.9897 67.1664 80.0536 68.3848 79.0362 68.5067C78.0188 68.6285 76.9607 67.6944 76.5537 66.2322C76.92 66.8008 77.6525 66.7602 77.9374 66.1103C78.2223 65.5011 78.0595 64.6888 77.8153 64.0389C77.5711 63.3891 77.2456 62.7798 77.2456 62.0488C77.2049 61.0334 77.8153 60.1804 78.4665 60.0992C79.1583 60.018 79.8501 60.546 80.3792 61.074Z" fill="#B02200"/>
<path d="M79.565 60.3834C79.1581 60.1804 78.3441 60.0585 77.9779 60.5865C77.5709 61.2364 77.4488 62.333 77.7337 63.1453C77.8965 63.6733 78.1814 64.0795 78.3034 64.6075C78.4255 65.1761 78.3034 65.8666 78.0186 66.3134C77.7337 66.7601 77.3267 66.9632 76.9604 66.9226C77.5709 67.8161 78.5069 68.2223 79.2802 67.8161C80.0941 67.41 80.6639 66.0697 80.5418 64.8106C80.5418 65.2573 80.4197 65.7041 80.1755 66.029C80.5418 65.1761 79.8092 63.8764 80.1755 63.0235C80.2569 62.8204 80.379 62.6985 80.5011 62.5361C81.0708 61.6831 80.0127 60.6271 79.565 60.3834Z" fill="#D33100"/>
<path d="M78.6699 62.0893C78.7513 61.5207 79.0769 60.9927 79.4432 60.8303C79.0769 60.5459 78.5886 60.6678 78.263 61.1146C77.9374 61.5613 77.8153 62.2924 77.9374 62.9017C78.0595 63.5109 78.4258 63.9577 78.5479 64.5669C78.6699 65.1355 78.6293 65.7854 78.3851 66.2728C78.1409 66.7602 77.7746 67.0445 77.3677 67.0038C77.856 67.3288 78.5072 67.0445 78.8327 66.354C78.6699 66.882 78.3444 67.3288 77.9781 67.4506C78.3444 67.41 78.7106 67.3288 78.9955 67.0445C79.3211 66.8008 79.606 66.354 79.6873 65.826C79.8094 65.3386 79.728 64.77 79.6873 64.2826C79.606 63.7546 79.5246 63.2266 79.5653 62.6986C79.606 62.2924 80.0943 61.3583 79.6873 61.1552C79.4839 61.0739 78.7106 61.6019 78.6699 62.0893Z" fill="#F84511"/>
<path d="M83.9197 60.3834C84.1232 60.8302 84.2452 61.3988 84.4487 61.8456C84.7336 62.3736 85.222 62.6579 85.6289 62.5766C86.0766 62.4954 86.4836 62.008 86.6464 61.3582C86.565 62.0893 86.2801 62.7391 85.8324 63.0234C86.1173 62.9422 86.3615 62.6985 86.565 62.3736C86.1987 63.064 85.7103 63.592 85.1406 63.7545C84.5708 63.917 83.9604 63.7139 83.5127 63.1453C83.065 62.5766 82.8209 61.6019 82.9429 60.7489C82.9836 60.424 82.9429 59.7742 83.1871 59.7335C83.5127 59.6929 83.7976 60.0991 83.9197 60.3834Z" fill="#F84511"/>
<path d="M73.6237 56.1187C73.5423 56.0375 73.4609 55.9563 73.4202 55.9969C73.3795 56.0375 73.3795 56.1594 73.3795 56.2406C73.3795 57.1341 73.6237 57.9871 74.0714 58.5557C73.7458 58.2308 73.5016 57.7434 73.3388 57.2154C73.3795 57.7434 73.4609 58.2308 73.6237 58.6775C73.4609 58.4745 73.2981 58.2714 73.0947 58.1495C72.8912 58.0277 72.647 58.0683 72.5249 58.2714C73.7458 59.6929 75.2516 60.5052 76.798 60.5865C76.1062 60.1803 75.4143 59.5711 74.8446 58.7994C75.4143 59.3274 76.0248 59.7335 76.6759 60.0991C76.8794 60.2209 77.0829 60.3022 77.2864 60.2209C77.4492 60.1397 77.6526 59.896 77.612 59.6117C77.5713 59.2868 77.3271 59.2462 77.1643 59.1649C76.7166 58.9618 76.3097 58.6775 75.862 58.3932C75.0888 57.8246 74.3155 57.0529 73.6237 56.1187Z" fill="#D33100"/>
<path d="M81.7221 58.8806C81.5187 58.3932 81.2338 58.0277 80.8675 57.9465C80.5012 57.8652 80.135 58.1902 80.0129 58.6775C79.728 58.4745 79.4431 58.2714 79.1582 58.3526C78.8734 58.4339 78.5885 58.8806 78.6699 59.3274C78.7513 59.6929 79.0361 59.8554 79.2396 60.0179C79.5245 60.1803 79.8094 60.424 80.0943 60.5865C80.2571 60.6677 80.8675 61.0333 80.9082 61.3176C80.8675 60.9927 80.9896 60.6271 81.1524 60.3834C81.3559 60.1397 81.6 60.1397 81.8035 60.3428C81.9663 60.4647 82.0884 60.7083 82.0477 60.1803C82.007 59.7742 81.8849 59.2462 81.7221 58.8806Z" fill="#D33100"/>
<path d="M80.1352 60.1804C79.9725 59.9773 79.8097 59.8149 79.6062 59.7336C79.5655 59.2056 79.4027 58.7182 79.0771 58.5151C79.4434 58.4339 79.8504 58.8401 80.0132 59.4087C80.0539 59.2056 80.0539 59.0431 80.0946 58.8401C80.1759 58.8401 80.2166 58.9213 80.2166 59.0431C80.3387 58.7588 80.4201 58.4339 80.5422 58.1496C80.8678 58.1496 81.1933 58.3527 81.3968 58.7182C81.641 59.0431 81.8038 59.5305 81.8445 60.0179C81.7631 59.693 81.7224 59.6118 81.5596 59.3275C81.4375 59.0431 81.234 58.8401 81.0306 58.7995C80.8271 58.7588 80.5829 59.0025 80.5422 59.3275C80.5015 59.693 80.6643 60.1398 80.4608 60.4241C80.3794 60.221 80.298 59.9773 80.2573 59.7742C80.1759 59.8961 80.1352 60.0585 80.1352 60.1804Z" fill="#F84511"/>
<path d="M64.6292 46.4928C64.6292 46.4928 62.106 46.8177 62.4722 47.7519C62.8385 48.6861 76.9195 54.9815 76.9195 54.9815L73.0533 59.9773C73.0533 59.9773 64.1001 55.2658 61.9839 51.2449L62.106 47.5488C62.1467 47.5488 62.1467 46.4928 64.6292 46.4928Z" fill="#ABB0B9"/>
<path d="M67.3966 70.2125C67.3966 70.2125 67.5594 70.0907 67.8036 70.903C68.0478 71.7153 69.0245 77.2391 68.5361 77.4828C68.0478 77.7671 66.949 77.1985 66.949 77.1985C66.949 77.1985 65.9723 75.8175 65.9723 75.4114C65.9723 75.0458 65.2397 73.8274 65.4839 73.2587C65.6874 72.6901 66.013 71.7153 66.013 71.6747C66.0537 71.6341 66.2978 71.1873 66.3792 71.0249C66.4606 70.903 67.3966 70.2125 67.3966 70.2125Z" fill="#7B7D8E"/>
<path d="M69.5937 70.4562C69.5937 70.4562 69.7158 70.375 69.8786 70.9842C70.0414 71.5935 70.6518 75.6957 70.2855 75.8987C69.9193 76.1018 69.1053 75.6551 69.1053 75.6551C69.1053 75.6551 68.4135 74.599 68.4135 74.3147C68.4135 74.0304 67.9251 73.1369 68.0879 72.7307C68.2507 72.3246 68.4949 71.5935 68.5356 71.5529C68.5356 71.5122 68.7391 71.1873 68.8205 71.1061C68.8612 70.9436 69.5937 70.4562 69.5937 70.4562Z" fill="#7B7D8E"/>
<path d="M71.3429 69.7252L70.5289 70.6594C70.5289 70.6594 68.9011 71.0249 66.7441 71.1468C67.0697 72.7308 67.3546 74.3148 67.6395 75.8988C70.3255 75.3708 73.7033 74.6397 74.4765 74.1524L71.3429 69.7252Z" fill="#F1AC7E"/>
<path d="M70.1216 70.7812C70.9762 73.4212 72.482 74.8428 72.482 74.8428C71.7088 74.0305 71.3425 70.7 70.8948 70.2938C70.732 70.2938 70.3658 70.7406 70.1216 70.7812Z" fill="#E98047"/>
<path d="M70.7732 69.6845C70.7732 69.6845 69.9592 66.5571 70.4883 64.9325C71.0581 63.3078 70.4476 61.602 70.2848 60.8709C70.122 60.1398 68.4942 57.2967 69.9592 57.2967C70.6511 57.2967 72.9301 57.1749 72.808 59.9367C72.6452 62.6986 72.2383 63.3891 73.4999 63.3891C74.8022 63.3891 76.3486 63.2266 76.6742 65.9479" fill="#F1AC7E"/>
<path d="M70.7725 60.7897C70.7725 60.7897 73.255 61.6427 72.441 58.3528C72.441 58.3528 73.255 59.5306 72.3596 61.7239C71.6678 63.4704 70.7725 60.7897 70.7725 60.7897Z" fill="#E98047"/>
<path d="M71.304 64.8513C71.304 64.8513 74.8447 62.9018 76.5946 63.9578C76.5946 63.9578 77.2051 64.8513 77.2458 65.5012C77.2458 65.5012 78.5074 66.8009 77.9376 68.0193C77.9376 68.0193 78.5074 69.7658 77.7748 70.4563C77.7748 70.4563 78.1411 72.0809 77.2458 73.1775C77.2458 73.1775 75.6586 74.2336 74.5191 74.1523C74.5191 74.1523 73.4203 74.8428 72.6877 74.7209C72.6877 74.7209 70.7343 72.4058 70.6936 68.7504C70.6936 68.6692 70.2052 65.9885 71.304 64.8513Z" fill="#F1AC7E"/>
<g opacity="0.5">
<path opacity="0.5" d="M72.9722 66.8415L72.8501 66.5978C72.9722 66.5572 75.821 65.3387 77.2454 65.3387V65.623C75.8617 65.623 72.9722 66.8415 72.9722 66.8415Z" fill="#E98047"/>
<path opacity="0.5" d="M73.5425 69.7252L73.4204 69.4815C73.5832 69.4003 76.961 67.9787 77.897 67.8569L77.9377 68.1412C77.0424 68.263 73.5832 69.7252 73.5425 69.7252Z" fill="#E98047"/>
<path opacity="0.5" d="M74.0708 72.2027L73.9487 71.959C74.0708 71.8778 76.9195 70.4156 77.7742 70.2938L77.8148 70.5781C77.0009 70.6999 74.0708 72.2027 74.0708 72.2027Z" fill="#E98047"/>
</g>
<path d="M70.3655 66.3135C70.3655 66.3135 70.7317 63.9171 75.6153 63.714C75.6153 63.714 70.3248 63.3891 70.3655 66.3135Z" fill="#E98047"/>
<path d="M66.5817 77.9701C67.9247 77.3609 69.2269 76.6704 70.3257 75.8581C70.3257 75.8581 68.3723 72.6088 69.5932 70.4562C69.5932 70.4562 67.5584 71.0248 64.6689 71.0248C65.2387 73.3805 65.8491 75.6956 66.5817 77.9701Z" fill="#91929C"/>
<path d="M65.0766 72.7713C66.7451 71.8371 68.2916 71.106 69.4718 70.6186C69.5125 70.578 69.5125 70.4968 69.5532 70.4562C69.5532 70.4562 67.5183 71.0248 64.6289 71.0248C64.7917 71.5934 64.9545 72.162 65.0766 72.7713Z" fill="#7B7D8E"/>
<path d="M63.0422 80.3665C66.0944 79.3105 66.7049 79.1887 68.5362 77.4828C68.5362 77.4828 65.8096 73.1775 67.356 70.2126C67.356 70.2126 64.6701 71.0655 60.7632 71.1874C61.6178 74.2742 61.9841 77.3204 63.0422 80.3665Z" fill="#E2EBF2"/>
<path d="M67.0712 70.2938C67.0712 70.2938 58.9319 71.9997 55.1064 70.2126C55.1064 70.1719 58.3622 72.4871 67.0712 70.2938Z" fill="#ABB0B9"/>
<path d="M86.3213 52.829C86.3213 52.829 85.6295 54.2912 83.0249 55.5502L84.8563 58.962C84.8563 58.962 86.5655 54.9004 86.3213 52.829Z" fill="#ABB0B9"/>
<path d="M38.0521 37H2.39453V74.2369H38.0521V37Z" fill="#A5E0CA"/>
<path d="M35.6576 37H0V74.2369H35.6576V37Z" fill="#CDF0E3"/>
<path d="M30.8683 42.0202H4.78906V69.2603H30.8683V42.0202Z" fill="white"/>
<path d="M4.78911 69.4349C4.78911 69.4349 4.57142 69.7405 4.13604 70.177C3.70066 70.6135 3.13466 71.2247 2.48159 71.8359C1.82852 72.4907 1.21899 73.0582 0.783605 73.4947C0.348224 73.8876 0.043457 74.1495 0.043457 74.1495C0.043457 74.1495 0.261147 73.8439 0.696528 73.4074C1.13191 72.9709 1.6979 72.3597 2.35098 71.7049C3.00405 71.0501 3.61358 70.4826 4.04896 70.046C4.48434 69.6531 4.78911 69.4349 4.78911 69.4349Z" fill="#A5E0CA"/>
<path d="M30.868 69.3912C30.868 69.3912 31.1728 69.6095 31.6082 70.046C32.0435 70.4826 32.6531 71.0501 33.2626 71.7049C33.9157 72.3597 34.4817 72.9709 34.917 73.4074C35.3089 73.844 35.5701 74.1495 35.5701 74.1495C35.5701 74.1495 35.2653 73.9313 34.83 73.4947C34.3946 73.0582 33.785 72.4907 33.132 71.8359C32.4789 71.1811 31.9129 70.5699 31.4775 70.1334C31.0857 69.6532 30.8245 69.3912 30.868 69.3912Z" fill="#A5E0CA"/>
<path d="M30.7812 42.1075C30.7812 42.1075 30.9989 41.8019 31.4343 41.3653C31.8697 40.9288 32.4357 40.3176 33.0888 39.7065C33.7418 39.0517 34.3514 38.4842 34.7867 38.0476C35.2221 37.6547 35.5269 37.3928 35.5269 37.3928C35.5269 37.3928 35.3092 37.6984 34.8738 38.1349C34.4384 38.5715 33.8724 39.1826 33.2194 39.8374C32.5663 40.4923 31.9568 41.0598 31.5214 41.4963C31.086 41.8892 30.7812 42.1075 30.7812 42.1075Z" fill="#A5E0CA"/>
<path d="M4.70215 42.1511C4.70215 42.1511 4.39738 41.9328 3.962 41.4963C3.52661 41.0598 2.91708 40.4923 2.30754 39.8374C1.65447 39.1826 1.08847 38.5715 0.653089 38.1349C0.217707 37.6984 1.54302e-05 37.3928 0.0435537 37.3928C0.0435537 37.3928 0.348321 37.6111 0.783704 38.0476C1.21909 38.4842 1.82862 39.0517 2.4817 39.7065C3.13477 40.3613 3.70077 40.9724 4.13615 41.409C4.48446 41.8455 4.74569 42.1511 4.70215 42.1511Z" fill="#A5E0CA"/>
<path d="M30.7814 69.2603C30.7814 69.2603 30.7814 69.2167 30.7814 69.1294C30.7814 69.0421 30.7814 68.9111 30.7814 68.7365C30.7814 68.3872 30.7814 67.9071 30.7814 67.2522C30.7814 65.9863 30.7814 64.1092 30.7379 61.7082C30.7379 56.9499 30.6943 50.1399 30.6943 42.0202L30.7814 42.1075C23.2058 42.1075 14.2805 42.1075 4.78922 42.1075L4.8763 42.0202C4.8763 52.017 4.8763 61.359 4.8763 69.2603L4.78922 69.173C12.5825 69.173 19.0697 69.2167 23.5976 69.2167C25.8616 69.2167 27.6467 69.2167 28.8657 69.2603C29.4753 69.2603 29.9542 69.2603 30.259 69.2603C30.4331 69.2603 30.5202 69.2603 30.6073 69.2603C30.7379 69.2603 30.7814 69.2603 30.7814 69.2603C30.7814 69.2603 30.7379 69.2603 30.6508 69.2603C30.5637 69.2603 30.4331 69.2603 30.3025 69.2603C29.9977 69.2603 29.5188 69.2603 28.9093 69.2603C27.6902 69.2603 25.9052 69.2603 23.6412 69.304C19.1132 69.304 12.6261 69.304 4.78922 69.3476H4.70215V69.2603C4.70215 61.359 4.70215 52.017 4.70215 42.0202V41.9329H4.78922C14.2805 41.9329 23.2058 41.9329 30.7814 41.9329H30.8685V42.0202C30.8685 50.1835 30.8249 56.9936 30.8249 61.7955C30.8249 64.1528 30.8249 66.0299 30.7814 67.3396C30.7814 67.9507 30.7814 68.4746 30.7814 68.7801C30.7814 68.9548 30.7814 69.0421 30.7814 69.1294C30.7814 69.2167 30.7814 69.2603 30.7814 69.2603Z" fill="#A5E0CA"/>
<path d="M11.668 53.4139C11.668 53.4139 11.102 60.1366 18.3728 60.1366C18.4164 56.557 15.4122 53.7195 11.668 53.4139Z" fill="#CDF0E3"/>
<path d="M24.9905 53.4139C24.9905 53.4139 18.2856 52.8464 18.2856 60.1366C21.8558 60.1366 24.6857 57.1681 24.9905 53.4139Z" fill="#CDF0E3"/>
<path d="M18.068 49.7033C18.068 49.7033 12.5823 54.6362 18.3728 60.1366C21.0722 57.2991 20.8545 52.8027 18.068 49.7033Z" fill="#A5E0CA"/>
</svg>
