<svg width="13" height="18" viewBox="0 0 13 18" fill="none" xmlns="http://www.w3.org/2000/svg">
<path d="M11.9299 6.64618C11.9299 6.71623 11.9299 6.78628 11.916 6.85634" stroke="#6C6C6C" stroke-miterlimit="10"/>
<path d="M1.06934 6.47803C1.06934 6.50605 1.06934 6.54808 1.06934 6.5761" stroke="#6C6C6C" stroke-miterlimit="10"/>
<path d="M11.9302 6.47803C11.9302 6.53407 11.9302 6.59011 11.9302 6.64615" stroke="#6C6C6C" stroke-miterlimit="10"/>
<path d="M1.08301 6.77241C1.08301 6.71637 1.08301 6.64631 1.08301 6.59027" stroke="#6C6C6C" stroke-miterlimit="10"/>
<path d="M11.9298 6.47811C11.9159 5.95972 11.8602 5.45534 11.721 4.95096C11.5817 4.48862 11.3868 4.04028 11.1362 3.61997C10.8855 3.21366 10.5792 2.83538 10.2311 2.49912C9.88301 2.16287 9.49314 1.88266 9.07541 1.65849C8.64377 1.42032 8.18427 1.25219 7.71086 1.14011C7.30706 1.04203 6.90326 1 6.49946 1C5.9982 1.01401 5.49693 1.08406 5.02351 1.22417C4.56402 1.36427 4.11845 1.56042 3.70073 1.81261C3.29693 2.0648 2.92098 2.37303 2.60073 2.72329C2.26655 3.07356 1.98807 3.46585 1.76529 3.90018C1.52858 4.3345 1.36149 4.79685 1.23617 5.27321C1.1387 5.6655 1.09693 6.0718 1.08301 6.49212" stroke="#6C6C6C" stroke-miterlimit="10"/>
<path d="M6.49972 16.8458C1.50098 12.5166 1.09718 7.3607 1.06934 6.57611" stroke="#6C6C6C" stroke-miterlimit="10"/>
<path d="M1.06934 6.47803C1.06934 6.47803 1.06934 6.52006 1.06934 6.5761" stroke="#6C6C6C" stroke-miterlimit="10"/>
<path d="M11.9302 6.47803C11.9302 6.47803 11.9302 6.53407 11.9302 6.64615" stroke="#6C6C6C" stroke-miterlimit="10"/>
<path d="M6.43018 16.7898L6.4998 16.8458C11.3871 12.6147 11.8745 7.59889 11.9302 6.64618" stroke="#6C6C6C" stroke-miterlimit="10"/>
<path d="M6.4998 8.55159C7.47644 8.55159 8.26816 7.75496 8.26816 6.77226C8.26816 5.78956 7.47644 4.99292 6.4998 4.99292C5.52317 4.99292 4.73145 5.78956 4.73145 6.77226C4.73145 7.75496 5.52317 8.55159 6.4998 8.55159Z" stroke="#6C6C6C" stroke-miterlimit="10"/>
</svg>
