<svg width="292" height="280" viewBox="0 0 292 280" fill="none" xmlns="http://www.w3.org/2000/svg">
<path d="M284.911 120.627H198.85V0.516846H284.846V120.627H284.911ZM201.435 118.043H282.327V3.03665H201.435V118.043Z" fill="#EC8F8F"/>
<path d="M243.173 3.74756H240.588V119.4H243.173V3.74756Z" fill="#EC8F8F"/>
<path d="M287.173 5.68579H196.525V9.23935H287.173V5.68579Z" fill="#EC8F8F"/>
<path d="M287.172 9.62701H196.524V13.1806H287.172V9.62701Z" fill="#EC8F8F"/>
<path d="M287.172 13.6329H196.524V17.1864H287.172V13.6329Z" fill="#EC8F8F"/>
<path d="M287.172 17.6387H196.524V21.1922H287.172V17.6387Z" fill="#EC8F8F"/>
<path d="M287.172 21.6445H196.524V25.1981H287.172V21.6445Z" fill="#EC8F8F"/>
<path d="M287.172 25.6504H196.524V29.204H287.172V25.6504Z" fill="#EC8F8F"/>
<path d="M287.172 29.6562H196.524V33.2098H287.172V29.6562Z" fill="#EC8F8F"/>
<path d="M287.172 33.662H196.524V37.2156H287.172V33.662Z" fill="#EC8F8F"/>
<path d="M287.172 37.6678H196.524V41.2214H287.172V37.6678Z" fill="#EC8F8F"/>
<path d="M279.613 4.91058H278.967V74.0435H279.613V4.91058Z" fill="#263238"/>
<path d="M280.453 77.0804H278.191L278.708 73.8499H279.871L280.453 77.0804Z" fill="#263238"/>
<path d="M281.938 4.91052H281.292V91.5528H281.938V4.91052Z" fill="#263238"/>
<path d="M282.714 93.9433H280.452L281.034 90.7128H282.132L282.714 93.9433Z" fill="#263238"/>
<path d="M291.178 0H192.583V7.43018H291.178V0Z" fill="#FFB3B3"/>
<path d="M155.238 279.892C227.069 279.892 285.299 272.457 285.299 263.287C285.299 254.116 227.069 246.682 155.238 246.682C83.4078 246.682 25.1777 254.116 25.1777 263.287C25.1777 272.457 83.4078 279.892 155.238 279.892Z" fill="#DB5A5A"/>
<path d="M252.218 185.819C252.218 185.819 241.493 183.364 235.613 178.001C229.734 172.574 226.438 162.882 226.438 162.882C226.438 162.882 232.77 164.045 238.456 166.048C239.425 167.082 241.234 169.214 242.074 171.217C242.074 171.217 242.268 169.085 242.074 167.534C243.625 168.245 244.917 169.02 245.886 169.86C250.861 174.06 252.218 185.819 252.218 185.819Z" fill="#EC8F8F"/>
<path d="M233.158 167.534C231.672 166.5 230.186 165.531 228.765 164.498C228.7 164.433 228.765 164.304 228.829 164.368C231.607 166.048 234.321 167.793 236.97 169.602C237.875 170.248 238.779 170.894 239.684 171.605C239.619 171.475 239.554 171.411 239.49 171.282C239.167 170.765 238.844 170.183 238.521 169.666C237.81 168.633 237.099 167.534 236.259 166.63C236.259 166.565 236.259 166.565 236.324 166.565C237.164 167.534 238.004 168.503 238.779 169.473C239.167 169.989 239.49 170.442 239.813 170.959C240.007 171.217 240.136 171.475 240.265 171.798C240.33 171.863 240.394 171.992 240.394 172.057C241.751 173.155 243.108 174.254 244.4 175.481C245.176 176.192 245.951 176.967 246.726 177.807C246.339 176.515 245.951 175.223 245.499 173.931C245.499 173.866 245.563 173.866 245.563 173.931C246.015 175.287 246.532 176.644 246.92 178.001C247.76 178.906 248.535 179.81 249.246 180.779C249.246 180.715 249.246 180.65 249.181 180.585C249.052 180.069 248.923 179.552 248.794 179.099C248.535 178.13 248.277 177.161 247.889 176.192C247.243 174.254 246.339 172.315 244.982 170.765C244.982 170.7 244.982 170.7 245.046 170.7C247.114 173.155 248.341 176.127 249.181 179.293C249.311 179.746 249.375 180.198 249.504 180.65C249.569 180.909 249.634 181.167 249.634 181.361C249.957 181.813 250.28 182.265 250.603 182.718C252.477 185.496 253.898 188.533 255.126 191.634C256.482 195.123 257.581 198.741 258.55 202.359C258.55 202.424 258.485 202.424 258.421 202.359C256.353 196.092 254.156 189.696 250.603 184.139C249.827 182.976 249.052 181.813 248.148 180.715C246.403 180.585 244.594 180.262 242.914 179.681C241.04 179.035 239.296 178.195 237.681 177.161C236.712 176.58 235.872 175.869 235.032 175.158C234.967 175.094 235.032 175.094 235.096 175.094C236.518 176.321 238.262 177.29 240.007 178.066C241.751 178.841 243.56 179.487 245.434 179.875C246.209 180.069 247.049 180.198 247.825 180.262C246.855 179.035 245.757 177.872 244.659 176.773C244.271 176.386 243.948 176.063 243.56 175.74C242.333 174.835 240.976 174.124 239.619 173.478C237.875 172.638 236.13 171.734 234.386 170.829C233.416 170.312 232.447 169.796 231.414 169.343C231.349 169.343 231.414 169.279 231.478 169.279C233.223 170.119 235.032 170.894 236.776 171.734C238.456 172.509 240.136 173.285 241.751 174.189C241.816 174.254 241.88 174.254 241.945 174.318C240.524 173.026 238.973 171.863 237.422 170.7C236.066 169.602 234.644 168.568 233.158 167.534Z" fill="#263238"/>
<path d="M233.804 173.09C234.644 173.478 235.549 173.801 236.453 174.189C237.358 174.576 238.198 175.093 239.038 175.61C239.102 175.61 239.038 175.675 238.973 175.675C238.133 175.287 237.228 174.9 236.388 174.447C235.549 173.995 234.644 173.543 233.804 173.155C233.739 173.155 233.739 173.09 233.804 173.09Z" fill="#263238"/>
<path d="M287.043 131.74C287.043 131.74 284.007 135.165 283.813 140.657C283.748 141.626 283.942 142.983 284.071 144.533C280.065 146.665 277.093 150.542 277.093 150.542C279.355 149.185 282.456 148.604 284.136 148.862C284.071 149.896 283.942 150.994 283.748 152.093C283.037 152.028 281.551 152.157 279.225 152.997C279.225 152.997 281.551 152.933 283.296 153.837C281.358 159.91 275.736 166.178 260.036 168.827C260.036 168.827 257 158.166 262.814 146.73C267.531 137.426 287.043 131.74 287.043 131.74Z" fill="#EC8F8F"/>
<path d="M254.609 194.735C254.867 192.151 255.255 189.567 255.642 186.982C256.418 181.813 257.516 176.709 258.808 171.605C259.454 169.214 260.165 166.888 261.07 164.627C261.005 164.239 261.005 163.787 261.005 163.399C261.005 162.883 261.005 162.366 261.005 161.913C261.005 160.88 261.07 159.91 261.134 158.877C261.328 156.874 261.587 154.935 262.103 152.997C262.362 151.899 262.75 150.8 263.073 149.702C263.073 149.637 263.137 149.702 263.137 149.702C262.556 151.64 262.233 153.579 261.974 155.582C261.716 157.52 261.522 159.523 261.457 161.461C261.457 161.978 261.457 162.559 261.457 163.076C261.457 163.335 261.457 163.529 261.457 163.787C262.233 161.913 263.073 160.104 264.106 158.295C265.657 155.517 267.531 152.803 269.469 150.284C269.469 149.96 269.534 149.702 269.598 149.379C269.663 149.056 269.727 148.668 269.857 148.345C269.986 147.635 270.18 146.924 270.374 146.213C270.761 144.792 271.278 143.435 271.73 142.013C271.73 141.949 271.795 142.013 271.795 142.013C271.407 143.435 271.084 144.856 270.761 146.278C270.632 146.988 270.438 147.699 270.309 148.41C270.244 148.733 270.18 149.121 270.115 149.444V149.508C270.761 148.733 271.407 147.893 272.053 147.118C275.025 143.629 278.321 140.334 281.616 137.168C282.003 136.78 282.456 136.392 282.843 136.005C282.908 135.94 282.908 136.005 282.908 136.069C279.742 139.364 276.641 142.724 273.669 146.213C272.958 147.053 272.312 147.893 271.601 148.733C271.989 148.474 272.312 148.281 272.7 148.022C273.604 147.441 274.509 146.859 275.478 146.342C276.447 145.825 277.416 145.309 278.385 144.792C279.419 144.275 280.453 143.887 281.422 143.306C281.487 143.306 281.487 143.37 281.487 143.37C280.517 143.758 279.548 144.404 278.644 144.985C277.674 145.567 276.705 146.148 275.801 146.73C274.896 147.311 273.927 147.893 273.023 148.474C272.247 148.991 271.537 149.508 270.697 149.96C268.888 152.286 267.208 154.742 265.657 157.261C264.688 158.877 263.848 160.492 263.073 162.172C263.266 162.107 263.46 161.978 263.654 161.913C264.106 161.72 264.623 161.461 265.075 161.267C265.98 160.88 266.949 160.427 267.854 160.04C269.598 159.264 271.407 158.554 273.152 157.714C274.121 157.261 275.09 156.745 275.995 156.163C276.059 156.163 276.059 156.228 276.059 156.228C272.829 158.424 269.211 159.975 265.657 161.59L264.106 162.301C263.654 162.495 263.266 162.689 262.814 162.883C261.78 165.208 260.876 167.664 260.165 170.183C258.744 175.158 257.645 180.263 256.741 185.367C255.836 190.471 255.255 195.64 254.738 200.809C254.673 201.455 254.609 202.101 254.544 202.747C254.544 203.005 254.156 203.005 254.156 202.747C254.027 199.969 254.35 197.384 254.609 194.735Z" fill="#263238"/>
<path d="M264.106 151.447C264.365 149.832 264.817 148.281 265.269 146.73C265.269 146.666 265.334 146.73 265.334 146.73C264.946 148.281 264.623 149.832 264.365 151.382C264.042 152.997 263.783 154.548 263.59 156.163H263.525C263.654 154.548 263.848 152.997 264.106 151.447Z" fill="#263238"/>
<path d="M270.891 155.776C271.924 155 273.152 154.483 274.315 153.837C274.896 153.514 275.478 153.256 276.059 152.997C276.641 152.739 277.287 152.481 277.868 152.157C277.933 152.157 277.933 152.222 277.933 152.222C277.352 152.481 276.835 152.868 276.253 153.191C275.672 153.514 275.09 153.837 274.509 154.16C273.346 154.806 272.247 155.453 271.02 155.969C270.891 155.969 270.826 155.84 270.891 155.776Z" fill="#263238"/>
<path opacity="0.1" d="M252.024 167.211C252.024 167.211 242.074 164.821 237.552 158.166C233.223 151.834 231.801 140.98 231.672 140.01C231.866 140.915 233.869 150.348 240.653 154.742C245.822 158.166 250.861 160.944 252.024 167.211Z" fill="#263238"/>
<path d="M242.914 150.09C244.659 151.77 245.951 153.773 246.597 156.099C245.757 153.902 244.529 151.77 242.914 150.09C242.785 150.09 242.85 150.025 242.914 150.09Z" fill="#263238"/>
<path d="M252.025 167.211C252.025 167.211 242.075 164.821 237.552 158.166C233.223 151.834 231.802 140.979 231.673 140.01C231.673 139.946 231.673 139.946 231.673 139.946C231.673 139.946 236.454 146.73 241.429 148.41C246.468 150.219 253.446 156.163 252.025 167.211Z" fill="#EC8F8F"/>
<path d="M233.417 143.693C234.321 145.502 235.29 147.311 236.453 148.927C237.616 150.542 238.973 151.899 240.524 153.126C241.881 154.225 243.302 155.194 244.659 156.228V156.163C244.4 155.775 244.142 155.388 243.819 155.065C243.237 154.354 242.656 153.643 242.01 152.997C240.782 151.64 239.49 150.348 238.392 148.927C237.81 148.151 237.229 147.247 236.776 146.342C236.776 146.278 236.841 146.278 236.841 146.342C238.456 149.702 241.687 151.834 243.948 154.677C244.271 155.065 244.594 155.517 244.853 155.905C245.047 156.228 245.305 156.551 245.434 156.938C246.662 157.972 247.825 159.07 248.794 160.363C248.729 159.717 248.6 159.07 248.406 158.424C248.148 157.52 247.825 156.68 247.372 155.905C247.372 155.84 247.437 155.84 247.437 155.84C247.889 156.615 248.342 157.455 248.6 158.36C248.794 159.07 248.923 159.781 248.988 160.492C249.505 161.138 249.892 161.849 250.345 162.559C250.28 162.366 250.28 162.107 250.215 161.913C250.021 160.944 249.828 159.91 249.569 158.941C249.052 156.938 248.342 155.065 247.179 153.385C247.179 153.32 247.243 153.32 247.243 153.32C248.406 155 249.246 156.874 249.892 158.812C250.215 159.781 250.474 160.75 250.668 161.784C250.797 162.301 250.861 162.753 250.991 163.27C251.055 163.529 251.12 163.787 251.12 164.045C252.154 166.178 252.864 168.504 253.381 170.765C254.415 174.9 254.996 179.1 255.513 183.299C256.03 187.693 256.289 192.151 256.224 196.609C256.224 197.191 256.159 197.707 256.159 198.289C256.159 198.418 255.966 198.483 255.901 198.289C255.772 196.092 255.772 193.895 255.643 191.699C255.513 189.502 255.32 187.305 255.061 185.108C254.609 180.78 253.963 176.515 252.994 172.316C252.218 168.697 251.12 165.015 249.182 161.849C248.212 160.233 246.985 158.877 245.628 157.584C244.207 156.357 242.721 155.258 241.234 154.095C239.748 152.933 238.392 151.705 237.229 150.219C236.001 148.668 234.967 146.859 234.063 145.115C233.869 144.662 233.61 144.21 233.417 143.693C233.352 143.693 233.417 143.693 233.417 143.693Z" fill="#263238"/>
<path d="M235.161 145.179C235.807 146.536 236.583 147.828 237.358 149.056C237.358 149.056 237.358 149.12 237.293 149.056C236.453 147.828 235.678 146.536 235.032 145.179C235.097 145.179 235.161 145.115 235.161 145.179Z" fill="#263238"/>
<path d="M288.464 162.818C288.464 162.818 288.593 176.903 280.194 180.973C271.795 185.044 267.272 181.684 261.522 183.041C261.716 182.718 265.851 176.838 272.312 175.223C279.031 173.543 286.397 168.697 288.464 162.818Z" fill="#EC8F8F"/>
<path opacity="0.1" d="M288.464 162.818C288.464 162.818 288.593 176.903 280.194 180.973C271.795 185.044 267.272 181.684 261.522 183.041C261.78 182.912 265.915 180.844 271.084 180.198C276.382 179.552 286.526 176.127 288.464 162.818Z" fill="black"/>
<path d="M260.94 183.299C261.974 182.395 263.073 181.619 264.3 181.038C264.494 180.973 264.688 180.909 264.882 180.779C264.946 180.65 265.075 180.586 265.14 180.456C265.399 180.198 265.657 179.939 265.915 179.681C266.432 179.229 267.014 178.841 267.595 178.453C269.017 177.613 270.503 177.032 271.924 176.321C271.989 176.321 271.989 176.386 271.989 176.386C271.278 176.774 270.632 177.161 269.921 177.549C269.275 177.937 268.564 178.324 267.918 178.712C267.337 179.1 266.755 179.487 266.238 179.939C266.109 180.069 265.915 180.198 265.786 180.327C266.691 180.004 267.66 179.746 268.629 179.552C270.18 179.229 271.73 179.035 273.281 178.712C274.056 178.583 274.767 178.324 275.542 178.13C276.253 177.549 276.964 177.032 277.61 176.386C278.385 175.675 279.161 174.835 279.807 173.995C279.807 173.931 279.871 173.995 279.871 174.06C278.837 175.417 277.739 176.774 276.447 177.872C276.835 177.743 277.158 177.613 277.545 177.42C280.388 176.127 282.973 174.06 284.717 171.475C284.717 171.411 284.782 171.475 284.782 171.54C283.231 173.801 281.293 175.675 278.967 177.097C277.804 177.807 276.576 178.389 275.284 178.841C273.798 179.358 272.247 179.616 270.697 179.939C269.211 180.198 267.66 180.521 266.238 180.973C264.882 181.425 263.654 182.072 262.491 182.976C260.294 184.591 258.614 186.853 257.451 189.243C255.836 192.474 255.126 196.027 254.673 199.581C254.673 199.71 254.415 199.71 254.415 199.581C254.802 193.572 256.353 187.434 260.94 183.299Z" fill="#263238"/>
<path d="M270.697 178.712C271.149 178.066 271.731 177.549 272.442 177.161C273.217 176.709 273.928 176.192 274.509 175.481C274.509 175.417 274.574 175.481 274.574 175.546C274.057 176.192 273.475 176.709 272.765 177.161C271.989 177.549 271.279 178.001 270.697 178.712C270.762 178.776 270.697 178.712 270.697 178.712Z" fill="#263238"/>
<path d="M266.238 193.701L265.851 201.455L264.688 225.166H246.984L245.822 201.455L245.434 193.701H266.238Z" fill="#37474F"/>
<path d="M266.238 193.701L265.851 201.455H245.822L245.434 193.701H266.238Z" fill="#263238"/>
<path d="M267.466 190.471H244.207V197.836H267.466V190.471Z" fill="#37474F"/>
<path d="M20.978 225.167L54.5107 224.973L88.1081 224.908L155.238 224.844L222.368 224.908L255.901 224.973L289.498 225.167L255.901 225.296L222.368 225.361L155.238 225.49L88.1081 225.361L54.5107 225.296L20.978 225.167Z" fill="#263238"/>
<path d="M74.3462 242.418V17.2509C74.3462 12.6635 78.0936 8.91614 82.6809 8.91614H201.176C205.763 8.91614 209.511 12.6635 209.511 17.2509V242.418C209.511 247.005 205.763 250.752 201.176 250.752H82.6809C78.029 250.752 74.3462 247.005 74.3462 242.418Z" fill="#263238"/>
<path d="M202.791 25.8441H81.324V233.954H202.791V25.8441Z" fill="white"/>
<path d="M137.6 19.1892V18.2846C137.6 17.8324 137.987 17.4447 138.44 17.4447H172.037C172.489 17.4447 172.877 17.8324 172.877 18.2846V19.1892C172.877 19.6415 172.489 20.0291 172.037 20.0291H138.44C137.987 19.9645 137.6 19.6415 137.6 19.1892Z" fill="#37474F"/>
<path d="M155.238 246.682C157.736 246.682 159.761 244.657 159.761 242.159C159.761 239.661 157.736 237.636 155.238 237.636C152.74 237.636 150.716 239.661 150.716 242.159C150.716 244.657 152.74 246.682 155.238 246.682Z" fill="#37474F"/>
<path d="M191.42 195.058H92.76V196.48H191.42V195.058Z" fill="#EBEBEB"/>
<path d="M191.42 199.516H92.76V200.938H191.42V199.516Z" fill="#EBEBEB"/>
<path d="M191.42 54.4016H92.76V55.823H191.42V54.4016Z" fill="#EBEBEB"/>
<path d="M191.42 58.8595H92.76V60.2809H191.42V58.8595Z" fill="#EBEBEB"/>
<path d="M180.501 132.709H103.615V147.117H180.501V132.709Z" fill="#EBEBEB"/>
<path d="M103.097 270.071C101.676 270.523 61.9407 270.006 60.4547 269.037C59.8732 268.649 59.6147 262.899 59.4855 255.856C59.4855 255.792 59.4855 255.727 59.4855 255.663C59.4855 254.241 59.4209 252.755 59.4209 251.205C59.4209 251.011 59.4209 250.817 59.4209 250.558L61.3592 229.948L87.9786 230.206L85.3296 250.688V251.528L85.2004 255.727V256.18C85.2004 256.18 100.319 263.157 101.87 264.45C103.291 265.677 104.454 269.683 103.097 270.071Z" fill="#FFC9C2"/>
<path d="M103.097 270.071C101.676 270.523 61.9407 270.006 60.4547 269.037C59.8732 268.649 59.6147 262.899 59.4855 255.856C59.4855 255.792 59.4855 255.727 59.4855 255.662C59.4855 254.241 59.4209 252.755 59.4209 251.204C59.4209 251.01 59.4209 250.817 59.4209 250.558L85.3296 250.623V251.463L85.2004 255.662V256.115C85.2004 256.115 100.319 263.093 101.87 264.385C103.291 265.677 104.454 269.683 103.097 270.071Z" fill="#EBEBEB"/>
<path d="M103.162 270.2C101.74 270.652 61.6175 270.265 60.1314 269.296C59.5499 268.908 59.2915 263.093 59.0977 255.986L84.9418 256.18C84.9418 256.18 100.254 263.222 101.805 264.45C103.42 265.677 104.583 269.748 103.162 270.2Z" fill="white"/>
<path d="M102.645 268.585C95.9256 268.327 68.7893 268.068 62.1344 268.327C62.0698 268.327 62.0698 268.391 62.1344 268.391C68.7893 268.779 95.9256 268.844 102.645 268.714C102.774 268.714 102.774 268.585 102.645 268.585Z" fill="#263238"/>
<path d="M99.2852 262.964C97.6699 262.899 96.1193 263.61 95.2147 264.579C94.3748 265.484 93.6641 266.776 93.6641 268.133C93.6641 268.197 93.7287 268.197 93.7287 268.133C94.1163 265.484 96.5715 263.222 99.2205 263.029C99.3498 263.029 99.3498 262.964 99.2852 262.964Z" fill="#263238"/>
<path d="M87.5905 256.891C84.8769 256.826 81.7756 257.73 80.0957 259.927C80.0311 259.992 80.1603 260.121 80.225 260.056C82.6801 258.829 85.0061 257.924 87.6551 257.214C87.849 257.149 87.7844 256.891 87.5905 256.891Z" fill="#263238"/>
<path d="M89.6584 257.666C86.9448 257.601 83.8435 258.506 82.1636 260.703C82.099 260.767 82.2282 260.896 82.2928 260.832C84.748 259.604 87.074 258.7 89.723 257.989C89.9168 257.989 89.8522 257.666 89.6584 257.666Z" fill="#263238"/>
<path d="M91.726 258.506C89.0124 258.441 85.9111 259.346 84.2312 261.542C84.1666 261.607 84.2958 261.736 84.3605 261.672C86.8156 260.444 89.1416 259.54 91.7906 258.829C91.9845 258.829 91.9198 258.506 91.726 258.506Z" fill="#263238"/>
<path d="M93.7932 259.346C91.0795 259.281 87.9782 260.186 86.2984 262.382C86.2338 262.447 86.363 262.576 86.4276 262.512C88.8828 261.284 91.2088 260.379 93.8578 259.669C94.0516 259.604 93.987 259.346 93.7932 259.346Z" fill="#263238"/>
<path d="M63.8788 261.995C60.8421 261.995 60.8421 266.647 63.8788 266.711C66.8509 266.711 66.9155 261.995 63.8788 261.995Z" fill="white"/>
<path d="M90.5628 249.719C89.206 248.556 87.4615 249.654 86.6216 250.817C85.2648 252.691 84.2956 255.34 84.1018 257.666C84.1018 257.731 84.1664 257.731 84.1664 257.731C84.231 257.924 84.4249 258.118 84.6187 257.924C86.557 256.632 88.7537 255.469 90.2398 253.596C91.2089 252.562 91.855 250.817 90.5628 249.719ZM87.2031 255.405C86.2986 256.051 85.3294 256.697 84.4249 257.408C84.9417 256.051 85.3294 254.694 85.9755 253.402C86.2986 252.82 86.6216 252.174 86.9447 251.593C87.5262 250.688 90.1752 248.491 90.4336 251.399C90.6274 253.014 88.3661 254.629 87.2031 255.405Z" fill="#263238"/>
<path d="M77.4467 258.635C79.7727 259.023 82.2279 258.377 84.4892 258.054C84.7477 257.989 84.8123 257.731 84.6831 257.537C84.7477 257.537 84.7477 257.472 84.6831 257.408C83.0032 255.792 80.4834 254.5 78.222 254.048C76.8006 253.789 74.7977 254.112 74.5392 255.857C74.41 257.537 76.0899 258.377 77.4467 258.635ZM75.8315 257.085C74.0224 254.759 77.5113 254.629 78.5451 254.888C79.1912 255.082 79.8373 255.275 80.4834 255.534C81.8402 256.051 83.0678 256.761 84.2954 257.408C83.1324 257.472 82.034 257.666 80.8711 257.86C79.5788 257.989 76.8006 258.377 75.8315 257.085Z" fill="#263238"/>
<path opacity="0.1" d="M80.4836 270.265C70.5337 270.071 60.9067 269.748 60.1314 269.296C59.5499 268.908 59.2915 263.093 59.0977 255.986H62.7804C66.9155 259.346 75.5087 266.259 80.4836 270.265Z" fill="black"/>
<path d="M86.8803 255.792H58.258C58.258 255.792 64.0083 188.92 63.8145 187.757C63.556 186.271 61.8115 179.487 59.6148 170.636C58.9041 167.857 58.1288 164.885 57.3534 161.849C55.2213 153.514 52.8953 144.468 50.8278 136.521C47.7265 124.698 45.3359 115.458 45.3359 115.458H69.6294C69.6294 115.458 72.4722 124.439 76.0258 136.069C81.8407 155 89.5939 181.103 90.3693 187.434C91.5323 197.707 86.8803 255.792 86.8803 255.792Z" fill="#37474F"/>
<path d="M85.5883 250.881C81.1948 250.817 82.487 250.752 78.0935 250.688C75.9614 250.688 61.8763 250.558 59.8734 250.881C59.8088 250.881 59.8088 250.946 59.8734 250.946C61.8763 251.269 75.9614 251.14 78.0935 251.14C82.487 251.075 81.1948 251.075 85.5883 250.946C85.6529 251.011 85.6529 250.881 85.5883 250.881Z" fill="#263238"/>
<path d="M69.1771 183.687C68.208 179.552 66.8512 175.482 65.6236 171.411C63.1684 163.141 60.6486 154.936 58.1288 146.665C56.9012 142.53 55.609 138.395 54.3814 134.325C53.7353 132.257 53.0892 130.19 52.4431 128.058C51.797 126.055 51.0863 123.987 50.5048 121.984C50.2463 121.144 50.1171 121.597 50.4402 122.695C51.0217 124.827 51.6678 126.959 52.2493 129.091C53.4769 133.291 54.7044 137.555 55.9967 141.755C58.4518 150.154 60.9716 158.489 63.4914 166.888C64.7836 171.088 66.0112 175.288 67.3034 179.487C67.8849 181.49 68.4664 183.493 68.8541 185.561C69.2418 187.693 69.2418 189.89 69.1125 192.086C68.8541 196.48 68.3372 200.809 67.9495 205.202C67.5619 209.596 67.1096 213.989 66.722 218.318C65.9466 227.041 65.1067 235.763 64.3314 244.485C64.2022 245.584 64.1375 246.682 64.0729 247.78C64.0729 248.168 64.5898 248.104 64.6544 247.78C65.6236 239.187 66.3343 230.53 67.1096 221.872C67.8849 213.279 68.7249 204.685 69.5002 196.092C69.694 193.96 69.9525 191.763 69.9525 189.631C69.8879 187.628 69.6294 185.625 69.1771 183.687Z" fill="#263238"/>
<path d="M66.7865 115.459C65.1066 128.51 61.8761 152.933 59.5501 170.636C54.0582 149.185 45.2712 115.459 45.2712 115.459H66.7865Z" fill="#263238"/>
<path d="M72.7306 270.459C71.3092 270.911 31.5739 270.523 30.0879 269.554C29.5064 269.166 29.2479 263.416 29.0541 256.374C29.0541 256.309 29.0541 256.244 29.0541 256.18C28.9895 254.758 28.9895 253.272 28.9895 251.722C28.9895 251.528 28.9895 251.334 28.9895 251.076C28.9249 240.932 29.6356 230.465 29.6356 230.465L55.6089 230.659L54.8982 251.076V251.915L54.769 256.115V256.567C54.769 256.567 69.9524 263.545 71.4384 264.773C72.9245 266 74.1521 270.006 72.7306 270.459Z" fill="#FFC9C2"/>
<path d="M72.7304 270.458C71.309 270.911 31.5737 270.523 30.0876 269.554C29.5061 269.166 29.2477 263.416 29.0539 256.373C29.0539 256.309 29.0539 256.244 29.0539 256.18C28.9893 254.758 28.9893 253.272 28.9893 251.721C28.9893 251.528 28.9893 251.334 28.9893 251.075H54.898V251.915L54.7687 256.115V256.567C54.7687 256.567 69.9521 263.545 71.4382 264.773C72.9242 266 74.1518 270.006 72.7304 270.458Z" fill="#EBEBEB"/>
<path d="M72.9243 270.394C71.5029 270.846 31.3799 270.458 29.8939 269.489C29.3124 269.101 29.0539 263.287 28.8601 256.179L54.7042 256.373C54.7042 256.373 70.0168 263.416 71.5675 264.643C73.1181 265.871 74.2811 269.941 72.9243 270.394Z" fill="white"/>
<path d="M72.3433 268.778C65.6238 268.52 38.4875 268.261 31.8326 268.52C31.768 268.52 31.768 268.585 31.8326 268.585C38.4875 268.972 65.6238 269.037 72.3433 268.908C72.4725 268.908 72.4725 268.778 72.3433 268.778Z" fill="#263238"/>
<path d="M68.9834 263.157C67.3681 263.093 65.8175 263.803 64.913 264.772C64.073 265.677 63.3623 266.969 63.3623 268.326C63.3623 268.391 63.4269 268.391 63.4269 268.326C63.8146 265.677 66.2698 263.416 68.9188 263.222C69.048 263.286 69.048 263.157 68.9834 263.157Z" fill="#263238"/>
<path d="M57.2888 257.084C54.5751 257.019 51.4738 257.924 49.794 260.12C49.7294 260.185 49.8586 260.314 49.9232 260.25C52.3784 259.022 54.7044 258.118 57.3534 257.407C57.5472 257.342 57.4826 257.084 57.2888 257.084Z" fill="#263238"/>
<path d="M59.4211 257.924C56.7075 257.859 53.6062 258.764 51.9263 260.96C51.8617 261.025 51.9909 261.154 52.0555 261.09C54.5107 259.862 56.8367 258.957 59.4857 258.247C59.6149 258.182 59.6149 257.924 59.4211 257.924Z" fill="#263238"/>
<path d="M61.4887 258.699C58.7751 258.634 55.6738 259.539 53.9939 261.736C53.9293 261.8 54.0585 261.93 54.1231 261.865C56.5783 260.637 58.9043 259.733 61.5533 259.022C61.6825 259.022 61.6825 258.764 61.4887 258.699Z" fill="#263238"/>
<path d="M63.5563 259.539C60.8427 259.474 57.7414 260.379 56.0616 262.576C55.9969 262.64 56.1262 262.769 56.1908 262.705C58.646 261.477 60.9719 260.573 63.621 259.862C63.7502 259.862 63.7502 259.539 63.5563 259.539Z" fill="#263238"/>
<path d="M33.5771 262.188C30.5404 262.188 30.5404 266.84 33.5771 266.904C36.6138 266.904 36.6138 262.188 33.5771 262.188Z" fill="white"/>
<path d="M60.3258 249.912C58.969 248.749 57.2245 249.847 56.3845 251.01C55.0277 252.884 54.0586 255.533 53.8647 257.859C53.8647 257.924 53.9294 257.924 53.9294 257.924C53.994 258.118 54.1878 258.311 54.3816 258.118C56.3199 256.825 58.5167 255.662 60.0027 253.789C60.9073 252.755 61.5534 251.01 60.3258 249.912ZM56.966 255.598C56.0615 256.244 55.0923 256.89 54.1878 257.601C54.7047 256.244 55.0923 254.887 55.7384 253.595C56.0615 253.013 56.3845 252.367 56.7076 251.786C57.2891 250.881 59.9381 248.684 60.1965 251.592C60.3258 253.272 58.0644 254.822 56.966 255.598Z" fill="#263238"/>
<path d="M47.1452 258.828C49.4712 259.216 51.9264 258.57 54.1877 258.247C54.4462 258.182 54.5108 257.924 54.3815 257.73C54.4462 257.73 54.4462 257.665 54.3815 257.601C52.7017 255.985 50.1819 254.693 47.9205 254.241C46.4991 253.983 44.4962 254.306 44.2377 256.05C44.1085 257.73 45.7884 258.57 47.1452 258.828ZM45.5299 257.278C43.7209 254.952 47.2098 254.822 48.2436 255.081C48.8897 255.275 49.5358 255.469 50.1819 255.727C51.5387 256.244 52.7663 256.955 53.9939 257.601C52.8309 257.665 51.7325 257.859 50.5695 258.053C49.2773 258.182 46.5637 258.57 45.5299 257.278Z" fill="#263238"/>
<path d="M68.7894 115.459C68.7894 115.459 68.2079 127.089 65.5589 136.263C65.365 137.039 65.1066 137.749 64.8482 138.46C64.8482 138.46 62.0699 139.494 57.8703 142.078C57.8703 142.078 57.6118 151.447 57.2888 161.849C56.9657 173.479 56.6427 186.465 56.7073 189.244C56.9657 199.581 55.4151 256.244 55.4151 256.244L26.7927 256.309C26.7927 256.309 31.9615 192.991 31.9615 189.244C31.8969 183.17 33.3184 156.357 34.4813 136.78C35.1921 124.698 35.7089 115.459 35.7089 115.459H68.7894Z" fill="#37474F"/>
<path d="M54.446 251.14C50.0525 251.076 51.3447 251.011 46.9512 251.011C44.819 251.011 30.734 250.946 28.7311 251.269C28.6665 251.269 28.6665 251.334 28.7311 251.334C30.734 251.657 44.819 251.463 46.9512 251.463C51.3447 251.399 50.0525 251.399 54.446 251.269C54.5106 251.269 54.5106 251.14 54.446 251.14Z" fill="#263238"/>
<path d="M38.0994 119.594C37.5825 135.552 37.001 151.511 36.2903 167.47C35.5796 183.493 34.6104 199.516 33.2536 215.475C32.4783 224.391 31.7676 236.99 30.863 245.842C30.863 245.907 30.9276 245.907 30.9276 245.842C32.9952 230.013 34.1582 210.436 35.1919 194.477C36.2257 178.518 36.9364 162.559 37.4533 146.601C37.7763 137.555 37.9702 128.51 38.2932 119.529C38.2932 119.464 38.0994 119.464 38.0994 119.594Z" fill="#263238"/>
<path d="M66.011 137.814C63.1682 138.977 60.4546 140.463 57.8055 142.078C57.6763 142.143 57.8055 142.272 57.8701 142.272C60.6484 140.915 63.4266 139.623 66.1403 138.137C66.3987 138.008 66.2695 137.685 66.011 137.814Z" fill="#263238"/>
<path d="M66.2051 127.928C66.0113 128.962 65.7528 129.931 65.559 130.965C65.3652 131.934 65.1713 132.903 64.9775 133.808C64.7191 134.712 64.3314 135.552 63.6207 136.198C63.233 136.521 62.8454 136.844 62.4577 137.168C62.2639 137.361 62.0054 137.491 61.8116 137.684C61.8116 137.555 61.8762 137.426 61.8762 137.297C61.9408 136.909 62.0054 136.521 62.07 136.134C62.1993 135.294 62.3285 134.389 62.4577 133.549C62.7161 131.869 62.9746 130.125 63.2976 128.51C63.2976 128.445 63.233 128.445 63.1684 128.51C62.7162 130.19 62.2639 131.805 61.9408 133.485C61.747 134.325 61.1009 138.331 61.1009 138.654C61.1009 138.977 61.0363 139.235 61.0363 139.558C61.0363 139.881 60.9717 140.204 61.0363 140.463C61.0363 140.527 61.1655 140.527 61.1655 140.463C61.2947 140.204 61.3593 139.881 61.4239 139.558C61.4886 139.3 61.5532 138.977 61.6178 138.654C61.6178 138.524 61.6824 138.46 61.6824 138.331C62.07 138.072 62.4577 137.749 62.8454 137.491C63.233 137.232 63.6853 136.909 64.0084 136.586C64.7191 136.005 65.1713 135.229 65.4298 134.325C65.6882 133.356 65.8174 132.386 65.8821 131.417C66.0113 130.254 66.0759 129.091 66.2697 127.993C66.3343 127.928 66.2051 127.864 66.2051 127.928Z" fill="#263238"/>
<path d="M55.7381 89.1623C57.9348 95.8171 67.8848 117.074 72.0198 118.56C76.3487 120.111 93.1474 122.049 96.8302 119.077C98.6393 117.655 99.2854 102.278 96.8302 102.666C94.375 103.053 79.5792 103.57 77.8348 102.989C76.0903 102.343 64.3312 85.2857 59.5501 81.086C51.4092 73.9143 54.5105 85.5441 55.7381 89.1623Z" fill="#FFC9C2"/>
<path d="M93.1472 102.407L92.8888 121.532C92.8888 121.532 75.7024 121.596 71.1151 119.141C66.5278 116.751 56.8363 94.6539 54.4457 86.1899C52.0551 77.726 55.8671 76.4338 62.0697 82.6364C68.2723 88.839 77.5115 101.826 78.6099 102.084C79.6437 102.407 93.1472 102.407 93.1472 102.407Z" fill="white"/>
<path d="M70.2112 92.0697C66.6577 92.6512 63.2333 93.8142 60.0674 95.4294C59.8736 95.494 59.6797 95.6233 59.4859 95.7525C59.3567 95.8171 59.1629 95.8817 59.0336 96.0109C58.7752 96.1401 58.4522 96.334 58.1937 96.4632C58.1291 96.334 58.1291 96.2694 58.0645 96.1401C58.2583 96.0109 58.4522 95.8817 58.646 95.8171C58.7752 95.7525 58.9044 95.6879 59.0983 95.5586C59.3567 95.4294 59.6151 95.2356 59.9382 95.1064C61.5534 94.2664 63.2979 93.5557 65.0424 92.9742C66.6577 92.4573 68.3375 92.0051 70.0174 91.7466C70.082 91.9405 70.1466 92.0051 70.2112 92.0697ZM74.0232 96.9155C73.7002 97.1093 73.3771 97.2385 73.1187 97.3677C72.2787 97.6908 71.3742 97.9492 70.4697 98.0784C70.0174 98.1431 69.5651 98.2077 69.1128 98.2077L67.756 98.2723C65.9469 98.2077 64.1379 97.82 62.458 97.1739C61.4242 96.7862 60.4551 96.2694 59.4859 95.8171C59.3567 95.7525 59.2275 95.6879 59.0983 95.6233C58.7752 95.494 58.4522 95.3648 58.1291 95.171C58.0645 95.1064 57.9353 95.1064 57.806 95.0418C57.7414 94.9772 57.6122 94.9771 57.5476 94.9125C57.6122 94.9771 57.6122 95.1064 57.6768 95.171C57.6768 95.2356 57.7414 95.3002 57.7414 95.4294H57.806C58.0645 95.5586 58.3875 95.6879 58.646 95.8171C58.7752 95.8817 58.9044 95.9463 59.0336 96.0109C60.132 96.5278 61.1658 97.0447 62.3288 97.4969C64.0732 98.2077 65.8823 98.5953 67.756 98.6599L69.1775 98.5953C69.6297 98.5953 70.082 98.4661 70.5989 98.4015C71.5034 98.2723 72.4726 98.0784 73.3125 97.6908C73.7002 97.5616 74.0232 97.3677 74.3463 97.1739C74.2171 97.1739 74.1524 97.0447 74.0232 96.9155ZM67.433 88.71C66.2054 89.2915 65.0424 89.8729 63.944 90.5837C61.8119 91.8759 59.809 93.4265 57.8707 95.0418C57.806 95.1064 57.7414 95.1064 57.6768 95.171C57.6768 95.2356 57.7414 95.3002 57.7414 95.4294V95.494C57.7414 95.494 57.7414 95.494 57.806 95.494C57.9353 95.3648 57.9999 95.3002 58.1291 95.2356C60.0028 93.6849 62.0057 92.1989 64.0732 90.9713C65.2362 90.2606 66.3992 89.6145 67.6268 89.0976C67.5622 88.9038 67.4976 88.7746 67.433 88.71Z" fill="white"/>
<path d="M88.1725 111.84C88.1725 110.354 88.3017 104.281 88.431 102.795H88.4956C88.6248 104.281 88.6894 110.225 88.6894 111.776C88.6894 114.813 88.6894 117.849 88.3664 120.821C88.3664 120.886 88.3017 120.886 88.2371 120.821C87.9787 117.785 88.1079 114.813 88.1725 111.84Z" fill="#263238"/>
<path opacity="0.1" d="M54.446 86.192C56.9012 94.6559 66.5927 116.753 71.1154 119.143C73.3122 120.306 78.4164 120.888 83.1329 121.211L56.1259 78.8264C53.8645 78.5033 52.96 81.0231 54.446 86.192Z" fill="black"/>
<path d="M32.737 132.709C32.8662 132.839 74.7982 129.931 75.1213 129.479C75.6382 128.833 62.3284 86.1899 59.0333 79.9227C57.6119 77.2737 50.8278 76.886 48.1788 79.4058C41.4593 85.7376 36.8074 106.154 35.8382 112.228C34.0938 122.372 32.3493 132.322 32.737 132.709Z" fill="white"/>
<path d="M72.8599 121.015C72.4723 120.757 72.0846 120.563 71.6969 120.304C70.0817 119.4 68.4664 118.56 66.7866 117.784C66.4635 117.655 66.1404 117.526 65.882 117.397C65.7528 117.332 65.559 117.268 65.4297 117.203C64.2021 116.686 62.9099 116.234 61.6177 115.911C59.8733 115.458 58.0642 115.135 56.1905 115.006C52.5723 114.812 48.8895 115.265 45.3359 116.234C45.1421 116.298 44.8837 116.363 44.6898 116.428C44.496 116.492 44.3668 116.492 44.2376 116.557C41.7824 117.268 39.3918 118.301 37.0658 119.464C36.4197 119.787 35.7736 120.11 35.1921 120.433C35.1275 120.498 35.0629 120.498 34.9983 120.563C34.7399 120.692 34.546 120.821 34.2876 120.95C34.2876 120.821 34.3522 120.757 34.3522 120.627C34.6106 120.498 34.8045 120.369 35.0629 120.24C35.7736 119.852 36.549 119.464 37.2597 119.077C37.8412 118.754 38.4873 118.495 39.1334 118.172C40.684 117.461 42.2993 116.815 43.9145 116.298C44.0437 116.234 44.2376 116.169 44.3668 116.169C44.6898 116.105 44.9483 115.975 45.2713 115.911C47.0804 115.394 48.8895 115.071 50.6986 114.877C52.5077 114.683 54.3814 114.619 56.2551 114.748C59.4856 115.006 62.6515 115.846 65.6882 117.074C65.8174 117.138 65.9466 117.203 66.1404 117.268C66.3989 117.397 66.6573 117.461 66.9158 117.591C68.5956 118.366 70.2109 119.206 71.8261 120.175C72.1492 120.369 72.4723 120.563 72.8599 120.757C72.7953 120.821 72.8599 120.886 72.8599 121.015ZM70.7278 113.843C69.6294 114.489 68.5956 115.135 67.5619 115.846C66.9158 116.234 66.3343 116.686 65.6882 117.074C65.6236 117.138 65.4943 117.203 65.4297 117.268C64.5898 117.784 63.7499 118.301 62.8453 118.818C61.2301 119.723 59.5502 120.433 57.8057 120.757C56.9012 120.95 55.9966 120.95 55.0921 120.886C54.6398 120.821 54.1876 120.821 53.7353 120.757L52.3785 120.498C50.5694 120.11 48.9541 119.335 47.4035 118.301C46.4989 117.72 45.5944 117.009 44.7545 116.363C44.6252 116.298 44.5606 116.169 44.4314 116.105C44.173 115.911 43.8499 115.717 43.5915 115.523C43.5269 115.459 43.3976 115.394 43.333 115.329C43.2038 115.265 43.0746 115.135 42.9454 115.071C41.3947 114.037 39.5856 113.262 37.7119 113.262C36.9366 113.262 36.2259 113.456 35.5152 113.714C35.5152 113.843 35.4506 113.972 35.4506 114.037C36.1613 113.779 36.9366 113.585 37.6473 113.585C39.4564 113.585 41.2009 114.36 42.6869 115.394C42.7515 115.459 42.8162 115.523 42.8808 115.523C42.9454 115.588 43.0746 115.652 43.1392 115.717C43.3976 115.911 43.6561 116.105 43.8499 116.234C43.9791 116.298 44.0437 116.428 44.173 116.492C45.1421 117.203 46.0467 117.978 47.0804 118.624C48.6311 119.658 50.3755 120.433 52.1846 120.886L53.5415 121.144C53.9937 121.209 54.446 121.209 54.9629 121.273C55.8674 121.338 56.8366 121.338 57.7411 121.144C59.6148 120.821 61.2947 120.046 62.9745 119.141C63.9437 118.624 64.8482 117.978 65.8174 117.397C65.882 117.332 66.0112 117.332 66.0758 117.268C66.5927 116.88 67.1742 116.557 67.6911 116.169C68.7249 115.523 69.694 114.877 70.7278 114.231V113.843ZM70.0171 111.582C68.9187 111.194 67.7557 110.936 66.5927 110.677C64.7836 110.29 62.9099 110.16 61.0362 110.16C59.1625 110.16 57.3535 110.419 55.5444 110.742C53.7353 111.065 51.9262 111.582 50.1817 112.163C47.7911 113.003 45.5298 114.037 43.333 115.265C43.2038 115.329 43.0746 115.394 42.9454 115.458C42.0408 115.975 41.1363 116.492 40.2317 117.074C39.2626 117.655 38.2934 118.301 37.3243 118.947C36.549 119.464 35.8382 119.917 35.0629 120.433C34.8045 120.627 34.546 120.757 34.3522 120.886C34.3522 121.015 34.3522 121.08 34.2876 121.209C35.2568 120.627 36.1613 119.981 37.1304 119.4C37.7766 118.947 38.4873 118.56 39.1334 118.108C39.521 117.849 39.9733 117.591 40.361 117.332C41.2655 116.751 42.2347 116.234 43.2038 115.717C43.333 115.652 43.4623 115.588 43.5915 115.523C45.7236 114.36 47.985 113.326 50.2463 112.551C53.7353 111.388 57.3535 110.548 61.0362 110.484C62.8453 110.419 64.719 110.613 66.5281 110.936C67.7557 111.194 68.9187 111.517 70.0817 111.84C70.0171 111.776 70.0171 111.646 70.0171 111.582Z" fill="white"/>
<path d="M42.4928 84.2516C31.3798 96.5275 18.7808 117.267 24.2081 121.726C29.1185 125.796 47.0155 121.919 58.2577 117.526C60.3898 116.686 51.7321 97.7551 49.5353 98.8535C45.7233 100.856 42.6866 101.955 42.4282 102.084C41.7821 102.278 45.2064 98.1428 48.9538 88.1928C52.7658 78.049 48.8246 77.2091 42.4928 84.2516Z" fill="#FFC9C2"/>
<path d="M76.8655 97.4322C76.8655 99.629 71.4382 99.1767 71.4382 99.1767C71.4382 99.1767 72.7304 99.952 73.1181 101.373C73.5058 102.989 71.1798 104.345 71.1798 104.345C71.1798 104.345 72.3428 105.444 72.5366 106.93C72.7951 108.545 70.5983 110.225 70.5983 110.225C70.5983 110.225 71.1152 111.84 70.3399 113.262C69.0477 115.782 64.7188 115.846 62.0051 116.363C59.1623 116.945 54.9626 118.431 53.2182 119.141L48.2432 99.4997C48.2432 99.4997 59.873 92.5864 63.1035 92.7157C65.8171 92.8449 76.8655 94.0725 76.8655 97.4322Z" fill="#FFC9C2"/>
<path d="M71.3736 99.112C68.4661 98.2721 65.4295 98.1429 62.4574 98.0137C62.3928 98.0137 62.3928 98.1429 62.4574 98.1429C65.4295 98.2075 68.4015 99.112 71.3736 99.3059C71.4382 99.3059 71.5028 99.1767 71.3736 99.112Z" fill="#263238"/>
<path d="M71.0506 104.152C70.4045 103.958 69.6937 104.022 68.983 104.022C68.2723 104.022 67.5616 104.022 66.7863 104.087C65.3649 104.152 63.8788 104.281 62.4574 104.41C62.3928 104.41 62.3928 104.539 62.4574 104.539C63.8788 104.475 65.3649 104.41 66.7863 104.41C67.497 104.41 68.2077 104.41 68.983 104.41C69.6291 104.41 70.3398 104.475 71.0506 104.345C71.1798 104.345 71.1798 104.216 71.0506 104.152Z" fill="#263238"/>
<path d="M70.5335 110.29C69.952 110.096 69.2413 110.225 68.6598 110.29C68.0137 110.354 67.3676 110.354 66.6569 110.419C65.3647 110.484 64.0079 110.548 62.7157 110.613C62.6511 110.613 62.6511 110.742 62.7157 110.742C64.0725 110.742 65.4293 110.742 66.7215 110.677C67.3676 110.677 68.0137 110.613 68.7244 110.613C69.3059 110.613 70.0167 110.613 70.5335 110.419C70.5335 110.354 70.5335 110.29 70.5335 110.29Z" fill="#263238"/>
<path d="M47.7266 99.2414L51.9908 120.563C51.9908 120.563 25.3068 127.541 22.5932 120.757C19.8149 114.037 35.5152 88.9683 44.5607 81.7966C53.6061 74.6248 50.1818 85.9316 49.9233 86.8362C48.6957 90.842 43.01 101.244 43.01 101.244L47.7266 99.2414Z" fill="white"/>
<path d="M51.9901 120.563C51.9901 120.563 25.306 127.541 22.5924 120.756C21.1064 117.138 24.983 108.222 30.2164 99.6289C30.2164 99.5643 30.281 99.5643 30.281 99.4997C30.3456 99.4351 30.3456 99.3705 30.4102 99.3059C30.4748 99.2413 30.4748 99.1767 30.5395 99.1121C32.4778 96.0108 34.6099 92.9095 36.742 90.1959C36.8067 90.1312 36.8713 90.002 37.0005 89.9374C39.7141 86.5131 42.3631 83.6056 44.6245 81.7965C53.6699 74.6248 50.2456 85.9316 49.9871 86.8361C49.9225 87.0946 49.7933 87.4176 49.6641 87.8053C49.5995 87.9345 49.5349 88.0637 49.4703 88.1929C48.6949 90.0666 47.4673 92.651 46.3044 94.977C46.2397 95.0416 46.2397 95.1708 46.1751 95.2354C46.1751 95.3001 46.1105 95.3001 46.1105 95.3001C46.1105 95.3647 46.0459 95.3647 46.0459 95.4293C44.4953 98.466 43.1385 100.986 43.0738 101.18L47.7904 99.1767L51.9901 120.563Z" fill="white"/>
<path d="M46.2404 95.0417C46.1758 95.1063 46.1758 95.2355 46.1112 95.3001C46.1112 95.3647 46.0465 95.3647 46.0465 95.3647L45.7235 95.5585L43.0745 97.303C41.5238 98.2722 39.9732 99.2413 38.2287 100.017C37.3888 100.404 36.4842 100.727 35.5797 100.921C34.6751 101.115 33.706 101.115 32.8014 100.857C32.6076 100.792 32.3492 100.727 32.1553 100.663L31.5092 100.404C31.057 100.21 30.6693 99.952 30.2817 99.7582C30.217 99.7582 30.217 99.6936 30.217 99.6936C30.217 99.629 30.2817 99.629 30.2817 99.5644C30.3463 99.4998 30.3463 99.4352 30.4109 99.3706C30.4755 99.4352 30.4755 99.4352 30.5401 99.4352C30.6047 99.4352 30.6047 99.4998 30.6047 99.4998C30.9924 99.6936 31.3154 99.952 31.7031 100.081L32.3492 100.34C32.543 100.404 32.8015 100.469 32.9953 100.534C33.8352 100.792 34.7398 100.792 35.6443 100.598C36.5488 100.404 37.3888 100.146 38.2287 99.7582C39.9086 99.0475 41.4592 98.0784 43.0099 97.1092L45.142 95.7524L45.6589 95.3647L46.2404 95.0417ZM45.6589 95.4293C42.3638 96.2693 39.0686 97.2384 35.7735 98.0784C34.029 98.5306 32.2846 98.9183 30.5401 99.1767C30.4755 99.2413 30.4755 99.3059 30.4109 99.3706C30.3463 99.4352 30.3463 99.4998 30.2817 99.5644C30.3463 99.5644 30.4755 99.4998 30.6047 99.4998C32.3492 99.1767 34.0937 98.7891 35.8381 98.3368C38.9394 97.5615 41.9761 96.5923 45.0774 95.817C45.2712 95.7524 45.5297 95.6878 45.7235 95.6232C45.7881 95.6232 45.9173 95.5585 45.9819 95.5585C45.9819 95.4939 46.0465 95.4939 46.0465 95.4293C46.0465 95.4293 46.0466 95.3647 46.1112 95.3647C45.9173 95.3647 45.7881 95.3647 45.6589 95.4293ZM45.8527 90.0667C45.0128 90.5189 44.2375 90.842 43.3329 91.1651C42.493 91.4235 41.5884 91.6173 40.6839 91.4881C39.3271 91.2943 38.0349 90.7774 36.9365 90.0021C36.8719 90.0667 36.8073 90.1959 36.6781 90.2605C37.841 91.0358 39.1979 91.6173 40.6193 91.8112C41.5884 91.8758 42.493 91.7465 43.3975 91.4235C44.3021 91.1651 45.142 90.7128 45.9819 90.3251C47.1449 89.679 48.3079 88.9683 49.4063 88.2576C49.4709 88.1284 49.5355 87.9992 49.6001 87.8699C48.3725 88.5806 47.1449 89.356 45.8527 90.0667Z" fill="white"/>
<path d="M47.2094 99.3061C44.1727 100.404 36.0964 104.41 34.352 106.026C34.2873 106.09 34.352 106.155 34.4166 106.09C36.161 104.863 46.0464 100.017 47.5971 99.4353C47.5971 99.4353 47.6617 99.6291 47.7263 99.6937C47.7909 99.7584 47.7909 99.6937 47.7909 99.6291C47.7909 99.5645 47.7263 99.1122 47.6617 99.1122C47.7263 99.1122 47.5971 99.1769 47.2094 99.3061Z" fill="#263238"/>
<path d="M44.9481 111.194C44.6897 109.708 43.5267 103.764 43.3975 102.278C43.3975 102.278 43.4621 102.213 43.4621 102.278C43.9143 103.699 45.1419 109.514 45.465 111C46.0465 113.972 46.6926 116.944 46.951 119.981C46.951 120.046 46.8864 120.046 46.8864 119.981C45.9819 117.074 45.5296 114.166 44.9481 111.194Z" fill="#263238"/>
<path d="M42.7512 101.438C43.5912 99.629 44.6249 97.8845 45.5295 96.14C46.434 94.3955 47.4032 92.5865 48.2431 90.842H48.3077C47.7908 92.0696 47.2739 93.2972 46.6924 94.4601C46.8863 94.2663 47.0155 94.0725 47.1447 93.8787C47.4032 93.491 47.6616 93.1033 47.92 92.7803H47.9846C47.7908 93.2326 47.5324 93.6202 47.2739 94.0079C47.0801 94.2663 46.8217 94.5248 46.5632 94.7832C46.3048 95.3001 46.111 95.7524 45.8525 96.2692C44.948 98.0783 44.2373 99.8228 43.0743 101.503C43.0097 101.503 42.7512 101.503 42.7512 101.438Z" fill="#263238"/>
<path d="M33.8998 123.599C37.0657 123.535 48.954 121.209 51.8614 120.627C51.7968 120.304 51.8614 120.175 51.7968 119.787C51.7968 119.723 51.8614 119.723 51.8614 119.787C51.926 120.175 52.2491 121.015 52.1199 121.08C50.6984 121.661 37.0011 124.052 33.8998 123.793C33.8352 123.729 33.8352 123.599 33.8998 123.599Z" fill="#263238"/>
<path d="M65.8821 121.403L88.0434 124.375L96.4427 93.6848L74.2814 90.6481L65.8821 121.403Z" fill="#263238"/>
<path d="M66.9805 121.596L89.1418 124.568L97.5411 93.8139L75.3798 90.8418L66.9805 121.596Z" fill="#37474F"/>
<path d="M85.3299 106.736C85.0714 107.899 83.9084 108.739 82.6808 108.545C81.5179 108.416 80.7425 107.318 81.001 106.155C81.2594 104.992 82.4224 104.152 83.65 104.346C84.8776 104.475 85.5883 105.509 85.3299 106.736Z" fill="white"/>
<path d="M97.2827 100.146C98.1872 102.73 100.836 106.09 100.901 108.157C100.965 110.031 99.3502 110.483 99.3502 110.483C99.3502 110.483 101.289 111.711 100.965 113.52C100.836 114.489 99.1564 115.071 99.1564 115.071C99.1564 115.071 100.642 116.104 100.319 117.72C100.061 119.012 98.4457 119.464 98.4457 119.464C98.4457 119.464 99.4148 121.144 98.7041 122.372C97.2827 124.891 85.9113 123.728 84.5545 119.335C83.9084 117.267 86.6866 117.72 86.6866 117.72C86.6866 117.72 82.8746 116.104 83.0684 113.778C83.2623 111.452 86.8158 112.228 86.8158 112.228C86.8158 112.228 83.133 110.677 83.5853 108.222C84.0376 105.702 87.4619 107.124 87.4619 107.124C87.4619 107.124 85.136 105.121 85.8467 103.376C87.0743 100.469 91.4678 104.733 94.0522 104.41L95.8613 100.404L97.2827 100.146Z" fill="#FFC9C2"/>
<path d="M99.2213 103.958C98.5752 101.438 101.87 98.7242 101.612 96.2044C101.224 92.8447 97.1537 95.6875 95.8615 100.404L95.4739 104.281L99.2213 103.958Z" fill="#FFC9C2"/>
<path d="M98.1871 119.593C98.2517 119.593 98.2517 119.658 98.1871 119.593C94.3751 120.175 89.9816 119.593 86.5573 117.784C86.428 117.72 86.4926 117.526 86.6219 117.526C90.5631 118.753 94.1167 119.529 98.1871 119.593Z" fill="#263238"/>
<path d="M99.2211 115.135C99.2857 115.135 99.2857 115.2 99.2211 115.2C95.2798 115.717 90.3695 114.941 86.6221 112.357C86.4928 112.292 86.4928 112.034 86.6221 112.163C89.2711 113.649 95.5383 115.071 99.2211 115.135Z" fill="#263238"/>
<path d="M87.2032 106.865C90.886 109.191 94.8918 110.096 99.1561 110.483C99.2207 110.483 99.2207 110.548 99.1561 110.548C97.0239 110.936 94.3103 110.419 92.2428 109.837C90.2399 109.256 88.56 108.416 87.1386 106.93C87.074 106.93 87.1386 106.801 87.2032 106.865Z" fill="#263238"/>
<path d="M59.8086 81.6029C59.8086 81.5383 59.7439 81.6029 59.8086 81.6029C59.8732 83.5412 59.9378 87.9347 56.9011 87.6116C55.6735 87.4824 54.6397 86.7071 53.7352 85.9318C52.8307 85.1564 51.9907 84.2519 51.28 83.2827C50.4401 82.249 49.6001 81.086 48.954 79.923C48.954 79.8584 48.8248 79.923 48.8894 79.9876C49.6001 81.1506 50.117 82.3782 50.957 83.4766C51.7323 84.5749 52.6368 85.5441 53.606 86.384C54.5751 87.1593 55.7381 87.9347 57.0303 87.9993C58.2579 88.0639 59.1625 87.3532 59.5501 86.2548C60.0024 84.8334 60.0024 83.0889 59.8086 81.6029Z" fill="#263238"/>
<path d="M56.8363 85.6732C54.7041 85.867 51.1506 81.7966 50.1168 79.0183C50.0522 78.8245 50.5691 77.0154 51.1506 74.7541C51.4736 73.3972 51.7967 71.8466 52.0551 70.4252L60.6483 73.9141C60.6483 73.9141 59.3561 76.757 58.9684 79.2122C58.9684 79.406 58.9038 79.5998 58.9684 79.7937C58.9684 79.7937 58.9684 79.8583 58.9684 79.9229C58.9038 81.0212 58.9038 85.4794 56.8363 85.6732Z" fill="#FFC9C2"/>
<path d="M58.9038 79.7937V79.8583C58.6454 79.8583 58.3223 79.8583 57.9993 79.7937C52.8951 78.9538 52.572 72.4282 52.6366 70.6191L54.7688 71.459L60.6483 73.8496C60.6483 73.8496 59.3561 76.6924 58.9684 79.1476C58.9038 79.4061 58.9038 79.5999 58.9038 79.7937Z" fill="#263238"/>
<path d="M51.0214 60.7337C50.1168 63.9643 52.0551 73.0743 54.3811 75.0772C57.7408 77.9847 63.1035 78.1139 65.5587 74.1081C67.8846 70.2314 65.2356 58.3432 62.6512 56.5341C58.8392 53.8851 52.3782 56.0172 51.0214 60.7337Z" fill="#FFC9C2"/>
<path d="M60.0672 66.5487C60.0672 66.4841 60.0026 66.5487 60.0672 66.5487C60.1964 67.1948 60.261 67.9701 59.7441 68.2931V68.3578C60.3902 68.0347 60.3256 67.0656 60.0672 66.5487Z" fill="#263238"/>
<path d="M59.3562 66.0317C58.3224 66.1609 58.6455 68.1638 59.6146 68.0346C60.5838 67.9054 60.2607 65.9025 59.3562 66.0317Z" fill="#263238"/>
<path d="M63.5557 65.8378C63.5557 65.8378 63.6203 65.8378 63.5557 65.8378C63.6849 66.4839 63.8787 67.1946 64.4602 67.3238V67.3884C63.8141 67.3884 63.5557 66.4193 63.5557 65.8378Z" fill="#263238"/>
<path d="M64.0085 65.127C64.9777 64.8686 65.4299 66.8715 64.4608 67.1299C63.6209 67.3238 63.1686 65.3209 64.0085 65.127Z" fill="#263238"/>
<path d="M58.4517 65.1916C58.7101 65.0624 58.9686 64.9331 59.1624 64.8039C59.4208 64.6747 59.6793 64.5455 59.8085 64.2224C59.8731 64.0932 59.8085 63.8348 59.6793 63.7055C59.3562 63.5117 58.9686 63.5763 58.5809 63.7701C58.1932 63.964 57.9994 64.2224 57.8056 64.6101C57.6764 64.9977 58.1286 65.3854 58.4517 65.1916Z" fill="#263238"/>
<path d="M64.6543 64.481C64.3959 64.481 64.1375 64.4164 63.8144 64.4164C63.4914 64.3518 63.2329 64.4164 62.9745 64.158C62.8453 64.0287 62.8453 63.7703 62.9099 63.6411C63.1683 63.318 63.556 63.2534 63.9436 63.2534C64.3313 63.2534 64.6543 63.3826 64.9774 63.7057C65.3004 63.9641 65.042 64.481 64.6543 64.481Z" fill="#263238"/>
<path d="M60.1315 72.3632C60.3253 72.4924 60.4546 72.6862 60.713 72.6216C60.9068 72.6216 61.1653 72.4924 61.3591 72.3632C61.3591 72.3632 61.4237 72.3632 61.3591 72.3632C61.2299 72.6216 60.9068 72.8155 60.6484 72.8155C60.3899 72.8801 60.1961 72.6216 60.1315 72.3632C60.0669 72.3632 60.1315 72.2986 60.1315 72.3632Z" fill="#263238"/>
<path d="M60.5194 70.2313C60.9717 70.6835 61.4886 70.942 62.0701 70.942C62.3285 70.942 62.587 70.942 62.8454 70.8774C62.91 70.8774 62.9746 70.8774 62.9746 70.8128C63.0392 70.8128 63.0392 70.8128 63.1038 70.7481C63.1685 70.7481 63.2331 70.6835 63.2331 70.6189V70.5543V70.4897C63.1685 70.0374 62.9746 69.2621 62.9746 69.2621C63.1685 69.3267 64.1376 69.5852 64.073 69.3267C63.6207 67.2592 63.1038 64.9978 62.1993 63.0595C62.1993 62.9949 62.0701 62.9949 62.0701 63.1241C62.4577 65.1271 63.1685 67.0008 63.5561 69.0037C63.2331 68.9391 62.7808 68.8098 62.5224 68.8745C62.4577 68.8745 62.8454 70.2313 62.91 70.4897C62.1347 70.7481 61.4886 70.5543 60.584 70.1667C60.5194 70.1667 60.4548 70.1667 60.5194 70.2313Z" fill="#263238"/>
<path d="M62.5866 70.748C62.5866 70.748 62.2635 71.3941 61.7466 71.6526C61.5528 71.7818 61.359 71.8464 61.1005 71.7818C60.5837 71.7172 60.519 71.2649 60.519 70.8772C60.519 70.5542 60.6483 70.2311 60.6483 70.2311C60.6483 70.2311 61.4236 70.8772 62.5866 70.748Z" fill="#263238"/>
<path d="M61.6822 71.6525C61.4884 71.7817 61.2945 71.8463 61.0361 71.7817C60.5192 71.7171 60.4546 71.2648 60.4546 70.8771C60.9715 70.8771 61.553 71.1356 61.6822 71.6525Z" fill="#FF9ABB"/>
<path d="M64.3956 59.2476C63.8788 58.5369 63.2973 57.8262 62.7804 57.7616C62.2635 57.697 62.1989 58.9246 61.1005 59.2476C59.6791 59.6353 58.6453 58.4723 56.5778 58.7954C53.6057 59.2476 52.8304 61.9613 53.6703 66.1609C54.4457 69.9083 52.2489 70.7483 52.2489 70.7483C52.2489 70.7483 49.083 62.8012 50.8275 59.5707C52.572 56.3402 57.6762 53.9496 61.8112 55.8233C63.2973 56.4694 64.3956 59.2476 64.3956 59.2476Z" fill="#263238"/>
<path d="M53.7353 68.6806C53.7353 68.6806 51.5385 65.7731 50.1817 66.613C48.8895 67.3883 50.634 71.6526 52.2492 72.1695C53.8645 72.6864 54.3814 71.2003 54.3814 71.2003L53.7353 68.6806Z" fill="#FFC9C2"/>
<path d="M50.7631 67.776C50.6984 67.776 50.6984 67.8406 50.7631 67.776C51.8614 68.2283 52.5075 69.1974 52.9598 70.2958C52.6368 69.9081 52.1199 69.7143 51.603 70.102C51.603 70.102 51.603 70.1666 51.6676 70.1666C52.1199 70.0374 52.4429 70.102 52.766 70.4896C53.0244 70.7481 53.1536 71.0711 53.3475 71.3296C53.4121 71.4588 53.6059 71.3942 53.5413 71.265C53.4767 69.7789 52.2491 67.8406 50.7631 67.776Z" fill="#263238"/>
<path d="M58.7747 54.6603C57.6764 54.3372 56.3196 54.0788 54.8981 54.1434C53.4121 54.208 48.8894 55.2418 47.9848 56.3401C47.0157 57.4385 47.4033 61.7674 47.4679 62.4135C47.5326 63.0596 48.4371 66.807 49.9231 67.5177C51.4738 68.2284 50.5692 61.7674 52.3783 59.2476C54.1874 56.7278 58.7747 54.6603 58.7747 54.6603Z" fill="white"/>
<path opacity="0.1" d="M58.7744 54.6602C58.7744 54.6602 54.1871 56.7277 52.378 59.2475C50.5689 61.7027 51.4088 68.2283 49.9228 67.5176C49.2767 67.1946 48.889 66.6777 48.4368 65.7085C48.4368 63.7702 48.7598 60.7335 49.9874 58.4722C51.1504 56.34 53.541 54.9832 56.19 54.2725C57.1592 54.2725 57.9991 54.4664 58.7744 54.6602Z" fill="black"/>
<path d="M50.8922 71.2653C50.763 69.5208 51.7967 64.6751 53.2181 61.703C54.575 58.7955 59.7438 56.405 60.5191 56.3404C62.3928 56.1465 62.9097 56.9865 63.1681 56.7926C63.4266 56.5988 61.2944 54.7897 60.7129 54.5959C60.1314 54.3374 58.9038 54.2082 58.0639 54.3374C57.2886 54.4667 52.4428 55.7589 50.9568 58.0848C49.4708 60.4754 47.9201 66.7426 48.5662 68.164C48.76 68.4871 49.2769 68.6809 49.4708 69.1332C49.7938 69.7793 50.0522 70.5546 50.3107 70.9423C50.6337 71.2653 50.8922 71.3945 50.8922 71.2653Z" fill="white"/>
<path d="M53.4118 60.4752C52.9595 60.2814 52.5073 60.0876 52.055 59.7645C51.6673 59.5061 51.2151 59.183 50.892 58.86C50.892 58.86 50.8274 58.86 50.8274 58.9246C51.1504 59.3123 51.4735 59.6999 51.9258 60.023C52.378 60.2814 52.8303 60.5399 53.3472 60.6045C53.4118 60.5399 53.4764 60.4752 53.4118 60.4752Z" fill="#263238"/>
<path d="M50.569 69.5207C50.5044 69.3915 50.3752 69.3269 50.3106 69.1976C50.246 69.0684 50.1167 68.9392 50.0521 68.81C49.9229 68.5515 49.9229 68.2285 49.7291 68.0347C49.5999 67.8408 49.406 67.7116 49.2122 67.5178C49.0184 67.3239 48.8245 67.1301 48.7599 66.8717C48.7599 66.8071 48.6953 66.8717 48.6953 66.8717C48.7599 67.3886 49.2122 67.7116 49.4706 68.0993C49.6645 68.3577 49.7291 68.6808 49.8583 68.9392C49.9875 69.1976 50.1813 69.4561 50.4398 69.5853C50.569 69.5853 50.6336 69.5853 50.569 69.5207Z" fill="#263238"/>
<path d="M50.8921 67.5823C50.6982 67.3885 50.5044 67.2593 50.3106 67.0654C50.1168 66.8716 49.9875 66.6778 49.8583 66.484C49.7291 66.2901 49.5999 66.0963 49.4707 65.8378C49.2768 65.5794 49.083 65.3856 48.9538 65.1271C48.9538 65.1271 48.8892 65.1271 48.8892 65.1917C49.0184 65.4502 49.1476 65.7086 49.2768 65.9671C49.406 66.2255 49.5353 66.4193 49.7291 66.6132C49.8583 66.807 50.0521 67.0008 50.246 67.1947C50.4398 67.3885 50.6336 67.5177 50.8921 67.5823Z" fill="#263238"/>
<path d="M51.2797 65.7734C50.892 65.5149 50.5044 65.1919 50.1813 64.8688C49.8583 64.5458 49.5998 64.1581 49.2768 63.7704H49.2122C49.4706 64.2227 49.6644 64.6104 49.9875 64.998C50.1167 65.1919 50.3105 65.3211 50.5044 65.4503C50.7628 65.6441 50.9566 65.7734 51.2797 65.7734C51.2797 65.838 51.2797 65.838 51.2797 65.7734Z" fill="#263238"/>
<path d="M51.6675 64.0934C51.4736 64.0288 51.2798 63.8349 51.1506 63.7057C50.9568 63.5119 50.8275 63.3827 50.6337 63.1888C50.4399 62.995 50.3107 62.8658 50.1168 62.6719C49.923 62.4781 49.7938 62.3489 49.7292 62.0905H49.6646C49.7292 62.3489 49.8584 62.5427 49.9876 62.7366C50.1168 62.9304 50.3107 63.1888 50.5045 63.318C50.6983 63.5119 50.8921 63.7057 51.086 63.8349C51.2798 63.9642 51.4736 64.0934 51.7321 64.158C51.7321 64.158 51.7321 64.0934 51.6675 64.0934Z" fill="#263238"/>
<path d="M51.8611 61.9613C51.6673 61.8321 51.4734 61.7029 51.3442 61.5736C51.1504 61.4444 51.0212 61.2506 50.8273 61.1214C50.6335 60.9275 50.5043 60.7983 50.3105 60.6045C50.3105 60.6045 50.2458 60.6045 50.2458 60.6691C50.3751 60.8629 50.5043 61.0568 50.6335 61.2506C50.7627 61.4444 50.9566 61.5736 51.1504 61.7675C51.3442 61.8967 51.5381 62.0905 51.7319 62.2197C51.9257 62.349 52.1195 62.4782 52.378 62.5428C52.4426 62.5428 52.4426 62.4782 52.4426 62.4782C52.2488 62.2197 52.0549 62.0905 51.8611 61.9613Z" fill="#263238"/>
<path d="M54.5749 59.2477C54.3811 59.0538 54.1873 58.86 53.9288 58.7308C53.735 58.537 53.4766 58.4077 53.2181 58.2785C52.7659 58.0201 52.249 57.7616 51.7321 57.5678C51.7321 57.5678 51.6675 57.5678 51.7321 57.6324C52.7012 58.2139 53.6058 58.7308 54.5749 59.2477C54.5749 59.3123 54.5749 59.3123 54.5749 59.2477Z" fill="#263238"/>
<path d="M55.4148 57.6324C55.221 57.4386 54.9625 57.3093 54.7687 57.1801C54.2518 56.9217 53.7349 56.7279 53.1534 56.5986C53.0888 56.5986 53.0888 56.6632 53.1534 56.6632C53.6703 56.9217 54.1226 57.1155 54.6395 57.374C54.8979 57.5032 55.0917 57.6324 55.3502 57.7616C55.544 57.8908 55.7378 58.0847 55.9963 58.2785H56.0609C55.8025 57.9554 55.6086 57.8262 55.4148 57.6324Z" fill="#263238"/>
<path d="M56.7071 56.7276C56.5133 56.5338 56.3195 56.4046 56.061 56.2754C55.6088 56.0169 55.1565 55.8231 54.7042 55.7585C54.6396 55.7585 54.6396 55.8231 54.7042 55.8231C55.1565 56.0169 55.6088 56.2108 55.9964 56.4692C56.1903 56.5984 56.3841 56.7276 56.6425 56.8569C56.8364 56.9861 57.0302 57.1799 57.224 57.3091C57.0948 57.0507 56.901 56.9215 56.7071 56.7276Z" fill="#263238"/>
<path d="M57.6117 55.6939C57.4178 55.5647 57.224 55.5001 56.9656 55.3709C56.7717 55.2416 56.5779 55.177 56.3195 55.1124C56.2548 55.1124 56.2548 55.177 56.3195 55.177C56.7071 55.3709 57.0948 55.6293 57.4824 55.8877C57.8701 56.0816 58.1285 56.4046 58.4516 56.7277C58.4516 56.7277 58.5162 56.7277 58.4516 56.7277C58.2578 56.2754 57.9993 55.9524 57.6117 55.6939Z" fill="#263238"/>
<path d="M58.8392 55.2417C58.4516 54.9833 57.9993 54.7895 57.547 54.7249C57.547 54.7249 57.4824 54.7895 57.547 54.7895C57.9993 54.9187 58.387 55.1771 58.71 55.4356C59.0977 55.694 59.4207 56.0171 59.6792 56.3401H59.7438C59.5499 55.8232 59.2269 55.5002 58.8392 55.2417Z" fill="#263238"/>
<path d="M60.6484 55.7587C60.5838 55.6941 60.5192 55.5649 60.4546 55.5003C60.3254 55.3711 60.1315 55.2418 60.0023 55.1126C59.6792 54.8542 59.2916 54.6603 58.9039 54.5311C58.8393 54.5311 58.8393 54.5957 58.9039 54.5957C59.2916 54.7896 59.6146 54.9834 59.9377 55.2418C60.0669 55.3711 60.2607 55.5003 60.39 55.6295C60.4546 55.6941 60.5192 55.7587 60.5838 55.8233C60.6484 55.8879 60.713 56.0172 60.7776 56.0172H60.8422C60.7776 55.8879 60.713 55.8233 60.6484 55.7587Z" fill="#263238"/>
<path d="M61.7468 55.6941C61.6175 55.5648 61.4883 55.4356 61.3591 55.371C61.2299 55.2418 61.1007 55.1772 60.9714 55.1126C60.8422 55.048 60.6484 54.9187 60.5192 54.8541C60.4546 54.8541 60.4546 54.8541 60.5192 54.9187C60.6484 54.9833 60.7776 55.1126 60.9714 55.2418C61.1007 55.371 61.2299 55.4356 61.3591 55.5648C61.4883 55.6941 61.6175 55.7587 61.7468 55.8879C61.876 56.0171 62.0052 56.1463 62.1344 56.2109C62.1344 56.2109 62.199 56.2109 62.1344 56.1463C61.9406 55.8879 61.8114 55.7587 61.7468 55.6941Z" fill="#263238"/>
<path d="M0.110756 46.3212C1.14483 56.5758 10.3653 64.0728 20.7061 63.0387C24.8424 62.6079 28.5479 60.7983 31.3916 58.2131L40.7844 59.5918L36.1311 51.4916C37.2513 48.734 37.7684 45.6318 37.4237 42.4434C36.3896 32.1888 27.1691 24.6918 16.8283 25.7258C6.48755 26.8461 -1.00949 36.0666 0.110756 46.3212Z" fill="white"/>
<path d="M0.111057 46.3216C0.54192 49.7685 1.74834 53.1292 3.90266 55.8006C4.4197 56.49 5.02291 57.0932 5.62613 57.7826C6.31551 58.3858 6.91872 58.989 7.60811 59.4199C8.98688 60.4539 10.538 61.3157 12.0891 61.9189C13.7264 62.6083 15.4499 62.953 17.1733 63.1253C18.035 63.2115 18.8968 63.2115 19.7585 63.2115C20.6202 63.2115 21.482 63.1253 22.3437 62.953C25.7906 62.3497 28.979 60.7125 31.6504 58.3858L31.3919 58.472L40.6986 59.9369L41.3879 60.0231L41.0433 59.4199L36.3899 51.3196V51.6643C38.6304 46.3216 38.1134 39.9448 35.2697 34.9467C33.8047 32.4477 31.8227 30.2934 29.4099 28.6561C26.997 27.0188 24.2395 26.0709 21.3958 25.64C18.5521 25.2953 15.6222 25.5539 12.9508 26.4156C10.2795 27.3635 7.78046 28.8284 5.7123 30.8104C1.576 34.7744 -0.492157 40.7203 0.111057 46.3216ZM0.111057 46.3216C-0.492157 40.6341 1.66217 34.7744 5.79848 30.8966C7.86663 28.9146 10.3656 27.4497 13.037 26.6741C15.7084 25.8124 18.6383 25.64 21.3958 26.0709C24.1533 26.5018 26.8247 27.5358 29.1514 29.087C31.478 30.7242 33.3738 32.7924 34.7526 35.2052C36.1314 37.6181 36.9069 40.3756 37.1655 43.1332C37.3378 45.8907 36.9069 48.7344 35.8729 51.3196L35.7867 51.4919L35.8729 51.6643L40.6124 59.7646L40.7847 59.2475L31.3919 57.9549H31.2195L31.1334 58.0411C28.6343 60.3678 25.5321 62.0051 22.1714 62.6944C21.3096 62.8668 20.4479 62.953 19.6723 63.0391C18.8106 63.1253 17.9489 63.0391 17.0871 63.0391C15.3637 62.8668 13.6402 62.6083 12.0891 61.9189C10.4518 61.3157 8.9007 60.5401 7.60811 59.506C6.91872 58.989 6.31551 58.3858 5.62613 57.8687C5.02291 57.2655 4.4197 56.6623 3.90266 55.9729C1.74834 53.1292 0.54192 49.7685 0.111057 46.3216Z" fill="#263238"/>
<path d="M16.5698 55.111L8.64185 47.0108L11.3132 44.3394L15.9666 49.0789L25.7041 33.8263L28.8925 35.8944L16.5698 55.111Z" fill="#E8807E"/>
</svg>
