<svg width="17" height="17" viewBox="0 0 17 17" fill="none" xmlns="http://www.w3.org/2000/svg">
<path d="M4.37241 10.0051L4.37294 10.0054C5.40905 10.6176 6.61714 10.9626 7.88679 10.9626C9.15367 10.9626 10.3769 10.6191 11.4011 10.0051C12.3841 9.43113 13.6344 9.64592 14.3807 10.4885L14.3806 10.4886L14.3872 10.4957C14.797 10.9406 15.1472 11.4264 15.4375 11.9359C13.8878 14.184 11.3248 15.6867 8.41825 15.7685H7.86537C4.79166 15.6728 2.10291 14.0085 0.584162 11.544C0.823116 11.1725 1.09677 10.8188 1.39056 10.4911C2.15479 9.64229 3.40754 9.43329 4.37241 10.0051Z" stroke="#C2C2C2"/>
<path d="M11.9996 4.59821C11.9996 6.86158 10.1648 8.69641 7.90143 8.69641C5.63805 8.69641 3.80322 6.86158 3.80322 4.59821C3.80322 2.33483 5.63805 0.5 7.90143 0.5C10.1648 0.5 11.9996 2.33483 11.9996 4.59821Z" stroke="#C2C2C2"/>
</svg>
