<svg width="174" height="71" viewBox="0 0 174 71" fill="none" xmlns="http://www.w3.org/2000/svg">
<path d="M54.5632 25.41C53.9669 25.4594 53.47 25.6074 53.0724 25.9034L52.0786 24.5712L46.5129 16.9729C46.2644 16.6275 46.3638 16.1835 46.662 15.9368C47.0098 15.6901 47.4571 15.7888 47.7055 16.0848L53.47 23.9298L54.5632 25.41Z" fill="#59C69C"/>
<path d="M73.2483 14.5552L58.3403 24.9659L56.7998 26.0514C56.6507 25.9527 56.5016 25.854 56.3525 25.7554L57.9427 24.6699L72.9501 14.1605C73.0495 14.0618 73.1986 14.1112 73.298 14.2098C73.3974 14.3085 73.3477 14.4565 73.2483 14.5552Z" fill="#59C69C"/>
<path d="M9.88884 20.476C8.84528 19.5385 7.25509 19.0452 5.01888 19.0452C3.22992 19.0452 1.78881 19.1932 0.695557 19.3905V36.4128H2.98145V29.5052C3.47839 29.6532 4.1244 29.6532 4.77042 29.6532C6.95693 29.6532 8.89497 29.0118 10.0876 27.7783C10.9821 26.8902 11.4293 25.6567 11.4293 24.0778C11.4293 22.5483 10.8827 21.3148 9.88884 20.476ZM4.82011 27.877C4.07471 27.877 3.42869 27.8276 2.98145 27.6796V21.0187C3.379 20.9201 4.1244 20.8214 5.11827 20.8214C7.60294 20.8214 9.24282 21.9069 9.24282 24.1765C9.19313 26.5941 7.55325 27.877 4.82011 27.877Z" fill="#383838"/>
<path d="M19.4794 23.7818C17.9389 23.7818 16.5972 24.8179 16.0008 26.4955H15.9014L15.8518 24.0778H13.864C13.9634 25.2126 13.9634 26.4955 13.9634 27.9263V36.4621H16.1996V29.8506C16.1996 29.4558 16.2493 29.1105 16.299 28.8144C16.5972 27.1369 17.7401 25.9034 19.3303 25.9034C19.6285 25.9034 19.8769 25.9527 20.1254 26.0021V23.8804C19.9266 23.7818 19.7278 23.7818 19.4794 23.7818Z" fill="#383838"/>
<path d="M22.5108 24.0285V36.4128H24.7967V24.0285H22.5108ZM23.6041 19.1438C22.7593 19.1438 22.2126 19.7853 22.2126 20.5747C22.2126 21.3148 22.7593 21.9562 23.6041 21.9562C24.4985 21.9562 25.0949 21.3148 25.0452 20.5747C24.9955 19.7853 24.4985 19.1438 23.6041 19.1438Z" fill="#383838"/>
<path d="M42.2393 23.7818C41.0467 23.7818 40.2516 24.0778 39.5062 24.6699C39.0093 25.0646 38.5123 25.6073 38.1148 26.2981H38.0651C37.5185 24.8179 36.2264 23.8311 34.5369 23.8311C32.4497 23.8311 31.3068 24.9166 30.6111 26.1007H30.5117L30.4123 24.1271H28.4246C28.5239 25.1633 28.5239 26.1994 28.5239 27.4823V36.5114H30.7602V28.9624C30.7602 28.5677 30.8098 28.2223 30.9589 27.877C31.3068 26.7422 32.3503 25.6073 33.7914 25.6073C35.5307 25.6073 36.3755 27.0382 36.3755 29.0118V36.4128H38.6117V28.7651C38.6117 28.3704 38.7111 27.9263 38.8105 27.6303C39.208 26.5448 40.2019 25.6073 41.4939 25.6073C43.3326 25.6073 44.1774 27.0382 44.1774 29.4065V36.4128H46.4136V29.1598C46.3639 24.8672 43.8792 23.7818 42.2393 23.7818Z" fill="#383838"/>
<path d="M60.1286 29.6039C60.1286 28.173 59.6814 26.1994 58.3396 24.9659C58.1906 24.8672 58.0912 24.7686 57.9421 24.6205C57.1967 24.0778 56.2525 23.7324 54.9605 23.7324C54.4139 23.7324 53.9169 23.7818 53.4697 23.9298C52.9728 24.0778 52.4758 24.2752 52.0286 24.5219C50.1402 25.6567 49.0967 27.8276 49.0967 30.4426C49.0967 34.1925 51.3826 36.7088 55.2587 36.7088C57.2464 36.7088 58.5881 36.3141 59.3832 35.9194L58.9857 34.2911C58.1409 34.6365 57.147 34.9326 55.5071 34.9326C53.2212 34.9326 51.2832 33.6991 51.2335 30.64H59.9795C60.0789 30.4426 60.1286 30.0479 60.1286 29.6039ZM51.3329 29.0611C51.482 27.9756 51.9789 26.5941 53.0721 25.9034C53.4697 25.6073 53.9666 25.4593 54.563 25.41C54.6623 25.41 54.712 25.41 54.8114 25.41C55.4574 25.41 55.9544 25.558 56.3519 25.7554C56.501 25.854 56.6501 25.9527 56.7992 26.0514C57.6936 26.8408 57.9421 28.1237 57.9421 29.0611H51.3329V29.0611Z" fill="#383838"/>
<path d="M7.80186 70.9506C5.06873 70.9506 1.98774 70.1612 0.347854 69.0757L0 68.8783L1.19264 64.8818L1.73927 65.2272C3.52823 66.3127 5.86382 67.0034 8.00064 67.0034C11.3301 67.0034 13.4172 65.3752 13.4172 62.7109C13.4172 60.3426 12.1252 59.0104 8.39818 57.5795C3.08099 55.7046 0.646014 53.0403 0.646014 49.1918C0.646014 44.4058 4.62149 41.1 10.2865 41.1C13.7154 41.1 15.8025 41.9881 16.7467 42.5309L17.0945 42.7282L15.7528 46.6261L15.2559 46.3301C14.1626 45.738 12.4234 45.0472 10.1375 45.0472C6.808 45.0472 5.31719 46.9221 5.31719 48.7477C5.31719 50.968 6.60922 52.1522 10.6344 53.6817C15.9019 55.7046 18.1381 58.3196 18.1381 62.3655C18.1878 66.3127 15.4546 70.9506 7.80186 70.9506Z" fill="#383838"/>
<path d="M1.49067 65.622C3.13056 66.6088 5.51584 67.4475 8.00051 67.4475C11.7275 67.4475 13.914 65.4739 13.914 62.6616C13.914 60.0466 12.4232 58.5664 8.59683 57.0862C3.97534 55.458 1.14282 53.0896 1.14282 49.1425C1.14282 44.8006 4.77044 41.5441 10.2864 41.5441C13.1686 41.5441 15.2557 42.1855 16.5478 42.9256L15.5539 45.886C14.6097 45.3926 12.7711 44.5539 10.187 44.5539C6.31093 44.5539 4.86982 46.8235 4.86982 48.7477C4.86982 51.3628 6.60909 52.6456 10.4852 54.1751C15.2557 56.0007 17.6907 58.2703 17.6907 62.4149C17.6907 66.7568 14.4607 70.4573 7.80174 70.4573C5.0686 70.4573 2.08699 69.6678 0.596191 68.681L1.49067 65.622Z" fill="#383838"/>
<path d="M31.4062 70.9507C25.0952 70.9507 20.8215 66.6088 20.8215 60.1946C20.8215 53.6324 25.4927 48.9944 32.2013 48.9944C34.5369 48.9944 36.5246 49.5865 37.5185 50.0799L37.8664 50.2773L36.7234 54.0764L36.1768 53.7804C35.4811 53.3857 34.1891 52.8923 32.1516 52.8923C28.1265 52.8923 25.4927 55.7047 25.4927 59.9972C25.4927 64.1911 28.1265 67.0528 32.0522 67.0528C34.04 67.0528 35.332 66.5594 36.3756 66.1154L36.9222 65.8687L37.767 69.5691L37.4191 69.7665C36.3756 70.2599 34.1394 70.9507 31.4062 70.9507Z" fill="#383838"/>
<path d="M37.2205 69.2731C36.2763 69.7665 34.1395 70.4572 31.4064 70.4572C25.2941 70.4572 21.3186 66.362 21.3186 60.1945C21.3186 53.9777 25.5922 49.4878 32.2015 49.4878C34.388 49.4878 36.326 50.0305 37.3199 50.5239L36.4751 53.3363C35.5806 52.8429 34.2389 52.3989 32.2015 52.3989C27.5303 52.3989 25.0456 55.8033 25.0456 59.9972C25.0456 64.6351 28.0769 67.5462 32.1021 67.5462C34.1892 67.5462 35.5806 67.0034 36.6242 66.5594L37.2205 69.2731Z" fill="#383838"/>
<path d="M54.6132 70.5066V58.4677C54.6132 55.9513 53.8678 52.9909 50.4389 52.9909C48.1033 52.9909 46.5132 54.6685 45.9665 56.2967C45.7677 56.7408 45.7181 57.2342 45.7181 57.8756V70.5066H41.0469V40.0146H45.7181V51.6588C46.2647 51.0173 46.9604 50.4746 47.7058 50.0799C48.9481 49.3398 50.3395 48.9944 51.731 48.9944C55.2095 48.9944 59.2844 51.3627 59.2844 58.0729V70.5559H54.6132V70.5066Z" fill="#383838"/>
<path d="M41.5435 40.508H45.2208V53.0403H45.3202C45.9165 52.0042 46.811 51.0667 47.9539 50.4747C49.0472 49.8332 50.3392 49.4385 51.7306 49.4385C54.4637 49.4385 58.7871 51.1161 58.7871 58.0236V70.0132H55.1098V58.4677C55.1098 55.2113 53.9171 52.4976 50.4386 52.4976C48.0533 52.4976 46.1649 54.1751 45.5189 56.1487C45.3202 56.6421 45.2705 57.1849 45.2705 57.8756V70.0132H41.5931V40.508H41.5435Z" fill="#383838"/>
<path d="M73.2976 70.9507C66.9368 70.9507 62.8123 66.7568 62.8123 60.2933C62.8123 53.6324 66.9368 48.9451 72.8006 48.9451C79.3602 48.9451 81.6957 54.3231 81.6957 58.9117C81.6957 59.6025 81.646 60.0959 81.5964 60.4906L81.5467 61.0827H67.384C67.7319 66.4607 71.9558 67.1022 73.7945 67.1022C76.4779 67.1022 77.9687 66.6088 79.2111 66.1154L79.7577 65.8687L80.6025 69.4705L80.2049 69.6185C78.9129 70.2599 76.627 70.9507 73.2976 70.9507ZM77.1239 57.5302C77.0743 56.5928 76.8258 54.9152 75.6828 53.7311C74.8877 52.9416 73.8442 52.5469 72.5025 52.5469C69.2227 52.5469 67.8313 55.458 67.4337 57.5302H77.1239V57.5302Z" fill="#383838"/>
<path d="M66.8378 60.6386C66.9372 65.5726 70.1176 67.6449 73.7949 67.6449C76.4286 67.6449 78.0188 67.2008 79.4102 66.6087L80.0562 69.2237C78.7642 69.8158 76.528 70.4572 73.2979 70.4572C67.0366 70.4572 63.3096 66.362 63.3096 60.2932C63.3096 54.2244 66.8875 49.4385 72.801 49.4385C79.4102 49.4385 81.1992 55.2112 81.1992 58.9117C81.1992 59.6518 81.0998 60.2439 81.0501 60.6386H66.8378V60.6386ZM77.6213 58.0236C77.671 55.7046 76.6771 52.0535 72.5028 52.0535C68.7758 52.0535 67.136 55.4579 66.8378 58.0236H77.6213Z" fill="#383838"/>
<path d="M92.9764 71C87.6592 71 83.8328 66.51 83.8328 60.2932C83.8328 56.7901 84.926 53.731 87.0131 51.6588C88.7027 49.9319 90.9886 48.9944 93.4236 48.9944C95.7592 48.9944 97.7966 49.7839 99.1383 51.1654V40.0146H103.81V64.8325C103.81 66.066 103.81 68.4343 103.959 69.9638L104.008 70.5066H99.685L99.5856 67.9902C98.0451 69.8652 95.6598 71 92.9764 71ZM94.1193 52.7936C90.7898 52.7936 88.5536 55.7046 88.5536 60.0959C88.5536 63.303 89.9947 67.0528 94.0696 67.0528C96.4052 67.0528 98.3929 65.4739 98.9893 63.0563C99.0886 62.6122 99.1383 62.1681 99.1383 61.5761V58.0729C99.1383 57.5302 99.0886 56.9875 98.9893 56.6421C98.4923 54.7672 96.8027 52.7936 94.1193 52.7936Z" fill="#383838"/>
<path d="M103.263 40.508V64.8325C103.263 66.6088 103.313 68.681 103.412 70.0132H100.083L99.9337 66.5101H99.884C98.7411 68.7304 96.3061 70.4573 92.9767 70.4573C88.057 70.4573 84.33 66.3621 84.33 60.2439C84.2803 53.5337 88.4546 49.4385 93.4239 49.4385C96.5049 49.4385 98.592 50.8694 99.5362 52.4976H99.6356V40.508H103.263ZM99.5859 58.1223C99.5859 57.6783 99.5362 57.0368 99.4368 56.5928C98.8902 54.2738 96.9024 52.3496 94.1196 52.3496C90.2932 52.3496 88.057 55.6553 88.057 60.1453C88.057 64.2405 90.0448 67.5956 94.0699 67.5956C96.5546 67.5956 98.7908 65.9673 99.4865 63.2537C99.6356 62.7603 99.6356 62.2669 99.6356 61.6748V58.1223H99.5859Z" fill="#383838"/>
<path d="M116.233 71C113.997 71 108.729 70.1119 108.729 61.6747V49.4385H113.4V61.0827C113.4 66.362 115.686 67.0034 117.425 67.0034C119.761 67.0034 121.252 65.3752 121.798 63.9937C121.997 63.5003 122.097 62.9082 122.097 62.3162V49.4878H126.768V64.6351C126.768 66.9541 126.817 68.681 126.917 70.0625L126.966 70.6053H122.693L122.544 68.1383C121.55 69.3718 119.512 71 116.233 71Z" fill="#383838"/>
<path d="M126.37 64.5365C126.37 66.6087 126.42 68.4343 126.519 70.0132H123.24L123.041 66.7074H122.941C121.997 68.3356 119.86 70.4573 116.233 70.4573C113.052 70.4573 109.226 68.7304 109.226 61.6254V49.8826H112.903V61.0333C112.903 64.8819 114.096 67.4475 117.425 67.4475C119.91 67.4475 121.6 65.7206 122.295 64.1418C122.494 63.599 122.643 62.9576 122.643 62.2668V49.9319H126.321V64.5365H126.37Z" fill="#383838"/>
<path d="M136.657 40.0146H131.986V70.5066H136.657V40.0146Z" fill="#383838"/>
<path d="M132.483 40.508H136.16V70.0132H132.483V40.508Z" fill="#383838"/>
<path d="M150.869 70.9507C144.508 70.9507 140.384 66.7568 140.384 60.2933C140.384 53.6324 144.508 48.9451 150.372 48.9451C156.932 48.9451 159.267 54.3231 159.267 58.9117C159.267 59.6025 159.218 60.0959 159.168 60.4906L159.118 61.0827H144.956C145.303 66.4607 149.527 67.1022 151.366 67.1022C154.049 67.1022 155.54 66.6088 156.783 66.1154L157.329 65.8687L158.174 69.4705L157.776 69.6185C156.484 70.2599 154.199 70.9507 150.869 70.9507ZM154.695 57.5302C154.646 56.5928 154.397 54.9152 153.254 53.7311C152.459 52.9416 151.416 52.5469 150.074 52.5469C146.794 52.5469 145.403 55.458 145.005 57.5302H154.695V57.5302Z" fill="#383838"/>
<path d="M144.409 60.6386C144.508 65.5726 147.689 67.6449 151.366 67.6449C154 67.6449 155.59 67.2008 156.982 66.6087L157.628 69.2237C156.336 69.8158 154.099 70.4572 150.869 70.4572C144.608 70.4572 140.881 66.362 140.881 60.2932C140.881 54.2244 144.459 49.4385 150.372 49.4385C156.982 49.4385 158.771 55.2112 158.771 58.9117C158.771 59.6518 158.671 60.2439 158.621 60.6386H144.409V60.6386ZM155.193 58.0236C155.242 55.7046 154.248 52.0535 150.074 52.0535C146.347 52.0535 144.707 55.4579 144.409 58.0236H155.193Z" fill="#383838"/>
<path d="M162.845 70.5066V56.1487C162.845 53.5337 162.796 51.6094 162.696 49.8825L162.646 49.3398H166.87L166.97 52.0535C168.162 50.0799 170.15 48.8957 172.287 48.8957C172.734 48.8957 173.032 48.9451 173.43 49.0438L173.827 49.1424V53.583L173.231 53.435C172.883 53.3363 172.535 53.3363 172.088 53.3363C169.802 53.3363 168.113 54.9645 167.616 57.6289C167.516 58.0729 167.467 58.665 167.467 59.2571V70.4572H162.845V70.5066Z" fill="#383838"/>
<path d="M163.342 56.198C163.342 53.8297 163.293 51.8068 163.193 49.9319H166.423L166.572 53.879H166.721C167.666 51.1654 169.852 49.4878 172.337 49.4878C172.734 49.4878 173.032 49.5371 173.38 49.6358V53.0896C172.983 52.9909 172.635 52.9416 172.138 52.9416C169.554 52.9416 167.715 54.9152 167.218 57.6289C167.119 58.1223 167.069 58.7143 167.069 59.3558V70.0625H163.442V56.198H163.342Z" fill="#383838"/>
<path d="M74.7886 45.5406C74.5401 45.5406 74.3413 45.442 74.1426 45.2939C73.745 44.9486 73.6953 44.3071 74.0432 43.9124C78.0186 39.3238 80.2051 33.4524 80.2051 27.3342C80.2051 13.3217 68.726 1.92425 54.6131 1.92425C45.8173 1.97359 37.767 6.36483 33.0461 13.7658C32.748 14.2099 32.1516 14.3579 31.6547 14.0618C31.2075 13.7658 31.0584 13.1737 31.3565 12.6803C36.475 4.73662 45.1713 0 54.6131 0C69.8192 0 82.1929 12.2856 82.1929 27.3836C82.1929 33.9458 79.8076 40.2613 75.534 45.2446C75.3352 45.442 75.037 45.5406 74.7886 45.5406Z" fill="#EA3939"/>
<path d="M56.7001 4.73663C56.551 4.73663 56.4517 4.63795 56.4517 4.48993V2.71369C56.4517 2.56567 56.551 2.467 56.7001 2.467C56.8492 2.467 56.9486 2.56567 56.9486 2.71369V4.48993C56.9486 4.63795 56.8492 4.73663 56.7001 4.73663Z" fill="#EA3939"/>
<path d="M46.6125 5.9208C46.5131 5.9208 46.4137 5.87146 46.364 5.77278L45.7677 4.09523C45.718 3.94721 45.7677 3.84853 45.9167 3.79919C46.0658 3.74985 46.1652 3.79919 46.2149 3.94721L46.8112 5.62476C46.8609 5.77278 46.8112 5.87146 46.6621 5.9208C46.6621 5.9208 46.6621 5.9208 46.6125 5.9208Z" fill="#EA3939"/>
<path d="M66.3408 7.549C66.2911 7.549 66.2911 7.549 66.2414 7.49966C66.142 7.45032 66.0426 7.3023 66.142 7.15428L66.9371 5.57541C66.9868 5.47673 67.1359 5.37805 67.2849 5.47673C67.3843 5.52607 67.4837 5.67409 67.3843 5.8221L66.5892 7.40098C66.4899 7.49966 66.4402 7.549 66.3408 7.549Z" fill="#EA3939"/>
<path d="M76.9255 23.7818C76.7764 23.7818 76.677 23.6831 76.677 23.5351C76.677 23.3871 76.7764 23.2884 76.9255 23.2884H78.7144C78.8635 23.2884 78.9629 23.3871 78.9629 23.5351C78.9629 23.6831 78.8635 23.7818 78.7144 23.7818H76.9255Z" fill="#EA3939"/>
<path d="M78.1179 34.4885C78.0682 34.4885 78.0682 34.4885 78.0185 34.4885L76.3787 33.7978C76.2296 33.7484 76.1799 33.6004 76.2296 33.4524C76.2793 33.3044 76.4284 33.255 76.5774 33.3044L78.2173 33.9951C78.3664 34.0445 78.4161 34.1925 78.3664 34.3405C78.3167 34.4392 78.2173 34.4885 78.1179 34.4885Z" fill="#EA3939"/>
</svg>
