<svg width="62" height="62" viewBox="0 0 62 62" fill="none" xmlns="http://www.w3.org/2000/svg">
<g clip-path="url(#clip0_398_49)">
<path d="M30.95 44.3852H32.9462C33.2792 44.3852 33.5516 44.6576 33.5516 44.9906V46.6812C33.5516 47.0142 33.2792 47.2867 32.9462 47.2867H31.8785V50.9966C31.8785 51.6626 31.3336 52.2075 30.6676 52.2075H29.7599V55.9926H47.4566C46.7854 55.5963 46.2977 54.9156 46.1633 54.0949C46.1458 53.9851 46.1766 53.873 46.2485 53.7888C46.3204 53.7042 46.4259 53.655 46.5366 53.655H47.8412C46.9751 53.3149 46.3223 52.5419 46.1633 51.5713C46.1454 51.462 46.1766 51.3499 46.2485 51.2653C46.3204 51.1806 46.4254 51.1319 46.5366 51.1319H47.8407C46.9751 50.7913 46.3223 50.0188 46.1633 49.0482C46.1454 48.9385 46.1761 48.8268 46.2485 48.7422C46.3199 48.6575 46.4254 48.6083 46.5366 48.6083H47.8407C46.9751 48.2682 46.3218 47.4953 46.1633 46.5246C46.1454 46.4154 46.1761 46.3033 46.248 46.2186C46.3199 46.1339 46.4254 46.0852 46.5361 46.0852H57.461V35.7558C57.461 35.0624 56.9402 34.27 56.3031 33.9966L49.4433 31.0473C48.8066 30.7735 48.2853 29.9816 48.2853 29.2877V27.5886C47.1572 28.2816 45.8289 28.6818 44.4065 28.6818H42.452C40.979 28.6818 39.6077 28.2513 38.454 27.5124V29.2877C38.454 29.9816 37.9332 30.7735 37.2961 31.0473L30.4363 33.9966C29.7996 34.2705 29.2788 35.0624 29.2788 35.7558V40.7273C30.0706 41.8001 30.6492 43.0399 30.95 44.3852V44.3852Z" fill="#DEF9FF"/>
<path d="M30.6675 52.2075H29.7598V55.9926H31.7592V51.5159C31.5639 51.9232 31.1476 52.2075 30.6675 52.2075V52.2075Z" fill="#ABEBFF"/>
<path d="M30.95 44.3851H31.7594V37.006C31.7594 36.3121 32.2802 35.5202 32.9168 35.2464L39.7771 32.2971C40.4138 32.0232 40.9346 31.2313 40.9346 30.5374V28.5261C40.0377 28.3398 39.2009 27.9907 38.4545 27.5124V29.2877C38.4545 29.9816 37.9337 30.7735 37.2966 31.0473L30.4368 33.9966C29.8001 34.2705 29.2793 35.0624 29.2793 35.7558V40.7273C30.0707 41.8001 30.6492 43.0399 30.95 44.3851V44.3851Z" fill="#ABEBFF"/>
<path d="M35.0396 21.2874V17.4096H33.7118C32.8495 17.4096 32.1499 18.1073 32.1499 18.9677V20.8537C32.1499 21.7141 32.8495 22.4113 33.7118 22.4113H35.1247C35.0689 22.0447 35.0396 21.6696 35.0396 21.2874Z" fill="#FFE2B8"/>
<path d="M53.0276 17.4096H51.8195V21.2874C51.8195 21.6692 51.7902 22.0447 51.7344 22.4113H53.0281C53.8909 22.4113 54.59 21.7136 54.59 20.8537V18.9677C54.59 18.1073 53.8904 17.4096 53.0276 17.4096Z" fill="#FFE2B8"/>
<path d="M35.0396 16.2635V21.2875C35.0396 25.3711 38.3583 28.6818 42.4523 28.6818H44.4068C48.5008 28.6818 51.8195 25.3711 51.8195 21.2875V16.2635H35.0396Z" fill="#FFE2B8"/>
<path d="M37.5295 21.2874V16.2635H35.0396V21.2874C35.0396 25.371 38.3583 28.6817 42.4523 28.6817H44.4068C44.4967 28.6817 44.5856 28.6779 44.6745 28.6746C40.7049 28.5341 37.5295 25.2816 37.5295 21.2874Z" fill="#FFC987"/>
<path d="M53.7654 8.74287C53.7654 6.4085 51.8756 4.51641 49.5441 4.51641C48.7632 4.51641 48.0323 4.72975 47.4046 5.09965C46.8734 3.37359 45.268 2.11914 43.3697 2.11914C41.4715 2.11914 39.8665 3.37359 39.3358 5.09965C38.7081 4.72927 37.9768 4.51641 37.1959 4.51641C34.8643 4.51641 32.9746 6.4085 32.9746 8.74287C32.9746 10.2882 33.8033 11.6392 35.0398 12.3762V16.2635H51.8193V12.3024C52.9896 11.5507 53.7654 10.2381 53.7654 8.74287V8.74287Z" fill="#DEF9FF"/>
<path d="M35.5176 7.86683C35.5176 6.56271 36.0459 5.38204 36.9002 4.52776C34.7068 4.68008 32.9746 6.50831 32.9746 8.74287C32.9746 10.2882 33.8033 11.6392 35.0394 12.3766V16.2639H37.8231V11.9239C36.4428 11.1009 35.5176 9.59242 35.5176 7.86683Z" fill="#ABEBFF"/>
<path d="M21.3656 36.7572V34.5439C21.3656 33.9867 20.9144 33.535 20.3576 33.535H15.3176C14.7608 33.535 14.3096 33.9867 14.3096 34.5439V36.7572H21.3656Z" fill="#69CDFF"/>
<path d="M16.8322 36.7572V34.5439C16.8322 33.9867 17.2835 33.535 17.8402 33.535H15.3176C14.7608 33.535 14.3096 33.9867 14.3096 34.5439V36.7572H16.8322Z" fill="#00A9FF"/>
<path d="M30.95 44.3852C29.9732 40.0201 26.0835 36.7572 21.4299 36.7572H14.2456C9.59157 36.7572 5.7019 40.0201 4.72559 44.3852H30.95Z" fill="#E0E0E0"/>
<path d="M8.54808 44.3852C9.5244 40.0201 13.4145 36.7572 18.0686 36.7572H14.2456C9.59157 36.7572 5.7019 40.0201 4.72559 44.3852H8.54808Z" fill="#C7C8CA"/>
<path d="M5.91553 52.2075H8.43248V55.9926H5.91553V52.2075Z" fill="#69CDFF"/>
<path d="M27.2427 52.2075H29.7596V55.9926H27.2427V52.2075Z" fill="#69CDFF"/>
<path d="M3.79688 47.2866V50.9966C3.79688 51.6626 4.3418 52.2075 5.00781 52.2075H30.6674C31.3334 52.2075 31.8783 51.6626 31.8783 50.9966V47.2866H3.79688Z" fill="#C7C8CA"/>
<path d="M7.62883 50.9966V47.2866H3.79688V50.9966C3.79688 51.6626 4.3418 52.2075 5.00781 52.2075H8.83977C8.17375 52.2075 7.62883 51.6626 7.62883 50.9966Z" fill="#A7A9AC"/>
<path d="M33.5516 46.6812C33.5516 47.0142 33.2792 47.2866 32.9462 47.2866H2.729C2.396 47.2866 2.12354 47.0142 2.12354 46.6812V44.9906C2.12354 44.6576 2.396 44.3851 2.729 44.3851H32.9462C33.2792 44.3851 33.5516 44.6576 33.5516 44.9906V46.6812Z" fill="#69CDFF"/>
<path d="M5.93373 46.6812V44.9906C5.93373 44.6576 6.20619 44.3851 6.5392 44.3851H2.729C2.396 44.3851 2.12354 44.6576 2.12354 44.9906V46.6812C2.12354 47.0142 2.396 47.2866 2.729 47.2866H6.5392C6.20619 47.2866 5.93373 47.0142 5.93373 46.6812Z" fill="#00A9FF"/>
<path d="M47.841 48.6083H59.4092C60.2749 48.2682 60.9281 47.4952 61.087 46.5246C61.1045 46.4153 61.0738 46.3032 61.0019 46.2186C60.93 46.1339 60.8245 46.0852 60.7138 46.0852H46.5364C46.4257 46.0852 46.3202 46.1339 46.2483 46.2186C46.1764 46.3032 46.1452 46.4153 46.1632 46.5246C46.3221 47.4952 46.9749 48.2682 47.841 48.6083V48.6083Z" fill="#FFCB00"/>
<path d="M47.841 48.6083H51.6554C50.7893 48.2682 50.1366 47.4952 49.9776 46.5246C49.9597 46.4153 49.9909 46.3032 50.0628 46.2186C50.1347 46.1339 50.2397 46.0852 50.3509 46.0852H46.5364C46.4252 46.0852 46.3202 46.1339 46.2483 46.2186C46.1764 46.3032 46.1452 46.4153 46.1632 46.5246C46.3221 47.4952 46.9749 48.2682 47.841 48.6083V48.6083Z" fill="#FFAF10"/>
<path d="M47.841 51.1318H59.4092C60.2749 50.7913 60.9281 50.0183 61.087 49.0482C61.1045 48.9384 61.0738 48.8263 61.0019 48.7421C60.93 48.6575 60.8245 48.6083 60.7138 48.6083H46.5364C46.4257 48.6083 46.3202 48.657 46.2483 48.7421C46.1764 48.8263 46.1452 48.9384 46.1632 49.0482C46.3221 50.0183 46.9749 50.7913 47.841 51.1318V51.1318Z" fill="#FF99A3"/>
<path d="M47.841 51.1318H51.6554C50.7893 50.7913 50.1366 50.0183 49.9776 49.0482C49.9597 48.9384 49.9909 48.8263 50.0628 48.7421C50.1347 48.6575 50.2397 48.6083 50.3509 48.6083H46.5364C46.4252 48.6083 46.3202 48.657 46.2483 48.7421C46.1764 48.8263 46.1452 48.9384 46.1632 49.0482C46.3221 50.0183 46.9749 50.7913 47.841 51.1318V51.1318Z" fill="#FF6666"/>
<path d="M47.841 53.6549H59.4092C60.2749 53.3148 60.9281 52.5419 61.087 51.5712C61.1045 51.462 61.0738 51.3499 61.0019 51.2652C60.93 51.1805 60.8245 51.1318 60.7138 51.1318H46.5364C46.4257 51.1318 46.3202 51.1805 46.2483 51.2652C46.1764 51.3499 46.1452 51.462 46.1632 51.5712C46.3221 52.5419 46.9749 53.3148 47.841 53.6549V53.6549Z" fill="#FFCB00"/>
<path d="M47.841 53.6549H51.6554C50.7893 53.3148 50.1366 52.5419 49.9776 51.5712C49.9597 51.462 49.9909 51.3499 50.0628 51.2652C50.1347 51.1805 50.2397 51.1318 50.3509 51.1318H46.5364C46.4252 51.1318 46.3202 51.1805 46.2483 51.2652C46.1764 51.3499 46.1452 51.462 46.1632 51.5712C46.3221 52.5419 46.9749 53.3148 47.841 53.6549V53.6549Z" fill="#FFAF10"/>
<path d="M47.4564 55.9926H59.7933C60.4645 55.5962 60.9522 54.9155 61.087 54.0948C61.1045 53.9851 61.0738 53.873 61.0019 53.7888C60.93 53.7041 60.8245 53.6549 60.7138 53.6549H46.5364C46.4257 53.6549 46.3202 53.7036 46.2483 53.7888C46.1764 53.873 46.1452 53.9851 46.1632 54.0948C46.2975 54.9155 46.7852 55.5962 47.4564 55.9926Z" fill="#FF99A3"/>
<path d="M47.4564 55.9926H51.2709C50.5997 55.5962 50.112 54.9155 49.9776 54.0948C49.9597 53.9851 49.9909 53.873 50.0628 53.7888C50.1347 53.7041 50.2397 53.6549 50.3509 53.6549H46.5364C46.4252 53.6549 46.3202 53.7036 46.2483 53.7888C46.1764 53.873 46.1452 53.9851 46.1632 54.0948C46.2975 54.9155 46.7852 55.5962 47.4564 55.9926Z" fill="#FF6666"/>
<path d="M61.0918 59.1718C61.0918 59.5048 60.8193 59.7772 60.4863 59.7772H1.51367C1.18066 59.7772 0.908203 59.5048 0.908203 59.1718V56.5981C0.908203 56.265 1.18066 55.9926 1.51367 55.9926H60.4863C60.8193 55.9926 61.0918 56.265 61.0918 56.5981V59.1718Z" fill="#02AF8E"/>
<path d="M5.8125 59.1718V56.5981C5.8125 56.265 6.08496 55.9926 6.41797 55.9926H1.51367C1.18066 55.9926 0.908203 56.265 0.908203 56.5981V59.1718C0.908203 59.5048 1.18066 59.7772 1.51367 59.7772H6.41797C6.08496 59.7772 5.8125 59.5048 5.8125 59.1718V59.1718Z" fill="#008E83"/>
<path d="M43.144 22.7978H44.0877C44.5896 22.7978 44.9959 22.3914 44.9959 21.8896C44.9959 21.3882 44.5896 20.9814 44.0877 20.9814H43.6123V19.3509C43.6123 18.849 43.206 18.4426 42.7041 18.4426C42.2027 18.4426 41.7959 18.849 41.7959 19.3509V21.4709C41.7959 22.2027 42.4009 22.7978 43.144 22.7978V22.7978Z" fill="black"/>
<path d="M39.187 20.8063C39.6884 20.8063 40.0952 20.4 40.0952 19.8981V19.0954C40.0952 18.594 39.6884 18.1872 39.187 18.1872C38.6851 18.1872 38.2788 18.594 38.2788 19.0954V19.8981C38.2788 20.4 38.6851 20.8063 39.187 20.8063Z" fill="black"/>
<path d="M47.5532 20.8063C48.0546 20.8063 48.4614 20.4 48.4614 19.8981V19.0954C48.4614 18.594 48.0546 18.1872 47.5532 18.1872C47.0513 18.1872 46.645 18.594 46.645 19.0954V19.8981C46.645 20.4 47.0513 20.8063 47.5532 20.8063Z" fill="black"/>
<path d="M39.8308 25.0206C40.8137 25.9624 42.1046 26.4335 43.396 26.4335C44.6868 26.4335 45.9782 25.9624 46.9606 25.0206C47.323 24.6734 47.3353 24.0987 46.9881 23.7363C46.6409 23.3745 46.0662 23.3622 45.7043 23.7094C44.4314 24.9288 42.3605 24.9288 41.0871 23.7094C40.7253 23.3622 40.1501 23.3745 39.8033 23.7368C39.4561 24.0987 39.4684 24.6739 39.8308 25.0206V25.0206Z" fill="black"/>
<path d="M41.907 37.6871C41.7376 37.5178 41.5035 37.4208 41.2637 37.4208C41.0253 37.4208 40.7916 37.5178 40.6223 37.6871C40.4524 37.8565 40.3555 38.0906 40.3555 38.329C40.3555 38.5688 40.4524 38.8025 40.6223 38.9709C40.7916 39.1402 41.0253 39.2372 41.2637 39.2372C41.5035 39.2372 41.7372 39.1402 41.907 38.9709C42.0754 38.8025 42.1733 38.5688 42.1733 38.329C42.1733 38.0906 42.0754 37.8555 41.907 37.6871Z" fill="black"/>
<path d="M46.5691 37.6871C46.3998 37.5178 46.1656 37.4208 45.9272 37.4208C45.6874 37.4208 45.4538 37.5178 45.2844 37.6871C45.1155 37.8555 45.019 38.0906 45.019 38.329C45.019 38.5674 45.116 38.8025 45.2844 38.9709C45.4538 39.1402 45.6874 39.2372 45.9272 39.2372C46.1656 39.2372 46.3993 39.1402 46.5691 38.9709C46.7385 38.8025 46.8354 38.5674 46.8354 38.329C46.8354 38.0906 46.7385 37.8565 46.5691 37.6871Z" fill="black"/>
<path d="M41.907 42.8591C41.7376 42.6907 41.5035 42.5938 41.2637 42.5938C41.0253 42.5938 40.7916 42.6907 40.6223 42.8591C40.4524 43.0285 40.3555 43.2635 40.3555 43.502C40.3555 43.7408 40.4524 43.9745 40.6223 44.1438C40.7916 44.3132 41.0253 44.4102 41.2637 44.4102C41.5035 44.4102 41.7372 44.3132 41.907 44.1438C42.0754 43.9754 42.1733 43.7408 42.1733 43.502C42.1733 43.2621 42.0754 43.0285 41.907 42.8591Z" fill="black"/>
<path d="M45.9272 42.5938C45.6874 42.5938 45.4538 42.6907 45.2844 42.8591C45.116 43.0285 45.019 43.2621 45.019 43.502C45.019 43.7408 45.116 43.9745 45.2844 44.1438C45.4538 44.3132 45.6874 44.4102 45.9272 44.4102C46.1661 44.4102 46.3998 44.3132 46.5691 44.1438C46.7385 43.9745 46.8354 43.7408 46.8354 43.502C46.8354 43.2635 46.7385 43.0285 46.5691 42.8591C46.3998 42.6907 46.1656 42.5938 45.9272 42.5938Z" fill="black"/>
<path d="M41.907 48.0321C41.7376 47.8637 41.5035 47.7672 41.2637 47.7672C41.0253 47.7672 40.7916 47.8637 40.6223 48.0321C40.4524 48.2019 40.3555 48.4356 40.3555 48.6754C40.3555 48.9138 40.4524 49.1475 40.6223 49.3168C40.7916 49.4867 41.0253 49.5836 41.2637 49.5836C41.5035 49.5836 41.7372 49.4867 41.907 49.3168C42.0754 49.1475 42.1733 48.9138 42.1733 48.6754C42.1733 48.4356 42.0754 48.2019 41.907 48.0321Z" fill="black"/>
<path d="M41.2642 52.9388C41.0253 52.9388 40.7916 53.0357 40.6223 53.2051C40.4525 53.3749 40.356 53.6086 40.356 53.847C40.356 54.0868 40.4525 54.3204 40.6223 54.4903C40.7916 54.6582 41.0253 54.7552 41.2642 54.7552C41.5035 54.7552 41.7377 54.6582 41.907 54.4903C42.0754 54.3204 42.1733 54.0868 42.1733 53.847C42.1733 53.6086 42.0754 53.3735 41.907 53.2051C41.7377 53.0357 41.5035 52.9388 41.2642 52.9388Z" fill="black"/>
<path d="M61.526 55.5007C61.7493 55.1222 61.9082 54.6984 61.983 54.241C62.044 53.8673 61.9385 53.4884 61.6944 53.2013C61.6362 53.1327 61.5714 53.0717 61.5019 53.0178C61.7379 52.6294 61.9054 52.1919 61.983 51.7174C62.044 51.3442 61.9385 50.9649 61.6944 50.6782C61.6362 50.6096 61.5714 50.5486 61.5019 50.4942C61.7379 50.1058 61.9054 49.6683 61.983 49.1939C62.044 48.8206 61.9385 48.4413 61.6944 48.1546C61.6362 48.086 61.5714 48.025 61.5019 47.9711C61.7379 47.5827 61.9054 47.1447 61.983 46.6708C62.044 46.2975 61.9385 45.9182 61.6944 45.6311C61.4499 45.3425 61.0923 45.177 60.7139 45.177H58.3696V42.6945C58.3696 42.1927 57.9628 41.7863 57.4613 41.7863C56.9595 41.7863 56.5531 42.1927 56.5531 42.6945V45.177H46.5364C46.158 45.177 45.8004 45.3425 45.5563 45.6301C45.3113 45.9182 45.2058 46.2971 45.2668 46.6712C45.3444 47.1452 45.5119 47.5827 45.7479 47.9711C45.6784 48.025 45.614 48.0856 45.5563 48.1537C45.3113 48.4413 45.2058 48.8206 45.2668 49.1948C45.3444 49.6688 45.5119 50.1063 45.7479 50.4942C45.6784 50.5481 45.614 50.6087 45.5563 50.6768C45.3113 50.9649 45.2058 51.3442 45.2668 51.7179C45.3444 52.1919 45.5119 52.6294 45.7479 53.0178C45.6784 53.0717 45.614 53.1322 45.5563 53.2004C45.3113 53.4884 45.2058 53.8673 45.2668 54.2415C45.3156 54.5376 45.4002 54.819 45.5133 55.0844H39.5111V36.6734C39.5111 36.2165 39.8143 35.4776 40.135 35.1527L45.7323 29.483C46.3018 29.3912 46.8519 29.2418 47.377 29.0407V29.2872C47.377 30.3477 48.1111 31.4626 49.0846 31.8812L55.9444 34.8305C56.2457 34.9601 56.5527 35.427 56.5527 35.7558V38.4562C56.5527 38.9577 56.9595 39.3645 57.4609 39.3645C57.9628 39.3645 58.3691 38.9577 58.3691 38.4562V35.7558C58.3691 34.6957 57.6349 33.5803 56.6619 33.1622L49.8022 30.2129C49.5009 30.0833 49.1934 29.6164 49.1934 29.2877V28.0725C50.7946 26.9448 51.9809 25.2689 52.4743 23.3195H53.0277C54.39 23.3195 55.4978 22.2136 55.4978 20.8537V18.9677C55.4978 17.6078 54.39 16.5019 53.0277 16.5019H52.7273V12.7683C53.9548 11.7981 54.6738 10.3275 54.6738 8.74287C54.6738 5.91136 52.3726 3.60821 49.5444 3.60821C48.9744 3.60821 48.411 3.70329 47.8765 3.88729C46.9934 2.25348 45.2876 1.21093 43.37 1.21093C41.4519 1.21093 39.7462 2.25348 38.8635 3.88729C38.3295 3.70329 37.7656 3.60821 37.1956 3.60821C34.3674 3.60821 32.0662 5.91136 32.0662 8.74287C32.0662 10.3639 32.8457 11.897 34.1314 12.8596V16.5014H33.7118C32.35 16.5014 31.2417 17.6078 31.2417 18.9677V20.8537C31.2417 22.2136 32.35 23.3195 33.7118 23.3195H34.3845C34.8655 25.2201 36.0055 26.8615 37.5462 27.9883V29.2872C37.5462 29.6159 37.2392 30.0828 36.9379 30.2124L30.0781 33.1622C29.1046 33.5803 28.3705 34.6957 28.3705 35.7558V38.4227C26.652 36.9454 24.5229 36.0618 22.2737 35.8844V34.5439C22.2737 33.4867 21.4142 32.6262 20.3575 32.6262H15.3174C14.2607 32.6262 13.4012 33.4867 13.4012 34.5439V35.8844C11.0422 36.0703 8.81383 37.0315 7.05418 38.6412C5.61005 39.9614 4.57271 41.634 4.02495 43.4769H0.908203C0.406326 43.4769 0 43.8837 0 44.3851C0 44.887 0.406326 45.2933 0.908203 45.2933H1.21519V46.6812C1.21519 47.516 1.89445 48.1948 2.72887 48.1948H2.88828V50.9965C2.88828 52.1649 3.83905 53.1157 5.00742 53.1157V55.0844H1.51367C0.678787 55.0844 0 55.7632 0 56.5981V59.1723C0 60.0067 0.678787 60.6859 1.51367 60.6859H51.707C52.2089 60.6859 52.6152 60.2791 52.6152 59.7777C52.6152 59.2759 52.2089 58.8695 51.707 58.8695H1.81641V56.9008H60.1836V58.8695H56.0664C55.5645 58.8695 55.1582 59.2759 55.1582 59.7777C55.1582 60.2791 55.5645 60.6859 56.0664 60.6859H60.4863C61.3212 60.6859 62 60.0067 62 59.1723V56.5981C62 56.1662 61.8169 55.7769 61.526 55.5007V55.5007ZM53.0277 18.3178C53.3886 18.3178 53.6814 18.6092 53.6814 18.9677V20.8537C53.6814 21.2117 53.3882 21.5031 53.0277 21.5031H52.7221C52.724 21.4312 52.7278 21.3598 52.7278 21.2874V18.3178H53.0277ZM33.7123 21.5031C33.3519 21.5031 33.0586 21.2117 33.0586 20.8537V18.9677C33.0586 18.6096 33.3519 18.3178 33.7123 18.3178H34.1314V21.2874C34.1314 21.3598 34.1352 21.4312 34.1371 21.5031H33.7123ZM35.5046 11.5961C34.5042 10.9997 33.8826 9.90651 33.8826 8.74287C33.8826 6.91322 35.3688 5.42462 37.1956 5.42462C37.7865 5.42462 38.3669 5.58261 38.8739 5.88203C39.1138 6.02346 39.4047 6.04712 39.6639 5.94683C39.9231 5.84608 40.1218 5.63275 40.2036 5.36691C40.634 3.96771 41.9065 3.02734 43.37 3.02734C44.8335 3.02734 46.106 3.96771 46.5364 5.36691C46.6183 5.63275 46.8169 5.84608 47.0766 5.94683C47.3358 6.04712 47.6267 6.02346 47.8661 5.88203C48.3736 5.58261 48.9536 5.42462 49.5444 5.42462C51.3712 5.42462 52.8569 6.91322 52.8569 8.74287C52.8569 9.8786 52.2855 10.9235 51.3286 11.538C51.0685 11.7049 50.9109 11.993 50.9109 12.3024V15.3553H35.9478V12.3762C35.9478 12.0564 35.7799 11.7603 35.5046 11.5961V11.5961ZM35.9478 21.2874V17.1717H50.9109V21.2874C50.9109 24.8635 47.9933 27.7735 44.4069 27.7735H42.4523C38.8659 27.773 35.9478 24.8635 35.9478 21.2874V21.2874ZM15.2176 34.5439C15.2176 34.4881 15.2625 34.4431 15.3174 34.4431H20.3575C20.4128 34.4431 20.4573 34.4885 20.4573 34.5439V35.8489H15.2176V34.5439ZM8.27979 39.9813C9.91313 38.4879 12.0318 37.6654 14.2455 37.6654H21.4298C23.6431 37.6654 25.7617 38.4879 27.3951 39.9813C28.457 40.9524 29.2555 42.1524 29.7399 43.4769H5.93549C6.41986 42.1524 7.21832 40.9524 8.27979 39.9813ZM3.0316 46.3784V45.2933H32.6433V46.3784H3.0316ZM7.52437 55.0844H6.82382V53.1157H7.52437V55.0844ZM28.8515 55.0844H28.151V53.1157H28.8515V55.0844ZM15.6211 51.2993C15.1192 51.2993 14.7129 51.7061 14.7129 52.2075C14.7129 52.7089 15.1192 53.1157 15.6211 53.1157H26.3346V55.0844H9.34077V53.1157H11.3828C11.8847 53.1157 12.291 52.7089 12.291 52.2075C12.291 51.7061 11.8847 51.2993 11.3828 51.2993H5.00789C4.84375 51.2993 4.70515 51.1607 4.70515 50.9965V48.1948H30.9702V50.9965C30.9702 51.1607 30.8316 51.2993 30.6675 51.2993H15.6211ZM37.6947 36.6734V55.0844H30.6679V53.1157C31.8363 53.1157 32.7866 52.1649 32.7866 50.9965V48.1948H32.946C33.7809 48.1948 34.4597 47.516 34.4597 46.6812V45.2933H34.7667C35.2686 45.2933 35.6749 44.887 35.6749 44.3851C35.6749 43.8837 35.2686 43.4769 34.7667 43.4769H31.6499C31.3273 42.3909 30.834 41.3644 30.1873 40.434V35.7558C30.1873 35.427 30.4943 34.9601 30.7957 34.8305L37.6554 31.8812C38.6284 31.4626 39.3626 30.3477 39.3626 29.2872V28.9958C39.8701 29.1992 40.4027 29.3529 40.9538 29.4537L42.072 30.605L38.8422 33.8764C38.188 34.5392 37.6947 35.7416 37.6947 36.6734V36.6734ZM59.5162 55.0844H47.7336C47.5506 54.943 47.3959 54.7665 47.2786 54.5631H59.9712C59.8544 54.7665 59.6992 54.943 59.5162 55.0844V55.0844ZM59.2205 52.7467H48.0298C47.7166 52.5906 47.455 52.3451 47.2786 52.04H59.9717C59.7952 52.3451 59.5337 52.5906 59.2205 52.7467ZM59.2205 50.2236H48.0298C47.7166 50.0671 47.455 49.822 47.2786 49.5165H59.9717C59.7952 49.822 59.5337 50.0671 59.2205 50.2236ZM59.2205 47.7001H48.0298C47.7166 47.544 47.455 47.2985 47.2786 46.9934H59.9717C59.7952 47.2985 59.5337 47.544 59.2205 47.7001Z" fill="black"/>
<path d="M15.8794 24.1828H18.052C19.1603 24.1828 20.0623 25.0863 20.0623 26.1969C20.0623 27.3071 19.1603 28.2106 18.052 28.2106H15.9343C15.4324 28.2106 15.0261 28.6174 15.0261 29.1188C15.0261 29.6207 15.4324 30.027 15.9343 30.027H18.052C20.1617 30.027 21.8787 28.309 21.8787 26.1969C21.8787 24.0849 20.1617 22.3664 18.052 22.3664H15.8794C15.3775 22.3664 14.9712 22.7732 14.9712 23.2746C14.9712 23.7765 15.3775 24.1828 15.8794 24.1828Z" fill="black"/>
<path d="M9.94264 24.1828H12.4918C12.9932 24.1828 13.4 23.7765 13.4 23.2746C13.4 22.7732 12.9932 22.3664 12.4918 22.3664H9.94264C8.64514 22.3664 7.58936 21.3092 7.58936 20.0089C7.58936 18.709 8.64514 17.6513 9.94264 17.6513H12.8205C13.3224 17.6513 13.7287 17.2445 13.7287 16.7431C13.7287 16.2412 13.3224 15.8349 12.8205 15.8349H9.94264C7.64328 15.8349 5.77295 17.7071 5.77295 20.0089C5.77295 22.3106 7.64328 24.1828 9.94264 24.1828Z" fill="black"/>
<path d="M16.231 19.2397C16.7328 19.2397 17.1392 18.8329 17.1392 18.3315V17.8046C17.1392 17.0823 17.7257 16.4948 18.4466 16.4948H23.6938C25.6526 16.4948 27.2462 14.8997 27.2462 12.939C27.2462 10.9784 25.6526 9.38334 23.6938 9.38334H21.8694C21.3675 9.38334 20.9612 9.78967 20.9612 10.2915C20.9612 10.7929 21.3675 11.1997 21.8694 11.1997H23.6938C24.6508 11.1997 25.4298 11.9798 25.4298 12.939C25.4298 13.8979 24.6508 14.6784 23.6938 14.6784H18.4466C16.7243 14.6784 15.3228 16.0809 15.3228 17.8046V18.3315C15.3228 18.8329 15.7296 19.2397 16.231 19.2397Z" fill="black"/>
</g>
<defs>
<clipPath id="clip0_398_49">
<rect width="62" height="62" fill="white"/>
</clipPath>
</defs>
</svg>
