<svg width="38" height="38" viewBox="0 0 38 38" fill="none" xmlns="http://www.w3.org/2000/svg">
<path d="M36.5674 15.6973H21.0705C20.3877 15.6973 19.8311 16.2539 19.8311 16.9367V21.8871C19.8311 22.5699 20.3877 23.1266 21.0705 23.1266H29.7986C28.8412 25.6055 27.06 27.6836 24.7814 29.0047L28.4998 35.4469C34.467 31.9957 37.9998 25.932 37.9998 19.1559C37.9998 18.191 37.9256 17.5008 37.7846 16.7215C37.6806 16.1277 37.1685 15.6973 36.5674 15.6973Z" fill="#167EE6"/>
<path d="M19.0001 30.5633C14.7251 30.5633 10.9993 28.2328 8.9954 24.7742L2.55322 28.4852C5.83369 34.1703 11.9716 38 19.0001 38C22.4438 38 25.702 37.0723 28.5001 35.4543V35.4469L24.7817 29.0047C23.0747 29.9918 21.1079 30.5633 19.0001 30.5633Z" fill="#12B347"/>
<path d="M28.5 35.4543V35.4469L24.7816 29.0047C23.082 29.9918 21.1078 30.5633 19 30.5633V38C22.4437 38 25.7019 37.0722 28.5 35.4543Z" fill="#0F993E"/>
<path d="M7.43671 19C7.43671 16.8922 8.0082 14.9254 8.9953 13.2258L2.55312 9.51486C0.927734 12.2981 0 15.5414 0 19C0 22.4586 0.927734 25.702 2.55312 28.4926L8.9953 24.7816C8.0082 23.0746 7.43671 21.1078 7.43671 19Z" fill="#FFD500"/>
<path d="M19.0001 7.43674C21.7833 7.43674 24.3438 8.42385 26.3403 10.0715C26.8302 10.4797 27.5501 10.45 28.0028 9.99729L31.5134 6.48674C32.0255 5.97463 31.9884 5.13596 31.4391 4.66096C28.0919 1.75901 23.7352 3.05176e-05 19.0001 3.05176e-05C11.9716 3.05176e-05 5.83369 3.82972 2.55322 9.50744L8.9954 13.2184C10.9993 9.76721 14.7251 7.43674 19.0001 7.43674Z" fill="#FF4B26"/>
<path d="M26.3402 10.0715C26.8301 10.4797 27.55 10.45 28.0027 9.99729L31.5133 6.48674C32.0254 5.97463 31.9883 5.13596 31.4391 4.66096C28.0918 1.75901 23.7352 3.05176e-05 19 3.05176e-05V7.43674C21.7832 7.43674 24.3437 8.42385 26.3402 10.0715Z" fill="#D93F21"/>
</svg>
