<svg width="60" height="60" viewBox="0 0 60 60" fill="none" xmlns="http://www.w3.org/2000/svg">
<path d="M22.2341 47.2863C22.0675 47.3517 21.9013 47.4177 21.7333 47.4845C19.851 48.2334 17.4518 49.1874 12.9996 49.6291L6.6792 57.852H7.56498C9.93712 57.852 11.9728 57.7394 13.7352 57.554C15.5713 57.071 16.93 56.5309 18.0538 56.0836C19.4317 55.5357 20.2634 55.2052 21.276 55.2052C21.7695 55.2052 22.1998 55.3187 22.5724 55.4954C22.9235 55.3613 23.2517 55.2308 23.5616 55.1072C24.9395 54.5593 24.7294 58.4768 25.742 58.4768C26.8589 58.4768 29.2842 57.8932 29.8042 58.4768L29.2183 52.3561C27.9278 50.189 25.5758 47.6955 22.2341 47.2863Z" fill="#B8D3FF"/>
<path d="M47.0551 49.7894C45.4598 49.1545 43.9524 48.5552 42.0051 48.5552C38.2207 48.5552 35.5711 51.2171 34.1406 53.5563V58.8284H34.9193C34.9193 58.8284 35.5437 57.4977 35.5277 57.5343C35.6375 57.2839 36.6071 55.2052 38.7238 55.2052C39.7364 55.2052 40.5681 55.5357 41.946 56.0841C44.6935 57.1768 48.8464 58.8284 57.9427 58.8284H58.8284L53.2711 51.5989C50.3652 51.105 48.5475 50.3826 47.0551 49.7894Z" fill="#B8D3FF"/>
<path d="M33.9794 16.7211C33.886 16.8735 33.7949 17.0245 33.7043 17.1756L34.5118 22.1483H31.144C29.8966 25.0712 29.2429 27.7134 29.0923 29.9706L31.875 32.8125H29.1912C29.3221 33.6639 29.5478 34.4261 29.8581 35.0912C30.3411 35.2478 30.8625 35.3375 31.42 35.3535C35.4937 35.4707 39.3366 33.7793 41.2414 25.3756C41.436 24.5177 41.6635 23.5573 41.9148 22.5269L38.9063 22.3241L42.4691 20.2884C43.7559 15.1665 45.4016 9.04476 46.4664 5.13315C43.1265 6.55222 38.2888 9.71036 33.9794 16.7211Z" fill="#F2C42C"/>
<path d="M59.757 58.1142L53.4367 49.8918C53.2398 49.635 52.9455 49.4716 52.6232 49.4395C48.3353 49.0143 46.0461 48.1038 44.2058 47.3718C42.578 46.7245 40.8953 46.0553 38.7236 46.0553C35.4158 46.0553 32.8871 47.819 31.1719 49.8181V49.7746C32.1272 47.5718 34.6738 44.096 38.6298 44.096C40.3318 44.096 41.657 44.6234 43.1928 45.234C44.4741 45.7435 46.0689 46.378 48.4003 46.8678C49.0339 47.001 49.6551 46.5954 49.7883 45.9619C49.921 45.3288 49.5155 44.7071 48.8824 44.5744C46.7478 44.1258 45.3196 43.5577 44.0584 43.056C42.4471 42.4151 40.7808 41.7523 38.6298 41.7523C34.5113 41.7523 31.6127 44.5121 30 47.0257C28.3873 44.5121 25.4887 41.7523 21.3697 41.7523C19.2192 41.7523 17.5524 42.4151 15.9406 43.0564C14.1219 43.7797 11.8583 44.6801 7.61847 45.1004C6.97439 45.1644 6.50427 45.738 6.5679 46.3821C6.63198 47.0262 7.20602 47.4963 7.8501 47.4327C12.4177 46.9795 14.9546 45.9706 16.8072 45.234C18.3421 44.6234 19.6678 44.096 21.3697 44.096C25.3262 44.096 27.8732 47.5723 28.8281 49.7751V49.8181C27.1124 47.819 24.5842 46.0548 21.2759 46.0548C19.1047 46.0548 17.4215 46.7245 15.7928 47.3722C13.9535 48.1038 11.6647 49.0143 7.37631 49.4395C7.0545 49.4716 6.76016 49.635 6.56286 49.8918L0.242949 58.1142C-0.0294212 58.468 -0.0765711 58.9459 0.120726 59.3465C0.318023 59.7466 0.725434 60.0002 1.17176 60.0002H58.8282C59.2746 60.0002 59.682 59.7466 59.8793 59.3465C60.0766 58.9459 60.0294 58.468 59.757 58.1142ZM38.7236 48.3986C40.4462 48.3986 41.787 48.9319 43.3407 49.5498C45.1424 50.2667 47.5855 51.2381 51.8849 51.7183L56.4369 57.6404C48.605 57.4715 44.8879 55.9929 42.3789 54.995C40.9227 54.4159 39.961 54.0332 38.7236 54.0332C36.5579 54.0332 35.0734 55.6587 34.4582 57.0549C34.4527 57.0659 34.4472 57.0769 34.4417 57.0883L34.1748 57.6564H31.1719V54.1495C32.1378 51.9201 34.7164 48.3986 38.7236 48.3986ZM8.11514 51.7183C12.4145 51.2381 14.8571 50.2662 16.6603 49.5494C18.2125 48.9319 19.5538 48.3986 21.2759 48.3986C25.2832 48.3986 27.8622 51.9201 28.8281 54.1495V57.6564H25.8247L25.5583 57.0883C25.5528 57.0769 25.5473 57.0659 25.5418 57.0549C24.9261 55.6587 23.4421 54.0332 21.2764 54.0332C20.039 54.0332 19.0773 54.4159 17.6211 54.995C15.1121 55.9929 11.3946 57.4715 3.56312 57.6404L8.11514 51.7183ZM18.4877 57.1726C19.7776 56.6594 20.4881 56.377 21.2759 56.377C22.2871 56.377 22.922 57.1726 23.215 57.6564H17.2476C17.6934 57.4884 18.1036 57.3254 18.4877 57.1726ZM36.785 57.6564C37.078 57.1726 37.7129 56.377 38.7236 56.377C39.5119 56.377 40.2224 56.6594 41.5128 57.173C41.8964 57.3254 42.307 57.4884 42.7524 57.6564H36.785Z" fill="black"/>
<path d="M52.1086 47.4285L52.1511 47.4326C52.19 47.4363 52.2289 47.4386 52.2669 47.4386C52.8629 47.4386 53.3724 46.9863 53.432 46.3811C53.4951 45.7371 53.0245 45.1635 52.3805 45.1003L52.3388 45.0962C51.6947 45.0321 51.1212 45.5032 51.0575 46.1472C50.9939 46.7913 51.4645 47.3649 52.1086 47.4285Z" fill="black"/>
<path d="M26.0444 28.8327C25.74 28.8588 25.4557 29.003 25.2552 29.2369C25.0323 29.4965 24.9343 29.8403 24.986 30.1781C25.4717 33.3417 27.1554 35.5033 29.6136 36.2444C29.5573 36.6875 29.5051 37.1311 29.4584 37.5761L28.8345 43.5266C28.7672 44.1702 29.2341 44.747 29.8777 44.8143C29.9194 44.8189 29.9606 44.8207 30.0013 44.8207C30.5937 44.8207 31.1023 44.3734 31.1654 43.771L31.7894 37.8205C31.8347 37.3879 31.8855 36.9572 31.9395 36.5273C37.3906 36.46 40.7186 32.9842 42.3844 25.6348C42.5698 24.8172 42.7945 23.865 43.0532 22.8044C43.1351 22.4684 43.0646 22.1136 42.86 21.8344C42.784 21.7309 42.6925 21.6417 42.5899 21.5693L43.0509 21.3057C43.3278 21.1477 43.5283 20.8832 43.6057 20.5737C45.6533 12.4255 48.6507 1.59333 48.681 1.48484C48.7821 1.12046 48.7011 0.729981 48.4635 0.436095C48.2264 0.141751 47.8602 -0.0207562 47.4844 0.00213205C47.0875 0.0245627 37.673 0.704804 29.9345 13.2948C29.8384 13.4509 29.745 13.6056 29.6525 13.7608C29.5102 13.9979 29.4566 14.278 29.5005 14.5509L30.0874 18.164H28.0975C27.6278 18.164 27.2039 18.4442 27.0194 18.8758C25.7647 21.8161 25.0437 24.576 24.8762 27.0799C24.8538 27.4127 24.9746 27.7396 25.2081 27.9781L26.0444 28.8327ZM41.4547 19.5186L38.3249 21.307C37.8763 21.5634 37.6483 22.0834 37.7641 22.587C37.88 23.0905 38.3121 23.459 38.8275 23.4938L40.4503 23.6027C40.3212 24.1466 40.2036 24.6524 40.0983 25.1166C38.4068 32.58 35.283 34.0536 32.2828 34.1781C34.0022 23.8101 38.3533 14.1819 45.0106 6.02314C43.9879 9.79513 42.5922 15.0146 41.4547 19.5186ZM28.8807 20.5082H31.4648C31.8081 20.5082 32.1345 20.3572 32.3575 20.0953C32.5799 19.8335 32.6765 19.4874 32.6216 19.1482L31.8832 14.6003C31.8988 14.5742 31.9148 14.5486 31.9308 14.5225C35.6255 8.51156 39.6987 5.52005 42.4649 4.06893C43.12 3.72515 43.7343 3.45003 44.2951 3.22847C40.2626 7.91051 36.9539 13.1442 34.4554 18.8026C32.3227 23.632 30.8157 28.6894 29.9574 33.8814C28.6811 33.3587 27.9968 32.2399 27.6296 31.1719H28.8281C29.3 31.1719 29.7258 30.889 29.9084 30.4541C30.0911 30.0197 29.9954 29.5175 29.6653 29.1802L27.2575 26.7211C27.447 24.8167 27.9917 22.7321 28.8807 20.5082Z" fill="black"/>
</svg>
