<svg width="61" height="61" viewBox="0 0 61 61" fill="none" xmlns="http://www.w3.org/2000/svg">
<path fill-rule="evenodd" clip-rule="evenodd" d="M30.5 0.893555C14.1488 0.893555 0.893555 14.1488 0.893555 30.5L4.46777 33.0419L8.04199 30.5C8.04199 18.0967 18.0967 8.04199 30.5 8.04199C42.9033 8.04199 52.958 18.0967 52.958 30.5C52.958 42.9033 42.9033 52.958 30.5 52.958L33.042 56.5322L30.5 60.1064C46.8512 60.1064 60.1064 46.8512 60.1064 30.5C60.1064 14.1488 46.8512 0.893555 30.5 0.893555Z" fill="#78D2FA"/>
<path d="M30.925 33.1583C32.3862 32.9199 33.3776 31.5421 33.1392 30.0809C32.9009 28.6196 31.5231 27.6283 30.0618 27.8666C28.6006 28.105 27.6092 29.4828 27.8476 30.944C28.086 32.4053 29.4638 33.3966 30.925 33.1583Z" fill="#F5B955"/>
<path fill-rule="evenodd" clip-rule="evenodd" d="M27.8193 30.5C27.8193 32.3628 29.6682 33.6377 31.3936 33.0279C29.0253 32.1907 29.0253 28.8093 31.3936 27.9721C29.6683 27.3622 27.8193 28.6375 27.8193 30.5Z" fill="#FF5A5A"/>
<path fill-rule="evenodd" clip-rule="evenodd" d="M52.958 30.5C52.958 42.9033 42.9032 52.958 30.5 52.958L32.9602 56.4175C46.1836 55.1778 56.5322 44.0475 56.5322 30.5C56.5322 16.1228 44.8771 4.46777 30.5 4.46777C15.1195 4.46777 3.1516 17.7019 4.58248 32.9604L8.04197 30.5C8.04197 18.0967 18.0967 8.04199 30.5 8.04199C42.9032 8.04199 52.958 18.0967 52.958 30.5Z" fill="#A5DC69"/>
<path d="M57.4258 34.0742H55.6387V32.2871H57.4258V34.0742ZM57.4258 30.5H55.6387C55.6387 16.6385 44.3615 5.36133 30.5 5.36133V3.57422C37.6922 3.57422 44.4537 6.37498 49.5394 11.4606C54.625 16.5463 57.4258 23.308 57.4258 30.5Z" fill="white"/>
<path d="M8.93555 30.961V30.5C8.93555 18.6093 18.6093 8.93555 30.5 8.93555C42.3907 8.93555 52.0645 18.6093 52.0645 30.5C52.0645 35.9392 50.0322 41.1345 46.342 45.1287L47.6547 46.3415C51.6508 42.016 53.8516 36.3901 53.8516 30.5C53.8516 17.624 43.3761 7.14844 30.5 7.14844C17.7788 7.14844 7.40078 17.3726 7.15296 30.0358L4.46777 31.9455L1.79068 30.0417C1.90351 22.8645 4.66459 16.0547 9.59439 10.82L8.2935 9.59475C2.94539 15.2734 0 22.6977 0 30.5V30.961L4.46777 34.1384L8.93555 30.961Z" fill="black"/>
<path d="M52.0667 8.93316C46.306 3.1726 38.6468 0 30.5 0C22.6981 0 15.2738 2.94539 9.59473 8.2935L10.82 9.59451C16.166 4.55975 23.1553 1.78711 30.5 1.78711C46.3323 1.78711 59.2129 14.6676 59.2129 30.5C59.2129 45.738 47.2815 58.2418 32.2703 59.1589L34.1384 56.5322L32.1889 53.791C37.4593 53.4123 42.4317 51.267 46.3414 47.6547L45.1287 46.342C41.1348 50.0322 35.9396 52.0645 30.5 52.0645H28.768L31.9454 56.5322L28.768 61H30.5C38.6468 61 46.306 57.8274 52.0667 52.0668C57.8274 46.306 61 38.6468 61 30.5C61 22.3532 57.8274 14.694 52.0667 8.93316Z" fill="black"/>
<path d="M17.301 46.1609H12.6714V40.7159H10.8843V47.948H17.301V53.393H19.0881V40.7159H17.301V46.1609Z" fill="black"/>
<path d="M0.893555 42.503H7.31023V46.1609H0.893555V53.3931H9.09734V51.606H2.68066V47.948H9.09734V40.7159H0.893555V42.503Z" fill="black"/>
<path d="M24.3653 43.4385H22.6621V40.7159H20.875V47.948H22.6621V45.2256H24.3653V47.948H26.1525V40.7159H24.3653V43.4385Z" fill="black"/>
<path d="M34.0739 30.5001C34.0739 29.8381 33.8923 29.2181 33.5774 28.6859L41.5538 20.7096L40.2902 19.4458L32.3137 27.4222C31.7816 27.1073 31.1616 26.9258 30.4997 26.9258C29.8377 26.9258 29.2177 27.1073 28.6856 27.4222L24.0649 22.8015L22.8013 24.0653L27.4219 28.6859C27.1069 29.2181 26.9254 29.8381 26.9254 30.5001C26.9254 32.4709 28.5288 34.0743 30.4997 34.0743C32.4705 34.0743 34.0739 32.4709 34.0739 30.5001ZM28.7126 30.5001C28.7126 29.5146 29.5142 28.7129 30.4997 28.7129C31.4851 28.7129 32.2868 29.5146 32.2868 30.5001C32.2868 31.4855 31.4851 32.2872 30.4997 32.2872C29.5142 32.2872 28.7126 31.4855 28.7126 30.5001Z" fill="black"/>
<path d="M42.582 17.148L43.8454 15.8846L45.1089 17.1481L43.8455 18.4115L42.582 17.148Z" fill="black"/>
<path d="M42.5801 43.8559L43.8436 42.5924L45.107 43.8558L43.8435 45.1193L42.5801 43.8559Z" fill="black"/>
<path d="M48.4902 29.6064H50.2773V31.3936H48.4902V29.6064Z" fill="black"/>
<path d="M15.8799 17.1471L17.1434 15.8836L18.4068 17.147L17.1433 18.4105L15.8799 17.1471Z" fill="black"/>
<path d="M29.6064 48.4902H31.3936V50.2773H29.6064V48.4902Z" fill="black"/>
<path d="M29.6064 10.7227H31.3936V12.5098H29.6064V10.7227Z" fill="black"/>
<path d="M10.7227 29.6064H12.5098V31.3936H10.7227V29.6064Z" fill="black"/>
</svg>
