<svg width="351" height="267" viewBox="0 0 351 267" fill="none" xmlns="http://www.w3.org/2000/svg">
<path d="M252.103 52.1292C244.709 52.0389 237.512 52.5808 230.513 53.8451C217.992 56.1027 205.077 53.0323 195.613 45.0853C175.008 27.6562 147.403 17 117.137 17C53.9424 17 1.88817 63.9594 1.00088 121.756C0.113593 181.177 52.365 229.672 117.038 229.672C131.235 229.672 144.939 227.324 157.459 222.989C173.135 217.661 190.388 218.293 205.274 225.247C218.781 231.478 233.963 235 250.132 235C304.946 235 349.409 194.543 350.001 144.513C350.592 94.483 306.622 53.0323 252.103 52.1292Z" fill="#F1F1F1"/>
<path d="M81.0459 221.226C81.0459 221.226 72.5711 201.816 91.7625 195C91.7625 195 99.3898 212.966 81.0459 221.226Z" fill="#42B697"/>
<path d="M81.3193 249.279C81.3193 249.198 80.0344 241.073 80.2257 231.15C80.3898 221.99 81.866 209.422 87.9351 201.461L88.1538 201.625C76.6171 216.728 81.5653 248.898 81.62 249.225L81.3193 249.279Z" fill="#1E181A"/>
<path d="M83.6195 201.496L83.365 201.595L85.1426 206.113L85.3971 206.013L83.6195 201.496Z" fill="#1E181A"/>
<path d="M87.6194 208.977L82.9216 211.767L83.0615 212.001L87.7593 209.212L87.6194 208.977Z" fill="#1E181A"/>
<path d="M70.9309 219.4C70.9309 219.4 62.9209 221.145 55.7036 220.545C48.459 219.972 39 221.799 39 221.799C39 221.799 42.4719 211.685 54.6374 209.803C66.8029 207.922 71.8878 215.91 70.9309 219.4Z" fill="#42B697"/>
<path d="M79.3237 245.435L79.0503 245.408C79.0776 245.217 80.3078 226.788 69.8373 218.691C63.9323 214.111 55.4301 213.647 44.6042 217.273L44.5222 217.028C55.4575 213.375 64.0416 213.866 70.0287 218.5C80.5812 226.679 79.351 245.245 79.3237 245.435Z" fill="#1E181A"/>
<path d="M54.703 211.758L54.5496 211.983L58.8267 214.874L58.9801 214.649L54.703 211.758Z" fill="#1E181A"/>
<path d="M63.1749 215.269L57.8376 218.736L57.9869 218.965L63.3241 215.497L63.1749 215.269Z" fill="#1E181A"/>
<path d="M81.5382 246.989C81.5382 246.989 81.3741 232.84 96 228.914C96 228.887 94.8518 244.1 81.5382 246.989Z" fill="#42B697"/>
<path d="M94.05 230.9L81.4382 246.535L81.6513 246.706L94.263 231.071L94.05 230.9Z" fill="#1E181A"/>
<path d="M89.812 233.061L89.5442 233.116L90.1121 235.867L90.3799 235.812L89.812 233.061Z" fill="#1E181A"/>
<path d="M91.3454 238.687L87.6873 238.884L87.7019 239.156L91.3601 238.96L91.3454 238.687Z" fill="#1E181A"/>
<path d="M84.518 239.002H84.2446V243.118H84.518V239.002Z" fill="#1E181A"/>
<path d="M81.4563 250.724C81.4563 250.724 81.6203 236.575 66.9944 232.649C66.9944 232.622 68.1426 247.835 81.4563 250.724Z" fill="#42B697"/>
<path d="M68.9479 234.641L68.7349 234.812L81.3466 250.447L81.5596 250.276L68.9479 234.641Z" fill="#1E181A"/>
<path d="M73.1686 236.785L72.6021 239.536L72.8699 239.59L73.4364 236.84L73.1686 236.785Z" fill="#1E181A"/>
<path d="M71.6421 242.397L71.6274 242.669L75.2856 242.864L75.3002 242.592L71.6421 242.397Z" fill="#1E181A"/>
<path d="M78.7497 242.736H78.4763V246.853H78.7497V242.736Z" fill="#1E181A"/>
<path d="M68.2246 244.454H92.1728L87.1426 267H72.4347L68.2246 244.454Z" fill="#FF8B5C"/>
<path d="M68.2246 244.454H92.1728L90.7512 250.861L68.826 247.671L68.2246 244.454Z" fill="#000005"/>
<path d="M263.587 227.381C252.954 221.603 240.943 211.054 236.314 199.123C247.824 205.025 257.52 215.135 263.587 227.381Z" fill="#FF725E"/>
<path d="M262.899 209.421C252.265 203.644 240.255 193.094 235.626 181.163C247.136 187.129 256.832 197.176 262.899 209.421Z" fill="#FF725E"/>
<path d="M261.273 191.901C250.639 186.124 238.629 175.574 234 163.643C245.51 169.609 255.205 179.656 261.273 191.901Z" fill="#FF725E"/>
<path d="M258.958 173.439C249.075 166.218 238.441 154.098 235.251 141.602C245.948 149.137 254.392 160.44 258.958 173.439Z" fill="#FF725E"/>
<path d="M255.956 159.247C249.263 148.509 243.571 132.936 244.884 120C252.203 131.366 256.206 145.307 255.956 159.247Z" fill="#FF725E"/>
<path d="M257.457 166.029C260.272 152.591 267.153 136.076 277.036 126.719C274.221 141.162 267.278 155.103 257.457 166.029Z" fill="#FF725E"/>
<path d="M259.647 181.163C263.65 167.474 272.157 150.833 283.229 141.978C279.163 156.735 270.781 170.676 259.647 181.163Z" fill="#FF725E"/>
<path d="M262.086 199.625C266.09 185.935 274.597 169.295 285.669 160.44C281.603 175.197 273.221 189.138 262.086 199.625Z" fill="#FF725E"/>
<path d="M263.337 222.169C267.341 208.479 275.848 191.838 286.92 182.984C282.791 197.741 274.409 211.682 263.337 222.169Z" fill="#FF725E"/>
<path d="M255.706 156.547C255.706 156.547 255.706 156.61 255.768 156.735C255.831 156.924 255.831 157.112 255.893 157.363C256.019 157.991 256.206 158.808 256.456 159.875C256.957 162.01 257.52 165.213 258.27 169.106C258.959 173 259.709 177.646 260.46 182.858C261.148 188.071 261.836 193.785 262.399 199.751C262.962 205.779 263.337 211.493 263.525 216.768C263.775 221.98 263.838 226.69 263.9 230.646C263.9 234.602 263.9 237.805 263.838 240.003C263.775 241.07 263.775 241.949 263.775 242.577C263.775 242.828 263.775 243.08 263.713 243.268C263.713 243.394 263.713 243.519 263.713 243.519C263.713 243.519 263.713 243.456 263.713 243.268C263.713 243.08 263.713 242.891 263.713 242.577C263.713 241.949 263.713 241.133 263.713 240.003C263.713 237.805 263.713 234.602 263.65 230.646C263.587 226.69 263.462 221.98 263.212 216.768C262.962 211.556 262.587 205.779 262.024 199.813C261.461 193.785 260.773 188.071 260.085 182.921C259.396 177.709 258.646 173.062 258.02 169.169C257.332 165.276 256.769 162.136 256.394 159.938C256.206 158.871 256.019 158.054 255.956 157.426C255.893 157.175 255.893 156.924 255.831 156.798C255.706 156.61 255.706 156.547 255.706 156.547Z" fill="#263238"/>
<g opacity="0.3">
<g opacity="0.3">
<path opacity="0.3" d="M263.587 227.381C252.954 221.603 240.943 211.054 236.314 199.123C247.824 205.025 257.52 215.135 263.587 227.381Z" fill="black"/>
</g>
</g>
<g opacity="0.3">
<g opacity="0.3">
<path opacity="0.3" d="M262.899 209.421C252.265 203.644 240.255 193.094 235.626 181.163C247.136 187.129 256.832 197.176 262.899 209.421Z" fill="black"/>
</g>
</g>
<g opacity="0.3">
<g opacity="0.3">
<path opacity="0.3" d="M261.273 191.901C250.639 186.124 238.629 175.574 234 163.643C245.51 169.609 255.205 179.656 261.273 191.901Z" fill="black"/>
</g>
</g>
<g opacity="0.3">
<g opacity="0.3">
<path opacity="0.3" d="M258.958 173.439C249.075 166.218 238.441 154.098 235.251 141.602C245.948 149.137 254.392 160.44 258.958 173.439Z" fill="black"/>
</g>
</g>
<g opacity="0.3">
<g opacity="0.3">
<path opacity="0.3" d="M255.956 159.247C249.263 148.509 243.571 132.936 244.884 120C252.203 131.366 256.206 145.307 255.956 159.247Z" fill="black"/>
</g>
</g>
<g opacity="0.3">
<g opacity="0.3">
<path opacity="0.3" d="M257.457 166.029C260.272 152.591 267.153 136.076 277.036 126.719C274.221 141.162 267.278 155.103 257.457 166.029Z" fill="black"/>
</g>
</g>
<g opacity="0.3">
<g opacity="0.3">
<path opacity="0.3" d="M259.647 181.163C263.65 167.474 272.157 150.833 283.229 141.978C279.163 156.735 270.781 170.676 259.647 181.163Z" fill="black"/>
</g>
</g>
<g opacity="0.3">
<g opacity="0.3">
<path opacity="0.3" d="M262.086 199.625C266.09 185.935 274.597 169.295 285.669 160.44C281.603 175.197 273.221 189.138 262.086 199.625Z" fill="black"/>
</g>
</g>
<g opacity="0.3">
<g opacity="0.3">
<path opacity="0.3" d="M263.337 222.169C267.341 208.479 275.848 191.838 286.92 182.984C282.791 197.741 274.409 211.682 263.337 222.169Z" fill="black"/>
</g>
</g>
<path d="M266.277 230.96C259.772 222.357 253.767 209.609 253.829 198.746C260.96 207.788 265.339 219.28 266.277 230.96Z" fill="#FF725E"/>
<path d="M271.282 217.082C264.776 208.479 258.771 195.732 258.833 184.868C265.965 193.911 270.406 205.402 271.282 217.082Z" fill="#FF725E"/>
<path d="M275.473 203.142C268.967 194.538 262.962 181.791 263.025 170.927C270.156 179.97 274.597 191.462 275.473 203.142Z" fill="#FF725E"/>
<path d="M279.413 188.196C273.971 178.777 269.467 165.401 270.844 154.6C276.849 164.585 279.851 176.516 279.413 188.196Z" fill="#FF725E"/>
<path d="M281.478 176.265C279.601 165.464 279.976 151.335 285.043 142.041C287.17 153.596 285.919 165.778 281.478 176.265Z" fill="#FF725E"/>
<path d="M280.54 181.979C286.857 172.937 297.304 163.015 307.875 159.875C301.245 169.671 291.549 177.584 280.54 181.979Z" fill="#FF725E"/>
<path d="M277.537 194.35C284.918 185.496 296.678 176.265 308 173.879C300.244 183.486 289.422 190.771 277.537 194.35Z" fill="#FF725E"/>
<path d="M273.721 209.358C281.102 200.504 292.862 191.273 304.184 188.887C296.428 198.495 285.606 205.779 273.721 209.358Z" fill="#FF725E"/>
<path d="M267.654 226.941C275.035 218.087 286.795 208.856 298.117 206.47C290.423 216.077 279.539 223.299 267.654 226.941Z" fill="#FF725E"/>
<path d="M282.103 174.067C282.103 174.067 282.103 174.13 282.103 174.255C282.103 174.381 282.041 174.569 282.041 174.821C281.978 175.323 281.853 176.014 281.728 176.893C281.415 178.714 280.915 181.289 280.289 184.491C278.976 190.896 276.911 199.751 274.034 209.295C272.595 214.068 271.094 218.589 269.655 222.671C268.216 226.753 266.84 230.395 265.589 233.409C264.401 236.423 263.337 238.872 262.587 240.568C262.211 241.384 261.961 242.012 261.711 242.514C261.586 242.703 261.523 242.891 261.461 243.017C261.398 243.142 261.398 243.205 261.398 243.205C261.398 243.205 261.398 243.142 261.461 243.017C261.523 242.891 261.586 242.703 261.648 242.514C261.836 242.012 262.086 241.384 262.462 240.568C263.15 238.872 264.151 236.423 265.339 233.346C266.528 230.269 267.904 226.627 269.28 222.545C270.719 218.464 272.157 213.942 273.596 209.17C276.473 199.625 278.6 190.834 279.976 184.428C280.664 181.226 281.227 178.651 281.54 176.83C281.728 175.951 281.853 175.26 281.978 174.758C282.041 174.569 282.041 174.381 282.103 174.193C282.041 174.13 282.103 174.067 282.103 174.067Z" fill="#263238"/>
<path d="M276.473 266H253.642L249.388 234.477H280.852L276.473 266Z" fill="#455A64"/>
<path d="M283.667 234.1H246.573V238.998H283.667V234.1Z" fill="#455A64"/>
<path d="M265.339 239.312C275.461 239.312 283.667 239.227 283.667 239.123C283.667 239.019 275.461 238.935 265.339 238.935C255.217 238.935 247.011 239.019 247.011 239.123C247.011 239.227 255.217 239.312 265.339 239.312Z" fill="#263238"/>
<path d="M237.872 267H135.23C126.249 267 119 259.766 119 250.805V16.1954C119 7.23352 126.249 0 135.23 0H237.808C246.789 0 254.038 7.23352 254.038 16.1954V250.741C254.102 259.766 246.853 267 237.872 267Z" fill="#455A64"/>
<path d="M121.117 250.677V16.3874C121.117 8.51378 127.532 2.17645 135.358 2.17645H237.679C245.57 2.17645 251.921 8.5778 251.921 16.3874V250.677C251.921 258.55 245.506 264.888 237.679 264.888H135.358C127.532 264.888 121.117 258.486 121.117 250.677Z" fill="#263238"/>
<path d="M176.864 10.5622C176.03 10.5622 175.389 9.85806 175.389 9.0899C175.389 8.32174 176.095 7.61759 176.864 7.61759H196.174C197.008 7.61759 197.649 8.32174 197.649 9.0899C197.649 9.85806 196.944 10.5622 196.174 10.5622H176.864Z" fill="#455A64"/>
<path d="M166.472 10.4982C167.287 10.4982 167.947 9.83902 167.947 9.02589C167.947 8.21276 167.287 7.55358 166.472 7.55358C165.657 7.55358 164.996 8.21276 164.996 9.02589C164.996 9.83902 165.657 10.4982 166.472 10.4982Z" fill="#455A64"/>
<path d="M172.053 10.4982C172.868 10.4982 173.528 9.83902 173.528 9.02589C173.528 8.21276 172.868 7.55358 172.053 7.55358C171.238 7.55358 170.577 8.21276 170.577 9.02589C170.577 9.83902 171.238 10.4982 172.053 10.4982Z" fill="#455A64"/>
<path d="M206.63 10.4982C207.445 10.4982 208.106 9.83902 208.106 9.02589C208.106 8.21276 207.445 7.55358 206.63 7.55358C205.815 7.55358 205.155 8.21276 205.155 9.02589C205.155 9.83902 205.815 10.4982 206.63 10.4982Z" fill="#455A64"/>
<path d="M201.113 10.4982C201.928 10.4982 202.589 9.83902 202.589 9.02589C202.589 8.21276 201.928 7.55358 201.113 7.55358C200.299 7.55358 199.638 8.21276 199.638 9.02589C199.638 9.83902 200.299 10.4982 201.113 10.4982Z" fill="#455A64"/>
<path d="M239.668 3.90482H216.253C214.457 3.90482 212.917 5.05706 212.468 6.78542L210.993 11.9065C210.415 13.8269 208.683 15.1072 206.759 15.1072H166.408C164.419 15.1072 162.687 13.8269 162.174 11.9065L160.698 6.78542C160.185 5.12107 158.645 3.90482 156.849 3.90482H138.63C130.676 3.90482 124.196 10.3702 124.196 18.3718V251.573C124.196 256.95 128.559 261.367 134.011 261.367H240.374C245.121 261.367 248.97 257.526 248.97 252.789V13.1868C248.97 8.06569 244.8 3.90482 239.668 3.90482Z" fill="#FAFAFA"/>
<path d="M244.8 8.25773C242.17 5.63318 238.513 3.96883 234.472 3.96883H213.302L210.03 15.1072H163.072L159.8 3.90482H133.626C128.43 3.90482 124.132 8.1297 124.132 13.3788V182.246L124.517 182.31C136.706 183.655 148.509 175.973 155.181 165.795C161.853 155.553 164.226 143.134 165.381 130.971C166.536 118.809 166.728 106.518 169.551 94.6118C174.362 74.7037 187 56.7799 204.192 45.5135C212.66 40.0084 222.155 36.0396 230.302 29.9583C237.487 24.5812 243.581 16.8995 244.8 8.25773Z" fill="#F5F5F5"/>
<path d="M248.97 255.478V180.774C229.789 182.694 211.762 194.345 202.14 210.988C193.415 226.031 191.683 244.851 197.264 261.303H243.132C246.34 261.367 248.97 258.742 248.97 255.478Z" fill="#F5F5F5"/>
<path d="M254.102 58.0602H254.294C254.679 58.0602 255 58.3802 255 58.7643V88.0825C255 88.4666 254.679 88.7866 254.294 88.7866H254.102V58.0602Z" fill="#455A64"/>
<path d="M200.664 120.857C209.769 120.857 217.151 113.492 217.151 104.406C217.151 95.32 209.769 87.9544 200.664 87.9544C191.559 87.9544 184.177 95.32 184.177 104.406C184.177 113.492 191.559 120.857 200.664 120.857Z" fill="#F5F5F5"/>
<path d="M82.9365 184.526L79.2424 183.997C79.2424 183.997 84.2677 139.309 100.509 132.599L102.372 135.772C102.372 135.772 88.7606 140.135 82.9365 184.526Z" fill="#F06767"/>
<g opacity="0.2">
<path opacity="0.2" d="M82.9365 184.526L79.2424 183.997C79.2424 183.997 84.2677 139.309 100.509 132.599L102.372 135.772C102.372 135.772 88.7606 140.135 82.9365 184.526Z" fill="#C0C4BC"/>
</g>
<path d="M100.342 255.59C100.342 255.59 97.6799 255.623 98.0792 253.376C98.4786 251.128 99.3106 250.665 98.3788 248.517C97.4136 246.368 96.6814 245.773 97.7131 243.658C98.7448 241.543 98.7781 221.744 98.7781 221.744L113.355 219.166V259.689L110.293 262.928L104.369 262.168C104.369 262.168 103.537 262.432 103.005 260.879C102.506 259.292 100.342 255.59 100.342 255.59Z" fill="#401432"/>
<path d="M85.4325 266.994L115.219 265.903C115.219 265.903 115.418 264.316 114.387 262.697C113.355 261.044 113.255 258.896 113.255 258.896C113.255 258.896 112.09 257.838 109.927 259.457C107.764 261.077 105.867 260.515 105.101 258.466C104.303 256.417 102.672 250.897 98.3786 254.665C98.3786 254.665 98.4785 259.127 95.2503 260.119C91.9888 261.077 86.3311 260.251 85.4325 266.994Z" fill="black"/>
<path d="M98.0126 261.54L98.1458 261.507L97.4136 258.962L97.2805 258.995L98.0126 261.54Z" fill="white"/>
<path d="M100.109 260.581L100.209 260.482L97.7129 258.433L97.6131 258.532L100.109 260.581Z" fill="white"/>
<path d="M96.2713 259.881L96.3303 261.765L96.1973 261.769L96.1383 259.886L96.2713 259.881Z" fill="white"/>
<path d="M115.186 264.666L115.191 264.798L85.6588 265.87L85.6539 265.738L115.186 264.666Z" fill="white"/>
<path d="M96.781 259.656C97.7794 259.325 98.2454 257.342 98.0457 256.218C97.9458 255.524 97.5798 255.194 97.1138 255.392C96.2153 255.755 96.3151 257.177 96.5813 258.301C95.9823 257.243 94.9506 256.185 94.2517 256.185C94.0187 256.185 93.7525 256.284 93.6194 256.813C93.1534 258.565 96.6146 259.59 96.781 259.656ZM97.3468 255.458C97.7129 255.458 97.846 255.954 97.9126 256.218C98.079 257.276 97.6796 259.16 96.7477 259.49C96.4815 259.391 93.3198 258.4 93.6859 256.78C93.7858 256.417 93.9522 256.251 94.1851 256.251C94.884 256.251 96.1487 257.573 96.6479 258.829C96.7477 259.127 96.8143 259.325 96.8143 259.325L96.9474 259.292C96.9141 259.127 96.8476 258.962 96.781 258.763C96.5481 257.904 96.0821 255.822 97.1138 255.425C97.2137 255.458 97.2802 255.458 97.3468 255.458Z" fill="black"/>
<path d="M126.368 255.59C126.368 255.59 129.03 255.623 128.631 253.376C128.231 251.128 127.399 250.665 128.331 248.517C129.296 246.368 130.028 245.773 128.997 243.658C127.965 241.543 127.932 221.744 127.932 221.744L113.355 219.166V259.689L116.417 262.928L122.341 262.168C122.341 262.168 123.173 262.432 123.705 260.879C124.171 259.292 126.368 255.59 126.368 255.59Z" fill="#401432"/>
<path d="M141.277 266.994L111.491 265.903C111.491 265.903 111.292 264.316 112.323 262.697C113.355 261.044 113.455 258.896 113.455 258.896C113.455 258.896 114.62 257.838 116.783 259.457C118.946 261.077 120.843 260.515 121.609 258.466C122.407 256.417 124.038 250.897 128.331 254.665C128.331 254.665 128.231 259.127 131.46 260.119C134.721 261.077 140.379 260.251 141.277 266.994Z" fill="black"/>
<path d="M128.664 261.54L128.564 261.507L129.296 258.962L129.396 258.995L128.664 261.54Z" fill="white"/>
<path d="M129.007 258.443L129.091 258.545L126.571 260.601L126.486 260.499L129.007 258.443Z" fill="white"/>
<path d="M130.425 259.883L130.558 259.887L130.499 261.77L130.366 261.766L130.425 259.883Z" fill="white"/>
<path d="M111.505 264.665L141.038 265.736L141.033 265.869L111.5 264.797L111.505 264.665Z" fill="white"/>
<path d="M129.962 259.656C130.095 259.623 133.556 258.598 133.124 256.813C132.991 256.284 132.724 256.185 132.491 256.185C131.793 256.185 130.761 257.243 130.162 258.301C130.395 257.177 130.528 255.755 129.629 255.392C129.163 255.227 128.797 255.524 128.697 256.218C128.498 257.342 128.964 259.325 129.962 259.656ZM129.529 255.491C130.528 255.888 130.095 257.97 129.862 258.829C129.796 259.028 129.729 259.193 129.696 259.358L129.829 259.391C129.829 259.391 129.896 259.193 129.995 258.896C130.495 257.639 131.759 256.317 132.458 256.317C132.724 256.317 132.891 256.483 132.957 256.846C133.357 258.466 130.195 259.457 129.896 259.557C128.997 259.226 128.564 257.342 128.731 256.284C128.764 255.987 128.93 255.524 129.296 255.524C129.396 255.458 129.463 255.458 129.529 255.491Z" fill="black"/>
<path d="M113.355 219.133V247.922L110.992 232.651C110.992 232.651 104.901 229.412 98.7113 228.387C98.7779 224.652 98.7779 221.744 98.7779 221.744L113.355 219.133Z" fill="black"/>
<path d="M127.932 221.711C127.932 221.711 127.932 225.313 128.031 229.61C123.605 229.61 116.982 230.172 116.55 233.213C115.851 237.808 113.388 247.955 113.388 247.955V219.133L127.932 221.711Z" fill="black"/>
<path d="M124.87 38.3975C124.87 38.3975 127.166 42.8927 126.667 47.421C126.168 51.9493 122.141 38.3644 122.141 38.3644L124.87 38.3975Z" fill="#F2F1EF"/>
<path d="M111.957 69.3684L108.063 56.3454C108.063 56.3454 103.005 58.7252 102.106 54.4944C101.308 50.7264 105.434 49.9992 107.631 51.5527C107.631 51.5527 102.539 38.695 113.987 36.3482C125.436 34.0014 127.3 49.7017 127.766 53.5028C128.598 60.1796 124.105 63.9476 120.644 64.6748L128.431 92.6709C128.431 92.6709 122.84 91.481 119.479 92.0098C114.986 92.7039 111.957 69.3684 111.957 69.3684Z" fill="#F06767"/>
<path d="M126.235 49.7017C126.235 49.7017 130.694 46.0328 132.059 50.4289C133.556 55.2546 126.567 54.5605 126.567 54.5605L126.235 49.7017Z" fill="#F06767"/>
<path d="M127.599 53.7342C127.799 53.7342 127.965 53.5689 127.965 53.3706C127.965 52.2798 127.832 51.1891 127.599 50.0983C127.566 49.9 127.366 49.7678 127.166 49.8339C126.967 49.867 126.834 50.0653 126.9 50.2636C127.133 51.2883 127.233 52.346 127.233 53.3706C127.233 53.5689 127.399 53.7342 127.599 53.7342Z" fill="#001A2D"/>
<path d="M127.666 51.9163C127.699 51.9163 127.732 51.9163 127.765 51.9163L129.363 51.4866C129.563 51.4205 129.662 51.2221 129.629 51.0569C129.563 50.8586 129.396 50.7594 129.197 50.7925L127.566 51.2221C127.366 51.2883 127.266 51.4866 127.3 51.6518C127.333 51.8171 127.499 51.9163 127.666 51.9163Z" fill="#001A2D"/>
<path d="M106.998 54.7258C107.032 54.7258 107.032 54.7258 107.065 54.7258C107.265 54.6927 107.398 54.4944 107.365 54.2961C107.198 53.5358 106.666 52.8417 105.933 52.5112C105.201 52.1807 104.336 52.2468 103.637 52.6434C103.471 52.7426 103.404 52.9739 103.504 53.1392C103.604 53.3045 103.837 53.3706 104.003 53.2714C104.502 52.9739 105.101 52.9409 105.634 53.1723C106.133 53.4036 106.533 53.8664 106.632 54.4283C106.666 54.5935 106.832 54.7258 106.998 54.7258Z" fill="#001A2D"/>
<path d="M105.368 54.4944C105.501 54.4944 105.601 54.4283 105.667 54.3292L106.3 53.2715C106.399 53.1062 106.333 52.8748 106.166 52.7757C106 52.6765 105.767 52.7426 105.667 52.9079L105.035 53.9656C104.935 54.1308 105.002 54.3622 105.168 54.4614C105.235 54.4944 105.301 54.4944 105.368 54.4944Z" fill="#001A2D"/>
<path d="M120.677 64.7078C118.414 65.3358 113.721 63.7493 113.721 63.7493C113.721 63.7493 117.082 66.7571 121.309 66.8563L120.677 64.7078Z" fill="black"/>
<path d="M113.082 55.8528C112.106 55.669 111.466 54.7348 111.651 53.7663C111.836 52.7978 112.777 52.1617 113.752 52.3455C114.727 52.5294 115.368 53.4635 115.182 54.432C114.997 55.4005 114.057 56.0366 113.082 55.8528Z" fill="#E87555"/>
<path d="M124.665 54.0693C123.69 53.8855 123.049 52.9515 123.234 51.9829C123.419 51.0144 124.359 50.3783 125.335 50.562C126.31 50.7458 126.95 51.6798 126.765 52.6483C126.58 53.6169 125.64 54.253 124.665 54.0693Z" fill="#E87555"/>
<path d="M113.022 46.1319C113.089 46.1319 113.189 46.0989 113.255 46.0658C114.22 45.3056 115.685 45.0742 116.849 45.537C117.049 45.6031 117.249 45.5039 117.315 45.3386C117.382 45.1403 117.282 44.942 117.116 44.8759C115.685 44.314 114.021 44.5784 112.822 45.5039C112.656 45.6361 112.656 45.8675 112.756 45.9997C112.822 46.0989 112.922 46.1319 113.022 46.1319Z" fill="#F2F1EF"/>
<path d="M120.477 45.57C120.577 45.57 120.677 45.537 120.743 45.4378C121.509 44.5123 123.006 44.347 123.971 45.0412C124.138 45.1734 124.371 45.1403 124.471 44.9751C124.604 44.8098 124.537 44.5784 124.404 44.4793C123.139 43.5538 121.176 43.7851 120.177 45.0081C120.044 45.1734 120.078 45.3717 120.211 45.5039C120.344 45.537 120.41 45.57 120.477 45.57Z" fill="#F2F1EF"/>
<path d="M120.211 54.1639C120.311 54.1639 120.377 54.1308 120.444 54.0647L121.276 53.3375C121.376 53.2384 121.442 53.0731 121.376 52.9409L119.712 48.5779C119.645 48.3795 119.445 48.3134 119.246 48.3795C119.046 48.4456 118.979 48.644 119.046 48.8423L120.643 52.9739L120.011 53.5358C119.845 53.6681 119.845 53.8994 119.978 54.0316C120.011 54.1308 120.111 54.1639 120.211 54.1639Z" fill="#001A2D"/>
<path d="M114.753 49.7017C114.886 49.7017 115.019 49.6356 115.086 49.5033C115.319 49.0737 115.785 48.7762 116.25 48.7431C116.716 48.7101 117.249 48.9414 117.548 49.305C117.682 49.4703 117.914 49.5033 118.048 49.3711C118.214 49.2389 118.247 49.0406 118.114 48.8753C117.648 48.2804 116.949 47.9829 116.184 48.0159C115.452 48.0821 114.786 48.5117 114.42 49.1398C114.32 49.305 114.387 49.5364 114.553 49.6356C114.653 49.7017 114.686 49.7017 114.753 49.7017Z" fill="#001A2D"/>
<path d="M120.943 49.0736C121.109 49.0736 121.243 48.9745 121.276 48.8423C121.409 48.4126 121.808 48.0821 122.241 47.9829C122.674 47.8837 123.173 47.9829 123.506 48.3134C123.639 48.4456 123.872 48.4456 124.005 48.2804C124.138 48.1482 124.138 47.9168 123.972 47.7846C123.472 47.3218 122.707 47.1235 122.041 47.2888C121.376 47.454 120.81 47.9829 120.577 48.644C120.51 48.8423 120.61 49.0406 120.81 49.1067C120.876 49.0736 120.91 49.0736 120.943 49.0736Z" fill="#001A2D"/>
<path d="M117.781 58.5599C117.915 58.5599 118.048 58.4938 118.114 58.3616C118.181 58.1963 118.114 57.965 117.915 57.8989C116.85 57.4361 116.783 56.114 116.883 55.2546C117.981 56.5106 119.778 57.1386 121.442 56.7751C121.642 56.742 121.775 56.5437 121.709 56.3454C121.675 56.147 121.476 56.0479 121.276 56.0809C119.645 56.4445 117.815 55.6182 116.983 54.1969C116.916 54.0647 116.783 53.9986 116.617 54.0316C116.483 54.0647 116.35 54.1639 116.317 54.2961C116.284 54.4283 115.385 57.6344 117.582 58.593C117.682 58.5269 117.715 58.5599 117.781 58.5599Z" fill="#001A2D"/>
<path d="M126.368 32.514C127.799 33.9353 128.564 36.0507 127.865 37.9678C127.166 39.8518 125.336 41.2401 123.339 41.5706C121.342 41.9011 119.246 41.207 117.681 39.9179C117.648 40.7112 117.049 41.4384 116.35 41.835C115.651 42.2316 114.753 42.2647 114.021 41.9011C113.155 43.9835 110.859 45.4048 108.596 45.2725C109.727 48.2804 110.06 51.784 109.694 54.9902C109.694 54.9902 108.596 51.8832 106 50.8916C106 50.8916 98.9444 43.4216 103.803 42.2647C103.803 42.2647 100.875 39.4221 106 36.1499C111.125 32.8776 122.574 28.7129 126.368 32.514Z" fill="#292929"/>
<path d="M117.715 66.7241L128.564 72.277L130.461 78.6563C130.461 78.6563 125.236 82.5896 125.07 82.6888C124.903 82.7879 122.008 84.8703 121.376 83.1846C120.743 81.4988 118.38 76.2103 118.38 76.2103L117.116 71.2524L117.715 66.7241Z" fill="#F06767"/>
<path d="M120.776 65.5342L131.593 64.7078L136.385 71.1532L131.992 67.914C131.992 67.914 130.794 72.5745 134.887 74.5246C138.981 76.5078 140.412 75.6484 146.968 89.7952C151.528 99.6451 155.621 107.941 155.621 107.941L146.602 114.949L136.385 109.231L134.288 134.053C134.288 134.053 120.876 146.217 98.1124 133.69L95.7827 103.843L79.8081 92.5056C79.8081 92.5056 91.2899 69.4014 93.6195 66.4266C95.9491 63.4518 100.575 64.4434 104.203 66.9555C104.203 66.9555 103.471 61.7661 104.036 61.2372C104.602 60.7084 109.761 61.8983 110.659 64.1129C111.558 66.3274 114.22 74.128 114.22 74.128L124.005 79.2512L128.265 73.8305C128.265 73.8305 120.976 70.7896 120.643 69.2361C120.277 67.6826 120.776 65.5342 120.776 65.5342Z" fill="black"/>
<path d="M134.288 134.417C134.288 134.417 139.047 139.177 139.846 148.101C140.645 157.059 140.612 226.206 140.612 226.206C140.612 226.206 132.691 228.586 116.816 225.115C100.941 221.645 89.6592 225.941 89.6592 225.941C89.6592 225.941 84.2344 137.722 98.1457 134.02L134.288 134.417Z" fill="#F06767"/>
<path d="M117.881 134.087C119.678 119.675 120.377 95.7448 120.377 95.5134H120.044C120.044 95.7448 119.345 119.675 117.548 134.053L117.881 134.087Z" fill="white"/>
<path d="M150.562 112.238C150.562 112.238 153.092 106.884 154.29 106.553C155.488 106.223 158.916 107.479 157.651 111.544C157.651 111.544 160.613 111.974 160.913 113.627C161.212 115.312 160.38 116.601 160.38 116.601C160.38 116.601 161.711 123.708 155.255 124.138C148.832 124.567 148.1 119.675 148.1 119.675C148.1 119.675 148.699 117.758 149.231 117.229C149.797 116.701 150.562 112.238 150.562 112.238Z" fill="#D8D8D8"/>
<path d="M140.212 109.032C140.212 109.032 135.586 118.783 132.358 121.064L136.884 122.287C136.884 122.287 138.482 118.684 138.881 117.163C139.28 115.643 141.078 110.85 141.078 110.85L140.212 109.032Z" fill="#EDE8E8"/>
<path d="M150.463 111.115L140.212 109.032L133.856 122.485L146.236 125.691L150.463 111.115Z" fill="white"/>
<path d="M114.154 74.4916L109.361 68.9717L108.895 74.9543L114.154 74.4916Z" fill="white"/>
<path d="M96.7018 115.69C88.7157 111.065 87.5565 98.2642 94.1125 87.1001C100.669 75.936 112.457 70.6358 120.443 75.2618C128.43 79.8877 129.589 92.6881 123.033 103.852C116.477 115.016 104.688 120.316 96.7018 115.69Z" fill="#3F1231"/>
<path d="M95.1774 113.72C88.0011 109.563 87.4156 97.2838 93.8699 86.2931C100.324 75.3025 111.374 69.7627 118.55 73.9196C125.727 78.0766 126.312 90.3561 119.858 101.347C113.404 112.337 102.354 117.877 95.1774 113.72Z" fill="black"/>
<path d="M93.8858 86.2916C100.342 75.3179 111.391 69.765 118.547 73.9297C119.645 74.5577 120.577 75.384 121.375 76.3756C121.009 76.1112 120.643 75.8468 120.244 75.6154C113.055 71.4507 102.04 77.0036 95.5831 87.9773C90.1251 97.2983 89.6924 107.512 94.0522 112.966C87.9951 108.206 87.7954 96.6703 93.8858 86.2916Z" fill="#3F1231"/>
<path d="M122.241 97.2322C122.241 97.2322 126.567 94.9515 127.965 94.9515C129.363 94.9515 130.561 97.6619 127.499 99.7443C124.437 101.827 121.742 100.802 121.742 100.802C121.742 100.802 121.875 98.3891 121.908 98.356C121.908 98.323 122.241 97.2322 122.241 97.2322Z" fill="#F06767"/>
<path d="M137.217 105.859L120.943 89.6299C120.51 89.2003 119.811 89.2003 119.378 89.6299C118.946 90.0596 118.946 90.7538 119.378 91.1835L135.653 107.413L137.217 105.859Z" fill="white"/>
<path d="M138.515 108.735L136.784 107.776L135.686 107.446L136.452 106.685L137.25 105.892L137.583 107.016L138.515 108.735Z" fill="#FFCA64"/>
<path d="M136.884 107.842L138.515 108.735L137.616 107.082L136.884 107.842Z" fill="white"/>
<path d="M118.746 99.7773C118.746 99.7773 122.474 94.7532 127.832 98.2899C127.832 98.2899 133.756 95.4804 135.786 96.4059C137.783 97.2983 132.059 101.199 129.696 101.628C129.696 101.628 131.693 101.496 131.526 104.306C131.526 104.306 133.09 106.256 131.06 107.644C131.06 107.644 131.326 109.429 128.697 110.354C126.068 111.28 121.575 110.619 118.314 108.074C118.314 108.074 107.963 107.842 93.3534 104.702C93.3534 104.702 90.7242 106.685 87.9619 105.892C85.1996 105.132 86.3312 96.1745 87.8621 93.993C89.3597 91.8115 94.7179 91.8445 94.7179 91.8445L99.1442 92.3403L100.309 94.7862C100.309 94.7862 105.002 96.1084 118.746 99.7773Z" fill="#F06767"/>
<path d="M100.409 94.8854C100.409 94.8854 96.9808 92.6048 93.4863 94.8854C89.9918 97.1661 89.0933 104.669 90.1915 105.198C91.2565 105.727 93.3865 104.669 93.3865 104.669C93.3865 104.669 88.7605 108.603 84.2343 105.099C84.2343 105.099 83.7018 106.19 80.3405 105.264C76.9792 104.372 76.1472 99.546 77.8777 94.8193C79.6083 90.0927 88.4609 86.5891 91.6559 90.0927C91.6226 90.1258 102.572 89.5308 100.409 94.8854Z" fill="#D8D8D8"/>
<path d="M138.981 79.4496C138.981 79.4496 139.613 84.672 135.786 89.663C135.753 89.63 141.51 86.6882 138.981 79.4496Z" fill="#F3F1F0"/>
<path d="M130.028 77.0367L126.933 81.565C126.933 81.565 128.963 80.7717 130.028 77.0367Z" fill="#F3F1F0"/>
<path d="M97.3469 90.6216C91.3232 91.481 85.2994 95.1168 85.2994 95.1168C86.7304 91.9107 91.6227 90.1258 91.6227 90.1258C91.6227 90.1258 94.751 89.9605 97.3469 90.6216Z" fill="#F3F1F0"/>
<path d="M84.6671 98.323C84.6671 98.323 83.9016 102.554 86.9302 106.421C86.0649 106.223 85.133 105.826 84.2345 105.099C84.2345 105.099 83.2028 102.488 84.6671 98.323Z" fill="#F3F1F0"/>
<path d="M85.1665 96.9347C85.3662 93.0675 91.6229 90.3241 91.6895 90.291L91.5563 89.9935C91.2901 90.1257 85.0333 92.8692 84.8337 96.9347H85.1665Z" fill="#111111"/>
<path d="M87.5623 96.5712H87.8951C87.8618 92.7039 91.3896 90.4233 91.4229 90.3902L91.2564 90.1258C91.1899 90.1588 87.529 92.5387 87.5623 96.5712Z" fill="#111111"/>
<path d="M84.0681 105.198L84.3676 105.033C84.3676 105.033 83.8351 104.008 84.4009 101.232L84.0681 101.166C83.469 104.107 84.0681 105.132 84.0681 105.198Z" fill="#111111"/>
<path d="M121.775 111.082C121.01 111.082 121.01 109.925 121.775 109.925C122.54 109.925 122.54 111.082 121.775 111.082Z" fill="white"/>
<path d="M121.908 119.146C121.142 119.146 121.142 117.99 121.908 117.99C122.673 117.99 122.673 119.146 121.908 119.146Z" fill="white"/>
<path d="M121.542 127.939C120.776 127.939 120.776 126.782 121.542 126.782C122.274 126.782 122.274 127.939 121.542 127.939Z" fill="white"/>
<path d="M133.057 148.729C133.057 148.729 129.696 170.544 103.471 142.317C103.437 142.317 124.77 162.347 133.057 148.729Z" fill="black"/>
<path d="M105.401 148.729C105.401 148.729 119.645 160.727 125.569 168.396C125.569 168.396 113.322 159.273 105.401 148.729Z" fill="black"/>
<path d="M124.637 184.889L111.059 205.548C111.059 205.548 121.975 191.698 124.637 184.889Z" fill="black"/>
<path d="M150.463 111.115L150.196 110.751L139.979 108.735L140.212 109.032L150.463 111.115Z" fill="#707070"/>
<path d="M139.979 108.735L133.357 122.32L133.856 122.485L140.212 109.032L139.979 108.735Z" fill="white"/>
<path d="M152.559 115.345C152.559 115.345 155.555 114.684 157.152 116.8C158.749 118.915 158.849 123.972 153.358 125.361C147.867 126.749 137.217 126.617 137.317 121.659C137.317 121.659 135.553 121.064 135.32 119.94C135.087 118.816 135.786 118.287 135.786 118.287C135.786 118.287 134.787 116.8 135.786 115.775C136.784 114.75 144.539 116.403 144.539 116.403C144.539 116.403 138.814 113.23 138.748 111.544C138.681 109.859 142.708 111.181 145.437 112.371C148.166 113.561 148.998 114.056 148.998 114.056C148.998 114.056 149.564 109.958 152.559 110.718V115.345Z" fill="#F06767"/>
<path d="M151.827 111.676C151.827 111.28 151.927 110.916 152.094 110.685C152.26 110.685 152.426 110.718 152.593 110.751L152.559 112.966H152.526C152.16 112.966 151.827 112.404 151.827 111.676Z" fill="white"/>
<path d="M139.77 112.38C139.176 112.134 138.82 111.634 138.976 111.263C139.131 110.893 139.739 110.791 140.333 111.037C140.927 111.283 141.282 111.783 141.126 112.153C140.971 112.524 140.363 112.625 139.77 112.38Z" fill="white"/>
<path d="M136.906 117.675C136.275 117.549 135.828 117.128 135.907 116.734C135.987 116.341 136.562 116.123 137.193 116.249C137.824 116.374 138.271 116.795 138.191 117.189C138.112 117.583 137.536 117.8 136.906 117.675Z" fill="white"/>
<path d="M136.518 120.626C135.916 120.401 135.544 119.913 135.687 119.537C135.83 119.162 136.434 119.04 137.035 119.266C137.637 119.491 138.009 119.979 137.867 120.355C137.724 120.73 137.12 120.852 136.518 120.626Z" fill="white"/>
<path d="M138.342 123.622C137.944 123.361 137.76 122.939 137.933 122.68C138.105 122.421 138.568 122.423 138.966 122.685C139.365 122.947 139.549 123.369 139.376 123.628C139.204 123.886 138.741 123.884 138.342 123.622Z" fill="white"/>
<path d="M143.574 120.006L143.607 119.675C138.914 119.378 135.853 118.155 135.819 118.122L135.686 118.419C135.719 118.452 138.848 119.708 143.574 120.006Z" fill="#111111"/>
<path d="M144.106 123.972L144.139 123.642C141.044 123.41 137.417 121.526 137.383 121.526L137.217 121.824C137.25 121.824 140.944 123.741 144.106 123.972Z" fill="#111111"/>
<path d="M154.124 113.296C155.155 111.346 157.651 111.544 157.651 111.544C157.651 111.544 160.081 111.875 160.746 113.197C157.818 111.875 154.124 113.296 154.124 113.296Z" fill="#F3F1F0"/>
<path d="M154.39 113.395C155.455 111.181 157.718 111.71 157.751 111.71L157.818 111.379C157.784 111.379 155.255 110.784 154.09 113.23L154.39 113.395Z" fill="#111111"/>
<path d="M160.38 116.601C160.38 116.601 160.38 116.634 160.38 116.601C160.38 116.634 160.48 117.262 160.48 118.122C158.65 115.445 155.188 115.114 155.188 115.114C156.952 115.147 158.949 115.907 160.38 116.601Z" fill="#F3F1F0"/>
<path d="M160.314 116.734L160.48 116.469C160.38 116.403 158.117 114.949 155.688 114.949C155.654 114.949 155.654 114.949 155.621 114.949V115.279H155.654C158.017 115.279 160.28 116.734 160.314 116.734Z" fill="#111111"/>
<path d="M113.188 226.47H113.521V256.086H113.188V226.47Z" fill="white"/>
<path d="M129.762 104.702C131.06 104.702 131.559 104.438 131.593 104.438L131.426 104.14C131.426 104.14 130.694 104.504 128.697 104.306L128.664 104.636C129.096 104.669 129.463 104.702 129.762 104.702Z" fill="#111111"/>
<path d="M129.097 108.14C130.095 108.14 131.06 107.809 131.127 107.776L131.027 107.479C131.027 107.479 129.596 107.975 128.531 107.776L128.464 108.107C128.631 108.107 128.864 108.14 129.097 108.14Z" fill="#111111"/>
<path d="M114.029 108.195L114.963 98.9534L117.48 99.2043L116.546 108.446L114.029 108.195Z" fill="#6F99FF"/>
<path d="M113.852 105.374C112.953 104.172 113.205 102.474 114.414 101.581C115.624 100.689 117.333 100.939 118.233 102.14C119.132 103.341 118.88 105.039 117.67 105.932C116.46 106.825 114.751 106.575 113.852 105.374Z" fill="black"/>
<path d="M114.386 104.979C113.706 104.07 113.897 102.787 114.811 102.111C115.726 101.436 117.019 101.625 117.698 102.534C118.378 103.442 118.188 104.726 117.273 105.401C116.358 106.076 115.066 105.887 114.386 104.979Z" fill="#FFCA64"/>
<path d="M133.806 97.5783C133.673 97.1993 134.015 96.7355 134.57 96.5426C135.125 96.3496 135.683 96.5005 135.817 96.8796C135.95 97.2587 135.609 97.7224 135.053 97.9153C134.498 98.1083 133.94 97.9574 133.806 97.5783Z" fill="white"/>
<g opacity="0.2">
<path opacity="0.2" d="M89.6258 225.974C89.6258 225.974 84.2011 137.755 98.1124 134.053L134.288 134.417C134.288 134.417 132.391 155.34 119.046 148.729C105.7 142.118 100.342 131.31 99.5102 151.902C98.6781 172.461 109.827 180.824 102.339 194.871C94.8509 208.919 94.9507 217.81 112.756 219.43C123.805 220.455 135.087 220.851 140.612 224.322C140.612 225.545 140.612 226.239 140.612 226.239C140.612 226.239 132.691 228.619 116.816 225.148C100.941 221.678 89.6258 225.974 89.6258 225.974Z" fill="#C0C4BC"/>
</g>
</svg>
