<svg width="308" height="173" viewBox="0 0 308 173" fill="none" xmlns="http://www.w3.org/2000/svg">
<path d="M225.456 35.3271C223.621 35.3271 221.817 35.3892 220.013 35.5135C211.087 36.1349 202.192 33.525 195.039 28.1498C180.265 17.0266 161.262 10.3464 140.486 10.3464C93.554 10.3464 55.5166 44.5239 55.5166 86.6554C55.5166 128.787 93.554 162.964 140.486 162.964C151.559 162.964 162.164 161.069 171.868 157.589C180.328 154.575 189.565 154.855 197.962 158.024C206.422 161.224 215.69 162.964 225.425 162.964C264.675 162.964 296.492 134.38 296.492 99.1457C296.492 63.9118 264.707 35.3271 225.456 35.3271Z" fill="#EAEAEA"/>
<path opacity="0.75" d="M208.381 1.46031H53.4016V156.284H208.381V1.46031Z" fill="#EAEAEA"/>
<path d="M50.8823 0V159.049H210.092V0H50.8823ZM55.672 4.78484H160.982V154.265H55.672V4.78484ZM205.302 154.265H165.803V4.78484H205.302V154.265Z" fill="#257C7C"/>
<path d="M61.9546 107.069C61.9546 107.069 64.1317 104.303 69.1391 107.721C74.1464 111.139 73.7421 114.246 73.1512 115.893C72.5603 117.539 71.6894 120.087 71.6894 120.087L66.0911 114.37L61.9546 107.069Z" fill="#18332A"/>
<path d="M109.882 116.794C109.882 116.794 116.476 111.481 125.091 112.723C133.706 113.966 142.943 113.252 142.943 113.252C142.943 113.252 139.802 117.601 128.17 116.794C116.538 116.017 111.002 118.192 111.002 118.192L109.882 116.794Z" fill="#499B7B"/>
<path d="M83.1659 156.533L82.7305 170.142" stroke="black" stroke-width="1.9141" stroke-miterlimit="10"/>
<path d="M84.5344 156.005C84.5344 156.005 80.8644 149.821 85.0009 144.167C89.1374 138.512 97.4416 135.684 97.4416 135.684L99.1522 140.221L100.801 134.379C100.801 134.379 104.222 132.484 115.138 132.267C126.055 132.018 128.761 131.801 132.649 137.269C122.634 139.258 111.437 142.147 111.437 142.147L96.4152 149.511L91.9366 151.872L84.5344 156.005Z" fill="#1E3F35"/>
<path d="M71.5339 141.805C71.5339 141.805 73.2134 139.102 69.4812 135.063C65.749 131.024 65.3446 132.795 60.7727 129.999C56.2007 127.202 50.1981 126.86 50.1981 126.86L49.3895 133.758L47.7722 125.928C47.7722 125.928 45.0041 125.99 41.0853 125.4C37.1354 124.81 32.2836 125.245 32.2836 125.245L31.7859 130.247C31.7859 130.247 29.8265 126.519 29.36 126.177C26.5608 127.637 26.8097 127.762 23.0152 128.476C19.2208 129.222 10.7612 129.75 6.87347 134.659C2.98576 139.599 0 139.972 0 139.972C0 139.972 4.88297 139.04 7.96203 137.518C11.0411 135.995 19.4697 134.566 24.9436 134.566C30.4174 134.566 47.3368 136.865 47.3368 136.865L49.2962 138.916L57.6003 139.506L65.9667 140.5C65.9667 140.531 70.1965 143.825 71.5339 141.805Z" fill="#499B7B"/>
<path d="M83.0727 158.77C83.0727 158.77 82.233 155.166 86.0274 152.866C89.7907 150.567 92.8697 149.324 94.0516 146.87C94.8291 149.107 94.1138 150.288 94.1138 150.288C94.1138 150.288 95.5134 148.05 96.6019 146.279C97.6594 144.508 102.978 145.503 106.803 143.266C110.629 141.029 117.191 139.724 124.904 139.04C113.304 141.992 109.105 143.514 102.853 146.528C96.5708 149.542 83.0727 158.77 83.0727 158.77Z" fill="#18332A"/>
<path d="M93.0874 139.817C93.0874 139.817 87.0226 129.75 89.9772 125.804C92.9319 121.858 94.7669 121.734 95.5133 120.988C96.2909 120.211 96.6952 129.812 96.6952 129.812C96.6952 129.812 96.9751 120.46 97.566 119.683C102.511 117.384 103.289 117.042 111.002 116.452C118.715 115.862 123.132 115.458 126.148 116.328C129.165 117.198 131.685 117.198 131.685 117.198C131.685 117.198 121.141 116.918 113.988 119.031C106.865 121.144 102.387 126.084 100.085 129.874C97.8148 133.634 93.6161 139.506 93.6161 139.506L93.0874 139.817Z" fill="#1E3F35"/>
<path d="M71.6894 120.087C71.7827 119.901 71.565 116.328 70.1032 114.774C68.6414 113.252 65.3757 106.168 62.5144 105.826C59.6219 105.484 57.4448 107.535 53.837 107.814C50.2292 108.094 47.399 110.238 46.7147 110.393C45.9994 110.58 56.6673 114.619 57.196 114.867C49.0474 113.158 45.4707 110.455 41.3341 110.735C37.1976 111.015 29.36 113.562 24.0105 122.045C34.6784 115.395 45.4085 113.966 56.3252 115.675C67.2107 117.446 71.3784 120.615 71.6894 120.087Z" fill="#33705E"/>
<path d="M68.7346 91.5334C68.7346 91.5334 77.5053 92.8384 80.1178 99.1457C82.6993 105.453 75.7014 107.473 74.4573 106.136C68.548 98.9592 63.9761 96.3804 63.9761 96.3804L68.7346 91.5334Z" fill="#499B7B"/>
<path d="M74.3953 106.416C74.3953 106.416 74.9862 104.055 74.1153 101.29C73.2445 98.5242 72.0004 93.8637 72.0004 93.8637L70.4142 98.0582C69.2324 92.1237 72.9957 89.7002 67.3041 86.6864C61.5814 83.6726 58.098 83.4551 55.3299 84.2008C52.5619 84.9775 43.418 87.3078 43.418 87.3078L47.1191 91.5023C40.1523 88.0224 39.748 87.4943 39.748 87.4943C39.748 87.4943 29.671 88.6749 23.6062 94.2055C33.4965 90.4459 41.5208 91.3159 53.0906 95.2618C64.5982 99.2389 71.2229 103.185 74.3953 106.416Z" fill="#1E3F35"/>
<path d="M85.7163 130.682C85.7163 130.682 81.1132 125.245 81.9529 121.672C82.7927 118.068 81.2065 112.661 84.6277 105.235C88.0489 97.8096 89.0441 96.7222 92.8074 90.8809C96.5707 85.0397 100.987 79.7888 103.413 73.9165C105.839 68.0753 109.354 66.9878 115.356 67.081C111.686 68.2617 107.487 72.9222 106.679 78.111C105.839 83.2998 102.325 89.7935 102.325 89.7935L96.7885 103.216L90.7236 118.503L85.7163 130.682Z" fill="#499B7B"/>
<path d="M85.6228 124.095C85.6228 124.095 87.9554 109.492 88.8885 106.727C89.8215 103.962 97.2548 91.1916 99.5875 86.2825C101.92 81.3423 108.794 70.0948 109.882 69.0695C110.971 68.0753 112.401 67.6403 112.401 67.6403" stroke="black" stroke-width="0.7231" stroke-miterlimit="10"/>
<path d="M91.3457 93.118L92.341 99.7981" stroke="black" stroke-width="0.7231" stroke-miterlimit="10"/>
<path d="M95.731 93.6151L103.631 87.1525" stroke="black" stroke-width="0.7231" stroke-miterlimit="10"/>
<path d="M102.635 80.5656L102.791 75.3457" stroke="black" stroke-width="0.7231" stroke-miterlimit="10"/>
<path d="M96.8196 101.383L87.7068 112.071" stroke="black" stroke-width="0.7231" stroke-miterlimit="10"/>
<path d="M87.0535 134.535C87.0535 134.535 82.9481 132.857 84.13 128.538C85.3118 124.188 84.13 122.697 86.0583 120.025C87.9866 117.353 97.0061 102.905 97.0061 102.905C97.0061 102.905 88.9507 124.095 87.0535 134.535Z" fill="#18332A"/>
<path d="M70.9741 143.172C70.9741 143.172 67.7395 139.475 65.3758 138.294C63.012 137.114 63.603 137.953 60.8038 137.02C58.0047 136.088 55.9831 134.255 55.9831 134.255C55.9831 134.255 49.7938 137.362 49.4828 137.487C51.1623 134.348 52.1265 134.131 52.1265 134.131C52.1265 134.131 42.3916 132.36 33.932 132.608C25.4723 132.857 22.1755 132.267 22.1755 132.267C22.1755 132.267 23.1086 134.038 22.7043 134.286C22.2999 134.535 17.3548 131.739 17.3548 131.739C17.3548 131.739 16.4217 134.877 13.6226 135.218C10.8234 135.56 6.9668 138.077 6.9668 138.077C6.9668 138.077 13.0627 134.504 23.4507 136.026C33.8387 137.549 49.3895 140.594 54.8012 140.656C60.1818 140.718 70.9741 143.172 70.9741 143.172Z" fill="#18332A"/>
<path d="M57.6626 148.019C57.6626 148.019 61.5503 147.833 63.3231 149.48C65.0959 151.126 72.2804 155.01 73.9288 154.793C75.5772 154.544 77.8165 154.513 77.8165 154.513C77.8165 154.513 80.3668 152.09 79.8692 150.691C79.4027 149.293 75.3906 142.582 72.8402 142.085C70.2899 141.588 64.4117 142.613 64.4117 142.613L57.6626 148.019Z" fill="#1E3F35"/>
<path d="M60.244 140.966C60.244 140.966 53.3705 138.077 51.9399 138.729C49.234 139.972 44.2267 144.384 41.3964 147.336C38.5661 150.288 36.8556 151.934 36.6689 156.937C36.4823 161.939 36.3268 167.656 39.7791 173C41.4897 162.809 44.2578 163.12 46.9014 160.292C49.545 157.465 51.1934 155.57 51.1934 155.57L52.3753 152.276C52.3753 152.276 53.8371 153.27 54.3347 153.053C54.8012 152.835 54.0237 151.499 58.098 148.952C58.2224 148.858 58.3779 148.796 58.5023 148.703C63.0432 146 70.632 142.054 72.8402 142.116C65.749 140.5 60.244 140.966 60.244 140.966Z" fill="#499B7B"/>
<path d="M60.244 140.966C60.244 140.966 52.0643 144.446 48.923 147.398C45.8128 150.35 39.126 158.583 39.1882 163.368" stroke="black" stroke-width="0.9571" stroke-miterlimit="10"/>
<path d="M51.3489 145.565L51.1001 152.152" stroke="black" stroke-width="0.9571" stroke-miterlimit="10"/>
<path d="M55.0812 143.421L45.9373 143.048" stroke="black" stroke-width="0.9571" stroke-miterlimit="10"/>
<path d="M42.2672 155.601L38.0996 157.496" stroke="black" stroke-width="0.9571" stroke-miterlimit="10"/>
<path d="M88.2664 134.317C88.2664 134.317 86.1826 161.939 87.3334 170.918" stroke="black" stroke-width="1.9141" stroke-miterlimit="10"/>
<path d="M77.2876 153.426C77.2876 153.426 79.0604 165.73 79.1848 170.142" stroke="black" stroke-width="1.9141" stroke-miterlimit="10"/>
<path d="M71.6895 120.087C71.6895 120.087 79.5582 153.239 81.4865 171.167" stroke="black" stroke-width="1.9141" stroke-miterlimit="10"/>
<path d="M84.4722 158.552L131.374 159.547C131.374 159.547 122.416 156.595 119.399 154.078C116.382 151.561 113.614 150.381 113.614 150.381L110.442 156.75L111.686 148.734C111.686 148.734 108.203 147.367 99.6498 148.61L95.6999 156.688L95.0467 149.728C95.0467 149.697 85.8406 151.779 84.4722 158.552Z" fill="#33705E"/>
<path d="M131.778 159.143C131.778 159.143 120.053 160.976 114.268 160.976L111.562 159.857L112.868 161.162C112.868 161.162 106.554 161.566 103.258 161.442C99.9609 161.318 93.9894 160.044 93.9894 160.044L94.176 162.56C94.176 162.56 85.2809 161.224 84.5967 158.148C83.9124 155.072 106.679 156.719 106.679 156.719L114.703 157.713L131.778 159.143Z" fill="#1E3F35"/>
<path d="M84.5344 157.62L85.0321 170.017" stroke="black" stroke-width="1.9141" stroke-miterlimit="10"/>
<path d="M74.3953 106.416L82.7305 167.998" stroke="black" stroke-width="1.9141" stroke-miterlimit="10"/>
<path d="M147.204 107.566H105.621L96.7886 171.446L106.15 171.695L107.301 166.196L130.441 166.071L129.943 171.322H139.025L147.204 107.566Z" fill="#934E2F"/>
<path d="M148.262 107.566H106.71L97.8772 171.446L107.208 171.695L108.358 166.196L131.529 166.071L131 171.322H140.082L148.262 107.566Z" fill="#633016"/>
<path d="M106.772 107.659H148.324L157.157 171.54L147.826 171.819L146.676 166.32L123.505 166.196L124.034 171.415H114.952L106.772 107.659Z" fill="#A35731"/>
<path d="M108.078 107.659H149.661L158.494 171.54L149.133 171.819L147.982 166.32L124.842 166.196L125.371 171.415H116.289L108.078 107.659Z" fill="#CC7C50"/>
<path d="M109.323 109.026H148.822L156.006 161.1L115.978 160.82L109.323 109.026Z" fill="#0C1116"/>
<path d="M119.648 144.353H148.915" stroke="white" stroke-width="1.7153" stroke-miterlimit="10"/>
<path d="M120.395 148.703H149.692" stroke="white" stroke-width="1.7153" stroke-miterlimit="10"/>
<path d="M121.048 152.96H150.346" stroke="white" stroke-width="1.7153" stroke-miterlimit="10"/>
<path d="M278.702 88.7681L278.64 79.7888L271.176 80.8763L268.625 86.5932L267.537 95.5104L278.702 88.7681Z" fill="#EFEBE8"/>
<path d="M252.141 162.685C252.141 162.685 253.23 165.978 247.507 166.786C242.904 167.438 242.064 167.936 241.131 170.421C245.05 170.421 254.101 170.421 254.101 170.421L262.436 167.998L261.347 162.436L252.141 162.685Z" fill="#492F1D"/>
<path d="M255.998 162.747C255.998 162.747 255.065 167.842 251.612 168.184C248.129 168.526 244.677 168.65 244.428 171.819C253.51 171.819 266.51 171.136 266.51 171.136C266.51 171.136 267.443 167.314 265.422 163.461C263.4 159.546 255.998 162.747 255.998 162.747Z" fill="#825536"/>
<path d="M260.383 104.925H256.278V140.531H260.383V104.925Z" fill="#68442B"/>
<path d="M270.18 105.702C270.18 106.416 269.589 107.006 268.874 107.006H232.952C232.236 107.006 231.645 106.416 231.645 105.702V103.527C231.645 102.812 232.236 102.222 232.952 102.222H268.843C269.558 102.222 270.149 102.812 270.149 103.527V105.702H270.18Z" fill="#825536"/>
<path d="M251.395 155.973C251.395 155.973 247.352 145.409 244.739 137.207C242.127 129.004 238.332 121.206 244.615 119.745C250.928 118.285 266.168 119.807 266.168 119.807L261.192 124.375L253.665 139.755L251.395 155.973Z" fill="#0C1116"/>
<path d="M265.08 119.901C265.08 119.901 249.529 119.497 246.978 122.852C244.428 126.208 247.258 128.973 247.196 134.286C247.134 139.599 251.426 142.893 250.617 150.07C249.809 157.247 249.809 163.524 250.835 163.586C251.861 163.648 267.848 164.984 267.443 163.399C267.039 161.846 264.209 157.838 264.738 156.812C265.266 155.787 267.568 158.148 262.996 150.816C263.338 141.93 264.613 136.244 261.907 133.075C270.647 135.778 281.47 134.224 281.906 133.075C282.372 131.925 269.341 119.497 269.341 119.497L265.08 119.901Z" fill="#181F29"/>
<path d="M300.722 135.187C300.722 135.902 300.131 136.492 299.416 136.492H267.786C267.07 136.492 266.479 135.902 266.479 135.187V134.535C266.479 133.82 267.07 133.23 267.786 133.23H299.385C300.1 133.23 300.691 133.82 300.691 134.535V135.187H300.722Z" fill="#492F1D"/>
<path d="M273.073 135.498H269.683V171.012H273.073V135.498Z" fill="#492F1D"/>
<path d="M298.203 135.498H294.813V171.012H298.203V135.498Z" fill="#492F1D"/>
<path d="M255.936 77.241C255.936 77.241 255.749 75.6564 254.91 75.0661C254.039 74.4447 252.048 71.9901 252.639 69.3491C253.23 66.7082 257.398 65.745 259.015 66.0557C260.632 66.3353 262.125 68.852 261.254 71.8658C260.757 73.9786 261.939 76.2468 260.632 77.3653C259.326 78.4838 255.936 77.241 255.936 77.241Z" fill="#C9784B"/>
<path d="M255.936 67.7024C255.936 67.7024 256.278 72.8912 256.62 72.8912C256.962 72.9222 260.383 72.9533 260.383 72.9533C260.383 72.9533 261.503 67.7645 261.254 67.6092C261.036 67.4538 258.237 66.7703 255.936 67.7024Z" fill="white"/>
<path d="M271.486 77.0546C271.486 77.0546 268.749 83.1444 266.572 84.9465C264.364 86.7796 262.933 90.7877 262.933 90.7877C262.933 90.7877 261.565 83.9522 261.814 81.4355C261.752 80.5656 259.917 80.752 257.615 80.6898C255.282 80.6277 251.581 81.4977 251.581 82.2434C251.581 82.9891 253.541 85.4436 253.074 91.5334C252.639 97.6232 251.83 102.874 258.299 102.75C264.768 102.626 266.261 102.191 266.261 102.191L270.522 95.9143C270.522 95.9143 270.149 86.5932 271.144 82.7094C272.077 78.2353 271.486 77.0546 271.486 77.0546Z" fill="#389BA0"/>
<path d="M272.233 76.0914C272.233 76.0914 271.02 76.4332 270.274 77.9246C269.527 79.416 269.745 79.7267 269.745 81.3734C269.745 83.0201 270.647 86.3136 270.647 86.3136L271.393 80.9073L272.233 76.0914Z" fill="#1C7777"/>
<path d="M307.471 108.995C307.471 108.995 308.591 105.577 307.533 101.849C306.476 98.1203 306.258 93.5841 302.339 87.1214C298.452 80.6588 296.741 80.0374 295.808 78.0489C294.875 76.0603 296.959 76.1225 292.2 74.569C287.411 72.9844 284.456 73.5126 281.595 70.5298C279.728 74.7865 276.307 84.0765 277.178 89.1721C278.049 94.2987 279.511 109.585 278.236 114.65C276.96 119.714 271.02 122.2 271.02 122.2C271.02 122.2 278.018 133.913 280.506 134.846C283.025 135.778 287.597 132.577 292.2 133.51C296.803 134.442 298.825 135.312 298.825 133.447C298.825 131.583 300.878 126.829 298.141 122.635C295.404 118.44 294.875 115.489 295.621 110.704C296.43 105.888 307.471 108.995 307.471 108.995Z" fill="#389BA0"/>
<path d="M293.258 76.1225C293.258 76.1225 290.77 79.3849 289.992 84.7911" stroke="#166361" stroke-width="1.1233" stroke-miterlimit="10"/>
<path d="M295.839 101.849C295.839 101.849 297.363 98.4 302.526 98.1514" stroke="#166361" stroke-width="1.1233" stroke-miterlimit="10"/>
<path d="M298.576 100.886C298.576 100.886 300.722 98.8971 303.397 100.761" stroke="#166361" stroke-width="1.1233" stroke-miterlimit="10"/>
<path d="M296.835 100.482C296.835 100.482 295.684 99.736 294.346 97.5921" stroke="#166361" stroke-width="1.1233" stroke-miterlimit="10"/>
<path d="M289.09 102.377C289.09 102.377 289.09 102.315 289.121 102.253C289.277 102.004 289.992 101.6 293.351 101.849C297.83 102.222 300.598 100.326 303.055 101.352C305.543 102.346 308.342 104.987 307.471 108.809C306.631 112.599 304.765 111.201 302.184 110.89C299.634 110.58 294.875 113.531 292.231 112.972C289.588 112.444 288.904 107.006 288.904 107.006L289.09 102.377Z" fill="#42B2B2"/>
<path d="M289.992 102.346C289.992 102.346 292.325 101.134 294.16 103.558C295.995 105.981 295.373 108.529 294.471 111.077C293.569 113.624 291.236 112.413 289.712 108.84C288.188 105.235 289.992 102.346 289.992 102.346Z" fill="#196060"/>
<path d="M277.209 84.9465C277.738 82.2744 279.511 83.859 280.848 81.5598C282.466 78.7635 287.846 78.1421 287.597 76.8992C287.442 76.1225 285.794 73.9786 284.549 72.4873C283.492 72.0523 282.528 71.4619 281.564 70.4677C280.195 73.7611 277.863 79.9441 277.209 84.9465Z" fill="#1C7777"/>
<path d="M279.728 70.3745C279.728 70.3745 281.626 68.8209 282.217 71.9591C282.807 75.0972 281.874 76.9925 279.511 80.0063C277.147 82.989 276.276 86.6243 276.276 86.6243L273.415 81.8705C273.415 81.8705 273.726 79.7577 274.628 77.6139C274.845 77.1167 275.094 76.6196 275.405 76.1225C276.929 73.6058 279.728 70.3745 279.728 70.3745Z" fill="white"/>
<path d="M274.628 78.981L273.384 81.8705C273.384 81.8705 270.647 83.9522 270.522 84.0144C270.429 79.2917 270.989 76.6507 272.855 75.6564C274.752 74.6933 274.628 78.981 274.628 78.981Z" fill="white"/>
<path d="M279.2 63.5079C279.2 63.5079 278.671 67.7024 279.853 69.1938C281.035 70.6852 281.346 71.2444 281.346 71.2444C281.346 71.2444 281.906 73.3572 278.609 75.6875C275.312 78.0178 273.415 82.0569 273.415 82.0569C273.415 82.0569 272.637 74.9729 272.886 73.9786C273.135 73.0155 275.063 68.9452 275.063 68.9452L277.769 62.5447L279.2 63.5079Z" fill="#C9784B"/>
<path d="M279.884 57.1385C279.884 57.1385 278.329 52.8197 273.819 53.379C269.309 53.9071 267.599 58.6299 268.19 60.5251C268.781 62.4515 268.47 62.9176 268.314 63.3525C268.159 63.7875 265.981 65.4964 266.199 66.18C266.417 66.8635 268.625 66.18 268.625 66.18C268.625 66.18 265.359 72.1455 269.714 72.829C274.068 73.5126 276.214 69.287 276.836 66.1178C277.458 62.9486 280.537 60.7737 279.884 57.1385Z" fill="#DE8C56"/>
<path d="M271.798 62.8244C272.073 62.8244 272.295 62.4488 272.295 61.9855C272.295 61.5221 272.073 61.1466 271.798 61.1466C271.523 61.1466 271.3 61.5221 271.3 61.9855C271.3 62.4488 271.523 62.8244 271.798 62.8244Z" fill="#182024"/>
<path d="M268.563 62.5447C268.752 62.5447 268.905 62.2665 268.905 61.9233C268.905 61.5801 268.752 61.3019 268.563 61.3019C268.374 61.3019 268.221 61.5801 268.221 61.9233C268.221 62.2665 268.374 62.5447 268.563 62.5447Z" fill="#182024"/>
<path d="M274.161 59.4688C274.099 58.7852 272.015 55.8335 271.424 56.2996C270.802 56.7656 274.192 59.8727 274.161 59.4688Z" fill="#182024"/>
<path d="M269.154 58.6298C268.656 58.5677 267.505 59.3134 267.941 59.9037C268.407 60.4941 269.403 58.6609 269.154 58.6298Z" fill="#182024"/>
<path d="M268.252 66.2732C268.252 66.2732 269.341 65.6207 270.087 66.2732C272.668 68.4792 273.601 67.2364 273.601 67.2364C273.601 67.2364 273.881 64.7818 275.499 63.4458C277.116 62.1408 276.867 60.5873 277.645 61.3951C278.422 62.2029 277.334 63.6322 277.645 66.1489C277.956 68.6656 276.774 74.6 271.58 75.1282C266.448 75.6254 262.716 70.0948 268.252 66.2732Z" fill="#182024"/>
<path d="M268.688 68.417C268.688 68.417 269.807 69.8463 271.393 68.8831" stroke="white" stroke-width="0.7489" stroke-miterlimit="10"/>
<path d="M278.485 62.0787C278.485 62.0787 280.009 59.3445 281.284 60.2144C282.559 61.0844 280.724 65.0303 277.676 64.1604" fill="#DE8C56"/>
<path d="M258.455 89.7935C258.673 89.7935 269.247 89.9488 269.558 89.8867C275.965 86.1893 290.148 83.4551 290.148 83.4551C290.148 83.4551 287.908 105.701 287.971 110.455C288.033 115.178 292.325 125.027 292.325 125.027L293.631 129.75C293.631 129.75 282.621 130.434 280.973 129.75C279.355 129.066 270.865 122.076 270.865 122.076L262.312 120.149L265.266 109.461L258.455 89.7935Z" fill="#D6D2CC"/>
<path d="M289.339 85.7232C289.339 85.7232 296.368 88.8614 297.612 90.042C293.413 95.324 287.815 104.148 287.815 104.148C287.815 104.148 286.695 91.6577 289.339 85.7232Z" fill="white"/>
<path d="M280.972 129.719C282.59 130.402 293.631 129.719 293.631 129.719L292.325 124.996C292.325 124.996 288.064 115.147 287.97 110.424C287.877 105.702 290.147 83.424 290.147 83.424C290.147 83.424 275.996 86.1582 269.558 89.8556L271.891 104.521L273.135 111.201L270.895 122.045C270.864 122.045 279.324 129.035 280.972 129.719Z" fill="#C6C1BA"/>
<path d="M271.891 91.0984L273.135 98.7728L286.726 97.9339L287.722 89.2342C287.722 89.2342 278.018 89.6381 271.891 91.0984Z" fill="#72706D"/>
<g opacity="0.1">
<path opacity="0.1" d="M261.627 93.5841L268.47 93.2733" stroke="black" stroke-width="1.4978" stroke-miterlimit="10"/>
<path opacity="0.1" d="M262.498 95.1997L268.003 94.6715" stroke="black" stroke-width="1.4978" stroke-miterlimit="10"/>
<path opacity="0.1" d="M263.182 96.7532L268.314 96.6911" stroke="black" stroke-width="1.4978" stroke-miterlimit="10"/>
<path opacity="0.1" d="M262.716 98.2446L268.47 98.4" stroke="black" stroke-width="1.4978" stroke-miterlimit="10"/>
<path opacity="0.1" d="M263.338 99.6428L269.247 99.7981" stroke="black" stroke-width="1.4978" stroke-miterlimit="10"/>
<path opacity="0.1" d="M271.797 90.2595C271.797 90.2595 279.262 87.8671 287.473 87.401" stroke="black" stroke-width="1.4978" stroke-miterlimit="10"/>
<path opacity="0.1" d="M284.705 101.569L273.29 102.657" stroke="black" stroke-width="1.4978" stroke-miterlimit="10"/>
<path opacity="0.1" d="M273.601 104.521L283.772 103.433" stroke="black" stroke-width="1.4978" stroke-miterlimit="10"/>
<path opacity="0.1" d="M273.819 105.67L282.838 104.894" stroke="black" stroke-width="1.4978" stroke-miterlimit="10"/>
<path opacity="0.1" d="M273.757 107.535H282.434" stroke="black" stroke-width="1.4978" stroke-miterlimit="10"/>
</g>
<path d="M289.37 109.15C289.37 109.15 291.174 108.622 291.236 107.193C291.298 105.795 290.179 102.035 289.681 101.29C289.183 100.544 289.37 98.0271 288.779 97.7475C287.411 97.965 287.877 100.513 287.877 100.513C287.877 100.513 281.937 100.047 281.128 100.326C279.853 100.792 281.75 101.476 281.75 101.476C281.75 101.476 280.071 101.507 280.195 101.973C280.351 102.439 281.377 102.936 281.377 102.936C281.377 102.936 280.351 103.154 280.257 103.558C280.164 103.931 281.781 104.148 281.781 104.148C281.781 104.148 279.729 104.49 281.843 105.329C283.958 106.168 287.504 107.473 287.815 108.187C288.126 108.933 288.593 109.181 289.37 109.15Z" fill="#DE8C56"/>
<path d="M282.248 101.538L286.726 102.004" stroke="#845A3A" stroke-width="0.7489" stroke-miterlimit="10"/>
<path d="M282.03 102.998L286.416 103.713" stroke="#845A3A" stroke-width="0.7489" stroke-miterlimit="10"/>
<path d="M282.652 104.365L285.327 105.111" stroke="#845A3A" stroke-width="0.7489" stroke-miterlimit="10"/>
<path d="M290.21 102.501C290.21 102.501 292.356 102.004 293.133 103.061C294.129 103.962 294.782 104.365 294.937 106.975C295.124 109.585 293.911 110.766 293.444 110.611C292.978 110.455 290.148 108.436 290.148 108.436L290.21 102.501Z" fill="white"/>
<path d="M260.881 81.218C260.881 81.218 261.441 77.7382 260.912 77.2721C260.383 76.775 254.35 76.9614 254.101 77.3964C253.852 77.8314 253.759 81.3734 253.759 81.3734C253.759 81.3734 260.477 81.8705 260.881 81.218Z" fill="white"/>
<path d="M255.625 79.6956C256.037 79.6956 256.371 79.3756 256.371 78.981C256.371 78.5863 256.037 78.2663 255.625 78.2663C255.212 78.2663 254.878 78.5863 254.878 78.981C254.878 79.3756 255.212 79.6956 255.625 79.6956Z" fill="#182024"/>
<path d="M256.993 66.9878C256.713 66.2732 255.811 65.9935 253.883 65.9625C251.924 65.9314 251.115 67.3606 251.924 67.7646C251.924 67.7646 250.275 68.7899 251.613 69.8773C249.871 70.9027 252.048 71.8969 252.048 71.8969C252.048 71.8969 251.706 73.6369 253.634 73.6058C255.563 73.5747 256.216 73.0465 256.216 72.5183C256.247 72.0212 254.847 71.8658 254.847 71.8658C254.847 71.8658 256.309 71.5862 256.402 71.058C256.496 70.5609 255.407 69.9395 255.407 69.9395C255.407 69.9395 256.62 69.287 256.62 68.852C256.62 68.417 255.967 68.0442 255.967 68.0442C255.967 68.0442 257.211 67.516 256.993 66.9878Z" fill="#DE8C56"/>
<path d="M252.67 67.6092C252.67 67.6092 254.816 67.6713 255.718 67.8888" stroke="#845A3A" stroke-width="0.7489" stroke-miterlimit="10"/>
<path d="M252.204 69.8463C252.204 69.8463 254.101 69.722 254.941 69.9705" stroke="#845A3A" stroke-width="0.7489" stroke-miterlimit="10"/>
<path d="M252.452 71.7726L253.976 71.8037" stroke="#845A3A" stroke-width="0.7489" stroke-miterlimit="10"/>
<path d="M255.5 147.522C255.5 147.522 260.881 152.369 262.374 153.239" stroke="white" stroke-width="0.7489" stroke-miterlimit="10"/>
<path d="M263.245 156.999C263.245 156.999 259.886 158.956 256.433 159.764" stroke="white" stroke-width="0.7489" stroke-miterlimit="10"/>
<path d="M262.654 159.049C262.654 159.049 259.481 160.199 254.785 160.51" stroke="white" stroke-width="0.7489" stroke-miterlimit="10"/>
<path d="M274.535 111.698C274.535 111.698 286.167 112.537 286.384 112.599C286.602 112.661 288.406 119.497 288.406 119.497L274.13 117.104L274.535 111.698Z" fill="#72706D"/>
<path opacity="0.2" d="M274.223 118.689L286.851 121.982" stroke="black" stroke-width="1.4978" stroke-miterlimit="10"/>
<path opacity="0.2" d="M273.85 120.367L286.478 123.66" stroke="black" stroke-width="1.4978" stroke-miterlimit="10"/>
<path opacity="0.2" d="M273.322 122.542L285.949 125.835" stroke="black" stroke-width="1.4978" stroke-miterlimit="10"/>
<path opacity="0.1" d="M272.046 111.636L266.417 110.642" stroke="black" stroke-width="1.4978" stroke-miterlimit="10"/>
<path opacity="0.1" d="M271.455 113.376L265.826 112.382" stroke="black" stroke-width="1.4978" stroke-miterlimit="10"/>
<path opacity="0.1" d="M270.491 114.805L264.831 113.811" stroke="black" stroke-width="1.4978" stroke-miterlimit="10"/>
<path opacity="0.1" d="M270.18 116.731L264.551 115.768" stroke="black" stroke-width="1.4978" stroke-miterlimit="10"/>
<path d="M260.135 133.572C260.135 133.572 257.055 130.123 253.79 128.29" stroke="white" stroke-width="0.7489" stroke-miterlimit="10"/>
<path d="M182.629 162.685L183.998 165.45C183.998 165.45 185.148 168.402 187.512 168.681C189.907 168.961 190.063 170.204 189.783 171.415C186.548 171.415 174.667 171.415 174.667 171.415L174.605 166.133L179.768 160.758L182.629 162.685Z" fill="black"/>
<path d="M166.238 167.19C166.238 167.19 165.43 168.495 162.537 168.557C159.645 168.619 160.329 171.571 160.329 171.571H174.698L175.227 165.574L169.566 162.281L166.238 167.19Z" fill="black"/>
<path d="M174.76 144.54C174.76 144.54 174.885 166.724 174.605 167.283C171.775 164.891 169.66 163.213 167.949 165.17C166.239 167.159 166.239 167.159 166.239 167.159C166.239 167.159 167.078 164.704 167.203 161.1C167.327 157.465 166.176 148.33 166.985 144.757C167.763 141.184 174.76 144.54 174.76 144.54Z" fill="#0C1116"/>
<path d="M184.558 145.037C184.558 145.037 182.505 160.416 183.998 165.45C181.51 162.964 180.017 161.877 178.71 164.207C177.404 166.537 176.782 167.252 174.636 166.693C174.729 161.131 172.863 153.301 172.863 152.338C172.863 151.375 175.32 141.619 175.32 141.619L184.558 145.037Z" fill="#181F29"/>
<path d="M160.609 116.856C160.609 116.856 156.348 142.675 156.815 144.664C158.059 145.068 158.339 145.068 158.339 145.068L160.391 127.886L160.609 116.856Z" fill="#E05A5A"/>
<path d="M185.148 53.41C185.148 53.41 188.538 54.4975 189.223 55.6471C189.907 56.7967 194.572 66.6149 195.412 68.417C196.252 70.188 198.771 74.7865 198.771 74.7865C198.771 74.7865 200.077 77.0546 200.202 77.7692C200.295 78.5149 192.426 76.34 192.426 76.34L188.507 71.7726C188.507 71.7726 185.242 79.8509 185.086 85.2261C184.931 90.5702 185.335 90.3838 185.335 90.3838C185.335 90.3838 182.194 94.019 174.76 93.0248C167.358 92.0305 163.719 90.2906 163.719 90.2906L164.248 61.3951L166.021 50.8312L167.7 48.2834L173.019 48.9359L181.914 52.1983L185.148 53.41Z" fill="#181F29"/>
<path d="M191.773 77.8935C191.773 77.8935 193.826 74.5068 196.718 73.3262C199.611 72.1455 199.859 76.1225 199.859 76.1225C199.859 76.1225 201.57 76.0604 201.694 76.8993C201.819 77.7692 201.041 79.0742 201.041 79.0742C201.041 79.0742 203.467 83.8279 196.003 83.7037C188.569 83.5483 191.773 77.8935 191.773 77.8935Z" fill="#313F4F"/>
<path d="M176.378 47.1959C176.378 47.1959 182.069 47.3824 182.754 47.8795C183.438 48.3456 184.9 51.173 184.9 51.173C184.9 51.173 183.469 49.5573 183.002 49.8059C182.536 50.0544 183.5 53.9382 183.5 53.9382C183.5 53.9382 180.732 53.0683 180.234 53.2236C179.737 53.379 176.253 52.074 176.253 52.074L175.507 49.7748L175.6 47.6309L176.378 47.1959Z" fill="#181F29"/>
<path d="M171.65 42.6597C171.65 42.6597 172.21 44.7103 171.681 46.7299C171.681 46.7299 173.236 53.6275 175.445 54.4975C180.763 56.6103 178.088 50.4273 178.088 50.4273C178.088 50.4273 177.435 47.3202 178.586 45.5803C176.346 42.5354 172.023 40.3294 172.023 40.3294L171.65 42.6597Z" fill="#C9784B"/>
<path d="M181.354 33.7735C181.354 33.7735 181.976 36.2281 181.914 38.403C181.914 38.403 183.811 40.6401 183.655 40.9197C183.469 41.1994 181.758 41.1683 181.758 41.1683C181.758 41.1683 183.624 45.7046 182.442 47.0406C181.261 48.3766 178.15 47.7552 174.729 44.0578C171.308 40.3294 170.686 36.9738 170.686 36.9738L172.552 32.9346L175.196 31.1326L178.804 30.7286L181.354 33.7735Z" fill="#DE8C56"/>
<path d="M178.337 31.6607C178.337 31.6607 180.234 33.525 181.261 33.6493C183.064 30.5111 185.677 22.8678 177.622 25.6642C175.787 24.0174 173.796 25.2292 172.303 29.1751C170.437 28.9887 168.633 31.9714 169.566 35.9485C166.363 34.6124 169.162 40.143 172.988 41.6654C173.392 42.4422 174.418 39.6148 171.868 37.067C174.667 35.4824 174.48 35.0474 175.351 32.1889C177.808 32.9346 178.337 31.6607 178.337 31.6607Z" fill="#181F29"/>
<path d="M179.923 37.8438C180.147 37.8438 180.328 37.5099 180.328 37.0981C180.328 36.6862 180.147 36.3524 179.923 36.3524C179.7 36.3524 179.519 36.6862 179.519 37.0981C179.519 37.5099 179.7 37.8438 179.923 37.8438Z" fill="#181F29"/>
<path d="M180.545 34.5192C180.763 33.9289 179.923 33.4318 178.741 33.6493C177.56 33.8978 176.471 34.8921 176.471 35.0474C176.471 35.2028 178.524 34.5503 178.99 34.4571C179.488 34.3949 180.514 34.6746 180.545 34.5192Z" fill="#181F29"/>
<path d="M181.416 43.4054C181.416 43.4054 179.084 43.8093 178.337 42.4422" stroke="black" stroke-width="1.0499" stroke-miterlimit="10"/>
<path d="M173.547 41.4168C173.547 41.4168 170.904 39.0866 170.095 40.8887C169.287 42.6907 173.236 44.3685 174.574 43.8714" fill="#DE8C56"/>
<path d="M173.641 42.9082C173.641 42.9082 172.832 41.8829 171.401 41.6343" stroke="black" stroke-width="1.0499" stroke-miterlimit="10"/>
<path d="M176.316 56.1131C176.316 56.1131 175.009 48.4077 170.842 45.3939C168.882 44.12 168.54 43.6229 168.198 44.0268C167.887 44.4618 168.136 48.8116 168.136 48.8116C168.136 48.8116 172.49 51.4526 176.316 56.1131Z" fill="#181F29"/>
<path d="M167.731 48.2523C167.731 48.2523 164.466 47.6931 162.88 48.7184C161.293 49.7748 158.059 56.1442 156.099 58.7231C154.14 61.3019 152.118 65.2479 152.118 65.2479L158.494 68.7588L163.688 64.7197C163.688 64.7197 168.042 55.2742 169.007 52.1672C169.971 49.0912 168.198 48.4077 167.731 48.2523Z" fill="#181F29"/>
<path d="M188.165 72.6426C188.165 72.6426 186.33 76.1846 184.62 77.241C184.62 77.241 185.055 78.4528 185.864 78.7324C186.672 79.012 188.165 72.6426 188.165 72.6426Z" fill="#AFB4BA"/>
<path d="M196.345 71.9901L195.599 71.058C195.599 71.058 188.445 70.5298 188.352 70.7473C188.259 70.9648 185.491 79.1674 185.397 79.5092C185.335 79.8509 186.175 80.9073 186.175 80.9073L196.345 71.9901Z" fill="white"/>
<path d="M196.687 71.9901C196.687 71.9901 195.443 80.9384 194.603 82.9269C192.271 83.424 185.864 81.9016 185.864 81.9016C185.864 81.9016 188.321 74.1029 189.005 71.6173C191.866 71.6173 196.687 71.9901 196.687 71.9901Z" fill="#257C7C"/>
<path d="M185.646 90.1352C185.646 90.1352 187.45 93.4908 187.232 100.016C187.015 106.54 189.098 142.862 188.321 146.435C184.558 145.813 178.493 144.788 171.339 145.596C164.186 146.404 161.014 146.901 161.014 146.901C161.014 146.901 158.868 123.878 160.112 115.178C161.356 106.509 158.836 94.4851 163.782 90.2906C170.717 87.0282 185.646 90.1352 185.646 90.1352Z" fill="#F06767"/>
<path d="M183.78 97.7786C183.78 97.7786 180.607 100.948 179.177 100.544C177.746 100.14 172.023 95.1687 165.958 94.4851C170.437 96.1318 174.48 98.4 177.653 101.507C173.889 99.2389 171.339 98.9593 171.339 98.9593C171.339 98.9593 177.062 104.241 179.177 103.713C181.292 103.247 183.78 97.7786 183.78 97.7786Z" fill="#E05A5A"/>
<path d="M180.483 108.467C180.483 108.467 176.626 104.272 169.908 102.004C171.961 103.744 180.483 108.467 180.483 108.467Z" fill="#E05A5A"/>
<path d="M181.105 117.943C181.105 117.943 172.459 134.846 170.313 134.908C172.49 127.016 181.105 117.943 181.105 117.943Z" fill="#E05A5A"/>
<path d="M174.294 53.8761C177.902 54.9635 181.665 61.2708 179.332 71.3998C177 81.5598 168.54 87.5564 161.169 85.4747C153.798 83.3619 159.396 64.6886 163.719 59.9037C170.593 52.2915 174.294 53.8761 174.294 53.8761Z" fill="#389BA0"/>
<path d="M175.476 54.5286C179.084 55.616 182.847 61.9233 180.514 72.0523C178.182 82.1812 169.722 88.2089 162.351 86.1272C154.98 84.0144 160.578 65.3411 164.901 60.5562C171.744 52.944 175.476 54.5286 175.476 54.5286Z" fill="#257C7C"/>
<path d="M164.963 66.0246C164.963 66.0246 165.99 63.3525 160.112 63.57C158.432 61.1155 154.638 61.3951 152.15 64.2536C149.692 67.1121 151.372 71.8969 153.362 72.6426C155.54 73.6058 155.508 72.6115 155.508 72.6115C155.508 72.6115 158.712 75.035 160.36 72.3008C162.537 69.4423 164.963 66.0246 164.963 66.0246Z" fill="#313F4F"/>
<path d="M185.802 72.1765L186.206 72.1455C186.206 72.1455 186.735 73.7611 186.61 74.0408C186.486 74.3515 185.211 73.4815 185.211 73.4815L185.802 72.1765Z" fill="white"/>
<path d="M179.426 62.7001C179.426 62.7001 185.273 69.1938 186.175 72.1455C186.05 72.8912 185.148 73.4815 185.148 73.4815C185.148 73.4815 180.39 65.9003 177.871 63.8497C178.057 62.8865 178.928 62.6069 179.426 62.7001Z" fill="#C1D3EA"/>
<path d="M159.707 72.4251C159.707 72.4251 157.655 71.4309 159.396 68.5413C161.138 65.6518 162.32 65.9625 163.999 66.3042C165.679 66.6149 175.538 69.1938 175.849 69.0695C177.871 67.0499 177.746 66.7703 180.359 66.8324C182.94 66.8946 183.562 66.8946 183.811 67.8888C183.811 67.8888 184.651 68.0131 184.837 69.1627C185.677 69.7841 185.584 70.592 185.584 70.592C185.584 70.592 186.019 70.8716 185.77 71.5551C185.522 72.2387 183.531 74.7865 181.385 75.0661C179.27 75.3457 177.28 74.0097 172.179 73.5747C167.047 73.1397 161.045 72.5805 159.707 72.4251Z" fill="#DE8C56"/>
<path d="M197.434 79.447C197.434 79.447 199.486 79.3228 199.891 80.3481C200.295 81.3423 200.419 83.828 198.398 84.5115C196.376 85.1951 192.488 85.599 189.098 84.2008C187.947 83.7037 189.316 83.4862 189.316 83.4862C189.316 83.4862 186.797 82.9891 187.792 82.3055C186.672 81.5598 186.237 80.7209 187.854 80.8763C186.859 80.2859 186.735 79.1674 190.28 79.5092C192.333 79.7267 193.546 79.5713 193.546 79.5713C193.546 79.5713 188.818 77.4275 189.036 76.775C189.254 76.1225 192.395 77.1789 193.888 77.7071C195.319 78.2974 197.434 79.447 197.434 79.447Z" fill="#DE8C56"/>
<path d="M189.036 81.0938C189.036 81.0938 190.902 81.4977 192.706 81.4355" stroke="#4C2F0D" stroke-width="1.0499" stroke-miterlimit="10"/>
<path d="M188.725 82.4608C188.725 82.4608 191.4 82.8959 192.644 82.8648" stroke="#4C2F0D" stroke-width="1.0499" stroke-miterlimit="10"/>
</svg>
