<svg width="319" height="134" viewBox="0 0 319 134" fill="none" xmlns="http://www.w3.org/2000/svg">
<path d="M297.422 17.0864C298.13 12.0412 302.483 8.17322 307.713 8.17322C312.944 8.17322 317.296 12.0412 318.005 17.0864H297.422Z" fill="#E3E3E3"/>
<path d="M286.085 17.0863C285.41 15.7073 285.039 14.1937 285.039 12.5793C285.039 6.86141 289.695 2.21985 295.431 2.21985C301.168 2.21985 305.824 6.86141 305.824 12.5793C305.824 14.1937 305.453 15.7409 304.778 17.0863H286.085Z" fill="#E3E3E3"/>
<path d="M271.913 17.0863C272.992 12.512 277.109 9.0813 282.035 9.0813C286.962 9.0813 291.078 12.512 292.158 17.0863H271.913Z" fill="#E3E3E3"/>
<path d="M167.782 10.3932C168.288 6.89517 171.291 4.17078 174.969 4.17078C178.614 4.17078 181.651 6.86154 182.157 10.3932H167.782Z" fill="#E3E3E3"/>
<path d="M159.92 10.3931C159.448 9.45131 159.212 8.375 159.212 7.23143C159.178 3.22892 162.417 0 166.433 0C170.448 0 173.687 3.22892 173.687 7.23143C173.687 8.375 173.417 9.41767 172.979 10.3931H159.92Z" fill="#E3E3E3"/>
<path d="M150 10.393C150.742 7.19774 153.61 4.80969 157.052 4.80969C160.494 4.80969 163.362 7.19774 164.104 10.393H150Z" fill="#E3E3E3"/>
<path d="M286.962 134C287.502 130.098 290.843 127.139 294.892 127.139C298.941 127.139 302.282 130.132 302.822 134H286.962Z" fill="#E3E3E3"/>
<path d="M278.223 134C277.717 132.957 277.413 131.78 277.413 130.502C277.413 126.096 280.99 122.497 285.444 122.497C289.898 122.497 293.475 126.096 293.475 130.502C293.475 131.747 293.171 132.924 292.665 134H278.223Z" fill="#E3E3E3"/>
<path d="M267.29 134C268.1 130.468 271.305 127.811 275.118 127.811C278.931 127.811 282.103 130.435 282.947 134H267.29Z" fill="#E3E3E3"/>
<path d="M287.873 40.5969C287.873 40.5969 284.026 40.1597 282.947 42.9849C282.947 42.9849 282.744 39.6215 278.864 39.2852" stroke="#205776" stroke-width="1.3021" stroke-miterlimit="10" stroke-linecap="round" stroke-linejoin="round"/>
<path d="M299.582 37.9399C299.582 37.9399 297.085 37.7044 296.478 39.2852C296.478 39.2852 296.478 37.1663 294.487 37.1663" stroke="#205776" stroke-width="1.3021" stroke-miterlimit="10" stroke-linecap="round" stroke-linejoin="round"/>
<path d="M305.487 46.3822C305.487 46.3822 302.922 46.0458 302.416 47.9966C302.416 47.9966 302.855 46.2813 300.392 46.0795" stroke="#205776" stroke-width="1.3021" stroke-miterlimit="10" stroke-linecap="round" stroke-linejoin="round"/>
<path d="M41.6515 46.1281L43.6157 44.6464L34.5131 32.6577L32.5489 34.1395L41.6515 46.1281Z" fill="#FA614F"/>
<path d="M25.5094 46.2475C25.5431 46.3148 25.6106 46.3484 25.6443 46.4157L48.5557 29.3966C48.522 29.3294 48.4882 29.2957 48.4207 29.2285C43.6967 22.9388 36.6108 20.7189 28.445 26.3359C28.2425 26.4704 28.0401 26.605 27.8714 26.7395C20.043 32.4574 20.9204 40.0924 25.5094 46.2475Z" fill="#FA452F"/>
<path d="M27.8373 44.2295C27.8711 44.2968 27.9385 44.3304 27.9723 44.3977L48.4541 29.1949C43.7302 22.9052 36.6442 20.6854 28.4784 26.3023C28.276 26.4369 28.0735 26.5714 27.9048 26.706C22.6072 32.1547 23.7544 38.7807 27.8373 44.2295Z" fill="#FA614F"/>
<path d="M46.9024 28.7913C44.5742 26.336 42.3809 24.8561 39.0066 24.2507C38.0618 24.0825 37.6569 25.4952 38.6017 25.697C41.7398 26.2688 43.6969 27.6141 45.8564 29.8677C46.5313 30.5403 47.5773 29.4977 46.9024 28.7913Z" fill="white"/>
<path d="M36.5768 25.2934C37.5216 25.2934 37.5216 23.8135 36.5768 23.8135C35.632 23.8135 35.632 25.2934 36.5768 25.2934Z" fill="white"/>
<path d="M79.1606 29.5313L99.1701 44.3977L102.072 46.5503C102.106 46.4831 102.173 46.4494 102.207 46.3822C106.931 40.0589 107.707 32.222 99.2713 26.4369C97.9891 25.5624 96.7069 24.8561 95.4921 24.3515C88.9123 21.6271 83.2435 24.0488 79.2956 29.3631C79.2281 29.4304 79.1944 29.4976 79.1606 29.5313Z" fill="#FA452F"/>
<path d="M79.1606 29.5312L99.1701 44.3977C103.692 38.1416 104.367 30.4393 96.032 24.7551C95.8296 24.6206 95.6609 24.486 95.4584 24.3851C88.8786 21.6607 83.2098 24.0824 79.2619 29.3967C79.2281 29.4303 79.1944 29.4976 79.1606 29.5312Z" fill="#FA614F"/>
<path d="M82.0289 29.5986C84.2221 27.3114 86.2467 25.9324 89.4185 25.3606C89.9584 25.2597 89.7222 24.4525 89.1823 24.5534C85.8418 25.1588 83.716 26.6051 81.4215 29.0268C81.0503 29.3968 81.6577 30.0022 82.0289 29.5986Z" fill="white"/>
<path d="M91.5445 25.2933C92.4893 25.2933 92.4893 23.8134 91.5445 23.8134C90.5659 23.8134 90.5659 25.2933 91.5445 25.2933Z" fill="white"/>
<path d="M94.1263 34.1307L92.1621 32.6489L83.0595 44.6375L85.0237 46.1193L94.1263 34.1307Z" fill="#FA614F"/>
<path d="M63.5038 118.797C86.6492 118.797 105.412 100.094 105.412 77.0232C105.412 53.952 86.6492 35.2491 63.5038 35.2491C40.3583 35.2491 21.5952 53.952 21.5952 77.0232C21.5952 100.094 40.3583 118.797 63.5038 118.797Z" fill="#FF6763"/>
<path d="M62.6266 39.7561H64.4149C66.5745 39.7561 68.3291 38.0071 68.3291 35.8545V34.0719C68.3291 31.9193 66.5745 30.1703 64.4149 30.1703H62.6266C60.467 30.1703 58.7124 31.9193 58.7124 34.0719V35.8545C58.7124 38.0071 60.467 39.7561 62.6266 39.7561Z" fill="#205776"/>
<path d="M21.5952 77.0231C21.5952 84.9272 23.7885 92.2932 27.6014 98.5828C34.9574 110.691 48.2858 118.797 63.5038 118.797C86.6513 118.797 105.412 100.096 105.412 77.0231C105.412 64.7801 100.148 53.7816 91.7127 46.1466C84.2556 39.3861 74.3689 35.249 63.47 35.249C40.3562 35.249 21.5952 53.9498 21.5952 77.0231Z" fill="#205776"/>
<path d="M99.6084 93.9414C102.038 88.7953 103.388 83.0774 103.388 77.0232" stroke="white" stroke-width="3.5296" stroke-miterlimit="10" stroke-linecap="round" stroke-linejoin="round"/>
<path d="M23.6196 77.0232C23.6196 78.9067 23.7546 80.7566 23.9908 82.5393C24.7331 87.9544 26.589 93.0332 29.3222 97.5403" stroke="white" stroke-width="3.5296" stroke-miterlimit="10" stroke-linecap="round" stroke-linejoin="round"/>
<path d="M90.3627 47.6266C87.0559 44.5995 83.2092 42.1442 78.9914 40.3615C74.2336 38.3435 69.0035 37.2335 63.5034 37.2335" stroke="white" stroke-width="3.5296" stroke-miterlimit="10" stroke-linecap="round" stroke-linejoin="round"/>
<path d="M28.0737 77.0232C28.0737 96.5312 43.9328 112.339 63.5037 112.339C83.0745 112.339 98.9336 96.5312 98.9336 77.0232C98.9336 57.5151 83.0745 41.7069 63.5037 41.7069C56.4177 41.7069 49.8378 43.7586 44.304 47.3239C34.5523 53.6472 28.0737 64.5784 28.0737 77.0232Z" fill="#F5F5F5"/>
<path d="M30.2671 74.9379C30.2671 93.0669 44.8102 107.765 62.7614 107.765C80.7126 107.765 95.2557 93.0669 95.2557 74.9379C95.2557 56.8089 80.7126 42.1106 62.7614 42.1106C56.2828 42.1106 50.2091 44.0278 45.1477 47.3576C36.1721 53.21 30.2671 63.3676 30.2671 74.9379Z" fill="white"/>
<g opacity="0.32">
<path opacity="0.32" d="M44.3042 47.3575L46.8349 51.2591L48.3533 53.6135L63.5376 77.0568V41.7069C56.4179 41.7069 49.838 43.7923 44.3042 47.3575Z" fill="#FA614F"/>
</g>
<path d="M63.5041 49.1064C64.2868 49.1064 64.9213 48.474 64.9213 47.6938C64.9213 46.9136 64.2868 46.2811 63.5041 46.2811C62.7214 46.2811 62.0869 46.9136 62.0869 47.6938C62.0869 48.474 62.7214 49.1064 63.5041 49.1064Z" fill="#205776"/>
<path d="M47.8137 53.6471C48.5964 53.6471 49.2309 53.0146 49.2309 52.2344C49.2309 51.4542 48.5964 50.8218 47.8137 50.8218C47.031 50.8218 46.3965 51.4542 46.3965 52.2344C46.3965 53.0146 47.031 53.6471 47.8137 53.6471Z" fill="#205776"/>
<path d="M37.3869 64.7464C38.1696 64.7464 38.8041 64.114 38.8041 63.3338C38.8041 62.5536 38.1696 61.9211 37.3869 61.9211C36.6042 61.9211 35.9697 62.5536 35.9697 63.3338C35.9697 64.114 36.6042 64.7464 37.3869 64.7464Z" fill="#205776"/>
<path d="M33.8777 79.344C34.6603 79.344 35.2948 78.7115 35.2948 77.9313C35.2948 77.1511 34.6603 76.5187 33.8777 76.5187C33.095 76.5187 32.4604 77.1511 32.4604 77.9313C32.4604 78.7115 33.095 79.344 33.8777 79.344Z" fill="#205776"/>
<path d="M38.3317 93.9413C39.1144 93.9413 39.7489 93.3088 39.7489 92.5286C39.7489 91.7484 39.1144 91.116 38.3317 91.116C37.549 91.116 36.9146 91.7484 36.9146 92.5286C36.9146 93.3088 37.549 93.9413 38.3317 93.9413Z" fill="#205776"/>
<path d="M49.4328 104.301C50.2155 104.301 50.85 103.668 50.85 102.888C50.85 102.108 50.2155 101.475 49.4328 101.475C48.6501 101.475 48.0156 102.108 48.0156 102.888C48.0156 103.668 48.6501 104.301 49.4328 104.301Z" fill="#205776"/>
<path d="M79.194 53.6471C79.9767 53.6471 80.6112 53.0146 80.6112 52.2344C80.6112 51.4542 79.9767 50.8218 79.194 50.8218C78.4114 50.8218 77.7769 51.4542 77.7769 52.2344C77.7769 53.0146 78.4114 53.6471 79.194 53.6471Z" fill="#205776"/>
<path d="M89.6545 64.7464C90.4372 64.7464 91.0717 64.114 91.0717 63.3338C91.0717 62.5536 90.4372 61.9211 89.6545 61.9211C88.8718 61.9211 88.2373 62.5536 88.2373 63.3338C88.2373 64.114 88.8718 64.7464 89.6545 64.7464Z" fill="#205776"/>
<path d="M93.1296 79.344C93.9123 79.344 94.5468 78.7115 94.5468 77.9313C94.5468 77.1511 93.9123 76.5187 93.1296 76.5187C92.3469 76.5187 91.7124 77.1511 91.7124 77.9313C91.7124 78.7115 92.3469 79.344 93.1296 79.344Z" fill="#205776"/>
<path d="M88.676 93.9413C89.4587 93.9413 90.0932 93.3088 90.0932 92.5286C90.0932 91.7484 89.4587 91.116 88.676 91.116C87.8933 91.116 87.2588 91.7484 87.2588 92.5286C87.2588 93.3088 87.8933 93.9413 88.676 93.9413Z" fill="#205776"/>
<path d="M77.5744 104.301C78.3571 104.301 78.9916 103.668 78.9916 102.888C78.9916 102.108 78.3571 101.475 77.5744 101.475C76.7917 101.475 76.1572 102.108 76.1572 102.888C76.1572 103.668 76.7917 104.301 77.5744 104.301Z" fill="#205776"/>
<path d="M63.5041 107.765C64.2868 107.765 64.9213 107.133 64.9213 106.352C64.9213 105.572 64.2868 104.94 63.5041 104.94C62.7214 104.94 62.0869 105.572 62.0869 106.352C62.0869 107.133 62.7214 107.765 63.5041 107.765Z" fill="#205776"/>
<path d="M63.504 79.9495C65.1253 79.9495 66.4396 78.6394 66.4396 77.0233C66.4396 75.4072 65.1253 74.097 63.504 74.097C61.8827 74.097 60.5684 75.4072 60.5684 77.0233C60.5684 78.6394 61.8827 79.9495 63.504 79.9495Z" fill="#FA614F"/>
<path d="M96.4707 118.797C97.5167 111.33 103.962 105.579 111.756 105.579C119.551 105.579 125.962 111.33 127.042 118.797H96.4707Z" fill="#E3E3E3"/>
<path d="M79.7006 118.797C78.7221 116.779 78.1484 114.492 78.1484 112.104C78.1484 103.628 85.0657 96.7329 93.5689 96.7329C102.072 96.7329 108.989 103.628 108.989 112.104C108.989 114.492 108.449 116.779 107.437 118.797H79.7006Z" fill="#E3E3E3"/>
<path d="M58.645 118.797C60.2309 112.003 66.3384 106.924 73.6606 106.924C80.9827 106.924 87.0902 112.003 88.6761 118.797H58.645Z" fill="#E3E3E3"/>
<path d="M37.8257 118.797C38.8717 111.33 45.3166 105.579 53.1112 105.579C60.9057 105.579 67.3169 111.33 68.3966 118.797H37.8257Z" fill="#E3E3E3"/>
<path d="M21.0214 118.797C20.0429 116.779 19.4692 114.492 19.4692 112.104C19.4692 103.628 26.3865 96.7329 34.8897 96.7329C43.3929 96.7329 50.3101 103.628 50.3101 112.104C50.3101 114.492 49.7703 116.779 48.758 118.797H21.0214Z" fill="#E3E3E3"/>
<path d="M0 118.797C1.58591 112.003 7.69335 106.924 15.0155 106.924C22.3377 106.924 28.4452 112.003 30.0311 118.797H0Z" fill="#E3E3E3"/>
<path d="M63.4367 52.2344V76.5185L49.8721 55.9678" stroke="#FA614F" stroke-width="2.6472" stroke-miterlimit="10" stroke-linecap="round" stroke-linejoin="round"/>
</svg>
