<svg width="60" height="60" viewBox="0 0 60 60" fill="none" xmlns="http://www.w3.org/2000/svg">
<path d="M25.4543 41.4125C24.5529 40.4765 23.3869 39.7853 22.0528 39.4656L17.2314 38.3102L17.2294 38.3134L17.2314 38.3102V35.3668H11.3436V38.3197L6.53473 39.4685C3.39023 40.2197 1.17188 43.0302 1.17188 46.2631V54.1406H11.8315L25.4543 41.4125Z" fill="#78D2FA"/>
<path d="M17.3578 35.3668V38.3897L14.3023 45.7086L11.25 38.4001V35.3668H17.3578Z" fill="#FFB487"/>
<path d="M20.854 25.2259V29.3029C20.854 32.9272 17.9157 35.8654 14.2913 35.8654C10.6668 35.8654 7.72852 32.9272 7.72852 29.3029V25.2259H20.854Z" fill="#FFCDAC"/>
<path d="M20.854 26.5155V24.9357C20.854 21.3114 17.9157 18.3732 14.2913 18.3732C10.6668 18.3732 7.72852 21.3114 7.72852 24.9357V26.5155H12.2523C15.0852 26.5155 17.865 25.7464 20.295 24.2904" fill="#878791"/>
<path d="M34.5459 41.4125C35.4473 40.4765 36.6133 39.7853 37.9474 39.4656L42.7688 38.3102L42.7708 38.3134L42.7688 38.3102V35.3668H48.6566V38.3197L53.4655 39.4685C56.61 40.2197 58.8283 43.0302 58.8283 46.2631V54.1406H48.1687L34.5459 41.4125Z" fill="#A5DC69"/>
<path d="M25.893 41.2972L19.1774 42.9064C14.8007 43.9552 11.7144 47.8685 11.7144 52.3689V58.8281H48.2616V52.3746C48.2616 47.8715 45.1719 43.9567 40.7919 42.9104L34.0938 41.3103L25.893 41.2972Z" fill="#FF5A5A"/>
<path d="M48.7499 35.3668V38.4001L45.6976 45.7086L42.6421 38.3897V35.3668H48.7499Z" fill="#FFB487"/>
<path d="M30.0013 50.7115L34.3736 40.7848C34.0491 40.2399 33.8642 39.6057 33.8642 38.9342V37.98H26.1338V38.9343C26.1338 39.6046 25.9495 40.2379 25.626 40.7822L30.0013 50.7115Z" fill="#FFB487"/>
<path d="M39.1406 22.4443V28.7512C39.1406 33.7994 35.0482 37.892 30 37.892C24.9518 37.892 20.8594 33.7996 20.8594 28.7512V22.4443H39.1406Z" fill="#FFCDAC"/>
<path d="M30.0001 13.5278C24.9518 13.5278 20.8594 17.6202 20.8594 22.6684V24.8688H25.3286C28.2994 24.8688 31.1179 23.5534 33.0259 21.2763L39.1406 24.8688V22.6684C39.1409 17.6202 35.0484 13.5278 30.0001 13.5278Z" fill="#F5B955"/>
<path d="M39.146 25.2259V29.3029C39.146 32.9272 42.0842 35.8654 45.7087 35.8654C49.3332 35.8654 52.2715 32.9272 52.2715 29.3029V25.2259H39.146Z" fill="#FFCDAC"/>
<path d="M39.146 26.5155V24.9357C39.146 21.3114 42.0842 18.3732 45.7087 18.3732C49.3332 18.3732 52.2715 21.3114 52.2715 24.9357V26.5155H47.7477C44.9148 26.5155 42.135 25.7464 39.705 24.2904" fill="#878791"/>
<path d="M29.9697 57.6562C29.6614 57.6562 29.3591 57.7816 29.1412 57.9996C28.9232 58.2176 28.7979 58.5199 28.7979 58.8281C28.7979 59.1363 28.9231 59.4387 29.1412 59.6566C29.3591 59.8746 29.6614 60 29.9697 60C30.2779 60 30.5803 59.8746 30.7981 59.6566C31.0161 59.4387 31.1416 59.1363 31.1416 58.8281C31.1416 58.5199 31.0162 58.2176 30.7981 57.9996C30.5803 57.7816 30.2779 57.6562 29.9697 57.6562Z" fill="black"/>
<path d="M53.7375 38.3286L49.8284 37.3948V35.8441C51.9982 34.4727 53.4434 32.0541 53.4434 29.303V24.9357C53.4434 20.6709 49.9737 17.2014 45.7088 17.2014C43.4081 17.2014 41.3401 18.2122 39.922 19.8117C38.6801 15.5106 34.7078 12.3559 30.0122 12.3559H30.0121C25.3089 12.3559 21.3312 15.5205 20.0961 19.8322C18.6777 18.2209 16.6021 17.2014 14.2916 17.2014C10.0267 17.2014 6.55699 20.6711 6.55699 24.9357V29.303C6.55699 32.0542 8.00215 34.4728 10.172 35.8441V37.3948L6.26285 38.3286C2.57531 39.2094 0 42.4723 0 46.2632V54.1406C0 54.7878 0.524766 55.3125 1.17188 55.3125H10.5425V58.8281C10.5425 59.4753 11.0673 60 11.7144 60H24.5704C25.2175 60 25.7422 59.4753 25.7422 58.8281C25.7422 58.1809 25.2175 57.6562 24.5704 57.6562H19.3388V52.4986C19.3388 51.8514 18.814 51.3267 18.1669 51.3267C17.5198 51.3267 16.995 51.8514 16.995 52.4986V57.6562H12.8862V52.369C12.8862 48.3947 15.5855 44.9722 19.4504 44.0461L25.2141 42.6649L28.9226 51.1019C29.1096 51.5275 29.5304 51.8023 29.9952 51.8023H29.9953C30.4601 51.8023 30.881 51.5276 31.068 51.1021L34.7728 42.6773L40.5197 44.0502C44.3882 44.9742 47.0898 48.3974 47.0898 52.3745V53.6822C47.0299 53.823 46.9966 53.9778 46.9966 54.1405C46.9966 54.3032 47.0299 54.4581 47.0898 54.5988V57.6562H43.005V52.4986C43.005 51.8514 42.4802 51.3267 41.8331 51.3267C41.186 51.3267 40.6613 51.8514 40.6613 52.4986V57.6562H34.922C34.2749 57.6562 33.7501 58.1809 33.7501 58.8281C33.7501 59.4753 34.2749 60 34.922 60H48.2617C48.9088 60 49.4336 59.4753 49.4336 58.8281V55.3125H58.8281C59.4752 55.3125 60 54.7878 60 54.1406V46.2632C60 42.4723 57.4247 39.2094 53.7375 38.3286ZM47.4872 38.383L45.698 42.6673L43.9329 38.4394C43.9376 38.3968 43.941 38.3541 43.941 38.3112C43.941 38.3003 43.9409 38.2893 43.9405 38.2784V36.8311C44.5089 36.9646 45.1002 37.0373 45.7086 37.0373C46.3198 37.0373 46.9139 36.9639 47.4845 36.8292V38.3196C47.4845 38.3409 47.486 38.3619 47.4872 38.383ZM24.7211 39.3244C23.9854 38.868 23.1782 38.5302 22.326 38.3261L18.4032 37.3861V35.8492C19.3788 35.2343 20.2075 34.4079 20.8252 33.4343C21.7086 35.1603 23.0646 36.6057 24.7211 37.6V39.3244ZM22.043 28.7514V26.0408H25.3404C28.3315 26.0408 31.1664 24.8586 33.2607 22.7665L37.9741 25.5355V29.0264C37.8284 33.2933 34.314 36.7202 30.0121 36.7202C25.6178 36.7201 22.043 33.1453 22.043 28.7514ZM35.2657 37.622C36.9323 36.6312 38.2978 35.1847 39.1881 33.4549C39.8045 34.4195 40.6282 35.2385 41.5968 35.8492V37.3861L37.674 38.3261C36.8167 38.5315 36.0049 38.8724 35.2656 39.3329V37.622H35.2657ZM45.7086 34.6936C42.7362 34.6936 40.3178 32.2753 40.3178 29.303V29.1117C40.3219 28.9921 40.3248 25.9608 40.3248 25.9608C42.6286 27.0937 45.1684 27.6875 47.7477 27.6875H51.0996V29.3031C51.0995 32.2754 48.6811 34.6936 45.7086 34.6936ZM45.7086 19.5451C48.6811 19.5451 51.0995 21.9634 51.0995 24.9357V25.2259V25.3437H47.7476C45.2156 25.3437 42.7276 24.6789 40.5349 23.4187C41.1919 21.1826 43.2626 19.5451 45.7086 19.5451ZM22.043 22.6685C22.043 18.2745 25.6179 14.6998 30.0121 14.6998C34.4061 14.6998 37.9811 18.2746 37.9811 22.6685V22.8213L33.6316 20.2661C33.1382 19.976 32.5075 20.0851 32.1398 20.5237C30.45 22.5403 27.9717 23.697 25.3405 23.697H22.043V22.6685ZM8.90051 24.9357C8.90051 21.9633 11.3189 19.5451 14.2914 19.5451C16.7374 19.5451 18.8081 21.1826 19.465 23.4189C17.2723 24.6789 14.7844 25.3438 12.2523 25.3438H8.90051V25.226V24.9357ZM8.90051 27.6874H12.2524C14.8343 27.6874 17.3767 27.0926 19.6822 25.9574V29.303C19.6822 32.2754 17.2638 34.6936 14.2914 34.6936C11.3189 34.6936 8.90051 32.2753 8.90051 29.303V27.6874ZM14.2914 37.0373C14.8998 37.0373 15.4911 36.9644 16.0595 36.8311V38.2455C16.0582 38.2676 16.0576 38.2896 16.0576 38.3116C16.0576 38.3486 16.0611 38.3852 16.0646 38.4219L14.2916 42.6673L12.5119 38.4041C12.5139 38.3761 12.5155 38.3481 12.5155 38.3197V36.8293C13.0861 36.9639 13.6802 37.0373 14.2914 37.0373ZM10.5425 52.369V52.9687H7.03125V47.7622C7.03125 47.115 6.50648 46.5904 5.85938 46.5904C5.21227 46.5904 4.6875 47.115 4.6875 47.7622V52.9687H2.34375V46.2632C2.34375 43.5614 4.17914 41.236 6.80707 40.6083L10.5217 39.7208L12.9461 45.528C11.4298 47.4117 10.5425 49.7993 10.5425 52.369ZM18.9043 41.7669C18.2123 41.9327 17.5511 42.1635 16.9232 42.448L18.0646 39.715L21.7798 40.6052C22.0679 40.6743 22.3487 40.7655 22.6205 40.8764L18.9043 41.7669ZM29.9955 47.7186L27.0648 41.051V38.6341C27.999 38.9133 28.9882 39.0639 30.012 39.0639C31.0221 39.0639 31.9986 38.9171 32.9218 38.6452V41.064L29.9955 47.7186ZM37.3581 40.8853C37.6365 40.7705 37.9245 40.6761 38.2202 40.6052L41.9264 39.7172L43.0725 42.4624C42.4365 42.1727 41.7661 41.9385 41.0641 41.7708L37.3581 40.8853ZM57.6562 52.9687H55.3125V47.7622C55.3125 47.115 54.7877 46.5904 54.1406 46.5904C53.4935 46.5904 52.9688 47.115 52.9688 47.7622V52.9687H49.4336V52.3746C49.4336 49.8083 48.5493 47.424 47.0373 45.542L49.4693 39.7187L53.1929 40.6083C55.8209 41.236 57.6562 43.5614 57.6562 46.2632V52.9687Z" fill="black"/>
<path d="M26.0698 27.0996C25.7616 27.0996 25.4593 27.225 25.2413 27.443C25.0233 27.6609 24.8979 27.9633 24.8979 28.2715C24.8979 28.5797 25.0232 28.882 25.2413 29.1C25.4594 29.318 25.7616 29.4434 26.0698 29.4434C26.3792 29.4434 26.6804 29.318 26.8982 29.1C27.1174 28.882 27.2417 28.5797 27.2417 28.2715C27.2417 27.9633 27.1174 27.6609 26.8982 27.443C26.6804 27.225 26.378 27.0996 26.0698 27.0996Z" fill="black"/>
<path d="M33.9058 29.4434C34.214 29.4434 34.5163 29.318 34.7342 29.1C34.9533 28.882 35.0776 28.5797 35.0776 28.2715C35.0776 27.9633 34.9533 27.6609 34.7342 27.443C34.5163 27.225 34.214 27.0996 33.9058 27.0996C33.5976 27.0996 33.2952 27.225 33.0772 27.443C32.8593 27.6609 32.7339 27.9633 32.7339 28.2715C32.7339 28.5797 32.8592 28.882 33.0772 29.1C33.2953 29.318 33.5976 29.4434 33.9058 29.4434Z" fill="black"/>
<path d="M32.2556 31.3877C31.7979 30.9301 31.0561 30.9301 30.5983 31.3877C30.2517 31.7342 29.6879 31.7342 29.3414 31.3877C28.8837 30.9301 28.1419 30.9301 27.684 31.3877C27.2264 31.8453 27.2264 32.5873 27.684 33.0451C28.3143 33.6752 29.142 33.9903 29.9698 33.9903C30.7976 33.9903 31.6253 33.6753 32.2555 33.0451C32.7133 32.5873 32.7133 31.8453 32.2556 31.3877Z" fill="black"/>
<path d="M47.6509 8.67188H48.4547C49.1018 8.67188 49.6265 8.14723 49.6265 7.5C49.6265 6.85277 49.1018 6.32812 48.4547 6.32812H47.6509C47.0038 6.32812 46.479 6.85277 46.479 7.5C46.479 8.14723 47.0038 8.67188 47.6509 8.67188Z" fill="black"/>
<path d="M53.3369 8.67188H54.1407C54.7878 8.67188 55.3126 8.14723 55.3126 7.5C55.3126 6.85277 54.7878 6.32812 54.1407 6.32812H53.3369C52.6898 6.32812 52.165 6.85277 52.165 7.5C52.165 8.14723 52.6897 8.67188 53.3369 8.67188Z" fill="black"/>
<path d="M50.896 11.9167C51.5431 11.9167 52.0679 11.3921 52.0679 10.7449V9.94109C52.0679 9.29386 51.5431 8.76921 50.896 8.76921C50.2489 8.76921 49.7241 9.29386 49.7241 9.94109V10.7449C49.7241 11.3921 50.2488 11.9167 50.896 11.9167Z" fill="black"/>
<path d="M50.896 6.2307C51.5431 6.2307 52.0679 5.70605 52.0679 5.05882V4.25504C52.0679 3.60781 51.5431 3.08316 50.896 3.08316C50.2489 3.08316 49.7241 3.60781 49.7241 4.25504V5.05882C49.7241 5.70605 50.2488 6.2307 50.896 6.2307Z" fill="black"/>
<path d="M5.79395 8.67188H6.59762C7.24473 8.67188 7.76949 8.14723 7.76949 7.5C7.76949 6.85277 7.24473 6.32812 6.59762 6.32812H5.79395C5.14684 6.32812 4.62207 6.85277 4.62207 7.5C4.62207 8.14723 5.14684 8.67188 5.79395 8.67188Z" fill="black"/>
<path d="M11.48 8.67188H12.2837C12.9308 8.67188 13.4555 8.14723 13.4555 7.5C13.4555 6.85277 12.9308 6.32812 12.2837 6.32812H11.48C10.8329 6.32812 10.3081 6.85277 10.3081 7.5C10.3081 8.14723 10.8328 8.67188 11.48 8.67188Z" fill="black"/>
<path d="M9.03906 11.9167C9.68617 11.9167 10.2109 11.3921 10.2109 10.7449V9.94109C10.2109 9.29386 9.68617 8.76921 9.03906 8.76921C8.39195 8.76921 7.86719 9.29386 7.86719 9.94109V10.7449C7.86719 11.3921 8.39184 11.9167 9.03906 11.9167Z" fill="black"/>
<path d="M9.03906 6.2307C9.68617 6.2307 10.2109 5.70605 10.2109 5.05882V4.25504C10.2109 3.60781 9.68617 3.08316 9.03906 3.08316C8.39195 3.08316 7.86719 3.60781 7.86719 4.25504V5.05882C7.86719 5.70605 8.39184 6.2307 9.03906 6.2307Z" fill="black"/>
<path d="M30 9.89024C30.6471 9.89024 31.1719 9.36559 31.1719 8.71837V5.63516C31.1719 4.98794 30.6471 4.46329 30 4.46329C29.3529 4.46329 28.8281 4.98794 28.8281 5.63516V8.71837C28.8281 9.36559 29.3529 9.89024 30 9.89024Z" fill="black"/>
<path d="M30 2.34375C30.3082 2.34375 30.6105 2.21836 30.8284 2.00039C31.0465 1.78242 31.1719 1.48008 31.1719 1.17188C31.1719 0.863672 31.0465 0.561328 30.8284 0.343359C30.6105 0.125391 30.3082 0 30 0C29.6918 0 29.3895 0.125391 29.1715 0.343359C28.9534 0.561328 28.8281 0.863672 28.8281 1.17188C28.8281 1.48008 28.9534 1.78242 29.1715 2.00039C29.3896 2.21836 29.6918 2.34375 30 2.34375Z" fill="black"/>
<path d="M24.236 6.35883C24.4649 6.5877 24.7647 6.70207 25.0646 6.70207C25.3645 6.70207 25.6644 6.5877 25.8933 6.35883C26.3509 5.90121 26.3509 5.15918 25.8933 4.70145L24.1783 2.98652C23.7206 2.52891 22.9788 2.52891 22.5209 2.98652C22.0633 3.44414 22.0633 4.18617 22.5209 4.64391L24.236 6.35883Z" fill="black"/>
<path d="M34.878 6.69492C35.178 6.69492 35.4778 6.58055 35.7066 6.35168L37.4789 4.57945C37.9365 4.12184 37.9365 3.3798 37.4789 2.92207C37.0211 2.46445 36.2793 2.46445 35.8215 2.92207L34.0493 4.6943C33.5917 5.15191 33.5917 5.89395 34.0493 6.35168C34.2783 6.58055 34.578 6.69492 34.878 6.69492Z" fill="black"/>
</svg>
