<svg width="44" height="44" viewBox="0 0 44 44" fill="none" xmlns="http://www.w3.org/2000/svg">
<path d="M43.2953 21.6308C43.2953 25.9368 42.0506 29.9401 39.8976 33.3041C36.1636 39.1239 29.7046 43.0599 22.3373 43.2617C22.1355 43.2617 21.9 43.2617 21.6981 43.2617C21.4626 43.2617 21.2608 43.2617 21.059 43.2617C13.288 43.0262 6.52626 38.6866 2.89308 32.3285C1.04286 29.2 0 25.5331 0 21.6308C0 9.68847 9.68847 0 21.6308 0C33.6069 0 43.2953 9.68847 43.2953 21.6308Z" fill="#F2F2F2"/>
<path d="M39.8644 33.3041C36.1303 39.1239 29.6713 43.0598 22.304 43.2617H20.992C13.2211 43.0262 6.45935 38.6866 2.82617 32.3285C3.49898 31.1847 4.30635 30.1082 5.18101 29.1327C7.30036 26.7778 10.799 26.1723 13.5239 27.787C15.7441 29.099 18.3344 29.8391 21.0593 29.8391C23.7842 29.8391 26.4082 29.099 28.5948 27.787C31.3533 26.1723 34.8519 26.7778 36.9376 29.1327C38.1151 30.411 39.0906 31.8239 39.8644 33.3041Z" fill="#F06767"/>
<path d="M21.0928 26.9124C26.9638 26.9124 31.7232 22.153 31.7232 16.282C31.7232 10.411 26.9638 5.65161 21.0928 5.65161C15.2218 5.65161 10.4624 10.411 10.4624 16.282C10.4624 22.153 15.2218 26.9124 21.0928 26.9124Z" fill="#F06767"/>
</svg>
