<svg width="28" height="29" viewBox="0 0 28 29" fill="none" xmlns="http://www.w3.org/2000/svg">
<path d="M7.57739 17.5941L7.57846 17.5948C9.40838 18.6761 11.5419 19.2852 13.7838 19.2852C16.0202 19.2852 18.1802 18.6789 19.99 17.5943C21.655 16.6225 23.7739 16.986 25.0389 18.4141L25.0453 18.4214L25.0519 18.4286C25.7429 19.1788 26.3362 19.9963 26.8312 20.8537C24.1404 24.7146 19.7196 27.2907 14.7109 27.4323H13.7484C8.4494 27.2666 3.81026 24.4115 1.17027 20.1767C1.57356 19.5581 2.03235 18.968 2.5241 18.4194C3.82126 16.9787 5.94499 16.6268 7.57739 17.5941Z" stroke="#F06767" stroke-width="2"/>
<path d="M20.8456 8.03633C20.8456 11.9224 17.6953 15.0727 13.8093 15.0727C9.92322 15.0727 6.77295 11.9224 6.77295 8.03633C6.77295 4.15027 9.92322 1 13.8093 1C17.6953 1 20.8456 4.15027 20.8456 8.03633Z" stroke="#F06767" stroke-width="2"/>
</svg>
