<svg width="60" height="60" viewBox="0 0 60 60" fill="none" xmlns="http://www.w3.org/2000/svg">
<path d="M30 59.0625C46.0508 59.0625 59.0625 46.0508 59.0625 30C59.0625 13.9492 46.0508 0.9375 30 0.9375C13.9492 0.9375 0.9375 13.9492 0.9375 30C0.9375 46.0508 13.9492 59.0625 30 59.0625Z" fill="#FF5876"/>
<path d="M30 56.9531C14.3025 56.9531 1.51395 44.5072 0.958594 28.9453C0.946055 29.2955 0.9375 29.6468 0.9375 30C0.9375 46.0508 13.9492 59.0625 30 59.0625C46.0508 59.0625 59.0625 46.0508 59.0625 30C59.0625 29.6468 59.0539 29.2955 59.0414 28.9453C58.4861 44.5072 45.6975 56.9531 30 56.9531Z" fill="#E6485D"/>
<path d="M30 54.251C43.3935 54.251 54.2511 43.3935 54.2511 30C54.2511 16.6065 43.3935 5.74897 30 5.74897C16.6066 5.74897 5.74902 16.6065 5.74902 30C5.74902 43.3935 16.6066 54.251 30 54.251Z" fill="#E4EEF9"/>
<path d="M30.0002 52.1416C16.9602 52.1416 6.3257 41.8493 5.77328 28.9453C5.75828 29.2951 5.74902 29.6464 5.74902 30C5.74902 43.3935 16.6066 54.251 30 54.251C43.3935 54.251 54.2512 43.3935 54.2512 30C54.2512 29.6464 54.2419 29.2951 54.2269 28.9453C53.6746 41.8493 43.0401 52.1416 30.0002 52.1416Z" fill="#D5E0F2"/>
<path d="M38.8087 21.4913C38.1174 20.8095 37.0045 20.8173 36.3228 21.5084L30.8022 27.1054C32.0353 27.4465 32.9496 28.5537 33.0007 29.8829L38.8257 23.9772C39.5075 23.286 39.4999 22.173 38.8087 21.4913Z" fill="#405B6C"/>
<path d="M26.9962 30C26.9962 28.6945 27.8293 27.5839 28.9926 27.1698L18.1573 17.5139C17.4323 16.8679 16.3213 16.9319 15.6755 17.6567C15.0296 18.3815 15.0935 19.4927 15.8183 20.1385L26.9988 30.1019C26.9976 30.068 26.9962 30.0342 26.9962 30Z" fill="#405B6C"/>
<path d="M30 33.0038C31.659 33.0038 33.0038 31.659 33.0038 30C33.0038 28.341 31.659 26.9961 30 26.9961C28.341 26.9961 26.9961 28.341 26.9961 30C26.9961 31.659 28.341 33.0038 30 33.0038Z" fill="#FF5876"/>
<path d="M25.3569 28.6391L26.9985 30.102C26.9973 30.068 26.9959 30.0342 26.9959 30C26.9959 28.6945 27.829 27.584 28.9923 27.1698L27.5117 25.8503C26.4813 26.4694 25.7016 27.4613 25.3569 28.6391Z" fill="#2D4456"/>
<path d="M32.1979 25.6903L30.8022 27.1054C32.0353 27.4465 32.9496 28.5537 33.0007 29.8828L34.5391 28.3231C34.1165 27.1793 33.2734 26.2401 32.1979 25.6903Z" fill="#2D4456"/>
<path d="M30.0001 30.8946C28.7123 30.8946 27.6141 30.084 27.187 28.9453C27.0638 29.2736 26.9961 29.6288 26.9961 30C26.9961 31.659 28.3411 33.004 30 33.004C31.659 33.004 33.0039 31.659 33.0039 30C33.0039 29.6288 32.9362 29.2736 32.813 28.9453C32.386 30.0839 31.2879 30.8946 30.0001 30.8946Z" fill="#E6485D"/>
<path d="M51.2133 8.78672C45.5469 3.12059 38.0134 0 30 0C21.9866 0 14.4531 3.12059 8.78672 8.78672C3.12047 14.4531 0 21.9867 0 30C0 37.695 2.90953 45.0116 8.19246 50.6018C8.52656 50.9554 9.08402 50.9709 9.43734 50.637C9.7909 50.3028 9.8066 49.7455 9.4725 49.3921C4.49977 44.1301 1.76121 37.2432 1.76121 30C1.76121 22.4571 4.69852 15.3657 10.0321 10.0322C15.3657 4.69852 22.4571 1.76121 30 1.76121C37.5429 1.76121 44.6343 4.69852 49.9678 10.0322C55.3014 15.3657 58.2387 22.4571 58.2387 30C58.2387 37.5429 55.3013 44.6343 49.9678 49.9678C44.6343 55.3015 37.5429 58.2388 30 58.2388C23.4245 58.2388 17.0221 55.9295 11.9721 51.7364C11.5979 51.4257 11.0428 51.4772 10.732 51.8514C10.4214 52.2255 10.4729 52.7808 10.847 53.0914C16.2124 57.5464 23.0143 60 30 60C38.0134 60 45.5469 56.8794 51.2133 51.2133C56.8795 45.5469 60 38.0133 60 30C60 21.9867 56.8795 14.4531 51.2133 8.78672Z" fill="black"/>
<path d="M47.2236 12.8381C47.5556 12.4827 47.5365 11.9253 47.181 11.5935C42.5042 7.226 36.4025 4.82084 29.9999 4.82084C23.2744 4.82084 16.9513 7.43987 12.1956 12.1957C7.43994 16.9515 4.8208 23.2744 4.8208 30C4.8208 36.7256 7.43982 43.0486 12.1956 47.8044C16.9515 52.5602 23.2744 55.1791 29.9999 55.1791C36.7254 55.1791 43.0485 52.5601 47.8044 47.8044C52.5602 43.0487 55.1791 36.7256 55.1791 30C55.1791 24.2192 53.2737 18.7828 49.6689 14.2786C49.3649 13.8988 48.8108 13.8372 48.4311 14.1412C48.0514 14.4451 47.99 14.9993 48.2938 15.379C51.646 19.5676 53.4178 24.6234 53.4178 30C53.4178 42.9126 42.9125 53.4179 29.9998 53.4179C17.0872 53.4179 6.58201 42.9126 6.58201 30C6.58201 17.0873 17.0873 6.58205 29.9999 6.58205C35.9546 6.58205 41.6294 8.81893 45.9789 12.8806C46.3346 13.2129 46.8919 13.1935 47.2236 12.8381Z" fill="black"/>
<path d="M30.8805 11.5604V8.83261C30.8805 8.34628 30.4862 7.95195 29.9998 7.95195C29.5134 7.95195 29.1191 8.34628 29.1191 8.83261V11.5603C29.1191 12.0466 29.5134 12.4409 29.9998 12.4409C30.4862 12.4409 30.8805 12.0467 30.8805 11.5604Z" fill="black"/>
<path d="M29.1191 48.4396V51.1673C29.1191 51.6536 29.5134 52.0479 29.9998 52.0479C30.4862 52.0479 30.8805 51.6536 30.8805 51.1673V48.4396C30.8805 47.9533 30.4862 47.559 29.9998 47.559C29.5134 47.559 29.1191 47.9533 29.1191 48.4396Z" fill="black"/>
<path d="M51.1674 30.8807C51.6538 30.8807 52.0481 30.4864 52.0481 30C52.0481 29.5137 51.6538 29.1194 51.1674 29.1194H48.4397C47.9533 29.1194 47.5591 29.5136 47.5591 30C47.5591 30.4865 47.9533 30.8807 48.4397 30.8807H51.1674Z" fill="black"/>
<path d="M8.83281 29.1194C8.34637 29.1194 7.95215 29.5136 7.95215 30C7.95215 30.4865 8.34637 30.8807 8.83281 30.8807H11.5605C12.0469 30.8807 12.4411 30.4864 12.4411 30C12.4411 29.5137 12.0469 29.1194 11.5605 29.1194H8.83281Z" fill="black"/>
<path d="M41.9049 41.1499C42.2753 41.4615 42.8316 41.4158 43.1457 41.042C43.4584 40.6696 43.41 40.1141 43.0377 39.8013L33.4668 31.7619C33.7012 31.3027 33.8471 30.7913 33.8815 30.2497L39.4702 24.5837C40.4882 23.5934 40.4763 21.8238 39.4445 20.8475C38.4564 19.8264 36.6844 19.8425 35.7084 20.8732L30.5096 26.1439C30.087 26.0859 29.6324 26.1023 29.219 26.1882L18.7197 16.8319C17.6782 15.8648 15.9127 15.9669 14.9895 17.0467C14.0205 18.1342 14.1168 19.8075 15.2043 20.7766L20.2852 25.3043C20.6485 25.628 21.2048 25.5959 21.5287 25.2328C21.8522 24.8698 21.8201 24.313 21.4571 23.9895L16.3764 19.4619C16.0138 19.1388 15.9817 18.581 16.3048 18.2186C16.6123 17.8586 17.2016 17.8248 17.5482 18.147L27.5039 27.019C27.0498 27.3998 26.6841 27.8824 26.4413 28.4311L24.0865 26.3327C23.7235 26.0091 23.1667 26.0412 22.8432 26.4043C22.5196 26.7674 22.5517 27.3241 22.9148 27.6477L26.1463 30.5273C26.4046 32.4238 28.0338 33.8904 30 33.8904C30.8751 33.8904 31.6833 33.5999 32.3339 33.1105L41.9049 41.1499ZM36.9625 22.1101C37.2879 21.7663 37.8776 21.7623 38.2079 22.1017C38.5519 22.4271 38.5558 23.0169 38.2163 23.347L33.4412 28.1882C33.1618 27.6596 32.7643 27.203 32.2839 26.8534L36.9625 22.1101ZM30 32.1292C28.8259 32.1292 27.8709 31.174 27.8709 30C27.8709 28.826 28.8261 27.8708 30 27.8708C31.1741 27.8708 32.1292 28.826 32.1292 30C32.1292 31.174 31.1741 32.1292 30 32.1292Z" fill="black"/>
</svg>
