<svg width="128" height="196" viewBox="0 0 128 196" fill="none" xmlns="http://www.w3.org/2000/svg">
<ellipse cx="64" cy="192.5" rx="64" ry="3.5" fill="#DEDEDE"/>
<path d="M28.7151 61.7802L35.7151 54.7802L35.0151 53.7802L30.0151 46.8802L29.9151 44.3802C30.0151 39.1802 27.6151 35.6802 27.6151 35.6802C26.0151 33.7802 25.2151 32.4802 25.2151 32.4802C24.2151 30.6802 23.7151 30.9802 23.7151 30.9802C22.7151 32.5802 24.2151 34.9802 24.2151 34.9802C24.7151 36.0802 25.1151 37.2802 25.1151 37.2802C22.9151 35.3802 22.1151 31.8802 22.1151 31.8802C21.7151 29.4802 20.7151 29.5802 20.7151 29.5802C20.0151 29.9802 20.1151 30.7802 20.1151 30.8802C19.6151 29.5802 18.6151 29.7802 18.6151 29.7802C17.6151 29.9802 17.8151 32.0802 17.8151 32.2802C17.2151 30.6802 16.4151 31.5802 16.4151 31.5802C15.6151 32.8802 16.2151 35.1802 16.3151 35.3802C15.7151 33.7802 15.3151 34.5802 15.3151 34.5802C14.3151 37.0802 16.0151 40.4802 16.0151 40.4802C17.3151 44.1802 23.8151 50.0802 23.8151 50.0802L27.0151 57.5802L28.7151 61.7802Z" fill="#FFC088"/>
<path d="M20.0151 30.7802C20.0151 30.6802 20.0151 30.6802 20.0151 30.7802C20.2151 30.7802 20.2151 30.7802 20.2151 30.8802C20.2151 30.8802 20.7151 34.9802 22.7151 37.7802C22.7151 37.8802 22.7151 37.8802 22.7151 37.9802C22.6151 37.9802 22.6151 37.9802 22.5151 37.9802C20.5151 35.1802 20.0151 31.0802 20.0151 30.9802C19.9151 30.7802 20.0151 30.7802 20.0151 30.7802Z" fill="black"/>
<path d="M17.7148 32.0802C17.7148 32.0802 17.8148 32.0802 17.7148 32.0802C17.9148 32.0802 17.9148 32.0802 17.9148 32.1802C17.9148 32.1802 18.0148 35.2802 19.9148 38.0802C19.9148 38.1802 19.9148 38.1802 19.9148 38.2802C19.8148 38.2802 19.8148 38.2802 19.7148 38.2802C17.8148 35.3802 17.7148 32.2802 17.7148 32.1802V32.0802Z" fill="black"/>
<path d="M16.2148 35.2802C16.2148 35.2802 16.3148 35.2802 16.2148 35.2802C16.3148 35.1802 16.4148 35.2802 16.4148 35.3802C16.4148 35.3802 16.9148 37.1802 17.8148 38.5802C17.8148 38.6802 17.8148 38.6802 17.8148 38.7802C17.7148 38.7802 17.7148 38.7802 17.6148 38.7802C16.7148 37.2802 16.2148 35.4802 16.2148 35.4802C16.2148 35.3802 16.2148 35.2802 16.2148 35.2802Z" fill="black"/>
<path d="M19.7152 41.6802C19.6152 41.6802 19.6152 41.5802 19.6152 41.5802C19.6152 41.4802 19.6152 41.4802 19.7152 41.4802C23.1152 41.1802 24.2152 39.1802 24.2152 39.1802C24.2152 39.0802 24.3152 39.0802 24.4152 39.0802C24.5152 39.0802 24.5152 39.1802 24.5152 39.2802C24.4152 39.2802 23.3152 41.3802 19.7152 41.6802Z" fill="#161616"/>
<path d="M26.2148 38.0802C25.4148 37.9802 25.2148 37.5802 25.2148 37.4802C25.2148 37.3802 25.2148 37.3802 25.3148 37.2802C25.4148 37.2802 25.4148 37.2802 25.5148 37.3802C25.5148 37.3802 25.9148 38.0802 27.4148 37.6802C27.5148 37.6802 27.5148 37.6802 27.6148 37.7802C27.6148 37.8802 27.6148 37.8802 27.5148 37.9802C26.9148 38.0802 26.5148 38.1802 26.2148 38.0802Z" fill="#161616"/>
<path d="M81.1148 63.1801L90.4148 124.88C90.4148 124.88 100.815 146.38 99.5148 169.68H45.7148L47.8148 62.9801L81.1148 63.1801Z" fill="black"/>
<path d="M47.9151 57.7801L48.0151 55.4801C42.3151 53.5801 44.2151 49.5801 44.2151 49.5801L51.4151 35.2801C52.4151 33.7801 55.0151 34.0801 55.0151 34.0801L69.7151 33.9801L72.9151 34.0801C75.0151 34.1801 76.8151 35.6801 77.1151 37.7801L81.1151 62.8801V63.0801H77.2151L91.1151 157.78H44.8151L47.8151 62.9801L47.9151 57.7801Z" fill="#F75E5E"/>
<path d="M47.8151 62.9801L44.9151 157.88H91.2151L77.2151 63.1801H81.1151V62.9801L80.7151 60.1801C77.4151 60.1801 74.6151 57.4801 74.6151 54.0801V39.3801H77.4151L77.2151 37.8801C76.9151 35.7801 75.1151 34.2801 73.0151 34.1801L69.8151 34.0801L55.0151 34.1801C55.0151 34.1801 52.3151 33.7801 51.4151 35.3801L44.2151 49.6801C44.2151 49.6801 42.3151 53.6801 48.0151 55.5801L47.9151 57.8801L47.8151 62.9801Z" fill="#6F99FF"/>
<path d="M61.4149 79.4801L67.9149 62.6801C68.1149 62.2801 67.8149 61.7801 67.4149 61.5801C67.0149 61.3801 66.5149 61.6801 66.3149 62.0801L59.8149 78.8801L61.4149 79.4801Z" fill="black"/>
<path d="M59.7148 81.3801L59.9148 79.7801L59.8148 78.8801L60.6148 79.1801L61.4148 79.4801L60.7148 80.0801L59.7148 81.3801Z" fill="#FFCA64"/>
<path d="M59.9148 79.8801L59.7148 81.3801L60.6148 80.1801L59.9148 79.8801Z" fill="black"/>
<path d="M74.6151 48.1801V39.4801H77.4151L77.2151 37.9801C76.9151 35.8801 75.1151 34.3801 73.0151 34.2801L69.8151 34.1801H55.0151C55.0151 34.1801 52.3151 33.7801 51.4151 35.3801L45.0151 48.1801H74.6151Z" fill="black"/>
<path d="M78.5148 46.6801H45.7148L51.4148 35.3801C52.0148 34.4801 53.2148 34.1801 54.0148 34.1801C54.6148 34.1801 55.0148 34.1801 55.0148 34.1801L69.7148 34.0801H70.7148L72.9148 34.1801C75.0148 34.2801 76.8148 35.7801 77.1148 37.8801L78.5148 46.6801Z" fill="#F75E5E"/>
<path d="M70.7151 34.0801L68.8151 46.0801L61.4151 42.3801L55.7151 45.3801L54.0151 34.1801C54.6151 34.1801 55.0151 34.1801 55.0151 34.1801L69.7151 34.0801H70.7151Z" fill="black"/>
<path d="M45.4148 39.7801L38.5148 55.4801L37.7148 57.2801L36.7148 55.8801L33.7148 51.5801V54.9801H29.3148V59.0801H27.2148L28.7148 61.9801L32.1148 68.5801C33.0148 70.2801 34.2148 71.7801 35.6148 72.9801C35.7148 73.0801 35.8148 73.1801 35.9148 73.2801C38.3148 75.0801 41.7148 74.5801 43.5148 72.0801L47.7148 66.1801L48.0148 55.4801C42.3148 53.5801 44.2148 49.5801 44.2148 49.5801L51.4148 35.2801C51.8148 34.5801 52.6148 34.2801 53.3148 34.1801C53.2148 34.1801 48.2148 33.5801 45.4148 39.7801Z" fill="#F75E5E"/>
<path d="M40.8148 61.5801L37.7148 57.2801L38.5148 55.4801L40.8148 61.5801Z" fill="black"/>
<path d="M36.715 55.8802L28.615 61.9802L25.915 56.7802L33.415 51.1802L36.715 55.8802Z" fill="#6F99FF"/>
<path d="M94.7151 72.3801L93.2151 75.9801L91.1151 80.9801L88.0151 88.5801C88.0151 88.5801 88.3151 97.3801 86.6151 100.88C86.6151 100.88 85.4151 104.48 82.8151 105.48C82.8151 105.48 82.0151 105.78 82.7151 104.28C82.6151 104.58 81.4151 106.58 79.9151 106.88C79.9151 106.88 78.7151 106.98 79.4151 105.38C79.3151 105.48 78.0151 107.08 77.1151 106.58C77.1151 106.58 76.2151 106.08 76.8151 104.78C76.8151 104.88 76.3151 105.48 75.4151 105.18C75.4151 105.18 74.6151 104.58 76.1151 102.58C76.1151 102.58 78.1151 99.5801 77.8151 96.5801C77.8151 96.5801 77.3151 97.6801 76.8151 98.8801C76.8151 98.8801 76.1151 101.68 74.4151 102.08C74.4151 102.08 73.8151 101.98 74.4151 99.9801C74.4151 99.9801 74.7151 98.5801 75.0151 96.0801C75.0151 96.0801 75.8151 91.8801 79.6151 88.2801L81.3151 86.4801L82.6151 78.0801L83.6151 71.7801L84.3151 67.0801L83.2151 64.8801L75.1151 48.7801C75.1151 48.7801 72.9151 44.2801 72.5151 40.0801L72.7151 34.1801C72.7151 34.1801 80.7151 33.5801 85.1151 42.1801L94.3151 63.4801C95.8151 66.3801 95.8151 69.5801 94.7151 72.3801Z" fill="#F75E5E"/>
<path d="M92.9152 76.7802H83.0152L82.7152 77.9801L81.4152 86.3801L79.7152 88.1801C75.9152 91.7801 75.1152 95.9801 75.1152 95.9801C74.8152 98.4801 74.5152 99.8801 74.5152 99.8801C73.9152 101.88 74.5152 101.98 74.5152 101.98C76.2152 101.58 76.9152 98.7802 76.9152 98.7802C77.3152 97.6802 77.9152 96.4801 77.9152 96.4801C78.1152 99.3801 76.2152 102.48 76.2152 102.48C74.8152 104.48 75.5152 105.08 75.5152 105.08C76.3152 105.38 76.8152 104.68 76.9152 104.68C76.3152 105.98 77.2152 106.48 77.2152 106.48C78.0152 106.98 79.4152 105.38 79.5152 105.28C78.7152 106.88 80.0152 106.78 80.0152 106.78C81.5152 106.38 82.7152 104.38 82.8152 104.18C82.1152 105.68 82.9152 105.38 82.9152 105.38C85.5152 104.38 86.7152 100.78 86.7152 100.78C88.4152 97.2802 88.1152 88.4801 88.1152 88.4801L91.2152 80.8801L92.9152 76.7802Z" fill="#FFC088"/>
<path d="M93.2148 75.9802L91.1148 80.9802L82.7148 77.9802L83.7148 71.6802L93.2148 75.9802Z" fill="#6F99FF"/>
<path d="M29.0149 59.4801C29.6777 59.4801 30.2149 58.9428 30.2149 58.2801C30.2149 57.6173 29.6777 57.0801 29.0149 57.0801C28.3522 57.0801 27.8149 57.6173 27.8149 58.2801C27.8149 58.9428 28.3522 59.4801 29.0149 59.4801Z" fill="black"/>
<path d="M90.115 78.3801C90.7778 78.3801 91.315 77.8428 91.315 77.1801C91.315 76.5174 90.7778 75.9801 90.115 75.9801C89.4523 75.9801 88.915 76.5174 88.915 77.1801C88.915 77.8428 89.4523 78.3801 90.115 78.3801Z" fill="black"/>
<path d="M85.515 62.2802L84.515 66.9802L83.415 64.8802L85.515 62.2802Z" fill="black"/>
<path d="M45.8148 164.88L45.7148 169.68H99.6148C99.7148 168.08 99.7148 166.48 99.7148 164.88H45.8148Z" fill="#6F99FF"/>
<path d="M69.015 169.78C68.915 169.78 68.915 169.68 68.915 169.68V157.98C68.915 157.88 69.015 157.88 69.015 157.88L69.115 157.98V169.68L69.015 169.78Z" fill="black"/>
<path d="M66.8152 169.58V192.98H33.6152C34.0152 188.18 38.5152 185.48 41.9152 184.18C44.1152 183.38 45.9152 182.98 45.9152 182.98C46.1152 182.88 46.3152 182.88 46.6152 182.78C47.3152 182.58 47.8152 182.28 48.3152 182.08C52.1152 179.98 51.7152 176.28 51.7152 176.28V169.68H66.8152V169.58Z" fill="#FFC088"/>
<path d="M66.8152 184.98V192.98H33.6152C34.0152 188.18 38.5152 185.48 41.9152 184.18C44.1152 183.38 45.9152 182.98 45.9152 182.98C46.1152 182.88 46.3152 182.88 46.6152 182.78C47.3152 182.58 47.8152 182.28 48.3152 182.08C49.0152 183.28 50.6152 184.88 54.2152 184.98H66.8152Z" fill="#FE80A5"/>
<path d="M34.2152 190.58C33.9152 191.28 33.7152 192.08 33.6152 192.98H66.8152V190.58H34.2152Z" fill="black"/>
<path d="M48.815 187.08C48.115 187.88 46.915 188.08 46.015 187.38L41.915 184.18C44.115 183.38 45.915 182.98 45.915 182.98C46.115 182.88 46.315 182.88 46.615 182.78L48.515 184.28C49.315 184.98 49.515 186.18 48.815 187.08Z" fill="#FFC088"/>
<path d="M66.8148 169.58V172.38L51.7148 169.58H66.8148Z" fill="black"/>
<path d="M92.6149 169.58V192.98H59.3149C59.7149 188.18 64.2149 185.48 67.6149 184.18C69.8149 183.38 71.6149 182.98 71.6149 182.98C71.8149 182.88 72.0149 182.88 72.3149 182.78C73.0149 182.58 73.5149 182.28 74.0149 182.08C77.8149 179.98 77.4149 176.28 77.4149 176.28V169.68H92.6149V169.58Z" fill="#FFC088"/>
<path d="M92.6149 184.98V192.98H59.3149C59.7149 188.18 64.2149 185.48 67.6149 184.18C69.8149 183.38 71.6149 182.98 71.6149 182.98C71.8149 182.88 72.0149 182.88 72.3149 182.78C73.0149 182.58 73.5149 182.28 74.0149 182.08C74.7149 183.28 76.3149 184.88 79.9149 184.98H92.6149Z" fill="#FE80A5"/>
<path d="M59.9149 190.58C59.6149 191.28 59.4149 192.08 59.3149 192.98H92.5149V190.58H59.9149Z" fill="black"/>
<path d="M74.5152 187.08C73.8152 187.88 72.6152 188.08 71.7152 187.38L67.6152 184.18C69.8152 183.38 71.6152 182.98 71.6152 182.98C71.8152 182.88 72.0152 182.88 72.3152 182.78L74.2152 184.28C75.1152 184.98 75.2152 186.18 74.5152 187.08Z" fill="#FFC088"/>
<path d="M92.615 169.58V172.38L77.415 169.58H92.615Z" fill="black"/>
<path d="M51.515 57.3801L47.915 57.7801L48.015 55.4801L51.515 57.3801Z" fill="black"/>
<path d="M61.0441 62.4731L52.1494 63.8474L54.1956 77.0906L63.0903 75.7163L61.0441 62.4731Z" fill="#FFCA64"/>
<path d="M59.9372 62.6801L51.0425 64.0544L53.0887 77.2977L61.9834 75.9234L59.9372 62.6801Z" fill="black"/>
<path d="M76.9149 104.88C76.9149 104.88 76.8149 104.88 76.9149 104.88C76.8149 104.78 76.7149 104.68 76.8149 104.68C76.8149 104.68 79.4149 101.48 79.9149 98.0801C79.9149 97.9801 80.0149 97.9801 80.1149 97.9801C80.2149 97.9801 80.2149 98.0801 80.2149 98.1801C79.7149 101.58 77.0149 104.88 77.0149 104.88H76.9149Z" fill="black"/>
<path d="M79.4149 105.48C79.3149 105.38 79.2149 105.28 79.3149 105.28C79.3149 105.28 81.4149 103.08 82.1149 99.6801C82.1149 99.5801 82.2149 99.5801 82.3149 99.5801C82.4149 99.5801 82.4149 99.6801 82.4149 99.7801C81.7149 103.18 79.6149 105.48 79.4149 105.48C79.5149 105.48 79.5149 105.48 79.4149 105.48Z" fill="black"/>
<path d="M82.7152 104.38C82.6152 104.28 82.5152 104.28 82.6152 104.18C82.6152 104.18 83.5152 102.58 83.9152 100.88C83.9152 100.78 84.0152 100.78 84.1152 100.78C84.2152 100.78 84.2152 100.88 84.2152 100.98C83.8152 102.68 82.9152 104.28 82.8152 104.28C82.8152 104.28 82.8152 104.38 82.7152 104.38Z" fill="black"/>
<path d="M74.3151 101.48C74.3151 101.48 74.9151 100.98 74.9151 100.38C74.9151 100.38 74.7151 99.8801 74.5151 100.18C74.5151 100.18 74.0151 101.08 74.3151 101.48Z" fill="#FFCA64"/>
<path d="M75.5151 104.78C75.5151 104.78 76.0151 103.88 76.4151 104.18C76.4151 104.18 76.9151 104.48 76.2151 105.08C76.2151 105.18 75.2151 105.38 75.5151 104.78Z" fill="#FFCA64"/>
<path d="M76.8149 105.88C76.8149 105.78 77.5149 105.08 78.1149 105.48C78.1149 105.48 78.5149 105.88 78.2149 106.48C78.3149 106.38 77.0149 107.08 76.8149 105.88Z" fill="#FFCA64"/>
<path d="M79.3149 106.38C79.3149 106.38 80.0149 105.58 80.5149 105.88C80.5149 105.88 80.9149 106.08 80.4149 106.68C80.4149 106.68 79.7149 107.18 79.3149 106.38Z" fill="#FFCA64"/>
<path d="M82.5151 105.28C82.5151 105.28 82.7151 104.78 83.3151 104.78C83.3151 104.78 83.6151 104.88 83.4151 105.28C83.3151 105.18 82.7151 105.78 82.5151 105.28Z" fill="#FFCA64"/>
<path d="M59.7152 191.38C59.7152 191.38 59.6152 191.38 59.7152 191.38C59.6152 191.38 59.5152 191.28 59.6152 191.18C60.7152 187.68 64.1152 185.48 66.8152 184.38C66.9152 184.38 66.9152 184.38 67.0152 184.48C67.0152 184.58 67.0152 184.58 66.9152 184.68C64.3152 185.78 60.9152 187.88 59.8152 191.28L59.7152 191.38Z" fill="black"/>
<path d="M50.1152 68.0801H74.1152V78.4801C74.1152 81.5801 71.6152 83.9801 68.6152 83.9801H56.1152C53.1152 83.9801 50.7152 81.5801 50.6152 78.6801C50.3152 74.0801 50.1152 68.0801 50.1152 68.0801Z" fill="#F75E5E"/>
<path d="M80.7152 59.6802C80.7152 59.6802 80.6152 59.6802 80.6152 59.5802L75.2152 48.8802C75.2152 48.8802 73.0152 44.3802 72.6152 40.1802L72.8152 34.2802C72.8152 34.1802 72.9152 34.1802 72.9152 34.1802C73.0152 34.1802 73.0152 34.2802 73.0152 34.2802L72.8152 40.1802C73.2152 44.2802 75.3152 48.7802 75.3152 48.7802L80.7152 59.4802C80.9152 59.4802 80.8152 59.5802 80.7152 59.6802Z" fill="black"/>
<path d="M72.1151 46.9801C72.0151 46.9801 72.0151 46.8801 72.0151 46.8801V34.1801C72.0151 34.0801 72.1151 34.0801 72.1151 34.0801C72.2151 34.0801 72.2151 34.1801 72.2151 34.1801V46.8801C72.2151 46.9801 72.1151 46.9801 72.1151 46.9801Z" fill="black"/>
<path d="M52.3148 47.0801C52.2148 47.0801 52.2148 46.9801 52.2148 46.9801V34.1801C52.2148 34.0801 52.3148 34.0801 52.3148 34.0801C52.4148 34.0801 52.4148 34.1801 52.4148 34.1801V46.9801C52.5148 47.0801 52.4148 47.0801 52.3148 47.0801Z" fill="black"/>
<path d="M71.3149 20.1801C69.8149 23.6801 67.1149 22.5801 67.1149 22.5801L67.4149 33.9801H69.7149C69.0149 42.7801 61.4149 42.4801 61.4149 42.4801C54.6149 41.9801 55.0149 34.0801 55.0149 34.0801L56.5149 34.1801L56.4149 31.5801V29.7801C53.9149 29.4801 52.5149 27.7801 51.8149 25.9801C51.4149 25.0801 51.2149 24.1801 51.1149 23.3801C51.0149 22.4801 51.0149 21.7801 51.0149 21.7801L50.6149 14.2801C50.4149 12.2801 52.9149 10.8801 52.9149 10.8801C56.1149 9.48008 56.2149 7.18008 56.2149 7.08008C56.9149 11.2801 62.2149 11.7801 62.2149 11.7801C65.0149 11.9801 65.4149 14.9801 65.4149 14.9801C65.7149 19.0801 67.3149 18.4801 67.3149 18.4801C67.4149 17.9801 67.6149 17.6801 67.8149 17.3801C68.4149 16.3801 69.8149 16.0801 70.7149 16.7801C72.2149 17.8801 71.3149 20.1801 71.3149 20.1801Z" fill="#FFC088"/>
<path d="M54.8152 24.3801C54.8152 25.4801 53.9152 26.3801 52.8152 26.3801C52.4152 26.3801 52.1152 26.2801 51.8152 26.0801C51.4152 25.1801 51.2152 24.2801 51.1152 23.4801C51.4152 22.8801 52.1152 22.4801 52.8152 22.4801C53.9152 22.3801 54.8152 23.2801 54.8152 24.3801Z" fill="#E29D64"/>
<path d="M67.7152 19.9801C67.6152 19.9801 67.6152 19.9801 67.7152 19.9801C67.6152 19.8801 67.5152 19.8801 67.6152 19.7801C67.6152 19.6801 68.6152 17.9801 69.7152 17.8801C70.0152 17.8801 70.3152 17.9801 70.6152 18.1801C70.7152 18.2801 70.6152 18.2801 70.6152 18.3801C70.5152 18.4801 70.5152 18.3801 70.4152 18.3801C70.2152 18.1801 70.0152 18.0801 69.8152 18.0801C68.9152 18.1801 67.9152 19.8801 67.9152 19.8801C67.7152 19.9801 67.7152 19.9801 67.7152 19.9801Z" fill="black"/>
<path d="M69.6151 19.5802L68.1151 19.4802C68.0151 19.4802 68.0151 19.3802 68.0151 19.3802C68.0151 19.2802 68.1151 19.2802 68.1151 19.2802L69.6151 19.3802C69.7151 19.3802 69.7151 19.4802 69.7151 19.4802L69.6151 19.5802Z" fill="black"/>
<path d="M59.6152 17.7801C59.6152 17.7801 60.0152 20.1801 62.9152 18.8801C62.9152 18.7801 62.0152 16.1801 59.6152 17.7801Z" fill="#331602"/>
<path d="M52.2148 17.8801C52.2148 17.8801 52.6148 20.4801 55.1148 19.1801C55.1148 19.1801 54.2148 16.3801 52.2148 17.8801Z" fill="#331602"/>
<path d="M55.115 23.8801C54.815 23.8801 54.615 23.7801 54.315 23.6801C54.215 23.5801 54.115 23.4801 54.015 23.2801C53.915 22.6801 54.615 21.7801 54.615 21.7801C56.015 20.1801 55.115 17.0801 55.115 16.9801C54.215 14.9801 51.715 15.7801 51.615 15.7801C51.515 15.7801 51.515 15.7801 51.415 15.6801C51.415 15.5801 51.415 15.5801 51.515 15.4801C51.515 15.4801 54.315 14.5801 55.415 16.8801C55.415 17.0801 56.315 20.1801 54.815 21.8801C54.615 22.0801 54.215 22.7801 54.315 23.1801C54.315 23.2801 54.415 23.3801 54.515 23.3801C55.115 23.7801 55.915 23.3801 55.915 23.3801C56.015 23.3801 56.015 23.3801 56.115 23.4801C56.215 23.5801 56.115 23.5801 56.015 23.6801C56.015 23.6801 55.615 23.8801 55.115 23.8801Z" fill="black"/>
<path d="M62.915 16.2801C62.915 16.2801 62.915 16.1801 62.915 16.2801C60.115 14.3801 58.215 15.6801 58.115 15.6801C58.015 15.6801 58.015 15.6801 57.915 15.6801C57.915 15.5801 57.915 15.5801 57.915 15.4801C57.915 15.4801 60.015 13.9801 62.915 16.0801C63.015 16.0801 63.015 16.1801 62.915 16.2801C63.015 16.1801 63.015 16.2801 62.915 16.2801Z" fill="black"/>
<path d="M57.2152 25.9801C56.2152 25.9801 55.3152 25.3801 55.3152 25.3801C55.2152 25.3801 55.2152 25.2801 55.3152 25.1801C55.3152 25.0801 55.4152 25.0801 55.5152 25.1801C55.6152 25.2801 57.5152 26.6801 59.2152 24.6801C59.2152 24.5801 59.3152 24.5801 59.4152 24.6801C59.5152 24.6801 59.5152 24.7801 59.4152 24.8801C58.7152 25.7801 57.9152 25.9801 57.2152 25.9801Z" fill="black"/>
<path d="M60.5149 29.2802C60.5149 29.2802 60.1149 30.9802 56.5149 31.5802V29.7802C56.4149 29.8802 58.7149 30.2802 60.5149 29.2802Z" fill="black"/>
<path d="M71.8149 12.4802C71.7149 11.7802 71.6149 11.1802 71.4149 10.5802C69.6149 4.58016 63.2149 1.18016 57.2149 2.98016C55.1149 3.58016 54.0149 4.58016 54.0149 4.58016C48.7149 7.68016 50.4149 14.1802 50.5149 14.2802C50.4149 12.3802 52.8149 11.0802 52.8149 11.0802C56.0149 9.68016 56.1149 7.38016 56.1149 7.28016C56.8149 11.4802 62.1149 11.9802 62.1149 11.9802C65.0149 12.1802 65.4149 15.0802 65.4149 15.0802C65.7149 19.1802 67.3149 18.5802 67.3149 18.5802C67.4149 18.0802 67.6149 17.7802 67.8149 17.4802C68.4149 16.4802 69.8149 16.1802 70.7149 16.8802C72.3149 18.0802 71.4149 20.3802 71.4149 20.3802C69.9149 23.8802 67.2149 22.7802 67.2149 22.7802L67.3149 27.6802C68.0149 27.6802 68.7149 27.5802 69.3149 27.0802C71.1149 25.5802 70.0149 22.9802 70.0149 22.9802C73.7149 18.2802 71.8149 12.4802 71.8149 12.4802Z" fill="#382302"/>
<path d="M76.315 4.88012C74.315 0.78012 69.815 -1.11988 66.015 0.68012C64.915 1.18012 64.015 1.98012 63.415 2.88012C67.115 3.88012 70.215 6.68012 71.415 10.5801C71.615 11.1801 71.715 11.7801 71.815 12.4801C71.815 12.4801 72.215 13.8801 72.315 15.8801C72.615 15.7801 72.915 15.6801 73.115 15.5801C76.815 13.6801 78.315 8.98012 76.315 4.88012Z" fill="#382302"/>
<path d="M71.4151 10.5802C71.6151 11.1802 71.7151 11.7802 71.8151 12.4802C71.8151 12.4802 72.1151 13.3802 72.2151 14.8802C73.1151 12.6802 73.1151 9.98017 71.9151 7.48017C70.0151 3.38017 65.6151 1.38017 62.0151 2.68017C66.3151 3.18017 70.1151 6.18017 71.4151 10.5802Z" fill="black"/>
<path d="M45.5148 154.78H44.8148C44.7148 154.78 44.7148 154.68 44.7148 154.68C44.7148 154.58 44.8148 154.58 44.8148 154.58H45.5148C45.6148 154.58 45.6148 154.68 45.6148 154.68C45.7148 154.68 45.6148 154.78 45.5148 154.78Z" fill="black"/>
<path d="M88.1149 154.78H86.8149C86.7149 154.78 86.7149 154.68 86.7149 154.68C86.7149 154.58 86.8149 154.58 86.8149 154.58H88.1149C88.2149 154.58 88.2149 154.68 88.2149 154.68C88.3149 154.68 88.2149 154.78 88.1149 154.78ZM85.5149 154.78H84.2149C84.1149 154.78 84.1149 154.68 84.1149 154.68C84.1149 154.58 84.2149 154.58 84.2149 154.58H85.5149C85.6149 154.58 85.6149 154.68 85.6149 154.68C85.6149 154.68 85.6149 154.78 85.5149 154.78ZM82.8149 154.78H81.5149C81.4149 154.78 81.4149 154.68 81.4149 154.68C81.4149 154.58 81.5149 154.58 81.5149 154.58H82.8149C82.9149 154.58 82.9149 154.68 82.9149 154.68C83.0149 154.68 82.9149 154.78 82.8149 154.78ZM80.2149 154.78H78.9149C78.8149 154.78 78.8149 154.68 78.8149 154.68C78.8149 154.58 78.9149 154.58 78.9149 154.58H80.2149C80.3149 154.58 80.3149 154.68 80.3149 154.68L80.2149 154.78ZM77.5149 154.78H76.2149C76.1149 154.78 76.1149 154.68 76.1149 154.68C76.1149 154.58 76.2149 154.58 76.2149 154.58H77.5149C77.6149 154.58 77.6149 154.68 77.6149 154.68C77.6149 154.68 77.6149 154.78 77.5149 154.78ZM74.8149 154.78H73.5149C73.4149 154.78 73.4149 154.68 73.4149 154.68C73.4149 154.58 73.5149 154.58 73.5149 154.58H74.8149C74.9149 154.58 74.9149 154.68 74.9149 154.68C75.0149 154.68 74.9149 154.78 74.8149 154.78ZM72.2149 154.78H70.9149C70.8149 154.78 70.8149 154.68 70.8149 154.68C70.8149 154.58 70.9149 154.58 70.9149 154.58H72.2149C72.3149 154.58 72.3149 154.68 72.3149 154.68L72.2149 154.78ZM69.5149 154.78H68.2149C68.1149 154.78 68.1149 154.68 68.1149 154.68C68.1149 154.58 68.2149 154.58 68.2149 154.58H69.5149C69.6149 154.58 69.6149 154.68 69.6149 154.68C69.6149 154.68 69.6149 154.78 69.5149 154.78ZM66.8149 154.78H65.5149C65.4149 154.78 65.4149 154.68 65.4149 154.68C65.4149 154.58 65.5149 154.58 65.5149 154.58H66.8149C66.9149 154.58 66.9149 154.68 66.9149 154.68C67.0149 154.68 66.9149 154.78 66.8149 154.78ZM64.2149 154.78H62.9149C62.8149 154.78 62.8149 154.68 62.8149 154.68C62.8149 154.58 62.9149 154.58 62.9149 154.58H64.2149C64.3149 154.58 64.3149 154.68 64.3149 154.68L64.2149 154.78ZM61.5149 154.78H60.2149C60.1149 154.78 60.1149 154.68 60.1149 154.68C60.1149 154.58 60.2149 154.58 60.2149 154.58H61.5149C61.6149 154.58 61.6149 154.68 61.6149 154.68C61.6149 154.68 61.6149 154.78 61.5149 154.78ZM58.8149 154.78H57.5149C57.4149 154.78 57.4149 154.68 57.4149 154.68C57.4149 154.58 57.5149 154.58 57.5149 154.58H58.8149C58.9149 154.58 58.9149 154.68 58.9149 154.68C59.0149 154.68 58.9149 154.78 58.8149 154.78ZM56.2149 154.78H54.9149C54.8149 154.78 54.8149 154.68 54.8149 154.68C54.8149 154.58 54.9149 154.58 54.9149 154.58H56.2149C56.3149 154.58 56.3149 154.68 56.3149 154.68L56.2149 154.78ZM53.5149 154.78H52.2149C52.1149 154.78 52.1149 154.68 52.1149 154.68C52.1149 154.58 52.2149 154.58 52.2149 154.58H53.5149C53.6149 154.58 53.6149 154.68 53.6149 154.68C53.6149 154.68 53.6149 154.78 53.5149 154.78ZM50.8149 154.78H49.5149C49.4149 154.78 49.4149 154.68 49.4149 154.68C49.4149 154.58 49.5149 154.58 49.5149 154.58H50.8149C50.9149 154.58 50.9149 154.68 50.9149 154.68C51.0149 154.68 50.9149 154.78 50.8149 154.78ZM48.2149 154.78H46.9149C46.8149 154.78 46.8149 154.68 46.8149 154.68C46.8149 154.58 46.9149 154.58 46.9149 154.58H48.2149C48.3149 154.58 48.3149 154.68 48.3149 154.68C48.3149 154.68 48.3149 154.78 48.2149 154.78Z" fill="black"/>
<path d="M90.215 154.78H89.515C89.415 154.78 89.415 154.68 89.415 154.68C89.415 154.58 89.515 154.58 89.515 154.58H90.215C90.315 154.58 90.315 154.68 90.315 154.68L90.215 154.78Z" fill="black"/>
<path d="M61.7148 26.3801C62.8194 26.3801 63.7148 25.4847 63.7148 24.3801C63.7148 23.2756 62.8194 22.3801 61.7148 22.3801C60.6103 22.3801 59.7148 23.2756 59.7148 24.3801C59.7148 25.4847 60.6103 26.3801 61.7148 26.3801Z" fill="#E29D64"/>
<path d="M55.015 18.5802C55.015 18.6802 55.015 18.8802 54.915 18.9802C54.815 19.1802 54.515 19.3802 54.215 19.3802C53.715 19.3802 53.415 18.9802 53.415 18.5802C53.415 18.1802 53.715 17.8802 54.015 17.7802C54.115 17.7802 54.115 17.7802 54.215 17.7802C54.315 17.7802 54.415 17.7802 54.515 17.7802C54.715 17.9802 54.815 18.2802 55.015 18.5802Z" fill="white"/>
<path d="M62.8148 18.1801C62.8148 18.2801 62.8148 18.4801 62.7148 18.5801C62.6148 18.8801 62.3148 18.9801 62.0148 18.9801C61.5148 18.9801 61.2148 18.5801 61.2148 18.1801C61.2148 17.8801 61.4148 17.5801 61.6148 17.4801C61.7148 17.3801 61.8148 17.3801 62.0148 17.3801C62.3148 17.5801 62.5148 17.8801 62.8148 18.1801Z" fill="white"/>
<path d="M55.1151 19.1801C55.0151 19.1801 54.9151 19.1801 54.9151 19.0801C54.9151 19.0801 54.9151 18.9801 54.8151 18.9801C54.5151 18.3801 54.2151 17.9801 53.9151 17.7801C53.7151 17.6801 53.6151 17.5801 53.4151 17.5801C52.4151 17.4801 51.4151 18.8801 51.4151 18.8801C51.4151 18.9801 51.3151 18.9801 51.2151 18.8801C51.1151 18.8801 51.1151 18.7801 51.2151 18.6801C51.2151 18.5801 52.3151 17.1801 53.5151 17.2801C53.8151 17.2801 54.2151 17.4801 54.4151 17.7801C54.6151 17.9801 54.8151 18.2801 54.9151 18.5801C55.0151 18.6801 55.0151 18.8801 55.1151 18.9801C55.2151 19.0801 55.2151 19.1801 55.1151 19.1801Z" fill="black"/>
<path d="M62.9151 18.7801C62.8151 18.7801 62.8151 18.7801 62.7151 18.6801C62.7151 18.6801 62.6151 18.5801 62.6151 18.4801C62.3151 17.8801 61.9151 17.5801 61.5151 17.3801C61.4151 17.2801 61.2151 17.2801 61.1151 17.2801C59.6151 17.0801 57.9151 19.0801 57.9151 19.0801H57.8151H57.7151C57.6151 19.0801 57.6151 18.9801 57.7151 18.8801C57.8151 18.7801 59.5151 16.7801 61.2151 16.9801C61.5151 16.9801 61.7151 17.0801 62.0151 17.2801C62.3151 17.4801 62.6151 17.7801 62.8151 18.0801C62.9151 18.1801 63.0151 18.3801 63.0151 18.4801C63.0151 18.6801 63.0151 18.7801 62.9151 18.7801Z" fill="black"/>
<path d="M54.3151 18.8802C54.4808 18.8802 54.6151 18.7458 54.6151 18.5802C54.6151 18.4145 54.4808 18.2802 54.3151 18.2802C54.1495 18.2802 54.0151 18.4145 54.0151 18.5802C54.0151 18.7458 54.1495 18.8802 54.3151 18.8802Z" fill="black"/>
<path d="M62.1149 18.5801C62.2806 18.5801 62.4149 18.4458 62.4149 18.2801C62.4149 18.1144 62.2806 17.9801 62.1149 17.9801C61.9493 17.9801 61.8149 18.1144 61.8149 18.2801C61.8149 18.4458 61.9493 18.5801 62.1149 18.5801Z" fill="black"/>
</svg>
