<svg width="19" height="22" viewBox="0 0 19 22" fill="none" xmlns="http://www.w3.org/2000/svg">
<path d="M18.7679 7.62013C17.8706 3.62343 15.3376 1.15203 11.3855 0.186642C11.0418 0.102975 10.6854 0.109411 10.3481 0C9.9472 0 9.55263 0 9.15168 0C9.10077 0 9.05622 0 9.00531 0C8.97349 0 8.94167 0 8.90985 0C8.82711 0 8.75074 0 8.66801 0C8.64255 0.0579233 8.59164 0.0386155 8.54073 0.0514874C8.19706 0.102975 7.84703 0.14159 7.50337 0.212385C2.64753 1.24213 -0.649097 5.97897 0.108236 10.9668C0.623732 14.3779 2.49479 16.8299 5.57504 18.3102C6.02053 18.5226 6.38965 18.7865 6.70149 19.1597C7.52246 19.9835 8.34344 20.8073 9.16441 21.6311C9.39989 21.8693 9.52717 21.8757 9.77537 21.6698C9.79446 21.6569 9.80719 21.6376 9.82628 21.6247C10.4754 20.9747 11.1246 20.3311 11.7737 19.6811C11.9455 19.5073 12.1237 19.3335 12.3019 19.1597C12.5692 18.883 12.8111 18.5869 13.1866 18.426C17.3742 16.624 19.7798 12.1188 18.7679 7.62013ZM17.126 7.07308C17.1196 7.04734 17.1069 7.02159 17.075 7.00228C17.1069 7.02159 17.1196 7.04734 17.126 7.07308ZM17.075 7.00228C17.0687 6.91218 17.0496 6.82851 17.0305 6.73841C17.0496 6.82851 17.0687 6.91218 17.075 7.00228ZM16.9541 6.45523C16.9223 6.36513 16.8968 6.28146 16.8587 6.19136C16.8968 6.28146 16.9287 6.36513 16.9541 6.45523ZM17.1132 12.1768C17.1196 12.1446 17.126 12.106 17.126 12.0738C17.126 12.106 17.1196 12.1382 17.1132 12.1768ZM17.196 11.6683C17.1769 11.7327 17.1705 11.7906 17.1705 11.855C17.1705 11.8871 17.1769 11.9193 17.1705 11.9515C17.1769 11.9193 17.1705 11.8871 17.1705 11.855C17.1196 11.9 17.126 11.9579 17.126 12.0223C16.9159 12.5307 16.7377 13.0521 16.4577 13.5283C15.1849 15.7101 13.3329 17.0681 10.8573 17.5315C10.3354 17.628 9.80719 17.673 9.2726 17.6602C9.18351 17.6602 9.09441 17.6666 9.01804 17.6216C7.55428 17.5443 6.20509 17.0938 5.01499 16.2378C2.60934 14.513 1.41925 12.1382 1.5338 9.15832C1.67382 5.52846 4.37858 2.38773 7.91068 1.68621C8.17797 1.63472 8.4389 1.57037 8.71256 1.58324C8.73801 1.56393 8.76347 1.55106 8.78893 1.55749C8.76347 1.55749 8.73801 1.56393 8.71256 1.58324C8.75074 1.58967 8.78893 1.58967 8.82075 1.55749C8.85257 1.55749 8.89075 1.55106 8.92257 1.55106C11.0418 1.39016 12.9193 2.01444 14.5612 3.35955C15.7131 4.2992 16.5214 5.49628 17.0241 6.89931C17.0369 6.93792 17.0559 6.97011 17.075 7.00228C17.075 7.06021 17.075 7.11813 17.126 7.15675C17.2405 7.67162 17.3805 8.18006 17.4251 8.7078C17.5142 9.71181 17.4696 10.6965 17.196 11.6683Z" fill="#F06767"/>
<path d="M12.1367 9.65389C12.1367 8.18006 10.953 6.98298 9.49561 6.98298C8.03822 6.98298 6.85449 8.18006 6.85449 9.65389C6.85449 10.7287 7.48454 11.6555 8.38825 12.0802L9.52743 13.2323L10.7303 12.0159C11.5703 11.5654 12.1367 10.6772 12.1367 9.65389Z" fill="#F06767"/>
</svg>
