<svg width="8" height="10" viewBox="0 0 8 10" fill="none" xmlns="http://www.w3.org/2000/svg">
<path d="M3.98794 0.00234056C4.27349 0.00234056 4.5567 0.00234056 4.84224 0.00234056C4.98502 0.00234056 5.01545 0.0327678 5.01545 0.173201C5.01545 0.313635 5.01545 0.454069 5.01545 0.594502C5.01545 0.697487 4.96863 0.744298 4.86565 0.741958C4.7299 0.739617 4.5918 0.744298 4.45605 0.739617C4.38349 0.737276 4.34605 0.75132 4.35541 0.833239C4.36945 0.936224 4.31094 1.06964 4.38115 1.13517C4.44435 1.19135 4.57308 1.17262 4.67372 1.189C6.2536 1.44881 7.54793 2.67994 7.9037 4.25514C8.30393 6.0363 7.42856 7.88535 5.79953 8.69986C3.62281 9.78822 1.00372 8.71625 0.214956 6.41314C-0.587857 4.07492 0.94287 1.55647 3.39578 1.17964C3.61813 1.14453 3.61813 1.14453 3.61813 0.915159C3.61813 0.741958 3.61813 0.741958 3.44727 0.741958C3.33492 0.741958 3.22024 0.739617 3.10789 0.741958C3.00256 0.744298 2.95809 0.692806 2.95809 0.592162C2.95809 0.447047 2.95575 0.304273 2.95809 0.159158C2.96043 0.037449 2.99788 0 3.12193 0C3.40982 0.00234056 3.70005 0.00234056 3.98794 0.00234056ZM3.99262 8.2809C5.72932 8.28324 7.15004 6.87657 7.15472 5.14689C7.1594 3.40552 5.75038 1.98245 4.01369 1.97777C2.26763 1.97309 0.846907 3.38679 0.846907 5.13285C0.844566 6.86252 2.26061 8.27856 3.99262 8.2809Z" fill="#F06767"/>
<path d="M7.49448 2.6144C7.44299 2.61908 7.40554 2.59099 7.37278 2.55588C7.11063 2.29374 6.84849 2.03394 6.58869 1.77179C6.50443 1.68753 6.50677 1.62434 6.58869 1.54008C6.68933 1.43709 6.79232 1.33645 6.8953 1.23347C6.9702 1.15857 7.0451 1.15857 7.11765 1.23347C7.38214 1.49795 7.64662 1.76243 7.9111 2.02692C7.97898 2.09479 7.99068 2.16969 7.91813 2.24225C7.81046 2.35459 7.69811 2.46226 7.58811 2.57227C7.56002 2.59801 7.53193 2.6144 7.49448 2.6144Z" fill="#F06767"/>
<path d="M3.98059 2.5559C3.97824 2.45994 4.01101 2.44121 4.09761 2.44355C5.32173 2.47164 6.44285 3.43361 6.6418 4.64368C6.80564 5.64076 6.50371 6.47868 5.76175 7.16212C5.69856 7.22064 5.66579 7.23 5.60259 7.15276C5.09469 6.50677 4.58211 5.86311 4.06719 5.2218C4.01569 5.15626 3.99463 5.09307 3.99463 5.01115C4.00165 4.60623 3.98527 2.96784 3.98059 2.5559Z" fill="#F06767"/>
</svg>
