<svg width="19" height="18" viewBox="0 0 19 18" fill="none" xmlns="http://www.w3.org/2000/svg">
<path d="M18.8128 10.0773C18.7488 9.80456 18.5715 9.67562 18.3596 9.72521C18.1183 9.77976 18.0247 9.98309 18.0838 10.2707C18.1429 10.5485 18.1823 10.8361 18.2365 11.1485C18.0099 11.1485 17.8375 11.1436 17.6651 11.1485C17.4237 11.1584 17.2563 11.3171 17.2612 11.5304C17.2661 11.7436 17.4336 11.8974 17.6799 11.9023C17.8523 11.9073 18.0247 11.9023 18.2217 11.9023C18.138 13.0083 17.739 13.9456 17.0297 14.7886C16.8918 14.6399 16.7834 14.5159 16.6652 14.3969C16.4731 14.2134 16.2514 14.2034 16.0938 14.3671C15.9362 14.5308 15.9411 14.749 16.1381 14.9424C16.2613 15.0614 16.409 15.1556 16.5568 15.2796C15.6652 16.0235 14.7392 16.4202 13.6555 16.5095C13.6555 16.3111 13.6604 16.1475 13.6555 15.9789C13.6407 15.7011 13.5028 15.5524 13.2713 15.5524C13.0398 15.5524 12.8969 15.7111 12.892 15.9838C12.8871 16.1574 12.892 16.331 12.892 16.5145C11.8034 16.4103 10.8675 16.0235 10.0104 15.2895C10.1681 15.1507 10.3158 15.0416 10.439 14.9126C10.5966 14.744 10.5917 14.5208 10.4538 14.377C10.3011 14.2183 10.0843 14.2183 9.90206 14.3869C9.77399 14.5109 9.65577 14.6498 9.51785 14.7936C8.80854 13.9356 8.41447 12.9983 8.32581 11.9321C8.34059 11.9222 8.35044 11.9172 8.35537 11.9172C8.52777 11.9123 8.70017 11.9073 8.8775 11.9023C9.11886 11.8924 9.28634 11.7337 9.28634 11.5205C9.28634 11.3023 9.12379 11.1535 8.8775 11.1485C8.70017 11.1436 8.51792 11.1485 8.32581 11.1485C8.40955 10.1815 8.71987 9.33839 9.28141 8.56474C9.36023 8.46059 9.43904 8.35645 9.5277 8.2523C9.58681 8.31678 9.641 8.38125 9.69518 8.44076C9.76414 8.51515 9.82818 8.58458 9.89714 8.65401C10.0942 8.84246 10.3011 8.84742 10.4636 8.67384C10.6114 8.52011 10.6015 8.29198 10.4291 8.11345C10.306 7.9845 10.1681 7.87044 10.0301 7.7415C10.8872 7.02736 11.8133 6.62566 12.8969 6.54135C12.8969 6.74468 12.892 6.9133 12.8969 7.07696C12.9068 7.34476 13.0595 7.50345 13.2861 7.49849C13.5028 7.49353 13.6457 7.34476 13.6604 7.08687C13.6703 6.9133 13.6604 6.73972 13.6604 6.57111C14.2072 6.5116 15.0988 6.8042 15.8229 7.23069C16.0248 7.34972 16.2169 7.48362 16.3795 7.62248C16.4386 7.67207 16.4928 7.72166 16.542 7.77125C16.4878 7.81093 16.4287 7.84564 16.3795 7.88532C16.3598 7.9002 16.3401 7.91507 16.3204 7.92995C16.2514 7.98946 16.1874 8.05393 16.1283 8.12336C15.9559 8.31182 15.9509 8.52011 16.1036 8.6788C16.1874 8.76311 16.281 8.80278 16.3795 8.79783C16.4681 8.79287 16.5667 8.74823 16.6553 8.66392C16.7883 8.53994 16.9016 8.40108 17.0445 8.24735C17.1972 8.45564 17.3105 8.62921 17.4435 8.78791C17.5173 8.87717 17.6306 8.99124 17.7291 8.99124C17.8572 8.99124 18.0198 8.92677 18.1035 8.82758C18.2316 8.6788 18.1675 8.50027 18.0592 8.34653C17.5617 7.64727 17.0001 7.08191 16.3795 6.66038C16.1972 6.54135 16.015 6.42729 15.8229 6.33306C14.7983 5.80738 13.6161 5.64372 12.2911 5.85201C11.3749 5.99583 10.5473 6.36778 9.84788 6.89346C9.64592 7.0472 9.45382 7.21086 9.27649 7.38443C9.08438 7.57288 8.90705 7.77621 8.7445 7.98946C8.60658 8.17296 8.47851 8.36141 8.36029 8.55978C7.71501 9.65578 7.41946 10.9749 7.61157 12.3239C7.77412 13.4496 8.247 14.4613 8.93168 15.2697C9.10409 15.4681 9.28634 15.6615 9.47845 15.835C10.6754 16.9162 12.3009 17.4815 13.9905 17.2336C16.4189 16.8765 18.0148 15.4631 18.7783 13.1124C18.8818 12.8 18.9261 12.4727 19 12.1503V10.9502C18.936 10.6625 18.8818 10.3699 18.8128 10.0773Z" fill="#F06767"/>
<path d="M16.3745 6.12972C16.3745 5.17258 16.3745 4.21544 16.3696 3.2583C16.3647 2.26148 15.5322 1.42336 14.5471 1.40353C13.9461 1.38865 13.3403 1.39857 12.7393 1.39857H12.5275C12.5275 1.14564 12.5423 0.912558 12.5226 0.68939C12.4881 0.302566 12.1137 -0.0148275 11.7295 0.00500962C11.3108 0.0248467 10.9857 0.352159 10.9759 0.768739C10.971 0.977028 10.9759 1.18532 10.9759 1.38865H5.40482C5.40482 1.19524 5.40482 1.01174 5.40482 0.823291C5.39497 0.352159 5.06987 0.00500962 4.63147 5.03413e-05C4.18815 -0.00490894 3.84827 0.357118 3.84827 0.833209C3.84827 1.0167 3.84827 1.2002 3.84827 1.39857C3.23747 1.39857 2.65623 1.39857 2.07006 1.39857C1.91736 1.39857 1.75974 1.39361 1.61196 1.42336C0.636658 1.60686 0.00123145 2.37555 0.00123145 3.37236C0.00123145 5.68338 0.00123145 7.99937 0.00123145 10.3104C0.00123145 10.36 -0.00369434 10.4096 0.00615723 10.4592C0.0307862 10.6079 0.124376 10.6923 0.27215 10.6972C0.424849 10.7022 0.528291 10.6179 0.55292 10.4592C0.562771 10.3997 0.557845 10.3352 0.557845 10.2757C0.557845 8.53993 0.557845 6.80418 0.557845 5.06843V4.82543H0.804135C4.82358 4.82543 8.84795 4.82543 12.8674 4.82543C12.9364 4.82543 13.0053 4.83535 13.0693 4.82047C13.2171 4.79071 13.3107 4.70145 13.3107 4.53779C13.3058 4.37909 13.222 4.28487 13.0644 4.26503C12.9856 4.25511 12.9068 4.25511 12.8231 4.25511H0.557845C0.557845 3.93772 0.55292 3.65504 0.557845 3.37236C0.567697 2.55904 1.15879 1.96888 1.96662 1.96888C2.53309 1.96888 3.09955 1.96888 3.66602 1.96888H3.84827C3.84827 2.17221 3.84827 2.34579 3.84827 2.51936C3.84827 2.9905 4.1783 3.3426 4.61669 3.34756C5.06987 3.35252 5.39497 3.01033 5.40482 2.52928C5.40975 2.35075 5.40482 2.17221 5.40482 1.98872H10.9759C10.9759 2.18213 10.9759 2.36067 10.9759 2.54416C10.9808 3.01033 11.3158 3.35252 11.7591 3.35252C12.1975 3.34756 12.5275 3.00041 12.5275 2.52928C12.5275 2.34579 12.5275 2.1623 12.5275 1.97384C13.2171 1.97384 13.8722 1.95897 14.5323 1.9788C15.1579 1.99368 15.6948 2.46977 15.7785 3.09464C15.8278 3.47155 15.7884 3.85837 15.7884 4.26503H15.6061C15.1579 4.26503 14.7047 4.26007 14.2565 4.26503C14.0594 4.26999 13.9363 4.38405 13.9363 4.55267C13.9363 4.71633 14.0644 4.83535 14.2614 4.83535C14.5865 4.84031 14.9165 4.83535 15.2416 4.83535H15.813V5.852C16.0051 5.92143 16.1923 6.02062 16.3745 6.12972ZM4.84328 2.46977C4.84328 2.66318 4.76447 2.77229 4.62162 2.77229C4.4837 2.76733 4.40489 2.65822 4.40489 2.46481C4.40489 2.20693 4.40489 1.94409 4.40489 1.68621C4.40489 1.41344 4.40489 1.14068 4.40489 0.867924C4.40489 0.719146 4.43937 0.590205 4.62162 0.585245C4.76939 0.580286 4.84328 0.674512 4.84328 0.877843C4.84328 1.40353 4.84328 1.93913 4.84328 2.46977ZM11.9709 2.47969C11.9709 2.63343 11.9216 2.75245 11.7492 2.76733C11.6162 2.78221 11.5276 2.66318 11.5276 2.48465C11.5276 1.93913 11.5276 1.39361 11.5276 0.848087C11.5276 0.659634 11.6064 0.570367 11.7542 0.575327C11.9216 0.585245 11.966 0.699309 11.9709 0.843128C11.9758 1.12085 11.9709 1.39857 11.9709 1.67629C11.9709 1.94905 11.9709 2.21189 11.9709 2.47969Z" fill="#F06767"/>
<path d="M8.35983 15.2796C8.5076 15.478 8.66522 15.6664 8.83763 15.8449C8.01502 15.8449 7.19734 15.8449 6.37473 15.8449H5.76393V15.84C4.43397 15.84 3.10401 15.8549 1.77897 15.835C0.838146 15.8201 0.0155394 14.9523 0.00568781 14.01C-0.00416377 13.2215 0.000762022 12.4379 0.00568781 11.6494C0.00568781 11.4461 0.114055 11.332 0.286458 11.332C0.45886 11.332 0.557376 11.451 0.557376 11.6544C0.557376 12.3734 0.557376 13.0925 0.557376 13.8116C0.557376 14.7093 1.12877 15.2845 2.02034 15.2845H8.35983V15.2796Z" fill="#F06767"/>
<path d="M15.4779 13.2066C15.1381 12.8644 14.8031 12.5173 14.4583 12.185C14.3598 12.0908 14.3253 12.0114 14.3696 11.8676C14.5223 11.4064 14.3893 10.8609 13.9805 10.6278C13.6505 10.4393 13.6258 10.2013 13.6505 9.89383C13.6554 9.80952 13.6505 9.72521 13.6505 9.64586C13.6505 9.45245 13.6505 9.264 13.6505 9.07059C13.6455 8.75319 13.4928 8.55978 13.2564 8.5697C13.0249 8.57962 12.887 8.76311 12.8821 9.06563C12.8821 9.45741 12.8919 9.84919 12.8771 10.241C12.8722 10.3253 12.8032 10.4393 12.7343 10.484C12.1826 10.8163 11.9609 11.4213 12.1974 11.9817C12.4289 12.5322 13.015 12.8148 13.6111 12.6413C13.7588 12.5966 13.8377 12.6363 13.9312 12.7305C14.2662 13.0777 14.6061 13.4149 14.946 13.7571C15.1627 13.9753 15.3844 13.9952 15.5518 13.8216C15.7242 13.648 15.6947 13.4248 15.4779 13.2066ZM13.286 11.9222C13.0495 11.9271 12.8722 11.7585 12.8722 11.5254C12.8722 11.3023 13.0397 11.1237 13.2564 11.1138C13.4731 11.1039 13.6702 11.3023 13.6751 11.5205C13.6751 11.7387 13.5076 11.9123 13.286 11.9222Z" fill="#F06767"/>
<path d="M2.90221 11.5849C2.70025 11.5849 2.49829 11.5899 2.29141 11.5849C1.99586 11.58 1.77913 11.3618 1.7742 11.0642C1.76928 10.6575 1.76928 10.2459 1.7742 9.83926C1.77913 9.54171 1.99094 9.3235 2.28648 9.31854C2.70025 9.31358 3.10909 9.31358 3.52286 9.31854C3.80363 9.3235 4.01543 9.50203 4.02529 9.78471C4.04499 10.231 4.04499 10.6774 4.02529 11.1237C4.01543 11.4114 3.7987 11.5849 3.50808 11.5949C3.31105 11.5849 3.10909 11.5849 2.90221 11.5849ZM3.46375 11.0196C3.46375 10.6278 3.46375 10.2558 3.46375 9.8839C3.08446 9.8839 2.71995 9.8839 2.35052 9.8839C2.35052 10.2707 2.35052 10.6427 2.35052 11.0196C2.7298 11.0196 3.08939 11.0196 3.46375 11.0196Z" fill="#F06767"/>
<path d="M2.90293 14.5307C2.70097 14.5307 2.49901 14.5357 2.29213 14.5307C2.01136 14.5258 1.78478 14.3125 1.77985 14.0298C1.77 13.6083 1.77 13.1868 1.77985 12.7652C1.78478 12.4776 2.00151 12.2693 2.29213 12.2643C2.7059 12.2594 3.11474 12.2594 3.5285 12.2643C3.80927 12.2693 4.02108 12.4478 4.03093 12.7305C4.05064 13.1768 4.05064 13.6232 4.03093 14.0695C4.02108 14.3571 3.79942 14.5357 3.51373 14.5357C3.31177 14.5357 3.10489 14.5307 2.90293 14.5307ZM3.47432 12.8297C3.09011 12.8297 2.7256 12.8297 2.35124 12.8297C2.35124 13.2165 2.35124 13.5885 2.35124 13.9604C2.73053 13.9604 3.09996 13.9604 3.47432 13.9604C3.47432 13.5835 3.47432 13.2165 3.47432 12.8297Z" fill="#F06767"/>
<path d="M5.80888 14.5307C5.60693 14.5307 5.40497 14.5357 5.19808 14.5307C4.92224 14.5258 4.7055 14.3373 4.69565 14.0646C4.68088 13.6182 4.68088 13.1719 4.69565 12.7256C4.7055 12.4578 4.91239 12.2644 5.17838 12.2594C5.602 12.2495 6.02562 12.2495 6.45416 12.2594C6.73001 12.2644 6.94182 12.4776 6.94674 12.7603C6.95659 13.1818 6.95659 13.6034 6.94674 14.0249C6.94182 14.3125 6.72015 14.5258 6.43446 14.5307C6.22758 14.5357 6.01577 14.5307 5.80888 14.5307ZM5.25719 13.9604C5.63648 13.9604 6.01084 13.9604 6.37535 13.9604C6.37535 13.5736 6.37535 13.2017 6.37535 12.8297C5.99606 12.8297 5.63155 12.8297 5.25719 12.8297C5.25719 13.2066 5.25719 13.5786 5.25719 13.9604Z" fill="#F06767"/>
<path d="M5.82858 9.31358C6.03054 9.31358 6.2325 9.30862 6.43938 9.31358C6.72508 9.3235 6.94181 9.53179 6.94674 9.81943C6.95659 10.236 6.95166 10.6476 6.94674 11.0642C6.94181 11.3618 6.72508 11.58 6.42953 11.58C6.01576 11.5849 5.60692 11.5849 5.19316 11.58C4.91731 11.575 4.70058 11.3866 4.69565 11.1088C4.68088 10.6625 4.68088 10.2162 4.69565 9.76984C4.7055 9.50204 4.91731 9.31358 5.18331 9.30862C5.39511 9.30862 5.61185 9.31358 5.82858 9.31358ZM6.3852 9.8839C6.00099 9.8839 5.63155 9.8839 5.25719 9.8839C5.25719 10.2707 5.25719 10.6427 5.25719 11.0097C5.6414 11.0097 6.01084 11.0097 6.3852 11.0097C6.3852 10.6278 6.3852 10.2658 6.3852 9.8839Z" fill="#F06767"/>
<path d="M2.90221 8.56473C2.70025 8.56473 2.49829 8.56969 2.29141 8.56473C1.99586 8.55977 1.77913 8.34156 1.7742 8.044C1.76928 7.63734 1.76928 7.22572 1.7742 6.81906C1.77913 6.5215 1.99094 6.3033 2.28648 6.29834C2.70025 6.29338 3.10909 6.29338 3.52286 6.29834C3.80363 6.3033 4.01543 6.48183 4.02529 6.76451C4.04499 7.21084 4.04499 7.65718 4.02529 8.10351C4.01543 8.39115 3.7987 8.56473 3.50808 8.57465C3.31105 8.56473 3.10909 8.56473 2.90221 8.56473ZM3.46375 7.99937C3.46375 7.60759 3.46375 7.23564 3.46375 6.86369C3.08446 6.86369 2.71995 6.86369 2.35052 6.86369C2.35052 7.25052 2.35052 7.62246 2.35052 7.99937C2.7298 7.99937 3.08939 7.99937 3.46375 7.99937Z" fill="#F06767"/>
<path d="M9.17761 6.86368C9.34508 6.7149 9.52241 6.57108 9.70467 6.44214C9.61108 6.34791 9.47808 6.29832 9.32538 6.29336C8.91654 6.2884 8.51263 6.2884 8.10378 6.29336C7.80824 6.29832 7.58658 6.50661 7.57672 6.80417C7.56687 7.22075 7.56687 7.63732 7.57672 8.04894C7.58165 8.26219 7.69494 8.43081 7.86735 8.51016C7.96586 8.33162 8.0693 8.15805 8.1826 7.99439H8.14812V6.86368H9.17761Z" fill="#F06767"/>
<path d="M5.82858 6.29338C6.03054 6.29338 6.2325 6.28842 6.43938 6.29338C6.72508 6.3033 6.94181 6.51159 6.94674 6.79923C6.95659 7.21581 6.95166 7.62743 6.94674 8.04401C6.94181 8.34156 6.72508 8.55977 6.42953 8.55977C6.01576 8.56473 5.60692 8.56473 5.19316 8.55977C4.91731 8.55481 4.70058 8.36636 4.69565 8.08864C4.68088 7.64231 4.68088 7.19597 4.69565 6.74963C4.7055 6.48183 4.91731 6.29338 5.18331 6.28842C5.39511 6.28842 5.61185 6.29338 5.82858 6.29338ZM6.3852 6.8637C6.00099 6.8637 5.63155 6.8637 5.25719 6.8637C5.25719 7.25052 5.25719 7.62247 5.25719 7.98946C5.6414 7.98946 6.01084 7.98946 6.3852 7.98946C6.3852 7.61255 6.3852 7.24556 6.3852 6.8637Z" fill="#F06767"/>
</svg>
